<svg xmlns="http://www.w3.org/2000/svg" viewBox="0 0 500 500" enable-background="new 0 0 500 500"><circle fill="#F2CB2E" cx="258.5" cy="253.8" r="192.2"/><path d="M200.1 283.4l-15 49.3h-32.8l55.7-173.8h40.5l56.5 173.8h-34l-15.7-49.3h-55.2zm49.8-24l-13.7-42.8c-3.3-10.6-6.2-22.4-8.8-32.5h-.4c-2.6 10.1-5.2 22.2-8.3 32.5l-13.4 42.8h44.6z" opacity=".1"/><path fill="#fff" d="M200.1 282.1l-15 49.3h-32.8l55.7-173.8h40.5l56.5 173.8h-34l-15.7-49.3h-55.2zm49.8-24l-13.7-42.8c-3.3-10.6-6.2-22.4-8.8-32.5h-.4c-2.6 10.1-5.2 22.2-8.3 32.5l-13.4 42.8h44.6z"/><path d="M351.2 172c0 9.5-7 17-18.1 17-10.6 0-17.5-7.5-17.5-17 0-9.8 7.2-17.3 17.8-17.3 10.9 0 17.6 7.5 17.8 17.3zm-33.7 160.7v-125.6h32v125.6h-32z" opacity=".1"/><path fill="#fff" d="M351.2 170.7c0 9.5-7 17-18.1 17-10.6 0-17.5-7.5-17.5-17 0-9.8 7.2-17.3 17.8-17.3 10.9 0 17.6 7.5 17.8 17.3zm-33.7 160.6v-125.5h32v125.6h-32z"/></svg>