<?xml version="1.0" encoding="utf-8"?>
<!-- Generator: Adobe Illustrator 19.1.0, SVG Export Plug-In . SVG Version: 6.00 Build 0)  -->
<!DOCTYPE svg PUBLIC "-//W3C//DTD SVG 1.1//EN" "http://www.w3.org/Graphics/SVG/1.1/DTD/svg11.dtd">
<svg version="1.1" id="Layer_1" xmlns="http://www.w3.org/2000/svg" xmlns:xlink="http://www.w3.org/1999/xlink" x="0px" y="0px"
	 viewBox="0 0 500 500" enable-background="new 0 0 500 500" xml:space="preserve">
<circle fill="#F2CB2E" cx="258.5" cy="253.8" r="192.2"/>
<g>
	<g>
		<g opacity="0.1">
			<path d="M200.1,283.4l-15,49.3h-32.8l55.7-173.8h40.5l56.5,173.8h-34l-15.7-49.3H200.1z M249.9,259.4l-13.7-42.8
				c-3.3-10.6-6.2-22.4-8.8-32.5H227c-2.6,10.1-5.2,22.2-8.3,32.5l-13.4,42.8H249.9z"/>
		</g>
		<g>
			<path fill="#FFFFFF" d="M200.1,282.1l-15,49.3h-32.8l55.7-173.8h40.5l56.5,173.8h-34l-15.7-49.3H200.1z M249.9,258.1l-13.7-42.8
				c-3.3-10.6-6.2-22.4-8.8-32.5H227c-2.6,10.1-5.2,22.2-8.3,32.5l-13.4,42.8H249.9z"/>
		</g>
	</g>
	<g>
		<g opacity="0.1">
			<path d="M351.2,172c0,9.5-7,17-18.1,17c-10.6,0-17.5-7.5-17.5-17c0-9.8,7.2-17.3,17.8-17.3C344.3,154.7,351,162.2,351.2,172z
				 M317.5,332.7V207.1h32v125.6H317.5z"/>
		</g>
		<g>
			<path fill="#FFFFFF" d="M351.2,170.7c0,9.5-7,17-18.1,17c-10.6,0-17.5-7.5-17.5-17c0-9.8,7.2-17.3,17.8-17.3
				C344.3,153.4,351,160.9,351.2,170.7z M317.5,331.3V205.8h32v125.6H317.5z"/>
		</g>
	</g>
</g>
</svg>
