<?xml version="1.0" encoding="utf-8"?>
<!-- Generator: Adobe Illustrator 19.1.0, SVG Export Plug-In . SVG Version: 6.00 Build 0)  -->
<!DOCTYPE svg PUBLIC "-//W3C//DTD SVG 1.1//EN" "http://www.w3.org/Graphics/SVG/1.1/DTD/svg11.dtd">
<svg version="1.1" id="Layer_1" xmlns="http://www.w3.org/2000/svg" xmlns:xlink="http://www.w3.org/1999/xlink" x="0px" y="0px"
	 viewBox="-299 101 360 360" enable-background="new -299 101 360 360" xml:space="preserve">
<circle fill="#AAAAAA" cx="-110" cy="281" r="144"/>
<path fill="#FFFFFF" d="M-35.2,312.4c-4.4,7.8-11.7,9.2-19.7,8.9c-11.4-0.6-19.5-10-18.6-22h63.9c-0.3-5.8-0.3-11.1-0.8-16.7
	c-1.4-11.7-6.4-21.4-15.8-28.1c-9.2-6.4-19.5-8.3-30.9-7.5c-16.1,0.8-28.6,8.3-35.6,23.6c-4.2,10-5,20.3-3.9,31.1
	c0.8,8.1,3.1,15.6,8.1,22.2c15.3,18.9,50.3,21.4,67.5,4.4c4.7-4.7,8.9-10,10-17.2h-22C-34.1,311-34.9,311.8-35.2,312.4z
	 M-53.5,265.4c11.4,0.3,19.7,8.3,18.9,18.3h-38.9C-73.3,273.2-64.7,265.1-53.5,265.4z M-122.2,273.2c3.1-2.2,5.8-4.2,8.3-6.7
	c9.7-11.4,7.2-32-4.7-41.1c-6.7-5.3-14.5-7.2-22.8-7.2c-19.2-0.3-38.6,0-58.1-0.3c-0.6,0-1.4,0.3-1.9,0.3v118.7h3.9
	c15,0,30,0.3,45,0c6.4,0,12.2-0.6,18.3-1.1c15.3-1.9,27-12.8,29.5-28.4C-102.7,295.2-105.5,280.1-122.2,273.2z M-178.1,238.4h12.5
	c7.8,0.3,15.3,0,22.5,0.8c8.9,0.8,11.1,4.4,11.1,12.5c0,7.5-3.6,12-11.7,12.5c-11.4,0.6-23.1,0.3-34.7,0.3v-26.1L-178.1,238.4
	L-178.1,238.4z M-141.9,315.7c-8.1,0.6-16.1,0.3-24.5,0.6h-11.7v-31.4c0.8-0.3,1.4-0.3,1.9-0.3c10,0,20,0,30,0.3
	c1.7,0,3.3,0.3,4.7,0.6c8.6,1.4,12.2,6.4,12.2,15.3C-129.4,309-133.9,315.2-141.9,315.7z M-81.1,225.1v11.4h51.4v-11.4H-81.1z"/>
</svg>
