<svg xmlns="http://www.w3.org/2000/svg" viewBox="-299 101 360 360" enable-background="new -299 101 360 360"><circle fill="#aaa" cx="-110" cy="281" r="144"/><path fill="#fff" d="M-35.2 312.4c-4.4 7.8-11.7 9.2-19.7 8.9-11.4-.6-19.5-10-18.6-22h63.9c-.3-5.8-.3-11.1-.8-16.7-1.4-11.7-6.4-21.4-15.8-28.1-9.2-6.4-19.5-8.3-30.9-7.5-16.1.8-28.6 8.3-35.6 23.6-4.2 10-5 20.3-3.9 31.1.8 8.1 3.1 15.6 8.1 22.2 15.3 18.9 50.3 21.4 67.5 4.4 4.7-4.7 8.9-10 10-17.2h-22c-1.1-.1-1.9.7-2.2 1.3zm-18.3-47c11.4.3 19.7 8.3 18.9 18.3h-38.9c.2-10.5 8.8-18.6 20-18.3zm-68.7 7.8c3.1-2.2 5.8-4.2 8.3-6.7 9.7-11.4 7.2-32-4.7-41.1-6.7-5.3-14.5-7.2-22.8-7.2l-58.1-.3c-.6 0-1.4.3-1.9.3v118.7h3.9c15 0 30 .3 45 0 6.4 0 12.2-.6 18.3-1.1 15.3-1.9 27-12.8 29.5-28.4 2-12.2-.8-27.3-17.5-34.2zm-55.9-34.8h12.5c7.8.3 15.3 0 22.5.8 8.9.8 11.1 4.4 11.1 12.5 0 7.5-3.6 12-11.7 12.5-11.4.6-23.1.3-34.7.3v-26.1h.3zm36.2 77.3c-8.1.6-16.1.3-24.5.6h-11.7v-31.4c.8-.3 1.4-.3 1.9-.3 10 0 20 0 30 .3 1.7 0 3.3.3 4.7.6 8.6 1.4 12.2 6.4 12.2 15.3-.1 8.2-4.6 14.4-12.6 14.9zm60.8-90.6v11.4h51.4v-11.4h-51.4z"/></svg>