<?xml version="1.0" encoding="utf-8"?>
<!-- Generator: Adobe Illustrator 19.1.0, SVG Export Plug-In . SVG Version: 6.00 Build 0)  -->
<!DOCTYPE svg PUBLIC "-//W3C//DTD SVG 1.1//EN" "http://www.w3.org/Graphics/SVG/1.1/DTD/svg11.dtd">
<svg version="1.1" id="Layer_1" xmlns="http://www.w3.org/2000/svg" xmlns:xlink="http://www.w3.org/1999/xlink" x="0px" y="0px"
	 viewBox="0 0 500 500" enable-background="new 0 0 500 500" xml:space="preserve">
<circle fill="#E52656" cx="254.5" cy="251.8" r="192.2"/>
<g>
	<g>
		<g opacity="0.1">
			<path d="M200.2,158.3v173.8h-31.7V158.3H200.2z"/>
		</g>
		<g>
			<g>
				<path fill="#FFFFFF" d="M200.2,157v173.8h-31.7V157H200.2z"/>
			</g>
		</g>
	</g>
	<g>
		<g opacity="0.1">
			<path d="M338.3,149v147.8c0,12.9,0.5,26.8,0.9,35.3h-26l-1.2-19.9h-0.5c-6.9,13.9-20.8,22.7-37.5,22.7
				c-27.4,0-49.1-25.5-49.1-64.2c-0.2-42,23.8-67,51.5-67c15.8,0,27.1,7.2,32.3,16.5h0.5V149H338.3z M309.3,258.9
				c0-2.6-0.2-5.7-0.7-8.3c-2.6-12.4-11.8-22.4-25-22.4c-18.7,0-29,18-29,41.5c0,22.9,10.4,39.7,28.8,39.7c11.8,0,22.2-8.8,25-22.4
				c0.7-2.8,0.9-5.9,0.9-9.3V258.9z"/>
		</g>
		<g>
			<path fill="#FFFFFF" d="M338.3,147.7v147.8c0,12.9,0.5,26.8,0.9,35.3h-26l-1.2-19.9h-0.5c-6.9,13.9-20.8,22.7-37.5,22.7
				c-27.4,0-49.1-25.5-49.1-64.2c-0.2-42,23.8-67,51.5-67c15.8,0,27.1,7.2,32.3,16.5h0.5v-71.2H338.3z M309.3,257.6
				c0-2.6-0.2-5.7-0.7-8.3c-2.6-12.4-11.8-22.4-25-22.4c-18.7,0-29,18-29,41.5c0,22.9,10.4,39.7,28.8,39.7c11.8,0,22.2-8.8,25-22.4
				c0.7-2.8,0.9-5.9,0.9-9.3V257.6z"/>
		</g>
	</g>
</g>
</svg>
