<svg xmlns="http://www.w3.org/2000/svg" viewBox="0 0 500 500" enable-background="new 0 0 500 500"><circle fill="#E52656" cx="254.5" cy="251.8" r="192.2"/><path d="M200.2 158.3v173.8h-31.7v-173.8h31.7z" opacity=".1"/><path fill="#fff" d="M200.2 157v173.8h-31.7v-173.8h31.7z"/><path d="M338.3 149v147.8c0 12.9.5 26.8.9 35.3h-26l-1.2-19.9h-.5c-6.9 13.9-20.8 22.7-37.5 22.7-27.4 0-49.1-25.5-49.1-64.2-.2-42 23.8-67 51.5-67 15.8 0 27.1 7.2 32.3 16.5h.5v-71.2h29.1zm-29 109.9c0-2.6-.2-5.7-.7-8.3-2.6-12.4-11.8-22.4-25-22.4-18.7 0-29 18-29 41.5 0 22.9 10.4 39.7 28.8 39.7 11.8 0 22.2-8.8 25-22.4.7-2.8.9-5.9.9-9.3v-18.8z" opacity=".1"/><path fill="#fff" d="M338.3 147.7v147.8c0 12.9.5 26.8.9 35.3h-26l-1.2-19.9h-.5c-6.9 13.9-20.8 22.7-37.5 22.7-27.4 0-49.1-25.5-49.1-64.2-.2-42 23.8-67 51.5-67 15.8 0 27.1 7.2 32.3 16.5h.5v-71.2h29.1zm-29 109.9c0-2.6-.2-5.7-.7-8.3-2.6-12.4-11.8-22.4-25-22.4-18.7 0-29 18-29 41.5 0 22.9 10.4 39.7 28.8 39.7 11.8 0 22.2-8.8 25-22.4.7-2.8.9-5.9.9-9.3v-18.8z"/></svg>