<?xml version="1.0" encoding="utf-8"?>
<!-- Generator: Adobe Illustrator 19.1.0, SVG Export Plug-In . SVG Version: 6.00 Build 0)  -->
<!DOCTYPE svg PUBLIC "-//W3C//DTD SVG 1.1//EN" "http://www.w3.org/Graphics/SVG/1.1/DTD/svg11.dtd">
<svg version="1.1" id="Layer_1" xmlns="http://www.w3.org/2000/svg" xmlns:xlink="http://www.w3.org/1999/xlink" x="0px" y="0px"
	 viewBox="0 0 500 500" enable-background="new 0 0 500 500" xml:space="preserve">
<circle fill="#E52656" cx="247.5" cy="267.8" r="192.2"/>
<g>
	<path fill="#FFFFFF" d="M197.2,201.7c10.7,0,19.6-8.4,19.6-19.3c0-11-8.9-19.3-19.6-19.3c-10.7,0-19.6,8.4-19.6,19.3
		C177.6,193.3,186.5,201.7,197.2,201.7"/>
	<path fill="#FFFFFF" d="M156.5,305.1c-1.2,4.9-1.7,10.2-1.7,14.5c0,17,9.2,28.3,28.8,28.3c16.3,0,29.4-9.7,38.9-25.2l-5.8,23.3
		h32.3l18.5-74c4.6-18.7,13.6-28.5,27.1-28.5c10.7,0,17.3,6.6,17.3,17.6c0,3.2-0.3,6.6-1.4,10.4l-9.5,34c-1.4,4.9-2,9.8-2,14.4
		c0,16.2,9.5,28,29.4,28c17,0,30.6-11,38.1-37.2l-12.7-4.9c-6.3,17.6-11.8,20.8-16.1,20.8c-4.3,0-6.6-2.9-6.6-8.6
		c0-2.6,0.6-5.5,1.4-8.9l9.2-33.1c2.3-7.8,3.2-14.7,3.2-21c0-24.8-15-37.7-33.2-37.7c-17,0-34.3,15.3-43,31.5l6.3-29h-49.3
		l-6.9,25.5h23.1l-14.2,56.9c-11.2,24.8-31.6,25.2-34.2,24.6c-4.2-1-6.9-2.6-6.9-8c0-3.2,0.6-7.7,2-13.2l21.6-85.8h-54.8l-6.9,25.5
		h22.8L156.5,305.1"/>
</g>
</svg>
