<?xml version="1.0" encoding="utf-8"?>
<!-- Generator: Adobe Illustrator 19.1.0, SVG Export Plug-In . SVG Version: 6.00 Build 0)  -->
<!DOCTYPE svg PUBLIC "-//W3C//DTD SVG 1.1//EN" "http://www.w3.org/Graphics/SVG/1.1/DTD/svg11.dtd">
<svg version="1.1" id="Layer_1" xmlns="http://www.w3.org/2000/svg" xmlns:xlink="http://www.w3.org/1999/xlink" x="0px" y="0px"
	 viewBox="0 229.6 789.8 154.4" style="enable-background:new 0 229.6 789.8 154.4;" xml:space="preserve">
<style type="text/css">
	.st0{fill:#FFFFFF;}
</style>
<g>
	<path class="st0" d="M345.3,286.5c-0.6-1.9-1-3.4-1.2-4.5c-1,3.9-3.9,13.6-8.7,29.1h17.5C348.4,296.6,345.9,288.4,345.3,286.5z
		 M345.3,286.5c-0.6-1.9-1-3.4-1.2-4.5c-1,3.9-3.9,13.6-8.7,29.1h17.5C348.4,296.6,345.9,288.4,345.3,286.5z M345.3,286.5
		c-0.6-1.9-1-3.4-1.2-4.5c-1,3.9-3.9,13.6-8.7,29.1h17.5C348.4,296.6,345.9,288.4,345.3,286.5z M498.7,285.9
		c-1.8-1.6-4.7-2.4-8.6-2.4h-6.5v19.9h4.7c4.4,0,7.7-0.9,9.8-2.6c2.2-1.7,3.3-4.2,3.3-7.6C501.5,290,500.5,287.5,498.7,285.9z
		 M546.7,286.5c-0.6-1.9-1-3.4-1.2-4.5c-1,3.9-3.9,13.6-8.7,29.1h17.5C549.8,296.6,547.3,288.4,546.7,286.5z M546.7,286.5
		c-0.6-1.9-1-3.4-1.2-4.5c-1,3.9-3.9,13.6-8.7,29.1h17.5C549.8,296.6,547.3,288.4,546.7,286.5z M498.7,285.9
		c-1.8-1.6-4.7-2.4-8.6-2.4h-6.5v19.9h4.7c4.4,0,7.7-0.9,9.8-2.6c2.2-1.7,3.3-4.2,3.3-7.6C501.5,290,500.5,287.5,498.7,285.9z
		 M345.3,286.5c-0.6-1.9-1-3.4-1.2-4.5c-1,3.9-3.9,13.6-8.7,29.1h17.5C348.4,296.6,345.9,288.4,345.3,286.5z M345.3,286.5
		c-0.6-1.9-1-3.4-1.2-4.5c-1,3.9-3.9,13.6-8.7,29.1h17.5C348.4,296.6,345.9,288.4,345.3,286.5z M498.7,285.9
		c-1.8-1.6-4.7-2.4-8.6-2.4h-6.5v19.9h4.7c4.4,0,7.7-0.9,9.8-2.6c2.2-1.7,3.3-4.2,3.3-7.6C501.5,290,500.5,287.5,498.7,285.9z
		 M546.7,286.5c-0.6-1.9-1-3.4-1.2-4.5c-1,3.9-3.9,13.6-8.7,29.1h17.5C549.8,296.6,547.3,288.4,546.7,286.5z M546.7,286.5
		c-0.6-1.9-1-3.4-1.2-4.5c-1,3.9-3.9,13.6-8.7,29.1h17.5C549.8,296.6,547.3,288.4,546.7,286.5z M498.7,285.9
		c-1.8-1.6-4.7-2.4-8.6-2.4h-6.5v19.9h4.7c4.4,0,7.7-0.9,9.8-2.6c2.2-1.7,3.3-4.2,3.3-7.6C501.5,290,500.5,287.5,498.7,285.9z
		 M345.3,286.5c-0.6-1.9-1-3.4-1.2-4.5c-1,3.9-3.9,13.6-8.7,29.1h17.5C348.4,296.6,345.9,288.4,345.3,286.5z M14.1,243.8v126h759
		v-126H14.1z M58.6,339H44.3v-67.1h14.2V339z M117.4,339h-50v-9.2l32.2-46.2H68.3v-11.8h48.2v9.2l-32.2,46.2h33V339z M174.7,339h-50
		v-9.2l32.2-46.2h-31.3v-11.8h48.2v9.2l-32.2,46.2h33V339z M221.7,283.5h-24.4v14.7H220v11.7h-22.7v17.3h24.4V339H183v-67.1h38.7
		V283.5z M288.7,328.1c4.7,0,10.4-1.2,17.1-3.5v11.9c-5.5,2.3-11.7,3.4-18.5,3.4c-9.8,0-17.2-3-22.4-8.9c-5.2-5.9-7.8-14.4-7.8-25.5
		c0-7,1.3-13.1,3.8-18.3c2.6-5.2,6.2-9.3,11-12.1s10.3-4.2,16.7-4.2c6.5,0,13.1,1.6,19.7,4.7l-4.6,11.6c-2.5-1.2-5-2.2-7.6-3.1
		c-2.5-0.9-5-1.3-7.5-1.3c-5.4,0-9.5,2-12.5,6c-2.9,4-4.4,9.6-4.4,16.8C271.8,320.6,277.4,328.1,288.7,328.1z M361.2,339l-4.9-16
		h-24.5l-4.9,16h-15.3l23.7-67.4h17.4l23.8,67.4H361.2z M456.8,339h-13.3v-31.8c0-1.5,0-3.2,0.1-5.2c0-2,0.3-7.2,0.6-15.6h-0.4
		L426.5,339h-13l-16.2-52.7h-0.4c0.6,10.7,0.9,17.9,0.9,21.5V339H385v-67.1h19.4l15.9,51.3h0.3l16.9-51.3h19.4V339z M509.1,309.4
		c-4.5,3.8-10.9,5.7-19.3,5.7h-6.1V339h-14.2v-67.1h21.5c8.1,0,14.3,1.8,18.6,5.3c4.2,3.5,6.4,8.7,6.4,15.7
		C515.8,300,513.6,305.6,509.1,309.4z M562.6,339l-4.9-16h-24.5l-4.9,16H513l23.7-67.4h17.4l23.8,67.4H562.6z M600.6,339h-14.2
		v-67.1h14.2V339z M665.9,336.1c-4.3,1.4-8.4,2.4-12.2,3c-3.8,0.6-7.7,0.9-11.7,0.9c-10.1,0-17.9-3-23.2-8.9c-5.3-6-8-14.5-8-25.7
		c0-10.8,3.1-19.3,9.3-25.4c6.2-6.1,14.8-9.1,25.8-9.1c6.9,0,13.5,1.4,19.9,4.1l-4.7,11.4c-4.9-2.5-10-3.7-15.3-3.7
		c-6.2,0-11.1,2.1-14.8,6.2c-3.7,4.1-5.6,9.7-5.6,16.7c0,7.3,1.5,12.9,4.5,16.7c3,3.8,7.3,5.8,13,5.8c3,0,6-0.3,9.1-0.9v-14h-12.7
		v-11.9h26.7V336.1z M738.1,339H720l-29.2-50.8h-0.4c0.6,9,0.9,15.4,0.9,19.2V339h-12.7v-67.1h18l29.2,50.3h0.3
		c-0.5-8.7-0.7-14.9-0.7-18.5v-31.8h12.8V339z M545.5,282c-1,3.9-3.9,13.6-8.7,29.1h17.5c-4.5-14.5-7-22.7-7.6-24.6
		C546.1,284.6,545.7,283.1,545.5,282z M498.7,285.9c-1.8-1.6-4.7-2.4-8.6-2.4h-6.5v19.9h4.7c4.4,0,7.7-0.9,9.8-2.6
		c2.2-1.7,3.3-4.2,3.3-7.6C501.5,290,500.5,287.5,498.7,285.9z M344.1,282c-1,3.9-3.9,13.6-8.7,29.1h17.5c-4.5-14.5-7-22.7-7.6-24.6
		C344.8,284.6,344.3,283.1,344.1,282z M345.3,286.5c-0.6-1.9-1-3.4-1.2-4.5c-1,3.9-3.9,13.6-8.7,29.1h17.5
		C348.4,296.6,345.9,288.4,345.3,286.5z M498.7,285.9c-1.8-1.6-4.7-2.4-8.6-2.4h-6.5v19.9h4.7c4.4,0,7.7-0.9,9.8-2.6
		c2.2-1.7,3.3-4.2,3.3-7.6C501.5,290,500.5,287.5,498.7,285.9z M546.7,286.5c-0.6-1.9-1-3.4-1.2-4.5c-1,3.9-3.9,13.6-8.7,29.1h17.5
		C549.8,296.6,547.3,288.4,546.7,286.5z M546.7,286.5c-0.6-1.9-1-3.4-1.2-4.5c-1,3.9-3.9,13.6-8.7,29.1h17.5
		C549.8,296.6,547.3,288.4,546.7,286.5z M498.7,285.9c-1.8-1.6-4.7-2.4-8.6-2.4h-6.5v19.9h4.7c4.4,0,7.7-0.9,9.8-2.6
		c2.2-1.7,3.3-4.2,3.3-7.6C501.5,290,500.5,287.5,498.7,285.9z M345.3,286.5c-0.6-1.9-1-3.4-1.2-4.5c-1,3.9-3.9,13.6-8.7,29.1h17.5
		C348.4,296.6,345.9,288.4,345.3,286.5z M345.3,286.5c-0.6-1.9-1-3.4-1.2-4.5c-1,3.9-3.9,13.6-8.7,29.1h17.5
		C348.4,296.6,345.9,288.4,345.3,286.5z M498.7,285.9c-1.8-1.6-4.7-2.4-8.6-2.4h-6.5v19.9h4.7c4.4,0,7.7-0.9,9.8-2.6
		c2.2-1.7,3.3-4.2,3.3-7.6C501.5,290,500.5,287.5,498.7,285.9z M498.7,285.9c-1.8-1.6-4.7-2.4-8.6-2.4h-6.5v19.9h4.7
		c4.4,0,7.7-0.9,9.8-2.6c2.2-1.7,3.3-4.2,3.3-7.6C501.5,290,500.5,287.5,498.7,285.9z M345.3,286.5c-0.6-1.9-1-3.4-1.2-4.5
		c-1,3.9-3.9,13.6-8.7,29.1h17.5C348.4,296.6,345.9,288.4,345.3,286.5z M345.3,286.5c-0.6-1.9-1-3.4-1.2-4.5
		c-1,3.9-3.9,13.6-8.7,29.1h17.5C348.4,296.6,345.9,288.4,345.3,286.5z M345.3,286.5c-0.6-1.9-1-3.4-1.2-4.5
		c-1,3.9-3.9,13.6-8.7,29.1h17.5C348.4,296.6,345.9,288.4,345.3,286.5z"/>
</g>
</svg>
