<?xml version="1.0" encoding="utf-8"?>
<!-- Generator: Adobe Illustrator 19.1.0, SVG Export Plug-In . SVG Version: 6.00 Build 0)  -->
<!DOCTYPE svg PUBLIC "-//W3C//DTD SVG 1.1//EN" "http://www.w3.org/Graphics/SVG/1.1/DTD/svg11.dtd">
<svg version="1.1" id="Layer_1" xmlns="http://www.w3.org/2000/svg" xmlns:xlink="http://www.w3.org/1999/xlink" x="0px" y="0px"
	 viewBox="0 229.6 789.8 154.4" style="enable-background:new 0 229.6 789.8 154.4;" xml:space="preserve">
<style type="text/css">
	.st0{fill:#FFFFFF;}
</style>
<path class="st0" d="M133.5,287.5c-0.6-2.1-1.1-3.8-1.3-5c-1.1,4.3-4.3,15-9.6,32.1h19.4C136.9,298.7,134.1,289.6,133.5,287.5z
	 M133.5,287.5c-0.6-2.1-1.1-3.8-1.3-5c-1.1,4.3-4.3,15-9.6,32.1h19.4C136.9,298.7,134.1,289.6,133.5,287.5z M133.5,287.5
	c-0.6-2.1-1.1-3.8-1.3-5c-1.1,4.3-4.3,15-9.6,32.1h19.4C136.9,298.7,134.1,289.6,133.5,287.5z M133.5,287.5c-0.6-2.1-1.1-3.8-1.3-5
	c-1.1,4.3-4.3,15-9.6,32.1h19.4C136.9,298.7,134.1,289.6,133.5,287.5z M133.5,287.5c-0.6-2.1-1.1-3.8-1.3-5
	c-1.1,4.3-4.3,15-9.6,32.1h19.4C136.9,298.7,134.1,289.6,133.5,287.5z M528.1,286.9c-2-1.8-5.2-2.7-9.5-2.7h-7.2v22h5.2
	c4.9,0,8.5-1,10.9-2.9c2.4-1.9,3.6-4.7,3.6-8.4C531.2,291.3,530.1,288.6,528.1,286.9z M528.1,286.9c-2-1.8-5.2-2.7-9.5-2.7h-7.2v22
	h5.2c4.9,0,8.5-1,10.9-2.9c2.4-1.9,3.6-4.7,3.6-8.4C531.2,291.3,530.1,288.6,528.1,286.9z M133.5,287.5c-0.6-2.1-1.1-3.8-1.3-5
	c-1.1,4.3-4.3,15-9.6,32.1h19.4C136.9,298.7,134.1,289.6,133.5,287.5z M133.5,287.5c-0.6-2.1-1.1-3.8-1.3-5
	c-1.1,4.3-4.3,15-9.6,32.1h19.4C136.9,298.7,134.1,289.6,133.5,287.5z M528.1,286.9c-2-1.8-5.2-2.7-9.5-2.7h-7.2v22h5.2
	c4.9,0,8.5-1,10.9-2.9c2.4-1.9,3.6-4.7,3.6-8.4C531.2,291.3,530.1,288.6,528.1,286.9z M582.7,287.5c-0.6-2.1-1.1-3.8-1.3-5
	c-1.1,4.3-4.3,15-9.6,32.1h19.4C586.2,298.7,583.4,289.6,582.7,287.5z M582.7,287.5c-0.6-2.1-1.1-3.8-1.3-5
	c-1.1,4.3-4.3,15-9.6,32.1h19.4C586.2,298.7,583.4,289.6,582.7,287.5z M528.1,286.9c-2-1.8-5.2-2.7-9.5-2.7h-7.2v22h5.2
	c4.9,0,8.5-1,10.9-2.9c2.4-1.9,3.6-4.7,3.6-8.4C531.2,291.3,530.1,288.6,528.1,286.9z M133.5,287.5c-0.6-2.1-1.1-3.8-1.3-5
	c-1.1,4.3-4.3,15-9.6,32.1h19.4C136.9,298.7,134.1,289.6,133.5,287.5z M14.1,244.1v126h759v-126H14.1z M91.1,345.6H45.2v-74.3H61
	v61.3h30.1V345.6z M151,345.6l-5.4-17.7h-27.1l-5.4,17.7h-17l26.2-74.6h19.2l26.3,74.6H151z M233.1,319.4c0,5.5-1.2,10.3-3.7,14.4
	c-2.5,4.1-6,7.3-10.6,9.5c-4.6,2.2-10.1,3.3-16.5,3.3c-9.5,0-17-2.5-22.2-7.3c-5.3-4.9-7.9-11.6-7.9-20.1v-47.8h15.7v45.5
	c0,5.7,1.2,9.9,3.5,12.6c2.3,2.7,6.1,4,11.4,4c5.1,0,8.9-1.3,11.2-4c2.3-2.7,3.5-6.9,3.5-12.7v-45.4h15.7V319.4z M312,345.6h-20
	l-32.3-56.2h-0.5c0.6,9.9,1,17,1,21.2v34.9h-14.1v-74.3h19.9l32.3,55.6h0.3c-0.5-9.7-0.8-16.5-0.8-20.5v-35.1H312V345.6z M356,333.5
	c5.2,0,11.5-1.3,19-3.9v13.2c-6.1,2.5-12.9,3.8-20.4,3.8c-10.8,0-19.1-3.3-24.8-9.8c-5.7-6.5-8.6-16-8.6-28.2
	c0-7.7,1.4-14.5,4.2-20.3c2.8-5.8,6.8-10.3,12.1-13.4c5.3-3.1,11.4-4.6,18.5-4.6c7.2,0,14.5,1.7,21.7,5.2l-5.1,12.8
	c-2.8-1.3-5.6-2.5-8.4-3.5c-2.8-1-5.6-1.5-8.3-1.5c-5.9,0-10.5,2.2-13.8,6.7s-4.9,10.7-4.9,18.6C337.3,325.2,343.5,333.5,356,333.5z
	 M450.5,345.6h-15.7v-32h-29.4v32h-15.7v-74.3h15.7v29.1h29.4v-29.1h15.7V345.6z M539.6,312.8c-5,4.2-12.1,6.3-21.3,6.3h-6.8v26.4
	h-15.7v-74.3h23.7c9,0,15.9,1.9,20.5,5.8s7,9.7,7,17.3C547,302.5,544.5,308.6,539.6,312.8z M600.3,345.6l-5.4-17.7h-27.1l-5.4,17.7
	h-17l26.2-74.6h19.2l26.3,74.6H600.3z M681.1,342.4c-4.8,1.6-9.3,2.6-13.5,3.3c-4.2,0.6-8.5,0.9-12.9,0.9c-11.2,0-19.8-3.3-25.7-9.9
	c-5.9-6.6-8.9-16-8.9-28.4c0-12,3.4-21.3,10.3-28c6.9-6.7,16.4-10.1,28.5-10.1c7.6,0,15,1.5,22,4.6l-5.2,12.6
	c-5.4-2.7-11.1-4.1-16.9-4.1c-6.8,0-12.3,2.3-16.4,6.9c-4.1,4.6-6.1,10.7-6.1,18.4c0,8,1.7,14.2,5,18.5s8.1,6.4,14.4,6.4
	c3.3,0,6.6-0.3,10-1V317h-14.1v-13.1h29.5V342.4z M738.5,284.2h-27v16.3h25.2v12.9h-25.2v19.1h27v13h-42.8v-74.3h42.8V284.2z
	 M581.4,282.5c-1.1,4.3-4.3,15-9.6,32.1h19.4c-5-16-7.8-25.1-8.4-27.2C582.1,285.4,581.7,283.8,581.4,282.5z M528.1,286.9
	c-2-1.8-5.2-2.7-9.5-2.7h-7.2v22h5.2c4.9,0,8.5-1,10.9-2.9c2.4-1.9,3.6-4.7,3.6-8.4C531.2,291.3,530.1,288.6,528.1,286.9z
	 M132.1,282.5c-1.1,4.3-4.3,15-9.6,32.1h19.4c-5-16-7.8-25.1-8.4-27.2C132.8,285.4,132.4,283.8,132.1,282.5z M133.5,287.5
	c-0.6-2.1-1.1-3.8-1.3-5c-1.1,4.3-4.3,15-9.6,32.1h19.4C136.9,298.7,134.1,289.6,133.5,287.5z M528.1,286.9c-2-1.8-5.2-2.7-9.5-2.7
	h-7.2v22h5.2c4.9,0,8.5-1,10.9-2.9c2.4-1.9,3.6-4.7,3.6-8.4C531.2,291.3,530.1,288.6,528.1,286.9z M582.7,287.5
	c-0.6-2.1-1.1-3.8-1.3-5c-1.1,4.3-4.3,15-9.6,32.1h19.4C586.2,298.7,583.4,289.6,582.7,287.5z M582.7,287.5c-0.6-2.1-1.1-3.8-1.3-5
	c-1.1,4.3-4.3,15-9.6,32.1h19.4C586.2,298.7,583.4,289.6,582.7,287.5z M528.1,286.9c-2-1.8-5.2-2.7-9.5-2.7h-7.2v22h5.2
	c4.9,0,8.5-1,10.9-2.9c2.4-1.9,3.6-4.7,3.6-8.4C531.2,291.3,530.1,288.6,528.1,286.9z M133.5,287.5c-0.6-2.1-1.1-3.8-1.3-5
	c-1.1,4.3-4.3,15-9.6,32.1h19.4C136.9,298.7,134.1,289.6,133.5,287.5z M133.5,287.5c-0.6-2.1-1.1-3.8-1.3-5
	c-1.1,4.3-4.3,15-9.6,32.1h19.4C136.9,298.7,134.1,289.6,133.5,287.5z M133.5,287.5c-0.6-2.1-1.1-3.8-1.3-5
	c-1.1,4.3-4.3,15-9.6,32.1h19.4C136.9,298.7,134.1,289.6,133.5,287.5z M133.5,287.5c-0.6-2.1-1.1-3.8-1.3-5
	c-1.1,4.3-4.3,15-9.6,32.1h19.4C136.9,298.7,134.1,289.6,133.5,287.5z M133.5,287.5c-0.6-2.1-1.1-3.8-1.3-5
	c-1.1,4.3-4.3,15-9.6,32.1h19.4C136.9,298.7,134.1,289.6,133.5,287.5z M133.5,287.5c-0.6-2.1-1.1-3.8-1.3-5
	c-1.1,4.3-4.3,15-9.6,32.1h19.4C136.9,298.7,134.1,289.6,133.5,287.5z M133.5,287.5c-0.6-2.1-1.1-3.8-1.3-5
	c-1.1,4.3-4.3,15-9.6,32.1h19.4C136.9,298.7,134.1,289.6,133.5,287.5z"/>
</svg>
