<?xml version="1.0" encoding="utf-8"?>
<!-- Generator: Adobe Illustrator 19.1.0, SVG Export Plug-In . SVG Version: 6.00 Build 0)  -->
<!DOCTYPE svg PUBLIC "-//W3C//DTD SVG 1.1//EN" "http://www.w3.org/Graphics/SVG/1.1/DTD/svg11.dtd">
<svg version="1.1" id="Layer_1" xmlns="http://www.w3.org/2000/svg" xmlns:xlink="http://www.w3.org/1999/xlink" x="0px" y="0px"
	 viewBox="-69 71 360 360" enable-background="new -69 71 360 360" xml:space="preserve">
<circle fill="#383838" cx="106.7" cy="240" r="144"/>
<g>
	<path fill="#FFFFFF" d="M183,265.9v27.3c0,0.9-0.3,1.2-1.2,1.2c-9.5-0.1-18.9-0.1-28.4,0c-0.9,0-1.3-0.3-1.3-1.3
		c0-16.4,0.1-32.8,0-49.2c0-4.9-0.7-9.6-3.2-13.9c-3.3-5.7-10.6-8-17.6-5.8s-11.9,9-11.9,16.7v52.2c0,1-0.3,1.3-1.3,1.3
		c-9.5-0.1-18.9-0.1-28.3,0c-0.9,0-1.2-0.3-1.2-1.3c0.1-17.5,0.1-35,0.1-52.6v-36c-0.1-3.2-0.1-3.2,3.2-3.2h26.4
		c0.8,0,1.1,0.3,1.1,1.1c-0.1,4-0.1,8-0.1,12l0.1,0.3c0.1-0.1,0.2-0.2,0.2-0.3c4.1-6.5,9.5-11.7,17-13.6c13.2-3.4,25.4-1.8,35.5,8.1
		c6.4,6.3,9.3,14.4,10.1,23.1c0.6,6.9,0.5,13.8,0.6,20.7C183.1,257,183,261.5,183,265.9L183,265.9z M71.3,247.8V293
		c0,1-0.3,1.3-1.3,1.3c-9.5-0.1-18.9-0.1-28.4,0c-0.9,0-1.1-0.3-1.1-1.1v-90.7c0-0.9,0.3-1.2,1.2-1.2c9.5,0.1,19,0.1,28.5,0
		c0.9,0,1.2,0.3,1.2,1.2C71.3,217.6,71.3,232.7,71.3,247.8L71.3,247.8z M38.7,172.4c0-8.6,6.1-15,15-15.9c5.4-0.5,10.4,0.5,14.6,4.2
		c8.4,7.4,6.1,21.9-4.3,26.1c-6.8,2.8-13.6,2.5-19.7-2.1C40.6,181.8,38.7,177.4,38.7,172.4z"/>
</g>
</svg>
