<svg xmlns="http://www.w3.org/2000/svg" viewBox="-299 101 360 360" enable-background="new -299 101 360 360"><circle fill="#aaa" cx="-123.3" cy="272.3" r="144"/><g fill="#fff"><path d="M-47 298.2v27.3c0 .9-.3 1.2-1.2 1.2-9.5-.1-18.9-.1-28.4 0-.9 0-1.3-.3-1.3-1.3 0-16.4.1-32.8 0-49.2 0-4.9-.7-9.6-3.2-13.9-3.3-5.7-10.6-8-17.6-5.8s-11.9 9-11.9 16.7v52.2c0 1-.3 1.3-1.3 1.3-9.5-.1-18.9-.1-28.3 0-.9 0-1.2-.3-1.2-1.3.1-17.5.1-35 .1-52.6v-36c-.1-3.2-.1-3.2 3.2-3.2h26.4c.8 0 1.1.3 1.1 1.1-.1 4-.1 8-.1 12l.1.3c.1-.1.2-.2.2-.3 4.1-6.5 9.5-11.7 17-13.6 13.2-3.4 25.4-1.8 35.5 8.1 6.4 6.3 9.3 14.4 10.1 23.1.6 6.9.5 13.8.6 20.7.3 4.3.2 8.8.2 13.2zM-158.7 280.1v45.2c0 1-.3 1.3-1.3 1.3-9.5-.1-18.9-.1-28.4 0-.9 0-1.1-.3-1.1-1.1v-90.7c0-.9.3-1.2 1.2-1.2 9.5.1 19 .1 28.5 0 .9 0 1.2.3 1.2 1.2-.1 15.1-.1 30.2-.1 45.3zM-191.3 204.7c0-8.6 6.1-15 15-15.9 5.4-.5 10.4.5 14.6 4.2 8.4 7.4 6.1 21.9-4.3 26.1-6.8 2.8-13.6 2.5-19.7-2.1-3.7-2.9-5.6-7.3-5.6-12.3z"/></g></svg>