<svg xmlns="http://www.w3.org/2000/svg" xmlns:xlink="http://www.w3.org/1999/xlink" viewBox="0 0 500 500" enable-background="new 0 0 500 500"><circle fill="#24AA8C" cx="248.5" cy="251.8" r="192.2"/><image overflow="visible" opacity=".1" width="115" height="187" xlink:href="6B0D587F3F8522D0.png" transform="translate(155.024 151.024)"/><path fill="#fff" d="M158.4 155.7h32.4v150.4h73v27.1h-105.4v-177.5z"/><image overflow="visible" opacity=".1" width="82" height="140" xlink:href="6B0D587F3F8522D1.png" transform="translate(283.024 198.024)"/><path fill="#fff" d="M287 246.3c0-17.4-.3-29.8-1.1-41.3h28.2l1 24.5h1.1c6.3-18.2 21.3-27.4 35-27.4 3.2 0 5 .3 7.6.8v30.6c-2.6-.5-5.5-1-9.5-1-15.5 0-26.1 10-29 24.5-.5 2.9-1.1 6.3-1.1 10v66.4h-32.2v-87.1z"/></svg>