<?xml version="1.0" encoding="utf-8"?>
<!-- Generator: Adobe Illustrator 19.1.0, SVG Export Plug-In . SVG Version: 6.00 Build 0)  -->
<!DOCTYPE svg PUBLIC "-//W3C//DTD SVG 1.1//EN" "http://www.w3.org/Graphics/SVG/1.1/DTD/svg11.dtd">
<svg version="1.1" id="Layer_1" xmlns="http://www.w3.org/2000/svg" xmlns:xlink="http://www.w3.org/1999/xlink" x="0px" y="0px"
	 viewBox="0 0 500 500" enable-background="new 0 0 500 500" xml:space="preserve">
<circle fill="#24AA8C" cx="248.5" cy="251.8" r="192.2"/>
<g>
	<g>
		
			<image overflow="visible" opacity="0.1" width="115" height="187" xlink:href="6B0D587F3F8522D0.png"  transform="matrix(1 0 0 1 155.0241 151.0241)">
		</image>
		<g>
			<path fill="#FFFFFF" d="M158.4,155.7h32.4v150.4h73v27.1H158.4V155.7z"/>
		</g>
	</g>
	<g>
		
			<image overflow="visible" opacity="0.1" width="82" height="140" xlink:href="6B0D587F3F8522D1.png"  transform="matrix(1 0 0 1 283.0241 198.0241)">
		</image>
		<g>
			<path fill="#FFFFFF" d="M287,246.3c0-17.4-0.3-29.8-1.1-41.3h28.2l1,24.5h1.1c6.3-18.2,21.3-27.4,35-27.4c3.2,0,5,0.3,7.6,0.8
				v30.6c-2.6-0.5-5.5-1-9.5-1c-15.5,0-26.1,10-29,24.5c-0.5,2.9-1.1,6.3-1.1,10v66.4H287V246.3z"/>
		</g>
	</g>
</g>
</svg>
