<?xml version="1.0" encoding="utf-8"?>
<!-- Generator: Adobe Illustrator 19.1.0, SVG Export Plug-In . SVG Version: 6.00 Build 0)  -->
<!DOCTYPE svg PUBLIC "-//W3C//DTD SVG 1.1//EN" "http://www.w3.org/Graphics/SVG/1.1/DTD/svg11.dtd">
<svg version="1.1" id="Layer_1" xmlns="http://www.w3.org/2000/svg" xmlns:xlink="http://www.w3.org/1999/xlink" x="0px" y="0px"
	 viewBox="0 229.6 789.8 154.4" style="enable-background:new 0 229.6 789.8 154.4;" xml:space="preserve">
<style type="text/css">
	.st0{fill:#FFFFFF;}
</style>
<path class="st0" d="M133.7,291.9c-0.5-1.5-0.8-2.7-1-3.6c-0.8,3.2-3.2,11-7,23.5h14.1C136.2,300,134.1,293.4,133.7,291.9z
	 M133.7,291.9c-0.5-1.5-0.8-2.7-1-3.6c-0.8,3.2-3.2,11-7,23.5h14.1C136.2,300,134.1,293.4,133.7,291.9z M133.7,291.9
	c-0.5-1.5-0.8-2.7-1-3.6c-0.8,3.2-3.2,11-7,23.5h14.1C136.2,300,134.1,293.4,133.7,291.9z M236.6,291.9c-0.5-1.5-0.8-2.7-1-3.6
	c-0.8,3.2-3.2,11-7,23.5h14.1C239.1,300,237.1,293.4,236.6,291.9z M236.6,291.9c-0.5-1.5-0.8-2.7-1-3.6c-0.8,3.2-3.2,11-7,23.5h14.1
	C239.1,300,237.1,293.4,236.6,291.9z M133.7,291.9c-0.5-1.5-0.8-2.7-1-3.6c-0.8,3.2-3.2,11-7,23.5h14.1
	C136.2,300,134.1,293.4,133.7,291.9z M133.7,291.9c-0.5-1.5-0.8-2.7-1-3.6c-0.8,3.2-3.2,11-7,23.5h14.1
	C136.2,300,134.1,293.4,133.7,291.9z M236.6,291.9c-0.5-1.5-0.8-2.7-1-3.6c-0.8,3.2-3.2,11-7,23.5h14.1
	C239.1,300,237.1,293.4,236.6,291.9z M236.6,291.9c-0.5-1.5-0.8-2.7-1-3.6c-0.8,3.2-3.2,11-7,23.5h14.1
	C239.1,300,237.1,293.4,236.6,291.9z M133.7,291.9c-0.5-1.5-0.8-2.7-1-3.6c-0.8,3.2-3.2,11-7,23.5h14.1
	C136.2,300,134.1,293.4,133.7,291.9z M133.7,291.9c-0.5-1.5-0.8-2.7-1-3.6c-0.8,3.2-3.2,11-7,23.5h14.1
	C136.2,300,134.1,293.4,133.7,291.9z M236.6,291.9c-0.5-1.5-0.8-2.7-1-3.6c-0.8,3.2-3.2,11-7,23.5h14.1
	C239.1,300,237.1,293.4,236.6,291.9z M236.6,291.9c-0.5-1.5-0.8-2.7-1-3.6c-0.8,3.2-3.2,11-7,23.5h14.1
	C239.1,300,237.1,293.4,236.6,291.9z M133.7,291.9c-0.5-1.5-0.8-2.7-1-3.6c-0.8,3.2-3.2,11-7,23.5h14.1
	C136.2,300,134.1,293.4,133.7,291.9z M133.7,291.9c-0.5-1.5-0.8-2.7-1-3.6c-0.8,3.2-3.2,11-7,23.5h14.1
	C136.2,300,134.1,293.4,133.7,291.9z M236.6,291.9c-0.5-1.5-0.8-2.7-1-3.6c-0.8,3.2-3.2,11-7,23.5h14.1
	C239.1,300,237.1,293.4,236.6,291.9z M518.2,291.9c-0.5-1.5-0.8-2.7-1-3.6c-0.8,3.2-3.2,11-7,23.5h14.1
	C520.7,300,518.7,293.4,518.2,291.9z M518.2,291.9c-0.5-1.5-0.8-2.7-1-3.6c-0.8,3.2-3.2,11-7,23.5h14.1
	C520.7,300,518.7,293.4,518.2,291.9z M236.6,291.9c-0.5-1.5-0.8-2.7-1-3.6c-0.8,3.2-3.2,11-7,23.5h14.1
	C239.1,300,237.1,293.4,236.6,291.9z M133.7,291.9c-0.5-1.5-0.8-2.7-1-3.6c-0.8,3.2-3.2,11-7,23.5h14.1
	C136.2,300,134.1,293.4,133.7,291.9z M133.7,291.9c-0.5-1.5-0.8-2.7-1-3.6c-0.8,3.2-3.2,11-7,23.5h14.1
	C136.2,300,134.1,293.4,133.7,291.9z M236.6,291.9c-0.5-1.5-0.8-2.7-1-3.6c-0.8,3.2-3.2,11-7,23.5h14.1
	C239.1,300,237.1,293.4,236.6,291.9z M518.2,291.9c-0.5-1.5-0.8-2.7-1-3.6c-0.8,3.2-3.2,11-7,23.5h14.1
	C520.7,300,518.7,293.4,518.2,291.9z M611.7,288.7c-4.6,0-8,1.5-10.4,4.6c-2.3,3.1-3.5,7.6-3.5,13.7c0,6.1,1.1,10.6,3.5,13.7
	c2.3,3.1,5.7,4.6,10.3,4.6c9.2,0,13.8-6.1,13.8-18.3C625.4,294.9,620.8,288.7,611.7,288.7z M611.7,288.7c-4.6,0-8,1.5-10.4,4.6
	c-2.3,3.1-3.5,7.6-3.5,13.7c0,6.1,1.1,10.6,3.5,13.7c2.3,3.1,5.7,4.6,10.3,4.6c9.2,0,13.8-6.1,13.8-18.3
	C625.4,294.9,620.8,288.7,611.7,288.7z M518.2,291.9c-0.5-1.5-0.8-2.7-1-3.6c-0.8,3.2-3.2,11-7,23.5h14.1
	C520.7,300,518.7,293.4,518.2,291.9z M236.6,291.9c-0.5-1.5-0.8-2.7-1-3.6c-0.8,3.2-3.2,11-7,23.5h14.1
	C239.1,300,237.1,293.4,236.6,291.9z M133.7,291.9c-0.5-1.5-0.8-2.7-1-3.6c-0.8,3.2-3.2,11-7,23.5h14.1
	C136.2,300,134.1,293.4,133.7,291.9z M14.1,243.8v126h759v-126H14.1z M100.8,334.3H90v-25.7c0-1.2,0-2.6,0-4.2
	c0-1.6,0.2-5.8,0.5-12.6h-0.3l-14,42.5H65.7l-13.1-42.6h-0.3c0.5,8.7,0.7,14.5,0.7,17.3v25.2H42.7V280h15.7l12.8,41.5h0.2L85.1,280
	h15.7V334.3z M146.5,334.3l-3.9-12.9h-19.8l-3.9,12.9h-12.4l19.1-54.5h14.1l19.2,54.5H146.5z M204.1,332c-3.5,1.1-6.8,1.9-9.9,2.4
	c-3.1,0.5-6.2,0.7-9.4,0.7c-8.2,0-14.5-2.4-18.8-7.2s-6.5-11.7-6.5-20.7c0-8.8,2.5-15.6,7.5-20.5c5-4.9,12-7.3,20.9-7.3
	c5.6,0,10.9,1.1,16.1,3.3l-3.8,9.2c-4-2-8.1-3-12.4-3c-5,0-9,1.7-12,5c-3,3.3-4.5,7.8-4.5,13.5c0,5.9,1.2,10.4,3.6,13.5
	c2.4,3.1,5.9,4.7,10.5,4.7c2.4,0,4.8-0.2,7.3-0.7v-11.3h-10.3v-9.6h21.5V332z M249.5,334.3l-3.9-12.9h-19.8l-3.9,12.9h-12.4
	l19.2-54.5h14.1l19.2,54.5H249.5z M304.8,334.3h-40.4v-7.5l26-37.3h-25.3V280h39v7.4l-26,37.3h26.7V334.3z M323.9,334.3h-11.5V280
	h11.5V334.3z M381.9,334.3h-14.6l-23.6-41.1h-0.3c0.5,7.2,0.7,12.4,0.7,15.5v25.5h-10.3V280h14.5l23.6,40.7h0.3
	c-0.4-7-0.6-12-0.6-15V280h10.4V334.3z M423,289.4h-19.8v11.9h18.4v9.4h-18.4v14H423v9.5h-31.3V280H423V289.4z M487.6,334.3h-33.5
	V280h11.5v44.8h22V334.3z M531,334.3l-3.9-12.9h-19.8l-3.9,12.9H491l19.1-54.5h14.1l19.2,54.5H531z M567.2,313.2v21.1h-11.4v-20.8
	l-18-33.5h12.5l11.2,22.4l11.3-22.4h12.4L567.2,313.2z M630.8,327.8c-4.5,4.8-10.8,7.2-19.2,7.2c-8.3,0-14.7-2.4-19.2-7.2
	c-4.5-4.8-6.7-11.8-6.7-20.8c0-9,2.2-15.9,6.7-20.7c4.5-4.8,10.9-7.1,19.2-7.1s14.7,2.4,19.1,7.2c4.4,4.8,6.6,11.7,6.6,20.7
	C637.5,316.1,635.2,323,630.8,327.8z M689.8,315.1c0,4-0.9,7.5-2.7,10.6c-1.8,3-4.4,5.3-7.8,6.9c-3.4,1.6-7.4,2.4-12,2.4
	c-7,0-12.4-1.8-16.3-5.4c-3.9-3.6-5.8-8.5-5.8-14.7v-35h11.5v33.2c0,4.2,0.8,7.2,2.5,9.2c1.7,2,4.5,2.9,8.4,2.9c3.8,0,6.5-1,8.2-2.9
	c1.7-2,2.5-5.1,2.5-9.3V280h11.5V315.1z M738.4,289.6h-14.7v44.7h-11.5v-44.7h-14.7V280h41V289.6z M611.7,288.7
	c-4.6,0-8,1.5-10.4,4.6c-2.3,3.1-3.5,7.6-3.5,13.7c0,6.1,1.1,10.6,3.5,13.7c2.3,3.1,5.7,4.6,10.3,4.6c9.2,0,13.8-6.1,13.8-18.3
	C625.4,294.9,620.8,288.7,611.7,288.7z M517.2,288.2c-0.8,3.2-3.2,11-7,23.5h14.1c-3.6-11.7-5.7-18.3-6.1-19.9
	C517.7,290.3,517.4,289.1,517.2,288.2z M235.7,288.2c-0.8,3.2-3.2,11-7,23.5h14.1c-3.6-11.7-5.7-18.3-6.1-19.9
	C236.2,290.3,235.8,289.1,235.7,288.2z M132.7,288.2c-0.8,3.2-3.2,11-7,23.5h14.1c-3.6-11.7-5.7-18.3-6.1-19.9
	C133.2,290.3,132.9,289.1,132.7,288.2z M133.7,291.9c-0.5-1.5-0.8-2.7-1-3.6c-0.8,3.2-3.2,11-7,23.5h14.1
	C136.2,300,134.1,293.4,133.7,291.9z M236.6,291.9c-0.5-1.5-0.8-2.7-1-3.6c-0.8,3.2-3.2,11-7,23.5h14.1
	C239.1,300,237.1,293.4,236.6,291.9z M518.2,291.9c-0.5-1.5-0.8-2.7-1-3.6c-0.8,3.2-3.2,11-7,23.5h14.1
	C520.7,300,518.7,293.4,518.2,291.9z M611.7,288.7c-4.6,0-8,1.5-10.4,4.6c-2.3,3.1-3.5,7.6-3.5,13.7c0,6.1,1.1,10.6,3.5,13.7
	c2.3,3.1,5.7,4.6,10.3,4.6c9.2,0,13.8-6.1,13.8-18.3C625.4,294.9,620.8,288.7,611.7,288.7z M611.7,288.7c-4.6,0-8,1.5-10.4,4.6
	c-2.3,3.1-3.5,7.6-3.5,13.7c0,6.1,1.1,10.6,3.5,13.7c2.3,3.1,5.7,4.6,10.3,4.6c9.2,0,13.8-6.1,13.8-18.3
	C625.4,294.9,620.8,288.7,611.7,288.7z M518.2,291.9c-0.5-1.5-0.8-2.7-1-3.6c-0.8,3.2-3.2,11-7,23.5h14.1
	C520.7,300,518.7,293.4,518.2,291.9z M236.6,291.9c-0.5-1.5-0.8-2.7-1-3.6c-0.8,3.2-3.2,11-7,23.5h14.1
	C239.1,300,237.1,293.4,236.6,291.9z M133.7,291.9c-0.5-1.5-0.8-2.7-1-3.6c-0.8,3.2-3.2,11-7,23.5h14.1
	C136.2,300,134.1,293.4,133.7,291.9z M133.7,291.9c-0.5-1.5-0.8-2.7-1-3.6c-0.8,3.2-3.2,11-7,23.5h14.1
	C136.2,300,134.1,293.4,133.7,291.9z M236.6,291.9c-0.5-1.5-0.8-2.7-1-3.6c-0.8,3.2-3.2,11-7,23.5h14.1
	C239.1,300,237.1,293.4,236.6,291.9z M518.2,291.9c-0.5-1.5-0.8-2.7-1-3.6c-0.8,3.2-3.2,11-7,23.5h14.1
	C520.7,300,518.7,293.4,518.2,291.9z M518.2,291.9c-0.5-1.5-0.8-2.7-1-3.6c-0.8,3.2-3.2,11-7,23.5h14.1
	C520.7,300,518.7,293.4,518.2,291.9z M236.6,291.9c-0.5-1.5-0.8-2.7-1-3.6c-0.8,3.2-3.2,11-7,23.5h14.1
	C239.1,300,237.1,293.4,236.6,291.9z M133.7,291.9c-0.5-1.5-0.8-2.7-1-3.6c-0.8,3.2-3.2,11-7,23.5h14.1
	C136.2,300,134.1,293.4,133.7,291.9z M133.7,291.9c-0.5-1.5-0.8-2.7-1-3.6c-0.8,3.2-3.2,11-7,23.5h14.1
	C136.2,300,134.1,293.4,133.7,291.9z M236.6,291.9c-0.5-1.5-0.8-2.7-1-3.6c-0.8,3.2-3.2,11-7,23.5h14.1
	C239.1,300,237.1,293.4,236.6,291.9z M236.6,291.9c-0.5-1.5-0.8-2.7-1-3.6c-0.8,3.2-3.2,11-7,23.5h14.1
	C239.1,300,237.1,293.4,236.6,291.9z M133.7,291.9c-0.5-1.5-0.8-2.7-1-3.6c-0.8,3.2-3.2,11-7,23.5h14.1
	C136.2,300,134.1,293.4,133.7,291.9z M133.7,291.9c-0.5-1.5-0.8-2.7-1-3.6c-0.8,3.2-3.2,11-7,23.5h14.1
	C136.2,300,134.1,293.4,133.7,291.9z M236.6,291.9c-0.5-1.5-0.8-2.7-1-3.6c-0.8,3.2-3.2,11-7,23.5h14.1
	C239.1,300,237.1,293.4,236.6,291.9z M236.6,291.9c-0.5-1.5-0.8-2.7-1-3.6c-0.8,3.2-3.2,11-7,23.5h14.1
	C239.1,300,237.1,293.4,236.6,291.9z M133.7,291.9c-0.5-1.5-0.8-2.7-1-3.6c-0.8,3.2-3.2,11-7,23.5h14.1
	C136.2,300,134.1,293.4,133.7,291.9z M133.7,291.9c-0.5-1.5-0.8-2.7-1-3.6c-0.8,3.2-3.2,11-7,23.5h14.1
	C136.2,300,134.1,293.4,133.7,291.9z M236.6,291.9c-0.5-1.5-0.8-2.7-1-3.6c-0.8,3.2-3.2,11-7,23.5h14.1
	C239.1,300,237.1,293.4,236.6,291.9z M236.6,291.9c-0.5-1.5-0.8-2.7-1-3.6c-0.8,3.2-3.2,11-7,23.5h14.1
	C239.1,300,237.1,293.4,236.6,291.9z M133.7,291.9c-0.5-1.5-0.8-2.7-1-3.6c-0.8,3.2-3.2,11-7,23.5h14.1
	C136.2,300,134.1,293.4,133.7,291.9z M133.7,291.9c-0.5-1.5-0.8-2.7-1-3.6c-0.8,3.2-3.2,11-7,23.5h14.1
	C136.2,300,134.1,293.4,133.7,291.9z M133.7,291.9c-0.5-1.5-0.8-2.7-1-3.6c-0.8,3.2-3.2,11-7,23.5h14.1
	C136.2,300,134.1,293.4,133.7,291.9z"/>
</svg>
