<?xml version="1.0" encoding="utf-8"?>
<!-- Generator: Adobe Illustrator 19.1.0, SVG Export Plug-In . SVG Version: 6.00 Build 0)  -->
<!DOCTYPE svg PUBLIC "-//W3C//DTD SVG 1.1//EN" "http://www.w3.org/Graphics/SVG/1.1/DTD/svg11.dtd">
<svg version="1.1" id="Layer_1" xmlns="http://www.w3.org/2000/svg" xmlns:xlink="http://www.w3.org/1999/xlink" x="0px" y="0px"
	 viewBox="0 0 500 500" enable-background="new 0 0 500 500" xml:space="preserve">
<circle fill="#24AA8C" cx="250.5" cy="255.8" r="192.2"/>
<g>
	<g>
		<g opacity="0.1">
			<path d="M152.6,162.7c11.3-2.1,27.1-3.6,48.5-3.6c23.2,0,40.2,4.9,51.3,14.2c10.3,8.5,17,22.2,17,38.4c0,16.5-5.2,30.2-15,39.4
				c-12.6,12.6-32.5,18.6-54.9,18.6c-5.9,0-11.3-0.3-15.5-1v65.5h-31.5V162.7z M184.1,243.7c3.9,1,9,1.3,15.5,1.3
				c23.7,0,38.2-11.6,38.2-32c0-19.3-13.4-29.6-35.3-29.6c-8.8,0-15,0.8-18.3,1.5V243.7z"/>
		</g>
		<g>
			<path fill="#FFFFFF" d="M152.6,161.4c11.3-2.1,27.1-3.6,48.5-3.6c23.2,0,40.2,4.9,51.3,14.2c10.3,8.5,17,22.2,17,38.4
				c0,16.5-5.2,30.2-15,39.4c-12.6,12.6-32.5,18.6-54.9,18.6c-5.9,0-11.3-0.3-15.5-1v65.5h-31.5V161.4z M184.1,242.3
				c3.9,1,9,1.3,15.5,1.3c23.7,0,38.2-11.6,38.2-32c0-19.3-13.4-29.6-35.3-29.6c-8.8,0-15,0.8-18.3,1.5V242.3z"/>
		</g>
	</g>
	<g>
		<g opacity="0.1">
			<path d="M279.2,305c7.2,4.4,20.9,9,32.2,9c13.9,0,20.1-5.7,20.1-13.9c0-8.5-5.2-12.9-20.6-18.3c-24.5-8.5-34.8-21.9-34.6-36.6
				c0-22.2,18.3-39.4,47.4-39.4c13.9,0,26,3.6,33.3,7.5l-6.2,22.4c-5.4-3.1-15.5-7.2-26.6-7.2c-11.3,0-17.5,5.4-17.5,13.1
				c0,8,5.9,11.9,21.9,17.5c22.7,8.2,33.3,19.9,33.5,38.4c0,22.7-17.8,39.5-51,39.5c-15.2,0-28.9-3.9-38.2-9L279.2,305z"/>
		</g>
		<g>
			<path fill="#FFFFFF" d="M279.2,303.7c7.2,4.4,20.9,9,32.2,9c13.9,0,20.1-5.7,20.1-13.9c0-8.5-5.2-12.9-20.6-18.3
				c-24.5-8.5-34.8-21.9-34.6-36.6c0-22.2,18.3-39.4,47.4-39.4c13.9,0,26,3.6,33.3,7.5l-6.2,22.4c-5.4-3.1-15.5-7.2-26.6-7.2
				c-11.3,0-17.5,5.4-17.5,13.1c0,8,5.9,11.9,21.9,17.5c22.7,8.2,33.3,19.9,33.5,38.4c0,22.7-17.8,39.5-51,39.5
				c-15.2,0-28.9-3.9-38.2-9L279.2,303.7z"/>
		</g>
	</g>
</g>
</svg>
