<svg xmlns="http://www.w3.org/2000/svg" viewBox="0 0 500 500" enable-background="new 0 0 500 500"><circle fill="#24AA8C" cx="250.5" cy="255.8" r="192.2"/><path d="M152.6 162.7c11.3-2.1 27.1-3.6 48.5-3.6 23.2 0 40.2 4.9 51.3 14.2 10.3 8.5 17 22.2 17 38.4 0 16.5-5.2 30.2-15 39.4-12.6 12.6-32.5 18.6-54.9 18.6-5.9 0-11.3-.3-15.5-1v65.5h-31.5v-171.5zm31.5 81c3.9 1 9 1.3 15.5 1.3 23.7 0 38.2-11.6 38.2-32 0-19.3-13.4-29.6-35.3-29.6-8.8 0-15 .8-18.3 1.5v58.8z" opacity=".1"/><path fill="#fff" d="M152.6 161.4c11.3-2.1 27.1-3.6 48.5-3.6 23.2 0 40.2 4.9 51.3 14.2 10.3 8.5 17 22.2 17 38.4 0 16.5-5.2 30.2-15 39.4-12.6 12.6-32.5 18.6-54.9 18.6-5.9 0-11.3-.3-15.5-1v65.5h-31.5v-171.5zm31.5 80.9c3.9 1 9 1.3 15.5 1.3 23.7 0 38.2-11.6 38.2-32 0-19.3-13.4-29.6-35.3-29.6-8.8 0-15 .8-18.3 1.5v58.8z"/><path d="M279.2 305c7.2 4.4 20.9 9 32.2 9 13.9 0 20.1-5.7 20.1-13.9 0-8.5-5.2-12.9-20.6-18.3-24.5-8.5-34.8-21.9-34.6-36.6 0-22.2 18.3-39.4 47.4-39.4 13.9 0 26 3.6 33.3 7.5l-6.2 22.4c-5.4-3.1-15.5-7.2-26.6-7.2-11.3 0-17.5 5.4-17.5 13.1 0 8 5.9 11.9 21.9 17.5 22.7 8.2 33.3 19.9 33.5 38.4 0 22.7-17.8 39.5-51 39.5-15.2 0-28.9-3.9-38.2-9l6.3-23z" opacity=".1"/><path fill="#fff" d="M279.2 303.7c7.2 4.4 20.9 9 32.2 9 13.9 0 20.1-5.7 20.1-13.9 0-8.5-5.2-12.9-20.6-18.3-24.5-8.5-34.8-21.9-34.6-36.6 0-22.2 18.3-39.4 47.4-39.4 13.9 0 26 3.6 33.3 7.5l-6.2 22.4c-5.4-3.1-15.5-7.2-26.6-7.2-11.3 0-17.5 5.4-17.5 13.1 0 8 5.9 11.9 21.9 17.5 22.7 8.2 33.3 19.9 33.5 38.4 0 22.7-17.8 39.5-51 39.5-15.2 0-28.9-3.9-38.2-9l6.3-23z"/></svg>