<?xml version="1.0" encoding="utf-8"?>
<!-- Generator: Adobe Illustrator 19.1.0, SVG Export Plug-In . SVG Version: 6.00 Build 0)  -->
<!DOCTYPE svg PUBLIC "-//W3C//DTD SVG 1.1//EN" "http://www.w3.org/Graphics/SVG/1.1/DTD/svg11.dtd">
<svg version="1.1" id="Layer_1" xmlns="http://www.w3.org/2000/svg" xmlns:xlink="http://www.w3.org/1999/xlink" x="0px" y="0px"
	 viewBox="0 229.6 789.8 154.4" style="enable-background:new 0 229.6 789.8 154.4;" xml:space="preserve">
<style type="text/css">
	.st0{fill:#FFFFFF;}
</style>
<g>
	<path class="st0" d="M103.3,302c0,17.9-6.7,26.8-20.2,26.8c-6.7,0-11.8-2.2-15.1-6.7c-3.4-4.5-5-11.2-5-20.1s1.7-15.6,5.1-20.1
		c3.4-4.5,8.5-6.8,15.2-6.8C96.7,275.1,103.3,284.1,103.3,302z"/>
	<path class="st0" d="M248.8,275.1c-6.7,0-11.8,2.3-15.2,6.8c-3.4,4.5-5.1,11.2-5.1,20.1s1.7,15.6,5.1,20.1
		c3.4,4.5,8.4,6.7,15.1,6.7c13.4,0,20.2-8.9,20.2-26.8C268.9,284.1,262.2,275.1,248.8,275.1z M248.8,275.1c-6.7,0-11.8,2.3-15.2,6.8
		c-3.4,4.5-5.1,11.2-5.1,20.1s1.7,15.6,5.1,20.1c3.4,4.5,8.4,6.7,15.1,6.7c13.4,0,20.2-8.9,20.2-26.8
		C268.9,284.1,262.2,275.1,248.8,275.1z M248.8,275.1c-6.7,0-11.8,2.3-15.2,6.8c-3.4,4.5-5.1,11.2-5.1,20.1s1.7,15.6,5.1,20.1
		c3.4,4.5,8.4,6.7,15.1,6.7c13.4,0,20.2-8.9,20.2-26.8C268.9,284.1,262.2,275.1,248.8,275.1z M463.4,278.1c-2.2-1.3-5.8-2-10.6-2
		h-8.9v17.7h9.8c4.6,0,7.9-0.7,9.9-2.1c2-1.4,3.1-3.8,3.1-7C466.7,281.6,465.6,279.4,463.4,278.1z M454.4,307.2h-10.4v20.7h11
		c4.6,0,8.1-0.9,10.3-2.7c2.2-1.8,3.3-4.5,3.3-8.2C468.5,310.5,463.8,307.2,454.4,307.2z M454.4,307.2h-10.4v20.7h11
		c4.6,0,8.1-0.9,10.3-2.7c2.2-1.8,3.3-4.5,3.3-8.2C468.5,310.5,463.8,307.2,454.4,307.2z M463.4,278.1c-2.2-1.3-5.8-2-10.6-2h-8.9
		v17.7h9.8c4.6,0,7.9-0.7,9.9-2.1c2-1.4,3.1-3.8,3.1-7C466.7,281.6,465.6,279.4,463.4,278.1z M248.8,275.1c-6.7,0-11.8,2.3-15.2,6.8
		c-3.4,4.5-5.1,11.2-5.1,20.1s1.7,15.6,5.1,20.1c3.4,4.5,8.4,6.7,15.1,6.7c13.4,0,20.2-8.9,20.2-26.8
		C268.9,284.1,262.2,275.1,248.8,275.1z M248.8,275.1c-6.7,0-11.8,2.3-15.2,6.8c-3.4,4.5-5.1,11.2-5.1,20.1s1.7,15.6,5.1,20.1
		c3.4,4.5,8.4,6.7,15.1,6.7c13.4,0,20.2-8.9,20.2-26.8C268.9,284.1,262.2,275.1,248.8,275.1z M463.4,278.1c-2.2-1.3-5.8-2-10.6-2
		h-8.9v17.7h9.8c4.6,0,7.9-0.7,9.9-2.1c2-1.4,3.1-3.8,3.1-7C466.7,281.6,465.6,279.4,463.4,278.1z M454.4,307.2h-10.4v20.7h11
		c4.6,0,8.1-0.9,10.3-2.7c2.2-1.8,3.3-4.5,3.3-8.2C468.5,310.5,463.8,307.2,454.4,307.2z M534.6,275.1c-6.7,0-11.8,2.3-15.2,6.8
		c-3.4,4.5-5.1,11.2-5.1,20.1s1.7,15.6,5.1,20.1c3.4,4.5,8.4,6.7,15.1,6.7c13.4,0,20.2-8.9,20.2-26.8
		C554.7,284.1,548,275.1,534.6,275.1z M622.1,275.1c-6.7,0-11.8,2.3-15.2,6.8c-3.4,4.5-5.1,11.2-5.1,20.1s1.7,15.6,5.1,20.1
		c3.4,4.5,8.4,6.7,15.1,6.7c13.4,0,20.2-8.9,20.2-26.8C642.2,284.1,635.5,275.1,622.1,275.1z M622.1,275.1c-6.7,0-11.8,2.3-15.2,6.8
		c-3.4,4.5-5.1,11.2-5.1,20.1s1.7,15.6,5.1,20.1c3.4,4.5,8.4,6.7,15.1,6.7c13.4,0,20.2-8.9,20.2-26.8
		C642.2,284.1,635.5,275.1,622.1,275.1z M534.6,275.1c-6.7,0-11.8,2.3-15.2,6.8c-3.4,4.5-5.1,11.2-5.1,20.1s1.7,15.6,5.1,20.1
		c3.4,4.5,8.4,6.7,15.1,6.7c13.4,0,20.2-8.9,20.2-26.8C554.7,284.1,548,275.1,534.6,275.1z M454.4,307.2h-10.4v20.7h11
		c4.6,0,8.1-0.9,10.3-2.7c2.2-1.8,3.3-4.5,3.3-8.2C468.5,310.5,463.8,307.2,454.4,307.2z M463.6,291.7c2-1.4,3.1-3.8,3.1-7
		c0-3-1.1-5.2-3.3-6.5c-2.2-1.3-5.8-2-10.6-2h-8.9v17.7h9.8C458.3,293.8,461.6,293.1,463.6,291.7z M248.8,275.1
		c-6.7,0-11.8,2.3-15.2,6.8c-3.4,4.5-5.1,11.2-5.1,20.1s1.7,15.6,5.1,20.1c3.4,4.5,8.4,6.7,15.1,6.7c13.4,0,20.2-8.9,20.2-26.8
		C268.9,284.1,262.2,275.1,248.8,275.1z M14.1,243.8v126h759v-126H14.1z M120.6,360.7H99l-14.6-17.8h-1.2
		c-12.2,0-21.5-3.5-28.1-10.6c-6.5-7.1-9.8-17.2-9.8-30.5s3.3-23.3,9.8-30.3c6.5-7,15.9-10.5,28.1-10.5c12.2,0,21.5,3.5,28,10.6
		c6.5,7,9.7,17.1,9.7,30.3c0,9.4-1.7,17.2-5,23.5c-3.3,6.3-8.2,11-14.6,13.9L120.6,360.7z M198.3,313.8c0,5.9-1.3,11-3.9,15.4
		c-2.6,4.4-6.4,7.8-11.4,10.2c-5,2.4-10.8,3.5-17.6,3.5c-10.2,0-18.2-2.6-23.8-7.9c-5.7-5.2-8.5-12.4-8.5-21.5v-51.2h16.8V311
		c0,6.1,1.2,10.6,3.7,13.5c2.5,2.9,6.5,4.3,12.2,4.3c5.5,0,9.5-1.4,12-4.3c2.5-2.9,3.7-7.4,3.7-13.6v-48.6h16.8V313.8z M276.8,332.3
		c-6.5,7.1-15.9,10.6-28,10.6s-21.5-3.5-28.1-10.6c-6.5-7.1-9.8-17.2-9.8-30.5s3.3-23.3,9.8-30.3c6.5-7,15.9-10.5,28.1-10.5
		c12.2,0,21.6,3.5,28,10.6c6.5,7,9.7,17.1,9.7,30.3C286.5,315.1,283.3,325.2,276.8,332.3z M354.7,276.4h-21.6v65.5h-16.8v-65.5
		h-21.6v-14h60V276.4z M412.7,276.1h-28.9v17.5h26.9v13.8h-26.9v20.5h28.9v13.9H367v-79.5h45.8V276.1z M478.2,335.7
		c-5.2,4.1-12.3,6.1-21.3,6.1h-29.7v-79.5h24.7c11.3,0,19.5,1.6,24.5,4.8c5.1,3.2,7.6,8.3,7.6,15.3c0,4.8-1.1,8.7-3.3,11.7
		c-2.2,3-5.2,4.9-8.9,5.5v0.5c5,1.1,8.7,3.2,10.9,6.3c2.2,3.1,3.3,7.2,3.3,12.3C486,326,483.4,331.7,478.2,335.7z M562.6,332.3
		c-6.5,7.1-15.9,10.6-28.1,10.6c-12.2,0-21.5-3.5-28.1-10.6c-6.5-7.1-9.8-17.2-9.8-30.5s3.3-23.3,9.8-30.3s15.9-10.5,28.1-10.5
		c12.2,0,21.6,3.5,28,10.6c6.5,7,9.7,17.1,9.7,30.3C572.4,315.1,569.1,325.2,562.6,332.3z M650.1,332.3c-6.5,7.1-15.9,10.6-28,10.6
		c-12.2,0-21.5-3.5-28.1-10.6c-6.5-7.1-9.8-17.2-9.8-30.5s3.3-23.3,9.8-30.3c6.5-7,15.9-10.5,28.1-10.5c12.2,0,21.6,3.5,28,10.6
		c6.5,7,9.7,17.1,9.7,30.3C659.9,315.1,656.6,325.2,650.1,332.3z M718.9,341.8l-20.8-33.5l-7.1,5.1v28.4h-16.8v-79.5H691v36.4
		l6.6-9.3l21.5-27h18.7l-27.7,35.2l27.9,44.3H718.9z M622.1,275.1c-6.7,0-11.8,2.3-15.2,6.8c-3.4,4.5-5.1,11.2-5.1,20.1
		s1.7,15.6,5.1,20.1c3.4,4.5,8.4,6.7,15.1,6.7c13.4,0,20.2-8.9,20.2-26.8C642.2,284.1,635.5,275.1,622.1,275.1z M534.6,275.1
		c-6.7,0-11.8,2.3-15.2,6.8c-3.4,4.5-5.1,11.2-5.1,20.1s1.7,15.6,5.1,20.1c3.4,4.5,8.4,6.7,15.1,6.7c13.4,0,20.2-8.9,20.2-26.8
		C554.7,284.1,548,275.1,534.6,275.1z M454.4,307.2h-10.4v20.7h11c4.6,0,8.1-0.9,10.3-2.7c2.2-1.8,3.3-4.5,3.3-8.2
		C468.5,310.5,463.8,307.2,454.4,307.2z M463.6,291.7c2-1.4,3.1-3.8,3.1-7c0-3-1.1-5.2-3.3-6.5c-2.2-1.3-5.8-2-10.6-2h-8.9v17.7h9.8
		C458.3,293.8,461.6,293.1,463.6,291.7z M248.8,275.1c-6.7,0-11.8,2.3-15.2,6.8c-3.4,4.5-5.1,11.2-5.1,20.1s1.7,15.6,5.1,20.1
		c3.4,4.5,8.4,6.7,15.1,6.7c13.4,0,20.2-8.9,20.2-26.8C268.9,284.1,262.2,275.1,248.8,275.1z M248.8,275.1c-6.7,0-11.8,2.3-15.2,6.8
		c-3.4,4.5-5.1,11.2-5.1,20.1s1.7,15.6,5.1,20.1c3.4,4.5,8.4,6.7,15.1,6.7c13.4,0,20.2-8.9,20.2-26.8
		C268.9,284.1,262.2,275.1,248.8,275.1z M463.4,278.1c-2.2-1.3-5.8-2-10.6-2h-8.9v17.7h9.8c4.6,0,7.9-0.7,9.9-2.1
		c2-1.4,3.1-3.8,3.1-7C466.7,281.6,465.6,279.4,463.4,278.1z M454.4,307.2h-10.4v20.7h11c4.6,0,8.1-0.9,10.3-2.7
		c2.2-1.8,3.3-4.5,3.3-8.2C468.5,310.5,463.8,307.2,454.4,307.2z M534.6,275.1c-6.7,0-11.8,2.3-15.2,6.8c-3.4,4.5-5.1,11.2-5.1,20.1
		s1.7,15.6,5.1,20.1c3.4,4.5,8.4,6.7,15.1,6.7c13.4,0,20.2-8.9,20.2-26.8C554.7,284.1,548,275.1,534.6,275.1z M534.6,275.1
		c-6.7,0-11.8,2.3-15.2,6.8c-3.4,4.5-5.1,11.2-5.1,20.1s1.7,15.6,5.1,20.1c3.4,4.5,8.4,6.7,15.1,6.7c13.4,0,20.2-8.9,20.2-26.8
		C554.7,284.1,548,275.1,534.6,275.1z M454.4,307.2h-10.4v20.7h11c4.6,0,8.1-0.9,10.3-2.7c2.2-1.8,3.3-4.5,3.3-8.2
		C468.5,310.5,463.8,307.2,454.4,307.2z M463.4,278.1c-2.2-1.3-5.8-2-10.6-2h-8.9v17.7h9.8c4.6,0,7.9-0.7,9.9-2.1
		c2-1.4,3.1-3.8,3.1-7C466.7,281.6,465.6,279.4,463.4,278.1z M248.8,275.1c-6.7,0-11.8,2.3-15.2,6.8c-3.4,4.5-5.1,11.2-5.1,20.1
		s1.7,15.6,5.1,20.1c3.4,4.5,8.4,6.7,15.1,6.7c13.4,0,20.2-8.9,20.2-26.8C268.9,284.1,262.2,275.1,248.8,275.1z M248.8,275.1
		c-6.7,0-11.8,2.3-15.2,6.8c-3.4,4.5-5.1,11.2-5.1,20.1s1.7,15.6,5.1,20.1c3.4,4.5,8.4,6.7,15.1,6.7c13.4,0,20.2-8.9,20.2-26.8
		C268.9,284.1,262.2,275.1,248.8,275.1z M248.8,275.1c-6.7,0-11.8,2.3-15.2,6.8c-3.4,4.5-5.1,11.2-5.1,20.1s1.7,15.6,5.1,20.1
		c3.4,4.5,8.4,6.7,15.1,6.7c13.4,0,20.2-8.9,20.2-26.8C268.9,284.1,262.2,275.1,248.8,275.1z M248.8,275.1c-6.7,0-11.8,2.3-15.2,6.8
		c-3.4,4.5-5.1,11.2-5.1,20.1s1.7,15.6,5.1,20.1c3.4,4.5,8.4,6.7,15.1,6.7c13.4,0,20.2-8.9,20.2-26.8
		C268.9,284.1,262.2,275.1,248.8,275.1z M248.8,275.1c-6.7,0-11.8,2.3-15.2,6.8c-3.4,4.5-5.1,11.2-5.1,20.1s1.7,15.6,5.1,20.1
		c3.4,4.5,8.4,6.7,15.1,6.7c13.4,0,20.2-8.9,20.2-26.8C268.9,284.1,262.2,275.1,248.8,275.1z"/>
</g>
</svg>
