<?xml version="1.0" encoding="utf-8"?>
<!-- Generator: Adobe Illustrator 19.1.0, SVG Export Plug-In . SVG Version: 6.00 Build 0)  -->
<!DOCTYPE svg PUBLIC "-//W3C//DTD SVG 1.1//EN" "http://www.w3.org/Graphics/SVG/1.1/DTD/svg11.dtd">
<svg version="1.1" id="Layer_1" xmlns="http://www.w3.org/2000/svg" xmlns:xlink="http://www.w3.org/1999/xlink" x="0px" y="0px"
	 viewBox="0 229.6 789.8 154.4" style="enable-background:new 0 229.6 789.8 154.4;" xml:space="preserve">
<style type="text/css">
	.st0{fill:#FFFFFF;}
</style>
<path class="st0" d="M129.3,287.1c-0.6-2.1-1.1-3.7-1.3-4.9c-1.1,4.3-4.3,14.9-9.5,31.8h19.1C132.7,298.2,129.9,289.2,129.3,287.1z
	 M129.3,287.1c-0.6-2.1-1.1-3.7-1.3-4.9c-1.1,4.3-4.3,14.9-9.5,31.8h19.1C132.7,298.2,129.9,289.2,129.3,287.1z M129.3,287.1
	c-0.6-2.1-1.1-3.7-1.3-4.9c-1.1,4.3-4.3,14.9-9.5,31.8h19.1C132.7,298.2,129.9,289.2,129.3,287.1z M202.7,287.1
	c-0.6-2.1-1.1-3.7-1.3-4.9c-1.1,4.3-4.3,14.9-9.5,31.8H211C206.1,298.2,203.4,289.2,202.7,287.1z M202.7,287.1
	c-0.6-2.1-1.1-3.7-1.3-4.9c-1.1,4.3-4.3,14.9-9.5,31.8H211C206.1,298.2,203.4,289.2,202.7,287.1z M129.3,287.1
	c-0.6-2.1-1.1-3.7-1.3-4.9c-1.1,4.3-4.3,14.9-9.5,31.8h19.1C132.7,298.2,129.9,289.2,129.3,287.1z M129.3,287.1
	c-0.6-2.1-1.1-3.7-1.3-4.9c-1.1,4.3-4.3,14.9-9.5,31.8h19.1C132.7,298.2,129.9,289.2,129.3,287.1z M202.7,287.1
	c-0.6-2.1-1.1-3.7-1.3-4.9c-1.1,4.3-4.3,14.9-9.5,31.8H211C206.1,298.2,203.4,289.2,202.7,287.1z M202.7,287.1
	c-0.6-2.1-1.1-3.7-1.3-4.9c-1.1,4.3-4.3,14.9-9.5,31.8H211C206.1,298.2,203.4,289.2,202.7,287.1z M129.3,287.1
	c-0.6-2.1-1.1-3.7-1.3-4.9c-1.1,4.3-4.3,14.9-9.5,31.8h19.1C132.7,298.2,129.9,289.2,129.3,287.1z M129.3,287.1
	c-0.6-2.1-1.1-3.7-1.3-4.9c-1.1,4.3-4.3,14.9-9.5,31.8h19.1C132.7,298.2,129.9,289.2,129.3,287.1z M202.7,287.1
	c-0.6-2.1-1.1-3.7-1.3-4.9c-1.1,4.3-4.3,14.9-9.5,31.8H211C206.1,298.2,203.4,289.2,202.7,287.1z M515.6,285.7
	c-2-1.2-5.3-1.8-9.8-1.8h-8.2v16.3h9c4.2,0,7.3-0.7,9.1-2c1.9-1.3,2.8-3.5,2.8-6.5C518.7,288.9,517.7,286.9,515.6,285.7z
	 M507.3,312.5h-9.6v19.1h10.1c4.3,0,7.4-0.8,9.5-2.4c2-1.6,3.1-4.2,3.1-7.5C520.3,315.6,516,312.5,507.3,312.5z M507.3,312.5h-9.6
	v19.1h10.1c4.3,0,7.4-0.8,9.5-2.4c2-1.6,3.1-4.2,3.1-7.5C520.3,315.6,516,312.5,507.3,312.5z M515.6,285.7c-2-1.2-5.3-1.8-9.8-1.8
	h-8.2v16.3h9c4.2,0,7.3-0.7,9.1-2c1.9-1.3,2.8-3.5,2.8-6.5C518.7,288.9,517.7,286.9,515.6,285.7z M202.7,287.1
	c-0.6-2.1-1.1-3.7-1.3-4.9c-1.1,4.3-4.3,14.9-9.5,31.8H211C206.1,298.2,203.4,289.2,202.7,287.1z M129.3,287.1
	c-0.6-2.1-1.1-3.7-1.3-4.9c-1.1,4.3-4.3,14.9-9.5,31.8h19.1C132.7,298.2,129.9,289.2,129.3,287.1z M129.3,287.1
	c-0.6-2.1-1.1-3.7-1.3-4.9c-1.1,4.3-4.3,14.9-9.5,31.8h19.1C132.7,298.2,129.9,289.2,129.3,287.1z M202.7,287.1
	c-0.6-2.1-1.1-3.7-1.3-4.9c-1.1,4.3-4.3,14.9-9.5,31.8H211C206.1,298.2,203.4,289.2,202.7,287.1z M515.6,285.7
	c-2-1.2-5.3-1.8-9.8-1.8h-8.2v16.3h9c4.2,0,7.3-0.7,9.1-2c1.9-1.3,2.8-3.5,2.8-6.5C518.7,288.9,517.7,286.9,515.6,285.7z
	 M507.3,312.5h-9.6v19.1h10.1c4.3,0,7.4-0.8,9.5-2.4c2-1.6,3.1-4.2,3.1-7.5C520.3,315.6,516,312.5,507.3,312.5z M507.3,312.5h-9.6
	v19.1h10.1c4.3,0,7.4-0.8,9.5-2.4c2-1.6,3.1-4.2,3.1-7.5C520.3,315.6,516,312.5,507.3,312.5z M515.8,298.2c1.9-1.3,2.8-3.5,2.8-6.5
	c0-2.8-1-4.8-3.1-6c-2-1.2-5.3-1.8-9.8-1.8h-8.2v16.3h9C510.9,300.2,514,299.5,515.8,298.2z M202.7,287.1c-0.6-2.1-1.1-3.7-1.3-4.9
	c-1.1,4.3-4.3,14.9-9.5,31.8H211C206.1,298.2,203.4,289.2,202.7,287.1z M129.3,287.1c-0.6-2.1-1.1-3.7-1.3-4.9
	c-1.1,4.3-4.3,14.9-9.5,31.8h19.1C132.7,298.2,129.9,289.2,129.3,287.1z M14.1,244.1v126h759v-126H14.1z M81.3,339.8
	c-4.8,3.8-11.4,5.7-19.9,5.7c-7.8,0-14.8-1.5-20.8-4.4v-14.4c5,2.2,9.1,3.8,12.6,4.7c3.4,0.9,6.6,1.4,9.4,1.4c3.4,0,6-0.6,7.8-2
	c1.8-1.3,2.7-3.2,2.7-5.8c0-1.4-0.4-2.7-1.2-3.8c-0.8-1.1-2-2.2-3.5-3.2c-1.5-1-4.7-2.7-9.5-5c-4.5-2.1-7.8-4.1-10.1-6.1
	c-2.2-1.9-4-4.2-5.4-6.8c-1.3-2.6-2-5.6-2-9c0-6.5,2.2-11.6,6.6-15.3c4.4-3.7,10.5-5.6,18.2-5.6c3.8,0,7.5,0.5,10.9,1.4
	c3.5,0.9,7.1,2.2,10.9,3.8l-5,12.1c-3.9-1.6-7.2-2.7-9.7-3.4c-2.6-0.6-5.1-1-7.5-1c-3,0-5.2,0.7-6.8,2.1c-1.6,1.4-2.4,3.2-2.4,5.4
	c0,1.4,0.3,2.6,1,3.6s1.7,2,3,3c1.4,1,4.7,2.7,9.9,5.1c6.9,3.3,11.6,6.6,14.1,9.9c2.5,3.3,3.8,7.3,3.8,12.1
	C88.4,330.7,86,335.9,81.3,339.8z M146.6,344.5l-5.3-17.5h-26.7l-5.3,17.5H92.5l25.9-73.7h19l26,73.7H146.6z M220.1,344.5l-5.3-17.5
	H188l-5.3,17.5H166l25.9-73.7h19l26,73.7H220.1z M282.2,339.8c-4.8,3.8-11.4,5.7-19.9,5.7c-7.8,0-14.8-1.5-20.8-4.4v-14.4
	c5,2.2,9.1,3.8,12.6,4.7c3.4,0.9,6.6,1.4,9.4,1.4c3.4,0,6-0.6,7.9-2c1.8-1.3,2.7-3.2,2.7-5.8c0-1.4-0.4-2.7-1.2-3.8
	c-0.8-1.1-2-2.2-3.5-3.2c-1.6-1-4.7-2.7-9.5-5c-4.5-2.1-7.8-4.1-10.1-6.1c-2.2-1.9-4-4.2-5.4-6.8c-1.3-2.6-2-5.6-2-9
	c0-6.5,2.2-11.6,6.6-15.3c4.4-3.7,10.5-5.6,18.2-5.6c3.8,0,7.5,0.5,10.9,1.4c3.5,0.9,7.1,2.2,10.9,3.8l-5,12.1
	c-3.9-1.6-7.1-2.7-9.7-3.4c-2.6-0.6-5.1-1-7.5-1c-3,0-5.2,0.7-6.8,2.1s-2.4,3.2-2.4,5.4c0,1.4,0.3,2.6,1,3.6c0.6,1,1.6,2,3,3
	c1.4,1,4.7,2.7,9.9,5.1c6.9,3.3,11.6,6.6,14.1,9.9c2.5,3.3,3.8,7.3,3.8,12.1C289.4,330.7,287,335.9,282.2,339.8z M400.8,344.5h-17.7
	l-9.9-38.5c-0.4-1.4-1-4.2-1.9-8.5c-0.9-4.3-1.4-7.2-1.5-8.6c-0.2,1.8-0.7,4.7-1.5,8.7c-0.8,4-1.4,6.8-1.9,8.6l-9.9,38.4h-17.7
	l-18.7-73.4h15.3l9.4,40c1.6,7.4,2.8,13.8,3.6,19.2c0.2-1.9,0.7-4.9,1.4-8.8c0.7-4,1.4-7.1,2-9.3l10.7-41.1h14.7l10.7,41.1
	c0.5,1.8,1.1,4.7,1.8,8.4c0.7,3.8,1.2,7,1.6,9.7c0.3-2.6,0.9-5.9,1.6-9.8c0.7-3.9,1.4-7.1,2-9.5l9.3-40h15.3L400.8,344.5z
	 M470.4,283.9h-26.7V300h24.8v12.7h-24.8v18.9h26.7v12.9h-42.2v-73.4h42.2V283.9z M529.2,338.9c-4.8,3.8-11.4,5.6-19.7,5.6h-27.4
	v-73.4h22.8c10.4,0,18,1.5,22.7,4.4c4.7,3,7,7.7,7,14.1c0,4.4-1,8-3.1,10.8c-2.1,2.8-4.8,4.5-8.2,5.1v0.5c4.7,1,8,3,10.1,5.8
	c2.1,2.8,3.1,6.6,3.1,11.3C536.5,329.9,534.1,335.1,529.2,338.9z M586.3,339.8c-4.8,3.8-11.4,5.7-19.9,5.7c-7.8,0-14.8-1.5-20.8-4.4
	v-14.4c4.9,2.2,9.1,3.8,12.6,4.7c3.4,0.9,6.6,1.4,9.4,1.4c3.4,0,6-0.6,7.8-2c1.8-1.3,2.7-3.2,2.7-5.8c0-1.4-0.4-2.7-1.2-3.8
	c-0.8-1.1-2-2.2-3.5-3.2c-1.5-1-4.7-2.7-9.5-5c-4.5-2.1-7.8-4.1-10.1-6.1c-2.2-1.9-4-4.2-5.4-6.8c-1.3-2.6-2-5.6-2-9
	c0-6.5,2.2-11.6,6.6-15.3c4.4-3.7,10.5-5.6,18.2-5.6c3.8,0,7.5,0.5,10.9,1.4c3.5,0.9,7.1,2.2,10.9,3.8l-5,12.1
	c-3.9-1.6-7.1-2.7-9.7-3.4c-2.6-0.6-5.1-1-7.6-1c-2.9,0-5.2,0.7-6.8,2.1s-2.4,3.2-2.4,5.4c0,1.4,0.3,2.6,1,3.6c0.6,1,1.7,2,3,3
	c1.4,1,4.7,2.7,9.9,5.1c6.8,3.3,11.5,6.6,14.1,9.9c2.6,3.3,3.8,7.3,3.8,12.1C593.4,330.7,591,335.9,586.3,339.8z M621.2,344.5h-15.6
	v-73.4h15.6V344.5z M686.9,284.1H667v60.4h-15.6v-60.4h-19.9v-12.9h55.4V284.1z M739.4,283.9h-26.7V300h24.8v12.7h-24.8v18.9h26.7
	v12.9h-42.2v-73.4h42.2V283.9z M507.3,312.5h-9.6v19.1h10.1c4.3,0,7.4-0.8,9.5-2.4c2-1.6,3.1-4.2,3.1-7.5
	C520.3,315.6,516,312.5,507.3,312.5z M515.8,298.2c1.9-1.3,2.8-3.5,2.8-6.5c0-2.8-1-4.8-3.1-6c-2-1.2-5.3-1.8-9.8-1.8h-8.2v16.3h9
	C510.9,300.2,514,299.5,515.8,298.2z M201.4,282.2c-1.1,4.3-4.3,14.9-9.5,31.8H211c-4.9-15.8-7.7-24.8-8.3-26.9
	C202.1,285.1,201.7,283.4,201.4,282.2z M128,282.2c-1.1,4.3-4.3,14.9-9.5,31.8h19.1c-4.9-15.8-7.7-24.8-8.3-26.9
	C128.7,285.1,128.2,283.4,128,282.2z M129.3,287.1c-0.6-2.1-1.1-3.7-1.3-4.9c-1.1,4.3-4.3,14.9-9.5,31.8h19.1
	C132.7,298.2,129.9,289.2,129.3,287.1z M202.7,287.1c-0.6-2.1-1.1-3.7-1.3-4.9c-1.1,4.3-4.3,14.9-9.5,31.8H211
	C206.1,298.2,203.4,289.2,202.7,287.1z M515.6,285.7c-2-1.2-5.3-1.8-9.8-1.8h-8.2v16.3h9c4.2,0,7.3-0.7,9.1-2
	c1.9-1.3,2.8-3.5,2.8-6.5C518.7,288.9,517.7,286.9,515.6,285.7z M507.3,312.5h-9.6v19.1h10.1c4.3,0,7.4-0.8,9.5-2.4
	c2-1.6,3.1-4.2,3.1-7.5C520.3,315.6,516,312.5,507.3,312.5z M507.3,312.5h-9.6v19.1h10.1c4.3,0,7.4-0.8,9.5-2.4
	c2-1.6,3.1-4.2,3.1-7.5C520.3,315.6,516,312.5,507.3,312.5z M515.6,285.7c-2-1.2-5.3-1.8-9.8-1.8h-8.2v16.3h9c4.2,0,7.3-0.7,9.1-2
	c1.9-1.3,2.8-3.5,2.8-6.5C518.7,288.9,517.7,286.9,515.6,285.7z M202.7,287.1c-0.6-2.1-1.1-3.7-1.3-4.9c-1.1,4.3-4.3,14.9-9.5,31.8
	H211C206.1,298.2,203.4,289.2,202.7,287.1z M129.3,287.1c-0.6-2.1-1.1-3.7-1.3-4.9c-1.1,4.3-4.3,14.9-9.5,31.8h19.1
	C132.7,298.2,129.9,289.2,129.3,287.1z M129.3,287.1c-0.6-2.1-1.1-3.7-1.3-4.9c-1.1,4.3-4.3,14.9-9.5,31.8h19.1
	C132.7,298.2,129.9,289.2,129.3,287.1z M202.7,287.1c-0.6-2.1-1.1-3.7-1.3-4.9c-1.1,4.3-4.3,14.9-9.5,31.8H211
	C206.1,298.2,203.4,289.2,202.7,287.1z M515.6,285.7c-2-1.2-5.3-1.8-9.8-1.8h-8.2v16.3h9c4.2,0,7.3-0.7,9.1-2
	c1.9-1.3,2.8-3.5,2.8-6.5C518.7,288.9,517.7,286.9,515.6,285.7z M507.3,312.5h-9.6v19.1h10.1c4.3,0,7.4-0.8,9.5-2.4
	c2-1.6,3.1-4.2,3.1-7.5C520.3,315.6,516,312.5,507.3,312.5z M507.3,312.5h-9.6v19.1h10.1c4.3,0,7.4-0.8,9.5-2.4
	c2-1.6,3.1-4.2,3.1-7.5C520.3,315.6,516,312.5,507.3,312.5z M515.6,285.7c-2-1.2-5.3-1.8-9.8-1.8h-8.2v16.3h9c4.2,0,7.3-0.7,9.1-2
	c1.9-1.3,2.8-3.5,2.8-6.5C518.7,288.9,517.7,286.9,515.6,285.7z M202.7,287.1c-0.6-2.1-1.1-3.7-1.3-4.9c-1.1,4.3-4.3,14.9-9.5,31.8
	H211C206.1,298.2,203.4,289.2,202.7,287.1z M129.3,287.1c-0.6-2.1-1.1-3.7-1.3-4.9c-1.1,4.3-4.3,14.9-9.5,31.8h19.1
	C132.7,298.2,129.9,289.2,129.3,287.1z M129.3,287.1c-0.6-2.1-1.1-3.7-1.3-4.9c-1.1,4.3-4.3,14.9-9.5,31.8h19.1
	C132.7,298.2,129.9,289.2,129.3,287.1z M202.7,287.1c-0.6-2.1-1.1-3.7-1.3-4.9c-1.1,4.3-4.3,14.9-9.5,31.8H211
	C206.1,298.2,203.4,289.2,202.7,287.1z M202.7,287.1c-0.6-2.1-1.1-3.7-1.3-4.9c-1.1,4.3-4.3,14.9-9.5,31.8H211
	C206.1,298.2,203.4,289.2,202.7,287.1z M129.3,287.1c-0.6-2.1-1.1-3.7-1.3-4.9c-1.1,4.3-4.3,14.9-9.5,31.8h19.1
	C132.7,298.2,129.9,289.2,129.3,287.1z M129.3,287.1c-0.6-2.1-1.1-3.7-1.3-4.9c-1.1,4.3-4.3,14.9-9.5,31.8h19.1
	C132.7,298.2,129.9,289.2,129.3,287.1z M202.7,287.1c-0.6-2.1-1.1-3.7-1.3-4.9c-1.1,4.3-4.3,14.9-9.5,31.8H211
	C206.1,298.2,203.4,289.2,202.7,287.1z M202.7,287.1c-0.6-2.1-1.1-3.7-1.3-4.9c-1.1,4.3-4.3,14.9-9.5,31.8H211
	C206.1,298.2,203.4,289.2,202.7,287.1z M129.3,287.1c-0.6-2.1-1.1-3.7-1.3-4.9c-1.1,4.3-4.3,14.9-9.5,31.8h19.1
	C132.7,298.2,129.9,289.2,129.3,287.1z"/>
</svg>
