<?xml version="1.0" encoding="utf-8"?>
<!-- Generator: Adobe Illustrator 19.1.0, SVG Export Plug-In . SVG Version: 6.00 Build 0)  -->
<!DOCTYPE svg PUBLIC "-//W3C//DTD SVG 1.1//EN" "http://www.w3.org/Graphics/SVG/1.1/DTD/svg11.dtd">
<svg version="1.1" id="Layer_1" xmlns="http://www.w3.org/2000/svg" xmlns:xlink="http://www.w3.org/1999/xlink" x="0px" y="0px"
	 viewBox="-145 57 500 500" style="enable-background:new -145 57 500 500;" xml:space="preserve">
<style type="text/css">
	.st0{fill:#F2CB2E;}
	.st1{fill:#FFFFFF;}
</style>
<circle class="st0" cx="109.5" cy="308.8" r="192.2"/>
<path class="st1" d="M157.1,255.9c-8-9-17.6-14.6-28.8-17.1c-9.3-2.1-18.3-1.3-27.1,2.4c-7,3-11,8.5-11.5,16.1
	c-0.6,7.8,2.9,13.8,9.7,17.1c7.1,3.4,14.6,5.9,21.9,8.8c11.5,4.5,23.4,8.3,34.5,13.7c17.9,8.8,30.1,22.6,32.4,43.3
	c3.8,35-13.9,63.6-47.6,73.7c-40.2,12-77.4,5.1-110.3-21.7c-4-3.3-3.9-3.5-0.5-7c9.4-9.6,18.8-19.2,28.2-28.8
	c0.7-0.7,1.6-1.3,2.6-2.2c6.2,7.3,13.5,12.8,22,16.7c11.8,5.5,24.1,7.7,36.9,4.1c10.6-2.9,16.2-10.1,16.6-20.4
	c0.3-7.4-2.7-13.4-8.9-17c-6.2-3.6-12.9-6.5-19.6-9.1c-12.7-5-26-8.8-38.4-14.6c-16.9-7.9-28.3-21-31.4-40c-5.4-33.3,9.4-60.2,41-72
	c38.5-14.4,74.8-9.3,107.9,15.8c4,3,3.9,3.2,0.5,6.8c-9,9.5-17.9,18.9-26.9,28.4C159.4,253.9,158.4,254.7,157.1,255.9z"/>
</svg>
