<?xml version="1.0" encoding="utf-8"?>
<!-- Generator: Adobe Illustrator 19.1.0, SVG Export Plug-In . SVG Version: 6.00 Build 0)  -->
<!DOCTYPE svg PUBLIC "-//W3C//DTD SVG 1.1//EN" "http://www.w3.org/Graphics/SVG/1.1/DTD/svg11.dtd">
<svg version="1.1" id="Layer_1" xmlns="http://www.w3.org/2000/svg" xmlns:xlink="http://www.w3.org/1999/xlink" x="0px" y="0px"
	 viewBox="0 0 789.8 154.4" enable-background="new 0 0 789.8 154.4" xml:space="preserve">
<path fill="#FFFFFF" d="M572.6,54.4c-0.7-2.3-1.2-4.2-1.5-5.5c-1.2,4.7-4.7,16.2-10.5,35.2h21.1C576.3,66.1,573.2,56.7,572.6,54.4z
	 M652.8,53.2c-2.2-1.9-5.6-3.1-10.3-3.1h-7.4v24h5.2c5.3,0,9.2-0.8,11.8-2.9c2.6-2.1,3.9-5.1,3.9-9.1
	C656.1,58.1,655,55.1,652.8,53.2z M652.8,53.2c-2.2-1.9-5.6-3.1-10.3-3.1h-7.4v24h5.2c5.3,0,9.2-0.8,11.8-2.9
	c2.6-2.1,3.9-5.1,3.9-9.1C656.1,58.1,655,55.1,652.8,53.2z M572.6,54.4c-0.7-2.3-1.2-4.2-1.5-5.5c-1.2,4.7-4.7,16.2-10.5,35.2h21.1
	C576.3,66.1,573.2,56.7,572.6,54.4z M14.1,14.1v126h759v-126H14.1z M106.1,51.1h-22v66h-17v-66h-22v-15h61V51.1z M199.1,117.1h-19.5
	l-11-42.4c-0.4-1.5-1.1-4.5-2.1-9.2c-1-4.7-1.5-8-1.7-9.6c-0.2,2-0.8,5.2-1.7,9.6c-0.9,4.4-1.6,7.5-2,9.4l-10.9,42.2h-19.5l-20.7-81
	H127l10.4,44.3c1.8,8.2,3.1,15.4,3.9,21.4c0.2-2.1,0.7-5.4,1.5-9.8c0.8-4.4,1.5-7.9,2.2-10.4l11.8-45.5H173l11.8,45.5
	c0.5,2,1.2,5.3,1.9,9.5c0.8,4.2,1.4,7.7,1.8,10.7c0.4-2.9,1-6.5,1.8-10.8c0.8-4.3,1.5-7.9,2.2-10.5l10.3-44.4h16.9L199.1,117.1z
	 M244.1,117.1h-17v-81h17V117.1z M313.1,117.1h-60v-10.8L292,51.1h-37.8v-15h58v11.4l-38.5,55.6h39.5V117.1z M380.1,117.1h-60v-10.8
	l38.6-55.2h-37.6v-15h58v11.4l-38.8,55.6h39.8V117.1z M439.1,117.1h-50v-81h17v67h33V117.1z M496.1,50.1h-30v18h28v14h-28v21h30v14
	h-47v-81h47V50.1z M591.7,117.1l-5.9-19h-29.5l-5.9,19H532l28.6-81h21l28.7,81H591.7z M665.3,81.9c-5.4,4.6-13.2,7.2-23.2,7.2h-6.9
	v28h-18v-81h26.2c9.8,0,17.3,2.3,22.4,6.5c5.1,4.2,7.7,10.7,7.7,19.1C673.4,70.4,670.7,77.3,665.3,81.9z M730.2,81.9
	c-5.4,4.6-13.2,7.2-23.2,7.2h-6.9v28h-18v-81h26.2c9.8,0,17.3,2.3,22.4,6.5c5.1,4.2,7.7,10.7,7.7,19.1
	C738.4,70.4,735.7,77.3,730.2,81.9z M717.8,53.2c-2.2-1.9-5.6-3.1-10.3-3.1h-7.3v24h5.2c5.3,0,9.2-0.8,11.9-2.9
	c2.6-2.1,3.9-5.1,3.9-9.1C721.1,58.1,720,55.1,717.8,53.2z M652.8,53.2c-2.2-1.9-5.6-3.1-10.3-3.1h-7.4v24h5.2
	c5.3,0,9.2-0.8,11.8-2.9c2.6-2.1,3.9-5.1,3.9-9.1C656.1,58.1,655,55.1,652.8,53.2z M571.1,48.9c-1.2,4.7-4.7,16.2-10.5,35.2h21.1
	c-5.4-18-8.5-27.4-9.2-29.7S571.4,50.2,571.1,48.9z M572.6,54.4c-0.7-2.3-1.2-4.2-1.5-5.5c-1.2,4.7-4.7,16.2-10.5,35.2h21.1
	C576.3,66.1,573.2,56.7,572.6,54.4z M572.6,54.4c-0.7-2.3-1.2-4.2-1.5-5.5c-1.2,4.7-4.7,16.2-10.5,35.2h21.1
	C576.3,66.1,573.2,56.7,572.6,54.4z"/>
</svg>
