<svg xmlns="http://www.w3.org/2000/svg" viewBox="0 0 789.8 154.4" enable-background="new 0 0 789.8 154.4"><path fill="#fff" d="M572.6 54.4c-.7-2.3-1.2-4.2-1.5-5.5-1.2 4.7-4.7 16.2-10.5 35.2h21.1c-5.4-18-8.5-27.4-9.1-29.7zm80.2-1.2c-2.2-1.9-5.6-3.1-10.3-3.1h-7.4v24h5.2c5.3 0 9.2-.8 11.8-2.9 2.6-2.1 3.9-5.1 3.9-9.1.1-4-1-7-3.2-8.9zm0 0c-2.2-1.9-5.6-3.1-10.3-3.1h-7.4v24h5.2c5.3 0 9.2-.8 11.8-2.9 2.6-2.1 3.9-5.1 3.9-9.1.1-4-1-7-3.2-8.9zm-80.2 1.2c-.7-2.3-1.2-4.2-1.5-5.5-1.2 4.7-4.7 16.2-10.5 35.2h21.1c-5.4-18-8.5-27.4-9.1-29.7zm-558.5-40.3v126h759v-126h-759zm92 37h-22v66h-17v-66h-22v-15h61v15zm93 66h-19.5l-11-42.4c-.4-1.5-1.1-4.5-2.1-9.2-1-4.7-1.5-8-1.7-9.6-.2 2-.8 5.2-1.7 9.6-.9 4.4-1.6 7.5-2 9.4l-10.9 42.2h-19.5l-20.7-81h17l10.4 44.3c1.8 8.2 3.1 15.4 3.9 21.4.2-2.1.7-5.4 1.5-9.8s1.5-7.9 2.2-10.4l11.8-45.5h16.2l11.8 45.5c.5 2 1.2 5.3 1.9 9.5.8 4.2 1.4 7.7 1.8 10.7.4-2.9 1-6.5 1.8-10.8.8-4.3 1.5-7.9 2.2-10.5l10.3-44.4h16.9l-20.6 81zm45 0h-17v-81h17v81zm69 0h-60v-10.8l38.9-55.2h-37.8v-15h58v11.4l-38.5 55.6h39.5v14zm67 0h-60v-10.8l38.6-55.2h-37.6v-15h58v11.4l-38.8 55.6h39.8v14zm59 0h-50v-81h17v67h33v14zm57-67h-30v18h28v14h-28v21h30v14h-47v-81h47v14zm95.6 67l-5.9-19h-29.5l-5.9 19h-18.4l28.6-81h21l28.7 81h-18.6zm73.6-35.2c-5.4 4.6-13.2 7.2-23.2 7.2h-6.9v28h-18v-81h26.2c9.8 0 17.3 2.3 22.4 6.5 5.1 4.2 7.7 10.7 7.7 19.1-.1 8.7-2.8 15.6-8.2 20.2zm64.9 0c-5.4 4.6-13.2 7.2-23.2 7.2h-6.9v28h-18v-81h26.2c9.8 0 17.3 2.3 22.4 6.5 5.1 4.2 7.7 10.7 7.7 19.1 0 8.7-2.7 15.6-8.2 20.2zm-12.4-28.7c-2.2-1.9-5.6-3.1-10.3-3.1h-7.3v24h5.2c5.3 0 9.2-.8 11.9-2.9 2.6-2.1 3.9-5.1 3.9-9.1-.1-4-1.2-7-3.4-8.9zm-65 0c-2.2-1.9-5.6-3.1-10.3-3.1h-7.4v24h5.2c5.3 0 9.2-.8 11.8-2.9 2.6-2.1 3.9-5.1 3.9-9.1.1-4-1-7-3.2-8.9zm-81.7-4.3c-1.2 4.7-4.7 16.2-10.5 35.2h21.1c-5.4-18-8.5-27.4-9.2-29.7s-1.1-4.2-1.4-5.5zm1.5 5.5c-.7-2.3-1.2-4.2-1.5-5.5-1.2 4.7-4.7 16.2-10.5 35.2h21.1c-5.4-18-8.5-27.4-9.1-29.7zm0 0c-.7-2.3-1.2-4.2-1.5-5.5-1.2 4.7-4.7 16.2-10.5 35.2h21.1c-5.4-18-8.5-27.4-9.1-29.7z"/></svg>