<?xml version="1.0" encoding="utf-8"?>
<!-- Generator: Adobe Illustrator 19.1.0, SVG Export Plug-In . SVG Version: 6.00 Build 0)  -->
<!DOCTYPE svg PUBLIC "-//W3C//DTD SVG 1.1//EN" "http://www.w3.org/Graphics/SVG/1.1/DTD/svg11.dtd">
<svg version="1.1" id="Layer_1" xmlns="http://www.w3.org/2000/svg" xmlns:xlink="http://www.w3.org/1999/xlink" x="0px" y="0px"
	 viewBox="0 0 786 148.4" enable-background="new 0 0 786 148.4" xml:space="preserve">
<path fill="#FFFFFF" d="M248.6,56.8c-4.5,0-8,1.5-10.3,4.6c-2.3,3-3.5,7.6-3.5,13.6c0,6,1.1,10.5,3.4,13.6c2.3,3,5.7,4.6,10.2,4.6
	c9.1,0,13.7-6,13.7-18.2C262.2,62.9,257.6,56.8,248.6,56.8z M248.6,56.8c-4.5,0-8,1.5-10.3,4.6c-2.3,3-3.5,7.6-3.5,13.6
	c0,6,1.1,10.5,3.4,13.6c2.3,3,5.7,4.6,10.2,4.6c9.1,0,13.7-6,13.7-18.2C262.2,62.9,257.6,56.8,248.6,56.8z M248.6,56.8
	c-4.5,0-8,1.5-10.3,4.6c-2.3,3-3.5,7.6-3.5,13.6c0,6,1.1,10.5,3.4,13.6c2.3,3,5.7,4.6,10.2,4.6c9.1,0,13.7-6,13.7-18.2
	C262.2,62.9,257.6,56.8,248.6,56.8z M327.9,59.5c-1.8-1.1-4.5-1.3-8.2-1.3h-3v14h3.2c3.6,0,6.3-0.7,8-1.9c1.7-1.2,2.6-3,2.6-5.5
	C330.6,62.3,329.7,60.6,327.9,59.5z M327.9,59.5c-1.8-1.1-4.5-1.3-8.2-1.3h-3v14h3.2c3.6,0,6.3-0.7,8-1.9c1.7-1.2,2.6-3,2.6-5.5
	C330.6,62.3,329.7,60.6,327.9,59.5z M248.6,56.8c-4.5,0-8,1.5-10.3,4.6c-2.3,3-3.5,7.6-3.5,13.6c0,6,1.1,10.5,3.4,13.6
	c2.3,3,5.7,4.6,10.2,4.6c9.1,0,13.7-6,13.7-18.2C262.2,62.9,257.6,56.8,248.6,56.8z M248.6,56.8c-4.5,0-8,1.5-10.3,4.6
	c-2.3,3-3.5,7.6-3.5,13.6c0,6,1.1,10.5,3.4,13.6c2.3,3,5.7,4.6,10.2,4.6c9.1,0,13.7-6,13.7-18.2C262.2,62.9,257.6,56.8,248.6,56.8z
	 M327.9,59.5c-1.8-1.1-4.5-1.3-8.2-1.3h-3v14h3.2c3.6,0,6.3-0.7,8-1.9c1.7-1.2,2.6-3,2.6-5.5C330.6,62.3,329.7,60.6,327.9,59.5z
	 M442.8,59.8c-1.5-1.3-3.8-1.6-6.9-1.6h-5.2v15h3.7c3.5,0,6.1-0.5,7.9-1.9c1.8-1.4,2.6-3.2,2.6-5.8C445,62.8,444.3,61.1,442.8,59.8z
	 M442.8,59.8c-1.5-1.3-3.8-1.6-6.9-1.6h-5.2v15h3.7c3.5,0,6.1-0.5,7.9-1.9c1.8-1.4,2.6-3.2,2.6-5.8C445,62.8,444.3,61.1,442.8,59.8z
	 M327.9,59.5c-1.8-1.1-4.5-1.3-8.2-1.3h-3v14h3.2c3.6,0,6.3-0.7,8-1.9c1.7-1.2,2.6-3,2.6-5.5C330.6,62.3,329.7,60.6,327.9,59.5z
	 M248.6,56.8c-4.5,0-8,1.5-10.3,4.6c-2.3,3-3.5,7.6-3.5,13.6c0,6,1.1,10.5,3.4,13.6c2.3,3,5.7,4.6,10.2,4.6c9.1,0,13.7-6,13.7-18.2
	C262.2,62.9,257.6,56.8,248.6,56.8z M248.6,56.8c-4.5,0-8,1.5-10.3,4.6c-2.3,3-3.5,7.6-3.5,13.6c0,6,1.1,10.5,3.4,13.6
	c2.3,3,5.7,4.6,10.2,4.6c9.1,0,13.7-6,13.7-18.2C262.2,62.9,257.6,56.8,248.6,56.8z M327.9,59.5c-1.8-1.1-4.5-1.3-8.2-1.3h-3v14h3.2
	c3.6,0,6.3-0.7,8-1.9c1.7-1.2,2.6-3,2.6-5.5C330.6,62.3,329.7,60.6,327.9,59.5z M442.8,59.8c-1.5-1.3-3.8-1.6-6.9-1.6h-5.2v15h3.7
	c3.5,0,6.1-0.5,7.9-1.9c1.8-1.4,2.6-3.2,2.6-5.8C445,62.8,444.3,61.1,442.8,59.8z M482.4,60.3c-0.5-1.5-0.8-2.7-1-3.6
	c-0.8,3.2-3.1,10.5-7,23.5h14C484.9,68.2,482.9,61.8,482.4,60.3z M482.4,60.3c-0.5-1.5-0.8-2.7-1-3.6c-0.8,3.2-3.1,10.5-7,23.5h14
	C484.9,68.2,482.9,61.8,482.4,60.3z M442.8,59.8c-1.5-1.3-3.8-1.6-6.9-1.6h-5.2v15h3.7c3.5,0,6.1-0.5,7.9-1.9
	c1.8-1.4,2.6-3.2,2.6-5.8C445,62.8,444.3,61.1,442.8,59.8z M327.9,59.5c-1.8-1.1-4.5-1.3-8.2-1.3h-3v14h3.2c3.6,0,6.3-0.7,8-1.9
	c1.7-1.2,2.6-3,2.6-5.5C330.6,62.3,329.7,60.6,327.9,59.5z M248.6,56.8c-4.5,0-8,1.5-10.3,4.6c-2.3,3-3.5,7.6-3.5,13.6
	c0,6,1.1,10.5,3.4,13.6c2.3,3,5.7,4.6,10.2,4.6c9.1,0,13.7-6,13.7-18.2C262.2,62.9,257.6,56.8,248.6,56.8z M248.6,56.8
	c-4.5,0-8,1.5-10.3,4.6c-2.3,3-3.5,7.6-3.5,13.6c0,6,1.1,10.5,3.4,13.6c2.3,3,5.7,4.6,10.2,4.6c9.1,0,13.7-6,13.7-18.2
	C262.2,62.9,257.6,56.8,248.6,56.8z M327.9,59.5c-1.8-1.1-4.5-1.3-8.2-1.3h-3v14h3.2c3.6,0,6.3-0.7,8-1.9c1.7-1.2,2.6-3,2.6-5.5
	C330.6,62.3,329.7,60.6,327.9,59.5z M442.8,59.8c-1.5-1.3-3.8-1.6-6.9-1.6h-5.2v15h3.7c3.5,0,6.1-0.5,7.9-1.9
	c1.8-1.4,2.6-3.2,2.6-5.8C445,62.8,444.3,61.1,442.8,59.8z M482.4,60.3c-0.5-1.5-0.8-2.7-1-3.6c-0.8,3.2-3.1,10.5-7,23.5h14
	C484.9,68.2,482.9,61.8,482.4,60.3z M482.4,60.3c-0.5-1.5-0.8-2.7-1-3.6c-0.8,3.2-3.1,10.5-7,23.5h14
	C484.9,68.2,482.9,61.8,482.4,60.3z M442.8,59.8c-1.5-1.3-3.8-1.6-6.9-1.6h-5.2v15h3.7c3.5,0,6.1-0.5,7.9-1.9
	c1.8-1.4,2.6-3.2,2.6-5.8C445,62.8,444.3,61.1,442.8,59.8z M327.9,59.5c-1.8-1.1-4.5-1.3-8.2-1.3h-3v14h3.2c3.6,0,6.3-0.7,8-1.9
	c1.7-1.2,2.6-3,2.6-5.5C330.6,62.3,329.7,60.6,327.9,59.5z M248.6,56.8c-4.5,0-8,1.5-10.3,4.6c-2.3,3-3.5,7.6-3.5,13.6
	c0,6,1.1,10.5,3.4,13.6c2.3,3,5.7,4.6,10.2,4.6c9.1,0,13.7-6,13.7-18.2C262.2,62.9,257.6,56.8,248.6,56.8z M248.6,56.8
	c-4.5,0-8,1.5-10.3,4.6c-2.3,3-3.5,7.6-3.5,13.6c0,6,1.1,10.5,3.4,13.6c2.3,3,5.7,4.6,10.2,4.6c9.1,0,13.7-6,13.7-18.2
	C262.2,62.9,257.6,56.8,248.6,56.8z M327.9,59.5c-1.8-1.1-4.5-1.3-8.2-1.3h-3v14h3.2c3.6,0,6.3-0.7,8-1.9c1.7-1.2,2.6-3,2.6-5.5
	C330.6,62.3,329.7,60.6,327.9,59.5z M442.8,59.8c-1.5-1.3-3.8-1.6-6.9-1.6h-5.2v15h3.7c3.5,0,6.1-0.5,7.9-1.9
	c1.8-1.4,2.6-3.2,2.6-5.8C445,62.8,444.3,61.1,442.8,59.8z M482.4,60.3c-0.5-1.5-0.8-2.7-1-3.6c-0.8,3.2-3.1,10.5-7,23.5h14
	C484.9,68.2,482.9,61.8,482.4,60.3z M627.4,60.3c-0.5-1.5-0.8-2.7-1-3.6c-0.8,3.2-3.1,10.5-7,23.5h14
	C629.9,68.2,627.9,61.8,627.4,60.3z M627.4,60.3c-0.5-1.5-0.8-2.7-1-3.6c-0.8,3.2-3.1,10.5-7,23.5h14
	C629.9,68.2,627.9,61.8,627.4,60.3z M482.4,60.3c-0.5-1.5-0.8-2.7-1-3.6c-0.8,3.2-3.1,10.5-7,23.5h14
	C484.9,68.2,482.9,61.8,482.4,60.3z M442.8,59.8c-1.5-1.3-3.8-1.6-6.9-1.6h-5.2v15h3.7c3.5,0,6.1-0.5,7.9-1.9
	c1.8-1.4,2.6-3.2,2.6-5.8C445,62.8,444.3,61.1,442.8,59.8z M327.9,59.5c-1.8-1.1-4.5-1.3-8.2-1.3h-3v14h3.2c3.6,0,6.3-0.7,8-1.9
	c1.7-1.2,2.6-3,2.6-5.5C330.6,62.3,329.7,60.6,327.9,59.5z M248.6,56.8c-4.5,0-8,1.5-10.3,4.6c-2.3,3-3.5,7.6-3.5,13.6
	c0,6,1.1,10.5,3.4,13.6c2.3,3,5.7,4.6,10.2,4.6c9.1,0,13.7-6,13.7-18.2C262.2,62.9,257.6,56.8,248.6,56.8z M81.6,99.8
	c-0.4,0.2-0.8,0.4-1.2,0.6c-0.8,0.4-1.7,0.8-2.6,1c0.9-0.3,1.8-0.6,2.6-1c0.5-0.2,0.9-0.5,1.4-0.7c0,0,0,0,0,0
	c0.1-0.1,0.2-0.1,0.3-0.2c0,0,0.1,0,0.1-0.1C82.1,99.5,81.8,99.7,81.6,99.8z M82.3,99.4c0.3-0.2,0.6-0.4,0.8-0.5v0
	C82.8,99.1,82.5,99.2,82.3,99.4z M77.1,90.3c-0.3,0.4-0.7,0.7-1,1C76.4,91,76.8,90.6,77.1,90.3c1.1-1.2,1.9-2.9,2.3-5
	C78.9,87.4,78.1,89.1,77.1,90.3z M60.4,90.3c-1.2-1.5-2.1-3.5-2.5-6.2C58.3,86.8,59.2,88.8,60.4,90.3c0.4,0.5,0.9,0.9,1.4,1.3
	C61.3,91.2,60.9,90.8,60.4,90.3z M59.1,101.5c0.9,0.3,1.8,0.5,2.7,0.7C60.9,102,60,101.7,59.1,101.5z M61.8,102.2
	c0.9,0.2,1.9,0.3,2.9,0.4C63.7,102.5,62.8,102.3,61.8,102.2z M248.6,56.8c-4.5,0-8,1.5-10.3,4.6c-2.3,3-3.5,7.6-3.5,13.6
	c0,6,1.1,10.5,3.4,13.6c2.3,3,5.7,4.6,10.2,4.6c9.1,0,13.7-6,13.7-18.2C262.2,62.9,257.6,56.8,248.6,56.8z M327.9,59.5
	c-1.8-1.1-4.5-1.3-8.2-1.3h-3v14h3.2c3.6,0,6.3-0.7,8-1.9c1.7-1.2,2.6-3,2.6-5.5C330.6,62.3,329.7,60.6,327.9,59.5z M335,76.8
	c0.9-0.5,1.7-1.2,2.4-1.9C336.7,75.6,335.9,76.2,335,76.8z M340.8,56.5C340.8,56.4,340.8,56.4,340.8,56.5c-1-0.5-0.7-0.9-1-1.4
	c-0.8-1.1-1.8-2.1-2.9-2.9c-2-1.5-4.6-2.6-7.8-3.2c-0.1,0-0.3-0.1-0.5-0.1c0.2,0,0.3,0.1,0.4,0.1c0.1,0,0.2,0,0.3,0.1
	c3.1,0.7,5.5,1.7,7.5,3.2c2,1.5,3.4,3.5,4.3,6c0,0.1,0.1,0.2,0.1,0.4c0.1,0.2,0.2,0.5,0.2,0.7c0,0,0,0,0,0l0,0h0c0,0,0.1,0,0.1,0
	C341.4,58.2,340.8,57.3,340.8,56.5z M341.6,68c0,0.2-0.1,0.3-0.1,0.5c0,0.1,0,0.1-0.1,0.2c-0.1,0.4-0.2,0.7-0.4,1c0,0,0,0.1-0.1,0.1
	c-0.1,0.1-0.1,0.3-0.2,0.5c-0.2,0.4-0.5,0.9-0.7,1.3c0.1-0.2,0.2-0.4,0.4-0.5c0.7-1.1,1.3-2.3,1.3-3.6
	C341.7,67.7,341.7,67.8,341.6,68z M341.8,63.3v1.3c0-0.1,0-0.2,0-0.3C341.8,63.9,341.8,63.6,341.8,63.3z M341.8,66.2
	c0,0.1,0,0.2,0,0.3c0,0,0,0,0,0c0,0.1,0,0.1,0,0.1c0,0,0,0.1,0,0.2c0-0.1,0-0.1,0-0.2c0,0,0,0,0,0c0,0,0-0.1,0-0.1
	c0-0.2,0-0.3,0.1-0.3H341.8z M442.8,59.8c-1.5-1.3-3.8-1.6-6.9-1.6h-5.2v15h3.7c3.5,0,6.1-0.5,7.9-1.9c1.8-1.4,2.6-3.2,2.6-5.8
	C445,62.8,444.3,61.1,442.8,59.8z M482.4,60.3c-0.5-1.5-0.8-2.7-1-3.6c-0.8,3.2-3.1,10.5-7,23.5h14
	C484.9,68.2,482.9,61.8,482.4,60.3z M520.1,71.2c0.1-0.6,0.2-1.2,0.3-1.8c0-0.3,0.1-0.6,0.2-0.9c0-0.2,0.1-0.5,0.2-0.7
	c0.2-0.6,0.3-1.2,0.5-1.8c0,0,0-0.1,0-0.1c0.5-1.5,1.2-2.9,2.1-4.1c0.7-1,1.5-1.8,2.4-2.5c-0.9,0.7-1.7,1.5-2.5,2.5
	c-0.3,0.4-0.6,0.8-0.8,1.3c-1.8,3.1-2.7,7.2-2.7,12.2c0,7,1.6,11.9,4.8,14.8c-3.1-2.9-4.7-7.9-4.7-14.8
	C519.9,73.8,520,72.5,520.1,71.2z M516.6,53.2c0.6-0.5,1.2-1,1.9-1.5C517.9,52.1,517.2,52.6,516.6,53.2z M514.4,95.7
	c-4.1-4.8-6.3-11.6-6.3-20.5c0-5.6,1-10.5,3-14.7c0.9-1.8,1.9-3.5,3.1-4.9c-1.2,1.4-2.3,3.1-3.1,4.9c-2,4.2-3,9.1-3,14.7
	C508.1,84.1,510.2,90.9,514.4,95.7c2.4,2.8,5.5,4.8,9.3,5.9C520,100.4,516.8,98.4,514.4,95.7z M627.4,60.3c-0.5-1.5-0.8-2.7-1-3.6
	c-0.8,3.2-3.1,10.5-7,23.5h14C629.9,68.2,627.9,61.8,627.4,60.3z M681.6,47.2c-8.8,0-15.7,3-20.7,7h0c-5,5-7.5,11.9-7.5,20.6
	c0,1.8,0.1,3.5,0.3,5.1c-0.2-1.5-0.2-3.1-0.2-4.8c0-8.7,2.5-15.5,7.4-20.3c5-4.9,11.9-7.3,20.7-7.3c5.5,0,10.8,1.1,16,3.3
	C692.4,48.5,687.1,47.2,681.6,47.2z M81.6,99.8c-0.4,0.2-0.8,0.4-1.2,0.6c-0.8,0.4-1.7,0.8-2.6,1c0.9-0.3,1.8-0.6,2.6-1
	c0.5-0.2,0.9-0.5,1.4-0.7c0,0,0,0,0,0c0.1-0.1,0.2-0.1,0.3-0.2c0,0,0.1,0,0.1-0.1C82.1,99.5,81.8,99.7,81.6,99.8z M82.3,99.4
	c0.3-0.2,0.6-0.4,0.8-0.5v0C82.8,99.1,82.5,99.2,82.3,99.4z M77.1,90.3c-0.3,0.4-0.7,0.7-1,1C76.4,91,76.8,90.6,77.1,90.3
	c1.1-1.2,1.9-2.9,2.3-5C78.9,87.4,78.1,89.1,77.1,90.3z M60.4,90.3c-1.2-1.5-2.1-3.5-2.5-6.2C58.3,86.8,59.2,88.8,60.4,90.3
	c0.4,0.5,0.9,0.9,1.4,1.3C61.3,91.2,60.9,90.8,60.4,90.3z M59.1,101.5c0.9,0.3,1.8,0.5,2.7,0.7C60.9,102,60,101.7,59.1,101.5z
	 M61.8,102.2c0.9,0.2,1.9,0.3,2.9,0.4C63.7,102.5,62.8,102.3,61.8,102.2z M191.5,65.4c0.1-0.3,0.2-0.6,0.3-0.8
	c0.2-0.5,0.5-1.1,0.8-1.6c0.3-0.4,0.5-0.9,0.8-1.3c1-1.4,2.2-2.5,3.6-3.3c-1.4,0.8-2.6,1.9-3.6,3.3c-1.8,2.4-2.9,5.5-3.3,9.4
	c0,0.3-0.1,0.7-0.1,1c-0.1,1-0.1,2-0.1,3.1c0,7.3,1.6,12.3,4.9,15.2c-3.2-2.9-4.8-7.9-4.8-15.2c0-3.6,0.5-6.7,1.4-9.3
	C191.4,65.8,191.4,65.6,191.5,65.4z M248.6,56.8c-4.5,0-8,1.5-10.3,4.6c-2.3,3-3.5,7.6-3.5,13.6c0,6,1.1,10.5,3.4,13.6
	c2.3,3,5.7,4.6,10.2,4.6c9.1,0,13.7-6,13.7-18.2C262.2,62.9,257.6,56.8,248.6,56.8z M327.9,59.5c-1.8-1.1-4.5-1.3-8.2-1.3h-3v14h3.2
	c3.6,0,6.3-0.7,8-1.9c1.7-1.2,2.6-3,2.6-5.5C330.6,62.3,329.7,60.6,327.9,59.5z M340.1,71.6c0,0-0.1,0.1-0.1,0.1
	c-0.2,0.2-0.3,0.5-0.5,0.8c-0.4,0.6-0.9,1.2-1.4,1.8c-0.2,0.2-0.4,0.4-0.6,0.6c-0.7,0.7-1.5,1.3-2.4,1.9c-0.1,0.1-0.2,0.1-0.3,0.2
	c-0.2,0.1-0.4,0.3-0.7,0.4c0.1,0,0.2-0.1,0.3-0.1c0,0,0,0,0,0c2.1-1.1,3.8-2.8,5.1-4.6c0.4-0.5,0.7-1,1-1.5c0.1-0.2,0.3-0.5,0.4-0.8
	C340.6,70.7,340.3,71.2,340.1,71.6z M341.9,66.5c0-0.1,0-0.2,0-0.3c0-0.1,0-0.1,0-0.2c0-0.1,0-0.1,0-0.2c0,0,0,0,0-0.1c0,0,0,0,0,0
	c0-0.1,0-0.2,0-0.2c0,0.1,0,0.1,0,0.2s0,0.2,0,0.2c0,0,0,0,0,0c0,0,0,0,0,0c0,0,0,0.2,0,0.2h0C341.8,66.3,341.8,66.4,341.9,66.5
	C341.8,66.5,341.9,66.5,341.9,66.5c0,0.1,0,0.1,0,0.2c0,0,0,0.1,0,0.2c0-0.1,0-0.1,0-0.2C341.9,66.6,341.9,66.6,341.9,66.5
	C341.9,66.5,341.9,66.5,341.9,66.5C341.9,66.5,341.9,66.5,341.9,66.5z M342,62.4c0,0,0-0.1,0-0.1c0-0.2,0-0.3-0.1-0.5
	c-0.1-0.4-0.1-0.8-0.1-1.2c0,0.1,0,0.2,0,0.3c0,0.1,0,0.3,0,0.4c0,0.3,0,0.5,0,0.8v3.3c0-0.1,0-0.2,0-0.3c0-0.1,0-0.1,0-0.2
	c0,0,0,0,0,0c0-0.2,0.1-0.4,0.1-0.6c0,0,0,0,0-0.1c0-0.3,0-0.6,0-1C342,63,342,62.7,342,62.4z M442.8,59.8c-1.5-1.3-3.8-1.6-6.9-1.6
	h-5.2v15h3.7c3.5,0,6.1-0.5,7.9-1.9c1.8-1.4,2.6-3.2,2.6-5.8C445,62.8,444.3,61.1,442.8,59.8z M482.4,60.3c-0.5-1.5-0.8-2.7-1-3.6
	c-0.8,3.2-3.1,10.5-7,23.5h14C484.9,68.2,482.9,61.8,482.4,60.3z M516.6,53.2c0.6-0.5,1.2-1,1.9-1.5
	C517.9,52.1,517.2,52.6,516.6,53.2z M514.4,95.7c-4.1-4.8-6.3-11.6-6.3-20.5c0-5.6,1-10.5,3-14.7c0.9-1.8,1.9-3.5,3.1-4.9
	c-1.2,1.4-2.3,3.1-3.1,4.9c-2,4.2-3,9.1-3,14.7C508.1,84.1,510.2,90.9,514.4,95.7c2.4,2.8,5.5,4.8,9.3,5.9
	C520,100.4,516.8,98.4,514.4,95.7z M627.4,60.3c-0.5-1.5-0.8-2.7-1-3.6c-0.8,3.2-3.1,10.5-7,23.5h14
	C629.9,68.2,627.9,61.8,627.4,60.3z M681.6,47.2c-8.8,0-15.7,3-20.7,7h0c-5,5-7.5,11.9-7.5,20.6c0,1.8,0.1,3.5,0.3,5.1
	c-0.2-1.5-0.2-3.1-0.2-4.8c0-8.7,2.5-15.5,7.4-20.3c5-4.9,11.9-7.3,20.7-7.3c5.5,0,10.8,1.1,16,3.3
	C692.4,48.5,687.1,47.2,681.6,47.2z M627.4,60.3c-0.5-1.5-0.8-2.7-1-3.6c-0.8,3.2-3.1,10.5-7,23.5h14
	C629.9,68.2,627.9,61.8,627.4,60.3z M482.4,60.3c-0.5-1.5-0.8-2.7-1-3.6c-0.8,3.2-3.1,10.5-7,23.5h14
	C484.9,68.2,482.9,61.8,482.4,60.3z M442.8,59.8c-1.5-1.3-3.8-1.6-6.9-1.6h-5.2v15h3.7c3.5,0,6.1-0.5,7.9-1.9
	c1.8-1.4,2.6-3.2,2.6-5.8C445,62.8,444.3,61.1,442.8,59.8z M327.9,59.5c-1.8-1.1-4.5-1.3-8.2-1.3h-3v14h3.2c3.6,0,6.3-0.7,8-1.9
	c1.7-1.2,2.6-3,2.6-5.5C330.6,62.3,329.7,60.6,327.9,59.5z M248.6,56.8c-4.5,0-8,1.5-10.3,4.6c-2.3,3-3.5,7.6-3.5,13.6
	c0,6,1.1,10.5,3.4,13.6c2.3,3,5.7,4.6,10.2,4.6c9.1,0,13.7-6,13.7-18.2C262.2,62.9,257.6,56.8,248.6,56.8z M248.6,56.8
	c-4.5,0-8,1.5-10.3,4.6c-2.3,3-3.5,7.6-3.5,13.6c0,6,1.1,10.5,3.4,13.6c2.3,3,5.7,4.6,10.2,4.6c9.1,0,13.7-6,13.7-18.2
	C262.2,62.9,257.6,56.8,248.6,56.8z M327.9,59.5c-1.8-1.1-4.5-1.3-8.2-1.3h-3v14h3.2c3.6,0,6.3-0.7,8-1.9c1.7-1.2,2.6-3,2.6-5.5
	C330.6,62.3,329.7,60.6,327.9,59.5z M442.8,59.8c-1.5-1.3-3.8-1.6-6.9-1.6h-5.2v15h3.7c3.5,0,6.1-0.5,7.9-1.9
	c1.8-1.4,2.6-3.2,2.6-5.8C445,62.8,444.3,61.1,442.8,59.8z M482.4,60.3c-0.5-1.5-0.8-2.7-1-3.6c-0.8,3.2-3.1,10.5-7,23.5h14
	C484.9,68.2,482.9,61.8,482.4,60.3z M627.4,60.3c-0.5-1.5-0.8-2.7-1-3.6c-0.8,3.2-3.1,10.5-7,23.5h14
	C629.9,68.2,627.9,61.8,627.4,60.3z M627.4,60.3c-0.5-1.5-0.8-2.7-1-3.6c-0.8,3.2-3.1,10.5-7,23.5h14
	C629.9,68.2,627.9,61.8,627.4,60.3z M482.4,60.3c-0.5-1.5-0.8-2.7-1-3.6c-0.8,3.2-3.1,10.5-7,23.5h14
	C484.9,68.2,482.9,61.8,482.4,60.3z M442.8,59.8c-1.5-1.3-3.8-1.6-6.9-1.6h-5.2v15h3.7c3.5,0,6.1-0.5,7.9-1.9
	c1.8-1.4,2.6-3.2,2.6-5.8C445,62.8,444.3,61.1,442.8,59.8z M327.9,59.5c-1.8-1.1-4.5-1.3-8.2-1.3h-3v14h3.2c3.6,0,6.3-0.7,8-1.9
	c1.7-1.2,2.6-3,2.6-5.5C330.6,62.3,329.7,60.6,327.9,59.5z M248.6,56.8c-4.5,0-8,1.5-10.3,4.6c-2.3,3-3.5,7.6-3.5,13.6
	c0,6,1.1,10.5,3.4,13.6c2.3,3,5.7,4.6,10.2,4.6c9.1,0,13.7-6,13.7-18.2C262.2,62.9,257.6,56.8,248.6,56.8z M248.6,56.8
	c-4.5,0-8,1.5-10.3,4.6c-2.3,3-3.5,7.6-3.5,13.6c0,6,1.1,10.5,3.4,13.6c2.3,3,5.7,4.6,10.2,4.6c9.1,0,13.7-6,13.7-18.2
	C262.2,62.9,257.6,56.8,248.6,56.8z M327.9,59.5c-1.8-1.1-4.5-1.3-8.2-1.3h-3v14h3.2c3.6,0,6.3-0.7,8-1.9c1.7-1.2,2.6-3,2.6-5.5
	C330.6,62.3,329.7,60.6,327.9,59.5z M442.8,59.8c-1.5-1.3-3.8-1.6-6.9-1.6h-5.2v15h3.7c3.5,0,6.1-0.5,7.9-1.9
	c1.8-1.4,2.6-3.2,2.6-5.8C445,62.8,444.3,61.1,442.8,59.8z M482.4,60.3c-0.5-1.5-0.8-2.7-1-3.6c-0.8,3.2-3.1,10.5-7,23.5h14
	C484.9,68.2,482.9,61.8,482.4,60.3z M482.4,60.3c-0.5-1.5-0.8-2.7-1-3.6c-0.8,3.2-3.1,10.5-7,23.5h14
	C484.9,68.2,482.9,61.8,482.4,60.3z M442.8,59.8c-1.5-1.3-3.8-1.6-6.9-1.6h-5.2v15h3.7c3.5,0,6.1-0.5,7.9-1.9
	c1.8-1.4,2.6-3.2,2.6-5.8C445,62.8,444.3,61.1,442.8,59.8z M327.9,59.5c-1.8-1.1-4.5-1.3-8.2-1.3h-3v14h3.2c3.6,0,6.3-0.7,8-1.9
	c1.7-1.2,2.6-3,2.6-5.5C330.6,62.3,329.7,60.6,327.9,59.5z M248.6,56.8c-4.5,0-8,1.5-10.3,4.6c-2.3,3-3.5,7.6-3.5,13.6
	c0,6,1.1,10.5,3.4,13.6c2.3,3,5.7,4.6,10.2,4.6c9.1,0,13.7-6,13.7-18.2C262.2,62.9,257.6,56.8,248.6,56.8z M248.6,56.8
	c-4.5,0-8,1.5-10.3,4.6c-2.3,3-3.5,7.6-3.5,13.6c0,6,1.1,10.5,3.4,13.6c2.3,3,5.7,4.6,10.2,4.6c9.1,0,13.7-6,13.7-18.2
	C262.2,62.9,257.6,56.8,248.6,56.8z M327.9,59.5c-1.8-1.1-4.5-1.3-8.2-1.3h-3v14h3.2c3.6,0,6.3-0.7,8-1.9c1.7-1.2,2.6-3,2.6-5.5
	C330.6,62.3,329.7,60.6,327.9,59.5z M442.8,59.8c-1.5-1.3-3.8-1.6-6.9-1.6h-5.2v15h3.7c3.5,0,6.1-0.5,7.9-1.9
	c1.8-1.4,2.6-3.2,2.6-5.8C445,62.8,444.3,61.1,442.8,59.8z M442.8,59.8c-1.5-1.3-3.8-1.6-6.9-1.6h-5.2v15h3.7c3.5,0,6.1-0.5,7.9-1.9
	c1.8-1.4,2.6-3.2,2.6-5.8C445,62.8,444.3,61.1,442.8,59.8z M327.9,59.5c-1.8-1.1-4.5-1.3-8.2-1.3h-3v14h3.2c3.6,0,6.3-0.7,8-1.9
	c1.7-1.2,2.6-3,2.6-5.5C330.6,62.3,329.7,60.6,327.9,59.5z M248.6,56.8c-4.5,0-8,1.5-10.3,4.6c-2.3,3-3.5,7.6-3.5,13.6
	c0,6,1.1,10.5,3.4,13.6c2.3,3,5.7,4.6,10.2,4.6c9.1,0,13.7-6,13.7-18.2C262.2,62.9,257.6,56.8,248.6,56.8z M248.6,56.8
	c-4.5,0-8,1.5-10.3,4.6c-2.3,3-3.5,7.6-3.5,13.6c0,6,1.1,10.5,3.4,13.6c2.3,3,5.7,4.6,10.2,4.6c9.1,0,13.7-6,13.7-18.2
	C262.2,62.9,257.6,56.8,248.6,56.8z M327.9,59.5c-1.8-1.1-4.5-1.3-8.2-1.3h-3v14h3.2c3.6,0,6.3-0.7,8-1.9c1.7-1.2,2.6-3,2.6-5.5
	C330.6,62.3,329.7,60.6,327.9,59.5z M327.9,59.5c-1.8-1.1-4.5-1.3-8.2-1.3h-3v14h3.2c3.6,0,6.3-0.7,8-1.9c1.7-1.2,2.6-3,2.6-5.5
	C330.6,62.3,329.7,60.6,327.9,59.5z M248.6,56.8c-4.5,0-8,1.5-10.3,4.6c-2.3,3-3.5,7.6-3.5,13.6c0,6,1.1,10.5,3.4,13.6
	c2.3,3,5.7,4.6,10.2,4.6c9.1,0,13.7-6,13.7-18.2C262.2,62.9,257.6,56.8,248.6,56.8z M248.6,56.8c-4.5,0-8,1.5-10.3,4.6
	c-2.3,3-3.5,7.6-3.5,13.6c0,6,1.1,10.5,3.4,13.6c2.3,3,5.7,4.6,10.2,4.6c9.1,0,13.7-6,13.7-18.2C262.2,62.9,257.6,56.8,248.6,56.8z
	 M327.9,59.5c-1.8-1.1-4.5-1.3-8.2-1.3h-3v14h3.2c3.6,0,6.3-0.7,8-1.9c1.7-1.2,2.6-3,2.6-5.5C330.6,62.3,329.7,60.6,327.9,59.5z
	 M327.9,59.5c-1.8-1.1-4.5-1.3-8.2-1.3h-3v14h3.2c3.6,0,6.3-0.7,8-1.9c1.7-1.2,2.6-3,2.6-5.5C330.6,62.3,329.7,60.6,327.9,59.5z
	 M248.6,56.8c-4.5,0-8,1.5-10.3,4.6c-2.3,3-3.5,7.6-3.5,13.6c0,6,1.1,10.5,3.4,13.6c2.3,3,5.7,4.6,10.2,4.6c9.1,0,13.7-6,13.7-18.2
	C262.2,62.9,257.6,56.8,248.6,56.8z M81.6,99.8c-0.4,0.2-0.8,0.4-1.2,0.6c-0.8,0.4-1.7,0.8-2.6,1c0.9-0.3,1.8-0.6,2.6-1
	c0.5-0.2,0.9-0.5,1.4-0.7c0,0,0,0,0,0c0.1-0.1,0.2-0.1,0.3-0.2c0,0,0.1,0,0.1-0.1C82.1,99.5,81.8,99.7,81.6,99.8z M82.3,99.4
	c0.3-0.2,0.6-0.4,0.8-0.5v0C82.8,99.1,82.5,99.2,82.3,99.4z M77.1,90.3c-0.3,0.4-0.7,0.7-1,1C76.4,91,76.8,90.6,77.1,90.3
	c1.1-1.2,1.9-2.9,2.3-5C78.9,87.4,78.1,89.1,77.1,90.3z M60.4,90.3c-1.2-1.5-2.1-3.5-2.5-6.2C58.3,86.8,59.2,88.8,60.4,90.3
	c0.4,0.5,0.9,0.9,1.4,1.3C61.3,91.2,60.9,90.8,60.4,90.3z M59.1,101.5c0.9,0.3,1.8,0.5,2.7,0.7C60.9,102,60,101.7,59.1,101.5z
	 M61.8,102.2c0.9,0.2,1.9,0.3,2.9,0.4C63.7,102.5,62.8,102.3,61.8,102.2z M248.6,56.8c-4.5,0-8,1.5-10.3,4.6
	c-2.3,3-3.5,7.6-3.5,13.6c0,6,1.1,10.5,3.4,13.6c2.3,3,5.7,4.6,10.2,4.6c9.1,0,13.7-6,13.7-18.2C262.2,62.9,257.6,56.8,248.6,56.8z
	 M327.9,59.5c-1.8-1.1-4.5-1.3-8.2-1.3h-3v14h3.2c3.6,0,6.3-0.7,8-1.9c1.7-1.2,2.6-3,2.6-5.5C330.6,62.3,329.7,60.6,327.9,59.5z
	 M335,76.8c0.9-0.5,1.7-1.2,2.4-1.9C336.7,75.6,335.9,76.2,335,76.8z M340.8,56.5C340.8,56.4,340.8,56.4,340.8,56.5
	c-1-0.5-0.7-0.9-1-1.4c-0.8-1.1-1.8-2.1-2.9-2.9c-2-1.5-4.6-2.6-7.8-3.2c-0.1,0-0.3-0.1-0.5-0.1c0.2,0,0.3,0.1,0.4,0.1
	c0.1,0,0.2,0,0.3,0.1c3.1,0.7,5.5,1.7,7.5,3.2c2,1.5,3.4,3.5,4.3,6c0,0.1,0.1,0.2,0.1,0.4c0.1,0.2,0.2,0.5,0.2,0.7c0,0,0,0,0,0l0,0
	h0c0,0,0.1,0,0.1,0C341.4,58.2,340.8,57.3,340.8,56.5z M341.6,68c0,0.2-0.1,0.3-0.1,0.5c0,0.1,0,0.1-0.1,0.2c-0.1,0.4-0.2,0.7-0.4,1
	c0,0,0,0.1-0.1,0.1c-0.1,0.1-0.1,0.3-0.2,0.5c-0.2,0.4-0.5,0.9-0.7,1.3c0.1-0.2,0.2-0.4,0.4-0.5c0.7-1.1,1.3-2.3,1.3-3.6
	C341.7,67.7,341.7,67.8,341.6,68z M341.8,63.3v1.3c0-0.1,0-0.2,0-0.3C341.8,63.9,341.8,63.6,341.8,63.3z M341.8,66.2
	c0,0.1,0,0.2,0,0.3c0,0,0,0,0,0c0,0.1,0,0.1,0,0.1c0,0,0,0.1,0,0.2c0-0.1,0-0.1,0-0.2c0,0,0,0,0,0c0,0,0-0.1,0-0.1
	c0-0.2,0-0.3,0.1-0.3H341.8z M442.8,59.8c-1.5-1.3-3.8-1.6-6.9-1.6h-5.2v15h3.7c3.5,0,6.1-0.5,7.9-1.9c1.8-1.4,2.6-3.2,2.6-5.8
	C445,62.8,444.3,61.1,442.8,59.8z M482.4,60.3c-0.5-1.5-0.8-2.7-1-3.6c-0.8,3.2-3.1,10.5-7,23.5h14
	C484.9,68.2,482.9,61.8,482.4,60.3z M520.1,71.2c0.1-0.6,0.2-1.2,0.3-1.8c0-0.3,0.1-0.6,0.2-0.9c0-0.2,0.1-0.5,0.2-0.7
	c0.2-0.6,0.3-1.2,0.5-1.8c0,0,0-0.1,0-0.1c0.5-1.5,1.2-2.9,2.1-4.1c0.7-1,1.5-1.8,2.4-2.5c-0.9,0.7-1.7,1.5-2.5,2.5
	c-0.3,0.4-0.6,0.8-0.8,1.3c-1.8,3.1-2.7,7.2-2.7,12.2c0,7,1.6,11.9,4.8,14.8c-3.1-2.9-4.7-7.9-4.7-14.8
	C519.9,73.8,520,72.5,520.1,71.2z M516.6,53.2c0.6-0.5,1.2-1,1.9-1.5C517.9,52.1,517.2,52.6,516.6,53.2z M514.4,95.7
	c-4.1-4.8-6.3-11.6-6.3-20.5c0-5.6,1-10.5,3-14.7c0.9-1.8,1.9-3.5,3.1-4.9c-1.2,1.4-2.3,3.1-3.1,4.9c-2,4.2-3,9.1-3,14.7
	C508.1,84.1,510.2,90.9,514.4,95.7c2.4,2.8,5.5,4.8,9.3,5.9C520,100.4,516.8,98.4,514.4,95.7z M627.4,60.3c-0.5-1.5-0.8-2.7-1-3.6
	c-0.8,3.2-3.1,10.5-7,23.5h14C629.9,68.2,627.9,61.8,627.4,60.3z M681.6,47.2c-8.8,0-15.7,3-20.7,7h0c-5,5-7.5,11.9-7.5,20.6
	c0,1.8,0.1,3.5,0.3,5.1c-0.2-1.5-0.2-3.1-0.2-4.8c0-8.7,2.5-15.5,7.4-20.3c5-4.9,11.9-7.3,20.7-7.3c5.5,0,10.8,1.1,16,3.3
	C692.4,48.5,687.1,47.2,681.6,47.2z"/>
<path fill="#FFFFFF" d="M13.8,11.2v127h758v-127H13.8z M90.8,83c0,0.8,0,1.5-0.1,2.2c0,0.5-0.1,0.9-0.2,1.4
	c-0.4,2.5-1.2,4.8-2.4,6.9c-0.7,1.1-1.5,2.2-2.3,3.1c-0.3,0.3-0.6,0.6-0.9,0.9c-0.3,0.3-0.6,0.8-1,0.8h0c-0.2,0.2-0.4,0.4-0.7,0.6
	c0,0,0,0-0.1,0c0,0,0,0,0,0c0,0,0,0,0,0l0-0.1c-0.3,0.2-0.5,0.4-0.8,0.4h0c0,0-0.1,0.1-0.1,0.2c-0.1,0.1-0.2,0.2-0.3,0.2
	c0,0,0,0,0,0c-0.1,0-0.1,0.1-0.2,0.1c-0.4,0.2-0.8,0.4-1.2,0.6c-0.8,0.4-1.7,0.8-2.6,1.1c-0.9,0.3-1.9,0.6-2.9,0.8
	c-0.5,0.1-1,0.2-1.5,0.3c-0.5,0.1-1.1,0.2-1.6,0.2c-1,0.1-2.1,0.2-3.3,0.2c-1.3,0-2.6-0.1-3.8-0.2c-1-0.1-2-0.2-2.9-0.4
	c-0.9-0.2-1.9-0.4-2.7-0.7c-0.4-0.1-0.7-0.2-1-0.3c-1.3-0.5-2.6-1.1-3.7-1.8c-0.9-0.5-1.6-1.1-2.4-1.8c-2.6-2.4-4.5-5.5-5.5-9.2
	c-0.2-0.7-0.3-1.4-0.4-2.1c-0.2-1.1-0.2-2.2-0.2-3.3V48.2h12v32.9c0,1,0.1,2,0.2,2.9c0.3,2.7,1.2,4.8,2.4,6.2
	c0.4,0.5,0.9,0.9,1.5,1.3c0.6,0.4,1.2,0.7,1.9,0.9c1.4,0.5,3.1,0.7,5,0.7c2.3,0,4.3-0.4,5.9-1.1c0.5-0.2,0.9-0.5,1.3-0.8
	c0.4-0.3,0.8-0.6,1.1-1c1-1.2,1.8-2.9,2.3-5c0.3-1.2,0.4-2.7,0.4-4.2V48.2h11V83z M148.8,102.2h-15.2l-23.4-40h-0.3
	c0.5,6,0,11.4,0,14.5v25.5h-9v-54h13.9l23.4,40h0.3c-0.4-6-0.5-11.6-0.5-14.5V48.2h11V102.2z M169.8,102.2h-12v-54h12V102.2z
	 M192.6,63c-0.3,0.5-0.5,1-0.8,1.6c-0.1,0.3-0.2,0.5-0.3,0.8c-0.1,0.2-0.1,0.3-0.2,0.5c-0.6,1.6-1,3.3-1.2,5.2c0,0.3-0.1,0.7-0.1,1
	c-0.1,1-0.1,2-0.1,3.1c0,7.3,1.6,12.3,4.9,15.2c0.2,0.2,0.4,0.4,0.7,0.5c0.2,0.2,0.5,0.4,0.8,0.5c1.9,1.2,4.3,1.8,7.1,1.8
	c3.8,0,8.5-1,13.5-2.8v9.6c-4,1.8-9.2,2.8-14.6,2.8c-2.5,0-4.7-0.2-6.8-0.7c-0.8-0.2-1.7-0.4-2.4-0.7c-3.5-1.2-6.3-3.1-8.6-5.7
	c-4.2-4.8-6.2-11.6-6.2-20.5c0-5.6,1-10.5,3.1-14.7c1.1-2.4,2.6-4.4,4.3-6.2c0.6-0.6,1.2-1.1,1.8-1.6c0.4-0.4,0.9-0.7,1.3-1
	c0.5-0.3,0.9-0.6,1.4-0.9c3.8-2.2,8.3-3.4,13.5-3.4c5.2,0,10.5,1.3,15.8,3.8l-3.7,9.3c-2-0.9-4-1.8-6.1-2.5c-2-0.7-4-1.1-6-1.1
	c-1.9,0-3.6,0.3-5.1,0.9c-0.2,0.1-0.5,0.2-0.7,0.3c-0.2,0.1-0.4,0.2-0.6,0.3c-1.4,0.8-2.6,1.9-3.6,3.3
	C193.2,62.2,192.9,62.6,192.6,63z M267.5,95.6c-4.4,4.8-10.8,7.2-19,7.2s-14.6-2.4-19-7.2c-4.4-4.8-6.6-11.7-6.6-20.6
	c0-9,2.2-15.8,6.7-20.5c4.4-4.7,10.8-7.1,19.1-7.1c8.3,0,14.6,2.4,19,7.1c4.4,4.8,6.6,11.6,6.6,20.6C274.1,84,271.9,90.8,267.5,95.6
	z M335.2,102.2l-12.9-20h-5.6v20h-12v-54h15.8c2,0,3.9,0.1,5.6,0.3c0.3,0,0.7,0.1,1,0.1c0.3,0,0.7,0.1,1,0.1c0.2,0,0.3,0.1,0.5,0.1
	c0.2,0,0.3,0.1,0.4,0.1c0.1,0,0.2,0,0.3,0.1c3.1,0.6,5.5,1.7,7.5,3.1c1.1,0.8,2.2,1.8,3,2.9c0.3,0.4,0,0.9,1,1.4c0,0,0,0,0,0
	c0,0.5,0.1,1.1,0.3,1.7c0,0.1,0.1,0.2,0.1,0.4c0.1,0.2,0.2,0.5,0.3,0.7c0,0,0,0,0,0c0.2,0.7,0.4,1.4,0.5,2.1c0,0.1,0,0.2-0.1,0.4
	c0,0.1-0.1,0.3-0.1,0.4V65c0,0.1,0,0.1,0,0.2c0,0.1,0,0.2,0,0.3c0,0.1,0,0.2,0,0.3c0,0,0,0.1,0,0.1c0,0,0,0.1,0,0.1c0,0,0,0,0,0
	s0,0,0,0c0,0.1,0,0.1,0,0.2c0,0.1,0,0.2,0,0.3c0,0,0,0,0,0c0,0.1,0,0.1,0,0.1c0,0,0,0.1,0,0.2c0,0.1,0,0.2-0.1,0.4v0.1c0,0,0,0,0,0
	s0,0,0,0c0,0,0,0.1,0,0.2c0,0.2-0.1,0.3-0.1,0.5c0,0.2-0.1,0.4-0.2,0.6c0,0,0,0,0,0c-0.1,0.4-0.2,0.7-0.4,1c0,0,0,0.1-0.1,0.1
	c-0.1,0.1-0.1,0.3-0.2,0.5c-0.2,0.4-0.5,0.9-0.7,1.3c0,0-0.1,0.1-0.1,0.1c-0.2,0.3-0.4,0.7-0.7,1c-0.4,0.5-0.8,1.1-1.3,1.6
	c-0.2,0.2-0.4,0.4-0.6,0.6c-0.7,0.7-1.5,1.3-2.4,1.9c-0.1,0.1-0.2,0.1-0.3,0.2c-0.1,0.1-0.2,0.1-0.3,0.2c0,0,0,0,0,0
	c-0.7,0.5-1.4,0.8-2.2,1.2c0.1,0.3,0.2,0.4,0.2,0.6c0,0,0,0.1,0,0.1c0.1,0.2,0.2,0.2,0.4,0.4c7.7,11.5,12.7,19.7,15.1,22.7H335.2z
	 M383.8,58.2h-20v11h19v10h-19v13h20v10h-31v-54h31V58.2z M409.8,86.2h-19v-9h19V86.2z M451.1,78.4c-3.6,3.1-8.8,4.8-15.5,4.8h-4.9
	v19h-11v-54h16.8c6.5,0,11.5,1.4,14.9,4.2c3.4,2.8,5.1,7.1,5.1,12.7C456.6,70.9,454.7,75.4,451.1,78.4z M495.2,102.2l-3.9-13h-19.6
	l-3.9,13h-12.3l19-54h14l19.1,54H495.2z M523.4,61.8c-0.3,0.4-0.6,0.8-0.8,1.3c-0.5,0.9-0.9,1.8-1.2,2.8c0,0,0,0.1,0,0.1
	c-0.2,0.6-0.4,1.2-0.5,1.8c-0.1,0.2-0.1,0.4-0.2,0.7c-0.1,0.3-0.1,0.6-0.2,0.9c-0.1,0.6-0.2,1.2-0.3,1.8c-0.1,1.3-0.2,2.6-0.2,4.1
	c0,7,1.6,11.9,4.7,14.8c0.2,0.2,0.4,0.4,0.6,0.6c0.2,0.2,0.5,0.4,0.7,0.5c0.3,0.2,0.5,0.4,0.8,0.5c0.3,0.2,0.6,0.3,0.9,0.5
	c1.7,0.7,3.7,1.1,6,1.1c3.8,0,8.1-1,14.1-2.8v9.6c-5,1.8-9.7,2.8-15.2,2.8c-2.9,0-5.7-0.3-8.1-1c-0.3-0.1-0.5-0.2-0.8-0.2
	c-3.8-1.2-6.9-3.1-9.3-5.9c-4.1-4.8-6.3-11.6-6.3-20.5c0-5.6,1-10.5,3-14.7c0.9-1.8,1.9-3.5,3.1-4.9c0.2-0.2,0.4-0.4,0.5-0.6
	c0.2-0.2,0.4-0.5,0.6-0.7c0.4-0.4,0.8-0.8,1.2-1.1c0.6-0.5,1.2-1,1.9-1.5c0.5-0.3,0.9-0.6,1.4-0.9c3.8-2.2,8.3-3.4,13.4-3.4
	c5.2,0,10.5,1.3,15.8,3.8l-3.7,9.3c-2-0.9-4-1.8-6.1-2.5c-2-0.7-4-1.1-6-1.1c-1.6,0-3.1,0.2-4.4,0.7c-0.6,0.2-1.1,0.4-1.6,0.7
	c-0.2,0.1-0.4,0.2-0.6,0.3c-0.3,0.2-0.6,0.4-0.9,0.6C524.9,59.9,524.1,60.8,523.4,61.8z M586.3,102.2l-13.9-22.8l-4.6,3.4v19.4h-12
	v-54h12v24.6l4.3-6.3l14.4-18.3h12.7l-18.8,23.9l18.9,30.1H586.3z M640.1,102.2l-3.9-13h-19.6l-3.9,13h-12.3l19-54h14l19.1,54H640.1
	z M697.8,99.7c-0.8,0.3-1.5,0.5-2.4,0.8c-0.6,0.2-1.2,0.4-1.9,0.5c-0.5,0.1-1,0.2-1.4,0.3c-1.4,0.3-2.8,0.6-4.1,0.8
	c-3.1,0.4-6.2,0.7-9.4,0.7c-0.5,0-1,0-1.5,0c-7.4-0.3-13.2-2.7-17.2-7.1c-2.6-2.9-4.4-6.6-5.5-11.1c-0.2-0.6-0.3-1.3-0.4-2
	c-0.1-0.5-0.2-0.9-0.2-1.4c0-0.5-0.1-0.9-0.1-1.4c-0.2-1.5-0.2-3.1-0.2-4.8c0-8.7,2.5-15.5,7.4-20.3c5-4.9,11.9-7.3,20.7-7.3
	c5.5,0,10.8,1.1,16,3.3l-3.8,9.1c-3.9-2-8-2.9-12.3-2.9c-4.6,0-8.4,1.5-11.3,4.4c-0.2,0.2-0.4,0.4-0.6,0.6c-0.4,0.4-0.7,0.8-1,1.3
	c-0.3,0.5-0.6,0.9-0.9,1.4c-0.4,0.7-0.8,1.5-1.1,2.3c-0.5,1.3-0.9,2.8-1.1,4.4c0,0.3-0.1,0.6-0.1,1c-0.1,1-0.2,2-0.2,3
	c0,5.8,1.2,10.3,3.6,13.4c0.9,1.1,2,2.1,3.2,2.8c2,1.2,4.5,1.8,7.3,1.8c2.4,0,4.4-0.2,7.4-0.7V81.2h-10v-9h21V99.7z M738.8,58.2h-19
	v11h18v10h-18v13h19v10h-31v-54h31V58.2z"/>
</svg>
