<svg xmlns="http://www.w3.org/2000/svg" viewBox="0 0 786 148.4" enable-background="new 0 0 786 148.4"><path fill="#fff" d="M248.6 56.8c-4.5 0-8 1.5-10.3 4.6-2.3 3-3.5 7.6-3.5 13.6s1.1 10.5 3.4 13.6c2.3 3 5.7 4.6 10.2 4.6 9.1 0 13.7-6 13.7-18.2.1-12.1-4.5-18.2-13.5-18.2zm0 0c-4.5 0-8 1.5-10.3 4.6-2.3 3-3.5 7.6-3.5 13.6s1.1 10.5 3.4 13.6c2.3 3 5.7 4.6 10.2 4.6 9.1 0 13.7-6 13.7-18.2.1-12.1-4.5-18.2-13.5-18.2zm0 0c-4.5 0-8 1.5-10.3 4.6-2.3 3-3.5 7.6-3.5 13.6s1.1 10.5 3.4 13.6c2.3 3 5.7 4.6 10.2 4.6 9.1 0 13.7-6 13.7-18.2.1-12.1-4.5-18.2-13.5-18.2zm79.3 2.7c-1.8-1.1-4.5-1.3-8.2-1.3h-3v14h3.2c3.6 0 6.3-.7 8-1.9 1.7-1.2 2.6-3 2.6-5.5.1-2.5-.8-4.2-2.6-5.3zm0 0c-1.8-1.1-4.5-1.3-8.2-1.3h-3v14h3.2c3.6 0 6.3-.7 8-1.9 1.7-1.2 2.6-3 2.6-5.5.1-2.5-.8-4.2-2.6-5.3zm-79.3-2.7c-4.5 0-8 1.5-10.3 4.6-2.3 3-3.5 7.6-3.5 13.6s1.1 10.5 3.4 13.6c2.3 3 5.7 4.6 10.2 4.6 9.1 0 13.7-6 13.7-18.2.1-12.1-4.5-18.2-13.5-18.2zm0 0c-4.5 0-8 1.5-10.3 4.6-2.3 3-3.5 7.6-3.5 13.6s1.1 10.5 3.4 13.6c2.3 3 5.7 4.6 10.2 4.6 9.1 0 13.7-6 13.7-18.2.1-12.1-4.5-18.2-13.5-18.2zm79.3 2.7c-1.8-1.1-4.5-1.3-8.2-1.3h-3v14h3.2c3.6 0 6.3-.7 8-1.9 1.7-1.2 2.6-3 2.6-5.5.1-2.5-.8-4.2-2.6-5.3zm114.9.3c-1.5-1.3-3.8-1.6-6.9-1.6h-5.2v15h3.7c3.5 0 6.1-.5 7.9-1.9 1.8-1.4 2.6-3.2 2.6-5.8.1-2.7-.6-4.4-2.1-5.7zm0 0c-1.5-1.3-3.8-1.6-6.9-1.6h-5.2v15h3.7c3.5 0 6.1-.5 7.9-1.9 1.8-1.4 2.6-3.2 2.6-5.8.1-2.7-.6-4.4-2.1-5.7zm-114.9-.3c-1.8-1.1-4.5-1.3-8.2-1.3h-3v14h3.2c3.6 0 6.3-.7 8-1.9 1.7-1.2 2.6-3 2.6-5.5.1-2.5-.8-4.2-2.6-5.3zm-79.3-2.7c-4.5 0-8 1.5-10.3 4.6-2.3 3-3.5 7.6-3.5 13.6s1.1 10.5 3.4 13.6c2.3 3 5.7 4.6 10.2 4.6 9.1 0 13.7-6 13.7-18.2.1-12.1-4.5-18.2-13.5-18.2zm0 0c-4.5 0-8 1.5-10.3 4.6-2.3 3-3.5 7.6-3.5 13.6s1.1 10.5 3.4 13.6c2.3 3 5.7 4.6 10.2 4.6 9.1 0 13.7-6 13.7-18.2.1-12.1-4.5-18.2-13.5-18.2zm79.3 2.7c-1.8-1.1-4.5-1.3-8.2-1.3h-3v14h3.2c3.6 0 6.3-.7 8-1.9 1.7-1.2 2.6-3 2.6-5.5.1-2.5-.8-4.2-2.6-5.3zm114.9.3c-1.5-1.3-3.8-1.6-6.9-1.6h-5.2v15h3.7c3.5 0 6.1-.5 7.9-1.9 1.8-1.4 2.6-3.2 2.6-5.8.1-2.7-.6-4.4-2.1-5.7zm39.6.5c-.5-1.5-.8-2.7-1-3.6-.8 3.2-3.1 10.5-7 23.5h14c-3.5-12-5.5-18.4-6-19.9zm0 0c-.5-1.5-.8-2.7-1-3.6-.8 3.2-3.1 10.5-7 23.5h14c-3.5-12-5.5-18.4-6-19.9zm-39.6-.5c-1.5-1.3-3.8-1.6-6.9-1.6h-5.2v15h3.7c3.5 0 6.1-.5 7.9-1.9 1.8-1.4 2.6-3.2 2.6-5.8.1-2.7-.6-4.4-2.1-5.7zm-114.9-.3c-1.8-1.1-4.5-1.3-8.2-1.3h-3v14h3.2c3.6 0 6.3-.7 8-1.9 1.7-1.2 2.6-3 2.6-5.5.1-2.5-.8-4.2-2.6-5.3zm-79.3-2.7c-4.5 0-8 1.5-10.3 4.6-2.3 3-3.5 7.6-3.5 13.6s1.1 10.5 3.4 13.6c2.3 3 5.7 4.6 10.2 4.6 9.1 0 13.7-6 13.7-18.2.1-12.1-4.5-18.2-13.5-18.2zm0 0c-4.5 0-8 1.5-10.3 4.6-2.3 3-3.5 7.6-3.5 13.6s1.1 10.5 3.4 13.6c2.3 3 5.7 4.6 10.2 4.6 9.1 0 13.7-6 13.7-18.2.1-12.1-4.5-18.2-13.5-18.2zm79.3 2.7c-1.8-1.1-4.5-1.3-8.2-1.3h-3v14h3.2c3.6 0 6.3-.7 8-1.9 1.7-1.2 2.6-3 2.6-5.5.1-2.5-.8-4.2-2.6-5.3zm114.9.3c-1.5-1.3-3.8-1.6-6.9-1.6h-5.2v15h3.7c3.5 0 6.1-.5 7.9-1.9 1.8-1.4 2.6-3.2 2.6-5.8.1-2.7-.6-4.4-2.1-5.7zm39.6.5c-.5-1.5-.8-2.7-1-3.6-.8 3.2-3.1 10.5-7 23.5h14c-3.5-12-5.5-18.4-6-19.9zm0 0c-.5-1.5-.8-2.7-1-3.6-.8 3.2-3.1 10.5-7 23.5h14c-3.5-12-5.5-18.4-6-19.9zm-39.6-.5c-1.5-1.3-3.8-1.6-6.9-1.6h-5.2v15h3.7c3.5 0 6.1-.5 7.9-1.9 1.8-1.4 2.6-3.2 2.6-5.8.1-2.7-.6-4.4-2.1-5.7zm-114.9-.3c-1.8-1.1-4.5-1.3-8.2-1.3h-3v14h3.2c3.6 0 6.3-.7 8-1.9 1.7-1.2 2.6-3 2.6-5.5.1-2.5-.8-4.2-2.6-5.3zm-79.3-2.7c-4.5 0-8 1.5-10.3 4.6-2.3 3-3.5 7.6-3.5 13.6s1.1 10.5 3.4 13.6c2.3 3 5.7 4.6 10.2 4.6 9.1 0 13.7-6 13.7-18.2.1-12.1-4.5-18.2-13.5-18.2zm0 0c-4.5 0-8 1.5-10.3 4.6-2.3 3-3.5 7.6-3.5 13.6s1.1 10.5 3.4 13.6c2.3 3 5.7 4.6 10.2 4.6 9.1 0 13.7-6 13.7-18.2.1-12.1-4.5-18.2-13.5-18.2zm79.3 2.7c-1.8-1.1-4.5-1.3-8.2-1.3h-3v14h3.2c3.6 0 6.3-.7 8-1.9 1.7-1.2 2.6-3 2.6-5.5.1-2.5-.8-4.2-2.6-5.3zm114.9.3c-1.5-1.3-3.8-1.6-6.9-1.6h-5.2v15h3.7c3.5 0 6.1-.5 7.9-1.9 1.8-1.4 2.6-3.2 2.6-5.8.1-2.7-.6-4.4-2.1-5.7zm39.6.5c-.5-1.5-.8-2.7-1-3.6-.8 3.2-3.1 10.5-7 23.5h14c-3.5-12-5.5-18.4-6-19.9zm145 0c-.5-1.5-.8-2.7-1-3.6-.8 3.2-3.1 10.5-7 23.5h14c-3.5-12-5.5-18.4-6-19.9zm0 0c-.5-1.5-.8-2.7-1-3.6-.8 3.2-3.1 10.5-7 23.5h14c-3.5-12-5.5-18.4-6-19.9zm-145 0c-.5-1.5-.8-2.7-1-3.6-.8 3.2-3.1 10.5-7 23.5h14c-3.5-12-5.5-18.4-6-19.9zm-39.6-.5c-1.5-1.3-3.8-1.6-6.9-1.6h-5.2v15h3.7c3.5 0 6.1-.5 7.9-1.9 1.8-1.4 2.6-3.2 2.6-5.8.1-2.7-.6-4.4-2.1-5.7zm-114.9-.3c-1.8-1.1-4.5-1.3-8.2-1.3h-3v14h3.2c3.6 0 6.3-.7 8-1.9 1.7-1.2 2.6-3 2.6-5.5.1-2.5-.8-4.2-2.6-5.3zm-79.3-2.7c-4.5 0-8 1.5-10.3 4.6-2.3 3-3.5 7.6-3.5 13.6s1.1 10.5 3.4 13.6c2.3 3 5.7 4.6 10.2 4.6 9.1 0 13.7-6 13.7-18.2.1-12.1-4.5-18.2-13.5-18.2zm-167 43l-1.2.6c-.8.4-1.7.8-2.6 1 .9-.3 1.8-.6 2.6-1l1.4-.7.3-.2s.1 0 .1-.1c-.1.1-.4.3-.6.4zm.7-.4c.3-.2.6-.4.8-.5-.3.2-.6.3-.8.5zm-5.2-9.1c-.3.4-.7.7-1 1l1-1c1.1-1.2 1.9-2.9 2.3-5-.5 2.1-1.3 3.8-2.3 5zm-16.7 0c-1.2-1.5-2.1-3.5-2.5-6.2.4 2.7 1.3 4.7 2.5 6.2.4.5.9.9 1.4 1.3-.5-.4-.9-.8-1.4-1.3zm-1.3 11.2c.9.3 1.8.5 2.7.7l-2.7-.7zm2.7.7c.9.2 1.9.3 2.9.4l-2.9-.4zm186.8-45.4c-4.5 0-8 1.5-10.3 4.6-2.3 3-3.5 7.6-3.5 13.6s1.1 10.5 3.4 13.6c2.3 3 5.7 4.6 10.2 4.6 9.1 0 13.7-6 13.7-18.2.1-12.1-4.5-18.2-13.5-18.2zm79.3 2.7c-1.8-1.1-4.5-1.3-8.2-1.3h-3v14h3.2c3.6 0 6.3-.7 8-1.9 1.7-1.2 2.6-3 2.6-5.5.1-2.5-.8-4.2-2.6-5.3zm7.1 17.3c.9-.5 1.7-1.2 2.4-1.9-.7.7-1.5 1.3-2.4 1.9zm5.8-20.3c-1-.5-.7-.9-1-1.4-.8-1.1-1.8-2.1-2.9-2.9-2-1.5-4.6-2.6-7.8-3.2-.1 0-.3-.1-.5-.1.2 0 .3.1.4.1.1 0 .2 0 .3.1 3.1.7 5.5 1.7 7.5 3.2 2 1.5 3.4 3.5 4.3 6 0 .1.1.2.1.4.1.2.2.5.2.7h.1c-.1-1.2-.7-2.1-.7-2.9zm.8 11.5l-.1.5c0 .1 0 .1-.1.2-.1.4-.2.7-.4 1 0 0 0 .1-.1.1-.1.1-.1.3-.2.5l-.7 1.3c.1-.2.2-.4.4-.5.7-1.1 1.3-2.3 1.3-3.6 0 .2 0 .3-.1.5zm.2-4.7v1.3-.3-1zm0 2.9v.6000000000000001-.2-.1c0-.2 0-.3.1-.3h-.1zm101-6.4c-1.5-1.3-3.8-1.6-6.9-1.6h-5.2v15h3.7c3.5 0 6.1-.5 7.9-1.9 1.8-1.4 2.6-3.2 2.6-5.8.1-2.7-.6-4.4-2.1-5.7zm39.6.5c-.5-1.5-.8-2.7-1-3.6-.8 3.2-3.1 10.5-7 23.5h14c-3.5-12-5.5-18.4-6-19.9zm37.7 10.9l.3-1.8c0-.3.1-.6.2-.9 0-.2.1-.5.2-.7l.5-1.8v-.1c.5-1.5 1.2-2.9 2.1-4.1.7-1 1.5-1.8 2.4-2.5-.9.7-1.7 1.5-2.5 2.5-.3.4-.6.8-.8 1.3-1.8 3.1-2.7 7.2-2.7 12.2 0 7 1.6 11.9 4.8 14.8-3.1-2.9-4.7-7.9-4.7-14.8 0-1.5.1-2.8.2-4.1zm-3.5-18c.6-.5 1.2-1 1.9-1.5-.6.4-1.3.9-1.9 1.5zm-2.2 42.5c-4.1-4.8-6.3-11.6-6.3-20.5 0-5.6 1-10.5 3-14.7.9-1.8 1.9-3.5 3.1-4.9-1.2 1.4-2.3 3.1-3.1 4.9-2 4.2-3 9.1-3 14.7 0 8.9 2.1 15.7 6.3 20.5 2.4 2.8 5.5 4.8 9.3 5.9-3.7-1.2-6.9-3.2-9.3-5.9zm113-35.4c-.5-1.5-.8-2.7-1-3.6-.8 3.2-3.1 10.5-7 23.5h14c-3.5-12-5.5-18.4-6-19.9zm54.2-13.1c-8.8 0-15.7 3-20.7 7-5 5-7.5 11.9-7.5 20.6 0 1.8.1 3.5.3 5.1-.2-1.5-.2-3.1-.2-4.8 0-8.7 2.5-15.5 7.4-20.3 5-4.9 11.9-7.3 20.7-7.3 5.5 0 10.8 1.1 16 3.3-5.2-2.3-10.5-3.6-16-3.6zm-600 52.6l-1.2.6c-.8.4-1.7.8-2.6 1 .9-.3 1.8-.6 2.6-1l1.4-.7.3-.2s.1 0 .1-.1c-.1.1-.4.3-.6.4zm.7-.4c.3-.2.6-.4.8-.5-.3.2-.6.3-.8.5zm-5.2-9.1c-.3.4-.7.7-1 1l1-1c1.1-1.2 1.9-2.9 2.3-5-.5 2.1-1.3 3.8-2.3 5zm-16.7 0c-1.2-1.5-2.1-3.5-2.5-6.2.4 2.7 1.3 4.7 2.5 6.2.4.5.9.9 1.4 1.3-.5-.4-.9-.8-1.4-1.3zm-1.3 11.2c.9.3 1.8.5 2.7.7l-2.7-.7zm2.7.7c.9.2 1.9.3 2.9.4l-2.9-.4zm129.7-36.8c.1-.3.2-.6.3-.8.2-.5.5-1.1.8-1.6l.8-1.3c1-1.4 2.2-2.5 3.6-3.3-1.4.8-2.6 1.9-3.6 3.3-1.8 2.4-2.9 5.5-3.3 9.4l-.1 1c-.1 1-.1 2-.1 3.1 0 7.3 1.6 12.3 4.9 15.2-3.2-2.9-4.8-7.9-4.8-15.2 0-3.6.5-6.7 1.4-9.3 0-.1 0-.3.1-.5zm57.1-8.6c-4.5 0-8 1.5-10.3 4.6-2.3 3-3.5 7.6-3.5 13.6s1.1 10.5 3.4 13.6c2.3 3 5.7 4.6 10.2 4.6 9.1 0 13.7-6 13.7-18.2.1-12.1-4.5-18.2-13.5-18.2zm79.3 2.7c-1.8-1.1-4.5-1.3-8.2-1.3h-3v14h3.2c3.6 0 6.3-.7 8-1.9 1.7-1.2 2.6-3 2.6-5.5.1-2.5-.8-4.2-2.6-5.3zm12.2 12.1l-.1.1c-.2.2-.3.5-.5.8-.4.6-.9 1.2-1.4 1.8l-.6.6c-.7.7-1.5 1.3-2.4 1.9l-.3.2c-.2.1-.4.3-.7.4l.3-.1c2.1-1.1 3.8-2.8 5.1-4.6.4-.5.7-1 1-1.5.1-.2.3-.5.4-.8-.3.3-.6.8-.8 1.2zm1.8-5.1v-1 .2.2.2c-.1.2-.1.3 0 .4v.4-.2-.2zm.1-4.1v-.1c0-.2 0-.3-.1-.5-.1-.4-.1-.8-.1-1.2v4.8-.3-.2l.1-.6v-1.1c.1-.2.1-.5.1-.8zm100.8-2.6c-1.5-1.3-3.8-1.6-6.9-1.6h-5.2v15h3.7c3.5 0 6.1-.5 7.9-1.9 1.8-1.4 2.6-3.2 2.6-5.8.1-2.7-.6-4.4-2.1-5.7zm39.6.5c-.5-1.5-.8-2.7-1-3.6-.8 3.2-3.1 10.5-7 23.5h14c-3.5-12-5.5-18.4-6-19.9zm34.2-7.1c.6-.5 1.2-1 1.9-1.5-.6.4-1.3.9-1.9 1.5zm-2.2 42.5c-4.1-4.8-6.3-11.6-6.3-20.5 0-5.6 1-10.5 3-14.7.9-1.8 1.9-3.5 3.1-4.9-1.2 1.4-2.3 3.1-3.1 4.9-2 4.2-3 9.1-3 14.7 0 8.9 2.1 15.7 6.3 20.5 2.4 2.8 5.5 4.8 9.3 5.9-3.7-1.2-6.9-3.2-9.3-5.9zm113-35.4c-.5-1.5-.8-2.7-1-3.6-.8 3.2-3.1 10.5-7 23.5h14c-3.5-12-5.5-18.4-6-19.9zm54.2-13.1c-8.8 0-15.7 3-20.7 7-5 5-7.5 11.9-7.5 20.6 0 1.8.1 3.5.3 5.1-.2-1.5-.2-3.1-.2-4.8 0-8.7 2.5-15.5 7.4-20.3 5-4.9 11.9-7.3 20.7-7.3 5.5 0 10.8 1.1 16 3.3-5.2-2.3-10.5-3.6-16-3.6zm-54.2 13.1c-.5-1.5-.8-2.7-1-3.6-.8 3.2-3.1 10.5-7 23.5h14c-3.5-12-5.5-18.4-6-19.9zm-145 0c-.5-1.5-.8-2.7-1-3.6-.8 3.2-3.1 10.5-7 23.5h14c-3.5-12-5.5-18.4-6-19.9zm-39.6-.5c-1.5-1.3-3.8-1.6-6.9-1.6h-5.2v15h3.7c3.5 0 6.1-.5 7.9-1.9 1.8-1.4 2.6-3.2 2.6-5.8.1-2.7-.6-4.4-2.1-5.7zm-114.9-.3c-1.8-1.1-4.5-1.3-8.2-1.3h-3v14h3.2c3.6 0 6.3-.7 8-1.9 1.7-1.2 2.6-3 2.6-5.5.1-2.5-.8-4.2-2.6-5.3zm-79.3-2.7c-4.5 0-8 1.5-10.3 4.6-2.3 3-3.5 7.6-3.5 13.6s1.1 10.5 3.4 13.6c2.3 3 5.7 4.6 10.2 4.6 9.1 0 13.7-6 13.7-18.2.1-12.1-4.5-18.2-13.5-18.2zm0 0c-4.5 0-8 1.5-10.3 4.6-2.3 3-3.5 7.6-3.5 13.6s1.1 10.5 3.4 13.6c2.3 3 5.7 4.6 10.2 4.6 9.1 0 13.7-6 13.7-18.2.1-12.1-4.5-18.2-13.5-18.2zm79.3 2.7c-1.8-1.1-4.5-1.3-8.2-1.3h-3v14h3.2c3.6 0 6.3-.7 8-1.9 1.7-1.2 2.6-3 2.6-5.5.1-2.5-.8-4.2-2.6-5.3zm114.9.3c-1.5-1.3-3.8-1.6-6.9-1.6h-5.2v15h3.7c3.5 0 6.1-.5 7.9-1.9 1.8-1.4 2.6-3.2 2.6-5.8.1-2.7-.6-4.4-2.1-5.7zm39.6.5c-.5-1.5-.8-2.7-1-3.6-.8 3.2-3.1 10.5-7 23.5h14c-3.5-12-5.5-18.4-6-19.9zm145 0c-.5-1.5-.8-2.7-1-3.6-.8 3.2-3.1 10.5-7 23.5h14c-3.5-12-5.5-18.4-6-19.9zm0 0c-.5-1.5-.8-2.7-1-3.6-.8 3.2-3.1 10.5-7 23.5h14c-3.5-12-5.5-18.4-6-19.9zm-145 0c-.5-1.5-.8-2.7-1-3.6-.8 3.2-3.1 10.5-7 23.5h14c-3.5-12-5.5-18.4-6-19.9zm-39.6-.5c-1.5-1.3-3.8-1.6-6.9-1.6h-5.2v15h3.7c3.5 0 6.1-.5 7.9-1.9 1.8-1.4 2.6-3.2 2.6-5.8.1-2.7-.6-4.4-2.1-5.7zm-114.9-.3c-1.8-1.1-4.5-1.3-8.2-1.3h-3v14h3.2c3.6 0 6.3-.7 8-1.9 1.7-1.2 2.6-3 2.6-5.5.1-2.5-.8-4.2-2.6-5.3zm-79.3-2.7c-4.5 0-8 1.5-10.3 4.6-2.3 3-3.5 7.6-3.5 13.6s1.1 10.5 3.4 13.6c2.3 3 5.7 4.6 10.2 4.6 9.1 0 13.7-6 13.7-18.2.1-12.1-4.5-18.2-13.5-18.2zm0 0c-4.5 0-8 1.5-10.3 4.6-2.3 3-3.5 7.6-3.5 13.6s1.1 10.5 3.4 13.6c2.3 3 5.7 4.6 10.2 4.6 9.1 0 13.7-6 13.7-18.2.1-12.1-4.5-18.2-13.5-18.2zm79.3 2.7c-1.8-1.1-4.5-1.3-8.2-1.3h-3v14h3.2c3.6 0 6.3-.7 8-1.9 1.7-1.2 2.6-3 2.6-5.5.1-2.5-.8-4.2-2.6-5.3zm114.9.3c-1.5-1.3-3.8-1.6-6.9-1.6h-5.2v15h3.7c3.5 0 6.1-.5 7.9-1.9 1.8-1.4 2.6-3.2 2.6-5.8.1-2.7-.6-4.4-2.1-5.7zm39.6.5c-.5-1.5-.8-2.7-1-3.6-.8 3.2-3.1 10.5-7 23.5h14c-3.5-12-5.5-18.4-6-19.9zm0 0c-.5-1.5-.8-2.7-1-3.6-.8 3.2-3.1 10.5-7 23.5h14c-3.5-12-5.5-18.4-6-19.9zm-39.6-.5c-1.5-1.3-3.8-1.6-6.9-1.6h-5.2v15h3.7c3.5 0 6.1-.5 7.9-1.9 1.8-1.4 2.6-3.2 2.6-5.8.1-2.7-.6-4.4-2.1-5.7zm-114.9-.3c-1.8-1.1-4.5-1.3-8.2-1.3h-3v14h3.2c3.6 0 6.3-.7 8-1.9 1.7-1.2 2.6-3 2.6-5.5.1-2.5-.8-4.2-2.6-5.3zm-79.3-2.7c-4.5 0-8 1.5-10.3 4.6-2.3 3-3.5 7.6-3.5 13.6s1.1 10.5 3.4 13.6c2.3 3 5.7 4.6 10.2 4.6 9.1 0 13.7-6 13.7-18.2.1-12.1-4.5-18.2-13.5-18.2zm0 0c-4.5 0-8 1.5-10.3 4.6-2.3 3-3.5 7.6-3.5 13.6s1.1 10.5 3.4 13.6c2.3 3 5.7 4.6 10.2 4.6 9.1 0 13.7-6 13.7-18.2.1-12.1-4.5-18.2-13.5-18.2zm79.3 2.7c-1.8-1.1-4.5-1.3-8.2-1.3h-3v14h3.2c3.6 0 6.3-.7 8-1.9 1.7-1.2 2.6-3 2.6-5.5.1-2.5-.8-4.2-2.6-5.3zm114.9.3c-1.5-1.3-3.8-1.6-6.9-1.6h-5.2v15h3.7c3.5 0 6.1-.5 7.9-1.9 1.8-1.4 2.6-3.2 2.6-5.8.1-2.7-.6-4.4-2.1-5.7zm0 0c-1.5-1.3-3.8-1.6-6.9-1.6h-5.2v15h3.7c3.5 0 6.1-.5 7.9-1.9 1.8-1.4 2.6-3.2 2.6-5.8.1-2.7-.6-4.4-2.1-5.7zm-114.9-.3c-1.8-1.1-4.5-1.3-8.2-1.3h-3v14h3.2c3.6 0 6.3-.7 8-1.9 1.7-1.2 2.6-3 2.6-5.5.1-2.5-.8-4.2-2.6-5.3zm-79.3-2.7c-4.5 0-8 1.5-10.3 4.6-2.3 3-3.5 7.6-3.5 13.6s1.1 10.5 3.4 13.6c2.3 3 5.7 4.6 10.2 4.6 9.1 0 13.7-6 13.7-18.2.1-12.1-4.5-18.2-13.5-18.2zm0 0c-4.5 0-8 1.5-10.3 4.6-2.3 3-3.5 7.6-3.5 13.6s1.1 10.5 3.4 13.6c2.3 3 5.7 4.6 10.2 4.6 9.1 0 13.7-6 13.7-18.2.1-12.1-4.5-18.2-13.5-18.2zm79.3 2.7c-1.8-1.1-4.5-1.3-8.2-1.3h-3v14h3.2c3.6 0 6.3-.7 8-1.9 1.7-1.2 2.6-3 2.6-5.5.1-2.5-.8-4.2-2.6-5.3zm0 0c-1.8-1.1-4.5-1.3-8.2-1.3h-3v14h3.2c3.6 0 6.3-.7 8-1.9 1.7-1.2 2.6-3 2.6-5.5.1-2.5-.8-4.2-2.6-5.3zm-79.3-2.7c-4.5 0-8 1.5-10.3 4.6-2.3 3-3.5 7.6-3.5 13.6s1.1 10.5 3.4 13.6c2.3 3 5.7 4.6 10.2 4.6 9.1 0 13.7-6 13.7-18.2.1-12.1-4.5-18.2-13.5-18.2zm0 0c-4.5 0-8 1.5-10.3 4.6-2.3 3-3.5 7.6-3.5 13.6s1.1 10.5 3.4 13.6c2.3 3 5.7 4.6 10.2 4.6 9.1 0 13.7-6 13.7-18.2.1-12.1-4.5-18.2-13.5-18.2zm79.3 2.7c-1.8-1.1-4.5-1.3-8.2-1.3h-3v14h3.2c3.6 0 6.3-.7 8-1.9 1.7-1.2 2.6-3 2.6-5.5.1-2.5-.8-4.2-2.6-5.3zm0 0c-1.8-1.1-4.5-1.3-8.2-1.3h-3v14h3.2c3.6 0 6.3-.7 8-1.9 1.7-1.2 2.6-3 2.6-5.5.1-2.5-.8-4.2-2.6-5.3zm-79.3-2.7c-4.5 0-8 1.5-10.3 4.6-2.3 3-3.5 7.6-3.5 13.6s1.1 10.5 3.4 13.6c2.3 3 5.7 4.6 10.2 4.6 9.1 0 13.7-6 13.7-18.2.1-12.1-4.5-18.2-13.5-18.2zm-167 43l-1.2.6c-.8.4-1.7.8-2.6 1 .9-.3 1.8-.6 2.6-1l1.4-.7.3-.2s.1 0 .1-.1c-.1.1-.4.3-.6.4zm.7-.4c.3-.2.6-.4.8-.5-.3.2-.6.3-.8.5zm-5.2-9.1c-.3.4-.7.7-1 1l1-1c1.1-1.2 1.9-2.9 2.3-5-.5 2.1-1.3 3.8-2.3 5zm-16.7 0c-1.2-1.5-2.1-3.5-2.5-6.2.4 2.7 1.3 4.7 2.5 6.2.4.5.9.9 1.4 1.3-.5-.4-.9-.8-1.4-1.3zm-1.3 11.2c.9.3 1.8.5 2.7.7l-2.7-.7zm2.7.7c.9.2 1.9.3 2.9.4l-2.9-.4zm186.8-45.4c-4.5 0-8 1.5-10.3 4.6-2.3 3-3.5 7.6-3.5 13.6s1.1 10.5 3.4 13.6c2.3 3 5.7 4.6 10.2 4.6 9.1 0 13.7-6 13.7-18.2.1-12.1-4.5-18.2-13.5-18.2zm79.3 2.7c-1.8-1.1-4.5-1.3-8.2-1.3h-3v14h3.2c3.6 0 6.3-.7 8-1.9 1.7-1.2 2.6-3 2.6-5.5.1-2.5-.8-4.2-2.6-5.3zm7.1 17.3c.9-.5 1.7-1.2 2.4-1.9-.7.7-1.5 1.3-2.4 1.9zm5.8-20.3c-1-.5-.7-.9-1-1.4-.8-1.1-1.8-2.1-2.9-2.9-2-1.5-4.6-2.6-7.8-3.2-.1 0-.3-.1-.5-.1.2 0 .3.1.4.1.1 0 .2 0 .3.1 3.1.7 5.5 1.7 7.5 3.2 2 1.5 3.4 3.5 4.3 6 0 .1.1.2.1.4.1.2.2.5.2.7h.1c-.1-1.2-.7-2.1-.7-2.9zm.8 11.5l-.1.5c0 .1 0 .1-.1.2-.1.4-.2.7-.4 1 0 0 0 .1-.1.1-.1.1-.1.3-.2.5l-.7 1.3c.1-.2.2-.4.4-.5.7-1.1 1.3-2.3 1.3-3.6 0 .2 0 .3-.1.5zm.2-4.7v1.3-.3-1zm0 2.9v.6000000000000001-.2-.1c0-.2 0-.3.1-.3h-.1zm101-6.4c-1.5-1.3-3.8-1.6-6.9-1.6h-5.2v15h3.7c3.5 0 6.1-.5 7.9-1.9 1.8-1.4 2.6-3.2 2.6-5.8.1-2.7-.6-4.4-2.1-5.7zm39.6.5c-.5-1.5-.8-2.7-1-3.6-.8 3.2-3.1 10.5-7 23.5h14c-3.5-12-5.5-18.4-6-19.9zm37.7 10.9l.3-1.8c0-.3.1-.6.2-.9 0-.2.1-.5.2-.7l.5-1.8v-.1c.5-1.5 1.2-2.9 2.1-4.1.7-1 1.5-1.8 2.4-2.5-.9.7-1.7 1.5-2.5 2.5-.3.4-.6.8-.8 1.3-1.8 3.1-2.7 7.2-2.7 12.2 0 7 1.6 11.9 4.8 14.8-3.1-2.9-4.7-7.9-4.7-14.8 0-1.5.1-2.8.2-4.1zm-3.5-18c.6-.5 1.2-1 1.9-1.5-.6.4-1.3.9-1.9 1.5zm-2.2 42.5c-4.1-4.8-6.3-11.6-6.3-20.5 0-5.6 1-10.5 3-14.7.9-1.8 1.9-3.5 3.1-4.9-1.2 1.4-2.3 3.1-3.1 4.9-2 4.2-3 9.1-3 14.7 0 8.9 2.1 15.7 6.3 20.5 2.4 2.8 5.5 4.8 9.3 5.9-3.7-1.2-6.9-3.2-9.3-5.9zm113-35.4c-.5-1.5-.8-2.7-1-3.6-.8 3.2-3.1 10.5-7 23.5h14c-3.5-12-5.5-18.4-6-19.9zm54.2-13.1c-8.8 0-15.7 3-20.7 7-5 5-7.5 11.9-7.5 20.6 0 1.8.1 3.5.3 5.1-.2-1.5-.2-3.1-.2-4.8 0-8.7 2.5-15.5 7.4-20.3 5-4.9 11.9-7.3 20.7-7.3 5.5 0 10.8 1.1 16 3.3-5.2-2.3-10.5-3.6-16-3.6zM13.8 11.2v127h758v-127h-758zm77 71.8c0 .8 0 1.5-.1 2.2 0 .5-.1.9-.2 1.4-.4 2.5-1.2 4.8-2.4 6.9-.7 1.1-1.5 2.2-2.3 3.1l-.9.9c-.3.3-.6.8-1 .8-.2.2-.4.4-.7.6h-.1v-.1c-.3.2-.5.4-.8.4 0 0-.1.1-.1.2-.1.1-.2.2-.3.2l-.2.1-1.2.6c-.8.4-1.7.8-2.6 1.1-.9.3-1.9.6-2.9.8l-1.5.3c-.5.1-1.1.2-1.6.2-1 .1-2.1.2-3.3.2-1.3 0-2.6-.1-3.8-.2-1-.1-2-.2-2.9-.4-.9-.2-1.9-.4-2.7-.7-.4-.1-.7-.2-1-.3-1.3-.5-2.6-1.1-3.7-1.8-.9-.5-1.6-1.1-2.4-1.8-2.6-2.4-4.5-5.5-5.5-9.2-.2-.7-.3-1.4-.4-2.1-.2-1.1-.2-2.2-.2-3.3v-34.9h12v32.9c0 1 .1 2 .2 2.9.3 2.7 1.2 4.8 2.4 6.2.4.5.9.9 1.5 1.3s1.2.7 1.9.9c1.4.5 3.1.7 5 .7 2.3 0 4.3-.4 5.9-1.1.5-.2.9-.5 1.3-.8.4-.3.8-.6 1.1-1 1-1.2 1.8-2.9 2.3-5 .3-1.2.4-2.7.4-4.2v-32.8h11v34.8zm58 19.2h-15.2l-23.4-40h-.3c.5 6 0 11.4 0 14.5v25.5h-9v-54h13.9l23.4 40h.3c-.4-6-.5-11.6-.5-14.5v-25.5h11v54zm21 0h-12v-54h12v54zm22.8-39.2c-.3.5-.5 1-.8 1.6l-.3.8-.2.5c-.6 1.6-1 3.3-1.2 5.2l-.1 1c-.1 1-.1 2-.1 3.1 0 7.3 1.6 12.3 4.9 15.2.2.2.4.4.7.5.2.2.5.4.8.5 1.9 1.2 4.3 1.8 7.1 1.8 3.8 0 8.5-1 13.5-2.8v9.6c-4 1.8-9.2 2.8-14.6 2.8-2.5 0-4.7-.2-6.8-.7-.8-.2-1.7-.4-2.4-.7-3.5-1.2-6.3-3.1-8.6-5.7-4.2-4.8-6.2-11.6-6.2-20.5 0-5.6 1-10.5 3.1-14.7 1.1-2.4 2.6-4.4 4.3-6.2.6-.6 1.2-1.1 1.8-1.6.4-.4.9-.7 1.3-1l1.4-.9c3.8-2.2 8.3-3.4 13.5-3.4 5.2 0 10.5 1.3 15.8 3.8l-3.7 9.3c-2-.9-4-1.8-6.1-2.5-2-.7-4-1.1-6-1.1-1.9 0-3.6.3-5.1.9l-.7.3-.6.3c-1.4.8-2.6 1.9-3.6 3.3-.5.5-.8.9-1.1 1.3zm74.9 32.6c-4.4 4.8-10.8 7.2-19 7.2s-14.6-2.4-19-7.2c-4.4-4.8-6.6-11.7-6.6-20.6 0-9 2.2-15.8 6.7-20.5 4.4-4.7 10.8-7.1 19.1-7.1s14.6 2.4 19 7.1c4.4 4.8 6.6 11.6 6.6 20.6-.2 8.9-2.4 15.7-6.8 20.5zm67.7 6.6l-12.9-20h-5.6v20h-12v-54h15.8c2 0 3.9.1 5.6.3l1 .1 1 .1.5.1c.2 0 .3.1.4.1.1 0 .2 0 .3.1 3.1.6 5.5 1.7 7.5 3.1 1.1.8 2.2 1.8 3 2.9.3.4 0 .9 1 1.4 0 .5.1 1.1.3 1.7 0 .1.1.2.1.4l.3.7c.2.7.4 1.4.5 2.1 0 .1 0 .2-.1.4l-.1.4v4.699999999999999c0 .1 0 .2-.1.4v.30000000000000004l-.1.5c0 .2-.1.4-.2.6-.1.4-.2.7-.4 1 0 0 0 .1-.1.1-.1.1-.1.3-.2.5l-.7 1.3-.1.1c-.2.3-.4.7-.7 1-.4.5-.8 1.1-1.3 1.6l-.6.6c-.7.7-1.5 1.3-2.4 1.9l-.3.2-.3.2c-.7.5-1.4.8-2.2 1.2.1.3.2.4.2.6v.1c.1.2.2.2.4.4 7.7 11.5 12.7 19.7 15.1 22.7h-12.6zm48.6-44h-20v11h19v10h-19v13h20v10h-31v-54h31v10zm26 28h-19v-9h19v9zm41.3-7.8c-3.6 3.1-8.8 4.8-15.5 4.8h-4.9v19h-11v-54h16.8c6.5 0 11.5 1.4 14.9 4.2 3.4 2.8 5.1 7.1 5.1 12.7.1 5.8-1.8 10.3-5.4 13.3zm44.1 23.8l-3.9-13h-19.6l-3.9 13h-12.3l19-54h14l19.1 54h-12.4zm28.2-40.4c-.3.4-.6.8-.8 1.3-.5.9-.9 1.8-1.2 2.8v.1c-.2.6-.4 1.2-.5 1.8-.1.2-.1.4-.2.7l-.2.9-.3 1.8c-.1 1.3-.2 2.6-.2 4.1 0 7 1.6 11.9 4.7 14.8l.6.6c.2.2.5.4.7.5.3.2.5.4.8.5l.9.5c1.7.7 3.7 1.1 6 1.1 3.8 0 8.1-1 14.1-2.8v9.6c-5 1.8-9.7 2.8-15.2 2.8-2.9 0-5.7-.3-8.1-1-.3-.1-.5-.2-.8-.2-3.8-1.2-6.9-3.1-9.3-5.9-4.1-4.8-6.3-11.6-6.3-20.5 0-5.6 1-10.5 3-14.7.9-1.8 1.9-3.5 3.1-4.9.2-.2.4-.4.5-.6l.6-.7c.4-.4.8-.8 1.2-1.1.6-.5 1.2-1 1.9-1.5l1.4-.9c3.8-2.2 8.3-3.4 13.4-3.4 5.2 0 10.5 1.3 15.8 3.8l-3.7 9.3c-2-.9-4-1.8-6.1-2.5-2-.7-4-1.1-6-1.1-1.6 0-3.1.2-4.4.7-.6.2-1.1.4-1.6.7l-.6.3-.9.6c-.8.6-1.6 1.5-2.3 2.5zm62.9 40.4l-13.9-22.8-4.6 3.4v19.4h-12v-54h12v24.6l4.3-6.3 14.4-18.3h12.7l-18.8 23.9 18.9 30.1h-13zm53.8 0l-3.9-13h-19.6l-3.9 13h-12.3l19-54h14l19.1 54h-12.4zm57.7-2.5c-.8.3-1.5.5-2.4.8-.6.2-1.2.4-1.9.5-.5.1-1 .2-1.4.3-1.4.3-2.8.6-4.1.8-3.1.4-6.2.7-9.4.7h-1.5c-7.4-.3-13.2-2.7-17.2-7.1-2.6-2.9-4.4-6.6-5.5-11.1-.2-.6-.3-1.3-.4-2-.1-.5-.2-.9-.2-1.4l-.1-1.4c-.2-1.5-.2-3.1-.2-4.8 0-8.7 2.5-15.5 7.4-20.3 5-4.9 11.9-7.3 20.7-7.3 5.5 0 10.8 1.1 16 3.3l-3.8 9.1c-3.9-2-8-2.9-12.3-2.9-4.6 0-8.4 1.5-11.3 4.4l-.6.6c-.4.4-.7.8-1 1.3l-.9 1.4c-.4.7-.8 1.5-1.1 2.3-.5 1.3-.9 2.8-1.1 4.4 0 .3-.1.6-.1 1-.1 1-.2 2-.2 3 0 5.8 1.2 10.3 3.6 13.4.9 1.1 2 2.1 3.2 2.8 2 1.2 4.5 1.8 7.3 1.8 2.4 0 4.4-.2 7.4-.7v-11.4h-10v-9h21v27.5zm41-41.5h-19v11h18v10h-18v13h19v10h-31v-54h31v10z"/></svg>