<svg xmlns="http://www.w3.org/2000/svg" viewBox="0 0 491.6 142.1" enable-background="new 0 0 491.6 142.1"><style type="text/css">.st0{fill:#E6E7E8;} .st1{fill:#D1D3D4;} .st2{fill:#F1F2F2;} .st3{fill:none;} .st4{fill:#BCBEC0;} .st5{fill:#6A0006;} .st6{fill:#9C1421;} .st7{fill:#5A0000;} .st8{fill:#C82130;}</style><path class="st0" d="M226.7 125.3h-.7v-.3c.3.2.5.3.7.3zM77.2-237.3h1c-.3 0-.6.1-1 .4v-.4z"/><path class="st1" d="M348.8 68.2v3.1999999999999997c0 .2 0 .4-.1.6l-.1.9-.2 1-.3 1.1-.3 1.2c-8.4 27.6-59.2 48.9-120.8 49.1.3 0 .5-.1.8-.3l.1-.1.2-.2c.1-.1.2-.2.3-.4 0-.1.1-.1.2-.2l.1-.3c.2-.4.5-1 .7-1.6.1-.3.2-.6.3-1h1.3c15.1-.2 29.4-1.7 42.5-4.4 12.4-2.5 23.6-6 33.2-10.3 1.4-.6 2.7-1.2 4-1.9 1.6-.8 3.2-1.6 4.7-2.5l1.1-.6c.7-.4 1.5-.8 2.2-1.3.4-.2.7-.4 1-.7 1.9-1.2 3.7-2.5 5.4-3.7 1.2-1 2.4-1.9 3.5-2.9l1.8-1.6c.3-.3.6-.6.9-.8.3-.3.5-.6.8-.8.2-.2.5-.5.7-.8.5-.5.9-1 1.4-1.6.2-.2.4-.4.5-.7 0 0 0-.1.1-.1l.7-.9s.1-.1.1-.2c.4-.5.7-.9 1-1.4l.8-1.2.7-1.2.5-.8.4-.8c.1-.2.2-.5.4-.8l.3-.8.3-.8.3-.8.2-.6v-.1l.1-.4c.2-.7.4-1.4.5-2.1l.1-.7.2-1.2c0-.4.1-.7.1-1v-.2c0-.3 0-.7.1-1v-1.2c0-2.5-.4-5-1.1-7.4-7.6-25.2-53.6-44.8-109.6-45.5h.2-.6-.8c-.8-2.7-1.8-4.2-2.7-4.2 61.6.2 112.5 21.5 120.8 49.1l.3 1c.1.3.2.7.2 1l.2.9c.1.4.1.7.2 1l.1.9c.1.6.1 1.2.1 1.8v.5c-.1.3-.1.5-.1.8z"/><path class="st0" d="M230.9 15.2h-.2c-.2 0-.3.1-.5.2v-.2h.7zM348 75.1h100.6c-.5.8-1 1.2-1 1.2h-100c.2-.5.3-.8.4-1.2zM347.9 61.2l-.3-1h100c.2.1 2.7 1.1 3.1 6.7h-102l-.1-1.8-.1-.9c0-.3-.1-.7-.2-1l-.2-.9c0-.5-.1-.8-.2-1.1z"/><path class="st2" d="M450.8 68.6c0 2.9-1.3 5.2-2.2 6.5h-100.6l.3-1.1.2-1c.1-.3.1-.6.1-.9l.1-.6v-4.5h102c.1.4.1 1 .1 1.6z"/><path class="st0" d="M479 68.2c0 26.7-7.1 48.3-15.8 48.3-7.8 0-6.4-17.4-15.6-40.3 0 0 .4-.4 1-1.2 1-1.3 2.2-3.5 2.2-6.5 0-.6 0-1.2-.1-1.8-.5-5.6-3-6.6-3.1-6.7 10.3-25.4 7.8-40.3 15.6-40.3 8.7.2 15.8 21.8 15.8 48.5z"/><path class="st2" d="M471.6 84.6c-2.1 12-6.2 20.2-11 20.2-6.2 0-5-13.7-12.3-31.7 0 0 .3-.3.8-.9.7-1 1.7-2.8 1.7-5.1v-.3l20.8 17.8z"/><path class="st0" d="M230.9 15.2h-.2c-.2 0-.3.1-.5.2v-.2h.7zM231.4 68.2c0 3.7 0 7.3-.1 10.8l-9.6 2.5c-.1-3.5-.2-7.1-.2-10.8v-2.4c0-26 2.4-47.6 5.6-52.1.1.3.2.6.3 1 2.4 9.2 4 28.6 4 51zM341.4 68.2v1.2c0 .3 0 .7-.1 1v.2c0 .4-.1.7-.1 1v.2c0 .3-.1.6-.2.9l-.1.7c-.1.7-.3 1.4-.5 2.1l-.1.4v.1c0 .2-.1.4-.2.6l-.3.8-.3.8-.3.8c-.1.3-.2.5-.4.8l-.4.8c-.2.3-.3.6-.5.8l-.7 1.2-.8 1.2c-.3.5-.6.9-1 1.4 0 0-.1.1-.1.2l-.7.9s0 .1-.1.1c-.2.2-.4.4-.5.7-.4.5-.9 1-1.4 1.6-.2.2-.5.5-.7.8-.3.3-.5.6-.8.8-.3.3-.6.6-.9.8-.6.6-1.2 1.1-1.8 1.6-1.1 1-2.3 2-3.5 2.9-1.7 1.3-3.5 2.5-5.4 3.7-.3.2-.7.4-1 .7-.7.4-1.4.9-2.2 1.3l-1.1.6c-1.5.9-3.1 1.7-4.7 2.5-1.3.6-2.6 1.3-4 1.9l-1.8.8c-9.2 4-19.8 7.2-31.4 9.5-13.1 2.7-27.4 4.2-42.5 4.4h-1.3c.2-.5.3-1.1.5-1.8.1-.3.2-.6.2-1 .1-.6.3-1.2.4-1.9.3-1.4.6-2.9.8-4.6.1-.4.1-.8.2-1.3 0-.2 0-.3.1-.5l.3-2c.1-.7.2-1.4.2-2.1l.3-2.5c.1-1 .2-2.1.3-3.2.1-1 .2-2.1.3-3.2.1-1.8.3-3.7.4-5.6 18.6.4 53.8-2.2 84.8-12.9 5-1.7 10-3.7 14.7-5.9 2.9-1.3 5.7-2.8 8.4-4.3zM229.6 15.3h.7v.2h.2l.1-.1s.1 0 .1-.1c56 .7 101.9 20.2 109.6 45.5.7 2.4 1.1 4.9 1.1 7.4 0 0-24.5 4.2-49.2 6.6-15.1 1.4-30.1 1.6-39.9 1.5-6.6-.1-12.5.8-18.3 2.1 0-.8 0-1.7.1-2.5v-7.6c0-22.4-1.7-41.8-4.1-51.1-.1-.8-.3-1.4-.4-1.9zM230.8 15.3c-.2 0-.3.1-.5.2v-.2h.5z"/><path class="st3" d="M422.1 159.5l-9.1-7.8M392.3 133.9l-2.5-2.1"/><path class="st4" d="M479.3 68.5c0-26.2-6.8-47.5-15.4-48.3 8.4 18.8 21.2 58.7 2.1 95.9 7.5-3.6 13.3-23.5 13.3-47.6z"/><path class="st5" d="M231.3 78.9c-.4 17.8-1.9 32.6-4 40.4 0 .1-.1.5-.3 1-.2.6-.3 1.3-.5 1.8h-2.3c-12.2-.4-21.3-1.7-25-1.8-13.2-.4-62 1.9-93.2-16.6-22.5-13.3-92.9-9.6-92.9-9.6s54.7-42.6 81.6-42.5c29.6.1 60.7 32.1 88.7 36.9 14.2 2.4 25.4-3.6 36.2-6.5.7-.2 1.3-.4 2-.5h.1l8.7-2.3c.2-.1.6-.2.9-.3z"/><path class="st6" d="M231.3 78.9c-.4 17.8-1.9 32.6-4 40.4 0 .1-.1.5-.3 1-.2.6-.3 1.3-.5 1.8h-2.3c-12.2-.4-21.3-1.7-25-1.8-13.2-.4-62 1.9-93.2-16.6-22.5-13.3-92.9-9.6-92.9-9.6s59.9-39.3 81.6-39.4c32.4-.1 60.7 29 88.7 33.7 14.2 2.4 25.4-3.6 36.2-6.5.7-.2 1.3-.4 2-.5h.1l8.7-2.3c.2 0 .6-.1.9-.2zM318.3 78.4c-30.9 10.7-66.1 13.4-84.8 12.9l.2-3.1v-1.6c7.7-4.2 14.2-3.5 25.4-4.2 17.2-1 40.6.1 59.2-4zM341.4 68.2c-2.7 1.5-5.6 3-8.5 4.3-9 .7-26.9 3.5-42.3 4.4s-28.2.1-38.3 0c-6.2 0-11.9.5-17.4 1.2l-.9.1.9-.2 2.2-.5 1.6-.3c.5-.1 1-.2 1.6-.2l1.1-.2c1.1-.2 2.2-.3 3.3-.4l1.1-.1 2.3-.2 2.2-.1h2.1c9.9.1 24-.4 39.1-1.8 24.6-2.2 49.9-6 49.9-6z"/><path class="st5" d="M341.4 68.2c-4.7 2.2-15.1 9.8-23.1 10.2-30.8 6.8-66.2 3.6-84.5 8.3 0-.2-.1 2.8-.1 2.7.1-2.5.3-8.3.4-11 .3-.1 7.5-2.7 13.9-3 9.6-.4 25.3 2.3 42.7.9 19.7-1.6 41.1-7.4 50.7-8.1z"/><path class="st7" d="M233.8 83.4c.1-1.6.2-3.3.3-5.1-.1 2.7-.1 5.3-.3 7.9v.5h-.2l.2-2v-1.3zM341.4 71.8l-.3.1c-1 .4-2 .7-3.1 1.1-6.2 2.1-12.9 3.9-19.8 5.4 5-1.7 10-3.7 14.7-5.9 2.5-.2 4.5-.4 5.9-.5 1.1-.1 1.9-.2 2.3-.2h.3z"/><path class="st6" d="M234 78.3l-2.8.6c1-.2 1.9-.4 2.8-.6zM341.4 68.2v1.2c0 .3 0 .7-.1 1v.2c0 .4-.1.7-.1 1v.2c0 .3-.1.6-.2.9l-.1.7c-.1.7-.3 1.4-.5 2.1l-.1.4v.1c0 .2-.1.4-.2.6l-.3.8-.3.8-.3.8c-.1.3-.2.5-.4.8l-.4.8c-.2.3-.3.6-.5.8l-.7 1.2-.8 1.2c-.3.5-.6.9-1 1.4 0 0-.1.1-.1.2l-.7.9s0 .1-.1.1c-.2.2-.4.4-.5.7-.4.5-.9 1-1.4 1.6-.2.2-.5.5-.7.8-.3.3-.5.6-.8.8-.3.3-.6.6-.9.8-.6.6-1.2 1.1-1.8 1.6-1.1 1-2.3 2-3.5 2.9-1.7 1.3-3.5 2.5-5.4 3.7-.3.2-.7.4-1 .7-.7.4-1.4.9-2.2 1.3l-1.1.6c-1.5.9-3.1 1.7-4.7 2.5-1.3.6-2.6 1.3-4 1.9l-1.8.8c-9.1 3.9-19.5 7.1-30.9 9.4l-.5.1c-15.9 4.3-31.4 5.5-44.1 5.4.1-.3.2-.6.3-1 .2-.5.3-1.1.5-1.8.1-.3.2-.6.2-1 .1-.6.3-1.2.4-1.9.3-1.4.6-2.9.8-4.6.1-.4.1-.8.2-1.3 0-.2 0-.3.1-.5h-2.3c.2-.5.3-1.1.5-1.8 1-4 1.9-9.8 2.6-17h.8c18.6.4 53.8-2.2 84.8-12.9 5-1.7 10-3.7 14.7-5.9 3.1-1.1 5.9-2.6 8.6-4.1z"/><path class="st8" d="M341.4 68.2c-.8 1.3-1.6 2.6-2.6 3.8-.2.3-.5.6-.8 1-16.2 19.9-59.2 36.3-106.3 37.1h-2.3c.2-.5.3-1.1.5-1.8 1-4 1.9-9.8 2.6-17h.8c18.6.4 53.8-2.2 84.8-12.9 5-1.7 10-3.7 14.7-5.9 3.1-1.3 5.9-2.8 8.6-4.3z"/><path class="st1" d="M230.1 17.1l-.5-1.8c-.8-2.7-1.8-4.2-2.7-4.2-.2 0-.5.1-.7.3-3.8 2.8-6.7 27.2-6.7 56.9 0 4.8.1 9.4.2 13.8.7-.2 1.3-.4 2-.5-.1-3.5-.1-7.2-.1-10.8v-2.4c0-26 2.4-47.6 5.6-52.1.1.3.2.6.3 1 2.4 9.4 4.1 28.8 4.1 51.1 0 3.7 0 7.3-.1 10.8l2.8-.6c0-.8 0-1.7.1-2.5v-7.6c-.2-22.7-1.9-42.1-4.3-51.4z"/><path class="st7" d="M234 78.3c-.1 2.7-.1 5.4-.3 7.9v2.0999999999999996c0 1.1-.1 2.1-.2 3.1h-.8c-.7 7.1-1.6 13-2.6 17l-.5 1.8h2.3c0 .2 0 .3-.1.5l-.2 1.3c-.2 1.7-.5 3.2-.8 4.6-.1.7-.3 1.3-.4 1.9-.1.3-.2.7-.2 1l-.5 1.8c-.1.4-.2.7-.3 1-.2.6-.5 1.2-.7 1.6l-.1.3c-.1.1-.1.2-.2.2-.1.2-.2.3-.3.4 0 .1-.1.1-.2.2l-.1.1c-.3.2-.5.3-.8.3-.2 0-.5-.1-.7-.3-.6-.5-1.2-1.5-1.8-3h1.8c.1.2.2.5.4.6 0-.1.1-.3.2-.6.1-.5.3-1.2.5-1.8.1-.5.2-.9.3-1 2-7.8 3.5-22.6 4-40.4l2.3-.6zM233.5 91.3c-.1 2-.2 3.8-.4 5.7-.1 1.1-.2 2.2-.3 3.2l-.3 3.2-.3 2.5c-.1.7-.2 1.4-.2 2.1-.1.7-.2 1.4-.3 2h-2.3c.2-.5.3-1.1.5-1.8 1-4 1.9-9.8 2.6-17 .5.1.7.1 1 .1z"/><path class="st3" d="M235 78.1l-1 .2"/><path class="st5" d="M231.3 79l-1 .2s-22.8 8.4-48.3 7.5-42.9-22.8-73.5-25c-27.5-2-49.7 15.3-49.7 15.3s38.7-13.4 59-7.4 38.2 25.6 65.6 25.6c35.8 0 47.5-7.6 47.5-7.6"/></svg>