<?xml version="1.0" encoding="utf-8"?>
<!-- Generator: Adobe Illustrator 19.1.0, SVG Export Plug-In . SVG Version: 6.00 Build 0)  -->
<!DOCTYPE svg PUBLIC "-//W3C//DTD SVG 1.1//EN" "http://www.w3.org/Graphics/SVG/1.1/DTD/svg11.dtd">
<svg version="1.1" id="Layer_1" xmlns="http://www.w3.org/2000/svg" xmlns:xlink="http://www.w3.org/1999/xlink" x="0px" y="0px"
	 viewBox="0 0 491.6 142.1" style="enable-background:new 0 0 491.6 142.1;" xml:space="preserve">
<style type="text/css">
	.st0{fill:#E6E7E8;}
	.st1{fill:#D1D3D4;}
	.st2{fill:#F1F2F2;}
	.st3{fill:none;}
	.st4{fill:#BCBEC0;}
	.st5{fill:#6A0006;}
	.st6{fill:#9C1421;}
	.st7{fill:#5A0000;}
	.st8{fill:#C82130;}
</style>
<path class="st0" d="M226.7,125.3h-0.7v-0.3C226.3,125.2,226.5,125.3,226.7,125.3z"/>
<path class="st0" d="M77.2-237.3h1c-0.3,0-0.6,0.1-1,0.4V-237.3z"/>
<path class="st1" d="M348.8,68.2c0,0.3,0,0.5,0,0.8c0,0.3,0,0.6,0,0.8c0,0,0,0,0,0c0,0.2,0,0.5,0,0.7c0,0.2,0,0.4,0,0.6
	c0,0.1,0,0.2,0,0.3c0,0.2,0,0.4-0.1,0.6c0,0.3-0.1,0.6-0.1,0.9c-0.1,0.3-0.1,0.7-0.2,1c-0.1,0.4-0.2,0.7-0.3,1.1
	c-0.1,0.4-0.2,0.8-0.3,1.2c-8.4,27.6-59.2,48.9-120.8,49.1c0.3,0,0.5-0.1,0.8-0.3c0,0,0.1-0.1,0.1-0.1s0.1-0.1,0.2-0.2
	c0.1-0.1,0.2-0.2,0.3-0.4c0-0.1,0.1-0.1,0.2-0.2c0-0.1,0.1-0.2,0.1-0.3c0.2-0.4,0.5-1,0.7-1.6c0.1-0.3,0.2-0.6,0.3-1h0.8
	c0.2,0,0.3,0,0.5,0c15.1-0.2,29.4-1.7,42.5-4.4c0,0,0,0,0,0c12.4-2.5,23.6-6,33.2-10.3c1.4-0.6,2.7-1.2,4-1.9
	c1.6-0.8,3.2-1.6,4.7-2.5c0.4-0.2,0.7-0.4,1.1-0.6c0.7-0.4,1.5-0.8,2.2-1.3c0.4-0.2,0.7-0.4,1-0.7c1.9-1.2,3.7-2.5,5.4-3.7
	c1.2-1,2.4-1.9,3.5-2.9c0.6-0.5,1.2-1.1,1.8-1.6c0,0,0,0,0,0c0.3-0.3,0.6-0.6,0.9-0.8c0.3-0.3,0.5-0.6,0.8-0.8
	c0.2-0.2,0.5-0.5,0.7-0.8c0.5-0.5,0.9-1,1.4-1.6c0.2-0.2,0.4-0.4,0.5-0.7c0,0,0-0.1,0.1-0.1c0.2-0.3,0.5-0.6,0.7-0.9
	c0,0,0.1-0.1,0.1-0.2c0.4-0.5,0.7-0.9,1-1.4c0.3-0.4,0.5-0.8,0.8-1.2c0.2-0.4,0.5-0.8,0.7-1.2c0.2-0.3,0.3-0.5,0.5-0.8
	c0.1-0.3,0.3-0.5,0.4-0.8l0,0c0,0,0,0,0,0c0.1-0.2,0.2-0.5,0.4-0.8c0.1-0.3,0.2-0.5,0.3-0.8c0.1-0.3,0.2-0.5,0.3-0.8
	c0.1-0.3,0.2-0.5,0.3-0.8c0.1-0.2,0.1-0.4,0.2-0.6c0,0,0-0.1,0-0.1c0-0.1,0.1-0.3,0.1-0.4c0.2-0.7,0.4-1.4,0.5-2.1
	c0-0.2,0.1-0.5,0.1-0.7c0.1-0.4,0.1-0.8,0.2-1.2c0-0.4,0.1-0.7,0.1-1c0-0.1,0-0.2,0-0.2c0-0.3,0-0.7,0.1-1c0-0.4,0-0.8,0-1.2
	c0,0,0,0,0,0c0-2.5-0.4-5-1.1-7.4c-7.6-25.2-53.6-44.8-109.6-45.5c0.1,0,0.1,0,0.2,0h-0.6v0c-0.2,0-0.5,0-0.8,0
	c-0.8-2.7-1.8-4.2-2.7-4.2c61.6,0.2,112.5,21.5,120.8,49.1c0.1,0.3,0.2,0.7,0.3,1c0.1,0.3,0.2,0.7,0.2,1c0.1,0.3,0.1,0.6,0.2,0.9
	c0.1,0.4,0.1,0.7,0.2,1c0,0.3,0.1,0.6,0.1,0.9c0.1,0.6,0.1,1.2,0.1,1.8c0,0.2,0,0.4,0,0.5C348.8,67.7,348.8,67.9,348.8,68.2z"/>
<path class="st0" d="M230.9,15.2c-0.1,0-0.1,0-0.2,0c-0.2,0-0.3,0.1-0.5,0.2v-0.2H230.9z"/>
<path class="st0" d="M348,75.1h100.6c-0.5,0.8-1,1.2-1,1.2h-100C347.8,75.8,347.9,75.5,348,75.1z"/>
<path class="st0" d="M347.9,61.2c-0.1-0.3-0.2-0.7-0.3-1h100c0,0,0,0,0,0c0.2,0.1,2.7,1.1,3.1,6.7h-102c0-0.6-0.1-1.2-0.1-1.8
	c0-0.3-0.1-0.6-0.1-0.9c0-0.3-0.1-0.7-0.2-1c-0.1-0.3-0.1-0.6-0.2-0.9C348.1,61.8,348,61.5,347.9,61.2z"/>
<path class="st2" d="M450.8,68.6c0,2.9-1.3,5.2-2.2,6.5H348c0.1-0.4,0.2-0.7,0.3-1.1c0.1-0.3,0.1-0.7,0.2-1c0.1-0.3,0.1-0.6,0.1-0.9
	c0-0.2,0.1-0.4,0.1-0.6c0-0.1,0-0.2,0-0.3c0-0.2,0-0.4,0-0.6c0-0.2,0-0.5,0-0.7c0,0,0,0,0,0c0-0.3,0-0.5,0-0.8c0-0.3,0-0.5,0-0.8
	c0-0.3,0-0.5,0-0.8c0-0.2,0-0.4,0-0.5h102C450.8,67.4,450.8,68,450.8,68.6z"/>
<path class="st0" d="M479,68.2c0,26.7-7.1,48.3-15.8,48.3c-7.8,0-6.4-17.4-15.6-40.3c0,0,0.4-0.4,1-1.2c1-1.3,2.2-3.5,2.2-6.5
	c0-0.6,0-1.2-0.1-1.8c-0.5-5.6-3-6.6-3.1-6.7c0,0,0,0,0,0c10.3-25.4,7.8-40.3,15.6-40.3C471.9,19.9,479,41.5,479,68.2z"/>
<path class="st2" d="M471.6,84.6c-2.1,12-6.2,20.2-11,20.2c-6.2,0-5-13.7-12.3-31.7c0,0,0.3-0.3,0.8-0.9c0.7-1,1.7-2.8,1.7-5.1v-0.3
	L471.6,84.6z"/>
<path class="st0" d="M230.9,15.2c-0.1,0-0.1,0-0.2,0c-0.2,0-0.3,0.1-0.5,0.2v-0.2H230.9z"/>
<path class="st0" d="M231.4,68.2c0,3.7,0,7.3-0.1,10.8c-3.2,0.8-6.4,1.7-9.6,2.5c-0.1-3.5-0.2-7.1-0.2-10.8c0-0.8,0-1.6,0-2.4
	c0-26,2.4-47.6,5.6-52.1c0.1,0.3,0.2,0.6,0.3,1C229.8,26.4,231.4,45.8,231.4,68.2z"/>
<path class="st0" d="M341.4,68.2c0,0.4,0,0.8,0,1.2c0,0.3,0,0.7-0.1,1c0,0.1,0,0.2,0,0.2c0,0.4-0.1,0.7-0.1,1c0,0,0,0.1,0,0.1
	c0,0,0,0.1,0,0.1c0,0.3-0.1,0.6-0.2,0.9c0,0.2-0.1,0.5-0.1,0.7c-0.1,0.7-0.3,1.4-0.5,2.1c0,0.1-0.1,0.3-0.1,0.4c0,0,0,0.1,0,0.1
	c0,0.2-0.1,0.4-0.2,0.6c-0.1,0.3-0.2,0.5-0.3,0.8c-0.1,0.3-0.2,0.5-0.3,0.8c-0.1,0.3-0.2,0.5-0.3,0.8c-0.1,0.3-0.2,0.5-0.4,0.8
	c0,0,0,0,0,0l0,0c-0.1,0.3-0.3,0.5-0.4,0.8c-0.2,0.3-0.3,0.6-0.5,0.8c-0.2,0.4-0.5,0.8-0.7,1.2c-0.3,0.4-0.5,0.8-0.8,1.2
	c-0.3,0.5-0.6,0.9-1,1.4c0,0-0.1,0.1-0.1,0.2c-0.2,0.3-0.5,0.6-0.7,0.9c0,0,0,0.1-0.1,0.1c-0.2,0.2-0.4,0.4-0.5,0.7
	c-0.4,0.5-0.9,1-1.4,1.6c-0.2,0.2-0.5,0.5-0.7,0.8c-0.3,0.3-0.5,0.6-0.8,0.8c-0.3,0.3-0.6,0.6-0.9,0.8c0,0,0,0,0,0
	c-0.6,0.6-1.2,1.1-1.8,1.6c-1.1,1-2.3,2-3.5,2.9c-1.7,1.3-3.5,2.5-5.4,3.7c-0.3,0.2-0.7,0.4-1,0.7c-0.7,0.4-1.4,0.9-2.2,1.3
	c-0.4,0.2-0.7,0.4-1.1,0.6c-1.5,0.9-3.1,1.7-4.7,2.5c-1.3,0.6-2.6,1.3-4,1.9c-0.6,0.3-1.2,0.5-1.8,0.8c-9.2,4-19.8,7.2-31.4,9.5
	c0,0,0,0,0,0c-13.1,2.7-27.4,4.2-42.5,4.4c-0.2,0-0.3,0-0.5,0h-0.8c0,0,0,0,0,0c0.2-0.5,0.3-1.1,0.5-1.8c0.1-0.3,0.2-0.6,0.2-1
	c0.1-0.6,0.3-1.2,0.4-1.9c0.3-1.4,0.6-2.9,0.8-4.6c0.1-0.4,0.1-0.8,0.2-1.3c0-0.2,0-0.3,0.1-0.5c0.1-0.7,0.2-1.3,0.3-2
	c0.1-0.7,0.2-1.4,0.2-2.1c0.1-0.8,0.2-1.7,0.3-2.5c0.1-1,0.2-2.1,0.3-3.2v0c0.1-1,0.2-2.1,0.3-3.2c0.1-1.8,0.3-3.7,0.4-5.6v0
	c18.6,0.4,53.8-2.2,84.8-12.9c5-1.7,10-3.7,14.7-5.9C335.9,71.2,338.7,69.7,341.4,68.2z"/>
<path class="st0" d="M229.6,15.3C229.6,15.3,229.6,15.3,229.6,15.3c0.2,0,0.5,0,0.7,0v0.2c0,0,0,0,0.1,0c0,0,0,0,0.1,0
	c0,0,0.1-0.1,0.1-0.1c0,0,0,0,0,0c0,0,0.1,0,0.1-0.1c56,0.7,101.9,20.2,109.6,45.5c0.7,2.4,1.1,4.9,1.1,7.4c0,0-24.5,4.2-49.2,6.6
	c-15.1,1.4-30.1,1.6-39.9,1.5c-6.6-0.1-12.5,0.8-18.3,2.1c0-0.8,0-1.7,0.1-2.5c0-0.8,0-1.7,0-2.5c0-1.7,0-3.4,0-5.1
	c0-22.4-1.7-41.8-4.1-51.1C229.9,16.4,229.7,15.8,229.6,15.3z"/>
<path class="st0" d="M230.8,15.3c-0.2,0-0.3,0.1-0.5,0.2v-0.2C230.5,15.3,230.6,15.3,230.8,15.3z"/>
<line class="st3" x1="422.1" y1="159.5" x2="413" y2="151.7"/>
<line class="st3" x1="392.3" y1="133.9" x2="389.8" y2="131.8"/>
<path class="st4" d="M479.3,68.5c0-26.2-6.8-47.5-15.4-48.3c8.4,18.8,21.2,58.7,2.1,95.9C473.5,112.5,479.3,92.6,479.3,68.5z"/>
<path class="st5" d="M231.3,78.9L231.3,78.9c-0.4,17.8-1.9,32.6-4,40.4c0,0.1-0.1,0.5-0.3,1c-0.2,0.6-0.3,1.3-0.5,1.8
	c-0.2,0-0.4,0-0.5,0c-0.6,0-1.2,0-1.8,0c-12.2-0.4-21.3-1.7-25-1.8c-13.2-0.4-62,1.9-93.2-16.6c-22.5-13.3-92.9-9.6-92.9-9.6
	s54.7-42.6,81.6-42.5c29.6,0.1,60.7,32.1,88.7,36.9c14.2,2.4,25.4-3.6,36.2-6.5c0.7-0.2,1.3-0.4,2-0.5c0,0,0,0,0.1,0
	c2.9-0.8,5.8-1.5,8.7-2.3C230.6,79.1,231,79,231.3,78.9z"/>
<path class="st6" d="M231.3,78.9L231.3,78.9c-0.4,17.8-1.9,32.6-4,40.4c0,0.1-0.1,0.5-0.3,1c-0.2,0.6-0.3,1.3-0.5,1.8
	c-0.2,0-0.4,0-0.5,0c-0.6,0-1.2,0-1.8,0c-12.2-0.4-21.3-1.7-25-1.8c-13.2-0.4-62,1.9-93.2-16.6c-22.5-13.3-92.9-9.6-92.9-9.6
	S73,54.8,94.7,54.7c32.4-0.1,60.7,29,88.7,33.7c14.2,2.4,25.4-3.6,36.2-6.5c0.7-0.2,1.3-0.4,2-0.5c0,0,0,0,0.1,0
	c2.9-0.8,5.8-1.5,8.7-2.3C230.6,79.1,231,79,231.3,78.9z"/>
<path class="st6" d="M318.3,78.4c-30.9,10.7-66.1,13.4-84.8,12.9c0.1-1,0.1-2.1,0.2-3.1c0-0.2,0-0.4,0-0.7c0-0.3,0-0.6,0-0.9
	c7.7-4.2,14.2-3.5,25.4-4.2C276.3,81.4,299.7,82.5,318.3,78.4z"/>
<path class="st6" d="M341.4,68.2C341.4,68.2,341.4,68.2,341.4,68.2c-2.7,1.5-5.6,3-8.5,4.3c-9,0.7-26.9,3.5-42.3,4.4
	s-28.2,0.1-38.3,0c-6.2,0-11.9,0.5-17.4,1.2c-0.3,0-0.6,0.1-0.9,0.1v0c0.3-0.1,0.6-0.1,0.9-0.2c0.7-0.2,1.5-0.3,2.2-0.5
	c0.5-0.1,1.1-0.2,1.6-0.3c0.5-0.1,1-0.2,1.6-0.2c0.4-0.1,0.7-0.1,1.1-0.2c1.1-0.2,2.2-0.3,3.3-0.4c0.4,0,0.7-0.1,1.1-0.1
	c0.8-0.1,1.5-0.1,2.3-0.2c0.7,0,1.5-0.1,2.2-0.1c0.1,0,0.1,0,0.2,0c0.6,0,1.3,0,1.9,0c9.9,0.1,24-0.4,39.1-1.8
	C316.1,72,341.4,68.2,341.4,68.2z"/>
<path class="st5" d="M341.4,68.2c-4.7,2.2-15.1,9.8-23.1,10.2c-30.8,6.8-66.2,3.6-84.5,8.3c0-0.2-0.1,2.8-0.1,2.7
	c0.1-2.5,0.3-8.3,0.4-11c0,0,0,0,0,0c0.3-0.1,7.5-2.7,13.9-3c9.6-0.4,25.3,2.3,42.7,0.9C310.4,74.7,331.8,68.9,341.4,68.2z"/>
<path class="st7" d="M233.8,83.4c0.1-1.6,0.2-3.3,0.3-5.1c-0.1,2.7-0.1,5.3-0.3,7.9c0,0.2,0,0.3,0,0.5h-0.2c0.1-0.7,0.1-1.3,0.2-2
	c0-0.1,0-0.3,0-0.4C233.8,84,233.8,83.7,233.8,83.4z"/>
<path class="st7" d="M341.4,71.8C341.4,71.8,341.4,71.8,341.4,71.8c-0.1,0-0.2,0.1-0.3,0.1h0c-1,0.4-2,0.7-3.1,1.1
	c-6.2,2.1-12.9,3.9-19.8,5.4c5-1.7,10-3.7,14.7-5.9c2.5-0.2,4.5-0.4,5.9-0.5c1.1-0.1,1.9-0.2,2.3-0.2
	C341.4,71.8,341.4,71.8,341.4,71.8z"/>
<path class="st6" d="M234,78.3l-2.8,0.6v0C232.2,78.7,233.1,78.5,234,78.3L234,78.3z"/>
<path class="st6" d="M341.4,68.2c0,0.4,0,0.8,0,1.2c0,0.3,0,0.7-0.1,1c0,0.1,0,0.2,0,0.2c0,0.4-0.1,0.7-0.1,1c0,0,0,0.1,0,0.1
	c0,0,0,0.1,0,0.1c0,0.3-0.1,0.6-0.2,0.9c0,0.2-0.1,0.5-0.1,0.7c-0.1,0.7-0.3,1.4-0.5,2.1c0,0.1-0.1,0.3-0.1,0.4c0,0,0,0.1,0,0.1
	c0,0.2-0.1,0.4-0.2,0.6c-0.1,0.3-0.2,0.5-0.3,0.8c-0.1,0.3-0.2,0.5-0.3,0.8c-0.1,0.3-0.2,0.5-0.3,0.8c-0.1,0.3-0.2,0.5-0.4,0.8
	c0,0,0,0,0,0l0,0c-0.1,0.3-0.3,0.5-0.4,0.8c-0.2,0.3-0.3,0.6-0.5,0.8c-0.2,0.4-0.5,0.8-0.7,1.2c-0.3,0.4-0.5,0.8-0.8,1.2
	c-0.3,0.5-0.6,0.9-1,1.4c0,0-0.1,0.1-0.1,0.2c-0.2,0.3-0.5,0.6-0.7,0.9c0,0,0,0.1-0.1,0.1c-0.2,0.2-0.4,0.4-0.5,0.7
	c-0.4,0.5-0.9,1-1.4,1.6c-0.2,0.2-0.5,0.5-0.7,0.8c-0.3,0.3-0.5,0.6-0.8,0.8c-0.3,0.3-0.6,0.6-0.9,0.8c0,0,0,0,0,0
	c-0.6,0.6-1.2,1.1-1.8,1.6c-1.1,1-2.3,2-3.5,2.9c-1.7,1.3-3.5,2.5-5.4,3.7c-0.3,0.2-0.7,0.4-1,0.7c-0.7,0.4-1.4,0.9-2.2,1.3
	c-0.4,0.2-0.7,0.4-1.1,0.6c-1.5,0.9-3.1,1.7-4.7,2.5c-1.3,0.6-2.6,1.3-4,1.9c-0.6,0.3-1.2,0.5-1.8,0.8c-9.1,3.9-19.5,7.1-30.9,9.4
	c-0.2,0-0.3,0.1-0.5,0.1c0,0,0,0,0,0c-15.9,4.3-31.4,5.5-44.1,5.4c0.1-0.3,0.2-0.6,0.3-1c0,0,0,0,0,0c0.2-0.5,0.3-1.1,0.5-1.8
	c0.1-0.3,0.2-0.6,0.2-1c0.1-0.6,0.3-1.2,0.4-1.9c0.3-1.4,0.6-2.9,0.8-4.6c0.1-0.4,0.1-0.8,0.2-1.3c0-0.2,0-0.3,0.1-0.5
	c-0.3,0-0.7,0-1,0c-0.2,0-0.3,0-0.5,0h-0.8c0,0,0,0,0,0c0.2-0.5,0.3-1.1,0.5-1.8c1-4,1.9-9.8,2.6-17c0.3,0,0.5,0,0.8,0
	c18.6,0.4,53.8-2.2,84.8-12.9c5-1.7,10-3.7,14.7-5.9C335.9,71.2,338.7,69.7,341.4,68.2z"/>
<path class="st8" d="M341.4,68.2c-0.8,1.3-1.6,2.6-2.6,3.8c-0.2,0.3-0.5,0.6-0.8,1c-16.2,19.9-59.2,36.3-106.3,37.1
	c-0.3,0-0.7,0-1,0c-0.2,0-0.3,0-0.5,0h-0.8c0,0,0,0,0,0c0.2-0.5,0.3-1.1,0.5-1.8c1-4,1.9-9.8,2.6-17c0.3,0,0.5,0,0.8,0
	c18.6,0.4,53.8-2.2,84.8-12.9c5-1.7,10-3.7,14.7-5.9C335.9,71.2,338.7,69.7,341.4,68.2z"/>
<path class="st1" d="M230.1,17.1c-0.2-0.6-0.3-1.2-0.5-1.8c0,0,0,0,0,0c-0.8-2.7-1.8-4.2-2.7-4.2c0,0,0,0,0,0h0
	c-0.2,0-0.5,0.1-0.7,0.3c-3.8,2.8-6.7,27.2-6.7,56.9c0,4.8,0.1,9.4,0.2,13.8c0.7-0.2,1.3-0.4,2-0.5c-0.1-3.5-0.1-7.2-0.1-10.8
	c0-0.8,0-1.6,0-2.4c0-26,2.4-47.6,5.6-52.1c0.1,0.3,0.2,0.6,0.3,1c2.4,9.4,4.1,28.8,4.1,51.1c0,3.7,0,7.3-0.1,10.8v0l2.8-0.6v0
	c0-0.8,0-1.7,0.1-2.5c0-0.8,0-1.7,0-2.5c0-1.7,0-3.4,0-5.1C234.2,45.8,232.5,26.4,230.1,17.1z"/>
<path class="st7" d="M234,78.3L234,78.3C234,78.3,234,78.3,234,78.3c-0.1,2.7-0.1,5.4-0.3,7.9c0,0.2,0,0.3,0,0.5c0,0.3,0,0.6,0,0.9
	c0,0.2,0,0.5,0,0.7c0,1.1-0.1,2.1-0.2,3.1c-0.3,0-0.6,0-0.8,0c-0.7,7.1-1.6,13-2.6,17c-0.2,0.6-0.3,1.2-0.5,1.8c0,0,0,0,0,0h0.8
	c0.2,0,0.3,0,0.5,0c0.3,0,0.7,0,1,0c0,0.2,0,0.3-0.1,0.5c-0.1,0.4-0.1,0.9-0.2,1.3c-0.2,1.7-0.5,3.2-0.8,4.6
	c-0.1,0.7-0.3,1.3-0.4,1.9c-0.1,0.3-0.2,0.7-0.2,1c-0.2,0.6-0.3,1.2-0.5,1.8c0,0,0,0,0,0c-0.1,0.4-0.2,0.7-0.3,1
	c-0.2,0.6-0.5,1.2-0.7,1.6c0,0.1-0.1,0.2-0.1,0.3c-0.1,0.1-0.1,0.2-0.2,0.2c-0.1,0.2-0.2,0.3-0.3,0.4c0,0.1-0.1,0.1-0.2,0.2
	s-0.1,0.1-0.1,0.1c-0.3,0.2-0.5,0.3-0.8,0.3c0,0,0,0,0,0h0c-0.2,0-0.5-0.1-0.7-0.3c-0.6-0.5-1.2-1.5-1.8-3c0.6,0,1.2,0,1.8,0
	c0.1,0.2,0.2,0.5,0.4,0.6c0-0.1,0.1-0.3,0.2-0.6c0.1-0.5,0.3-1.2,0.5-1.8c0.1-0.5,0.2-0.9,0.3-1c2-7.8,3.5-22.6,4-40.4L234,78.3z"/>
<path class="st7" d="M233.5,91.3L233.5,91.3c-0.1,2-0.2,3.8-0.4,5.7c-0.1,1.1-0.2,2.2-0.3,3.2v0c-0.1,1.1-0.2,2.1-0.3,3.2
	c-0.1,0.8-0.2,1.7-0.3,2.5c-0.1,0.7-0.2,1.4-0.2,2.1c-0.1,0.7-0.2,1.4-0.3,2c-0.3,0-0.7,0-1,0c-0.2,0-0.3,0-0.5,0h-0.8c0,0,0,0,0,0
	c0.2-0.5,0.3-1.1,0.5-1.8c1-4,1.9-9.8,2.6-17C233,91.3,233.2,91.3,233.5,91.3z"/>
<line class="st3" x1="235" y1="78.1" x2="234" y2="78.3"/>
<path class="st5" d="M231.3,79l-1,0.2c0,0-22.8,8.4-48.3,7.5s-42.9-22.8-73.5-25c-27.5-2-49.7,15.3-49.7,15.3s38.7-13.4,59-7.4
	s38.2,25.6,65.6,25.6c35.8,0,47.5-7.6,47.5-7.6"/>
</svg>
