<?xml version="1.0" encoding="utf-8"?>
<!-- Generator: Adobe Illustrator 19.1.0, SVG Export Plug-In . SVG Version: 6.00 Build 0)  -->
<!DOCTYPE svg PUBLIC "-//W3C//DTD SVG 1.1//EN" "http://www.w3.org/Graphics/SVG/1.1/DTD/svg11.dtd">
<svg version="1.1" id="Layer_1" xmlns="http://www.w3.org/2000/svg" xmlns:xlink="http://www.w3.org/1999/xlink" x="0px" y="0px"
	 viewBox="174 159.8 960 474.2" style="enable-background:new 174 159.8 960 474.2;" xml:space="preserve">
<style type="text/css">
	.st0{fill:#FFFFFF;}
</style>
<g>
	<g>
		<path class="st0" d="M281,608.6h-23.8v-68.7H281c21.6,0,36.5,14.8,36.5,34.2S302.6,608.6,281,608.6z M281,547.1h-16.1v54.3H281
			c17.4,0,28.4-11.8,28.4-27.1C309.4,559,298.3,547.1,281,547.1z"/>
		<path class="st0" d="M434,608.6h-8.3l-8-18.1h-37.4l-8.1,18.1h-7.9l31.3-69.1h7.3L434,608.6z M399,548.4l-15.7,35h31.3L399,548.4z
			"/>
		<path class="st0" d="M516.1,609.7c-21.6,0-34.9-15.7-34.9-35.4c0-18.9,13.8-35.6,34.4-35.6c11.6,0,18.7,3.3,25.6,9.1l-5,5.9
			c-5.3-4.6-11.2-7.8-20.9-7.8c-15.2,0-26.1,12.8-26.1,28.2c0,16.5,10.5,28.6,27.2,28.6c7.8,0,15.1-3,19.8-6.9v-17.1h-20.9v-7h28.3
			v27.4C537.3,604.9,527.7,609.7,516.1,609.7z"/>
		<path class="st0" d="M651.9,547H610v23.4h37.5v7.1H610v24h42.4v7.1h-50.1v-68.7h49.6V547z"/>
		<path class="st0" d="M760.2,539.9h7.5v68.7h-6.2l-44.3-56.3v56.3h-7.5v-68.7h7.3l43.3,55V539.9z"/>
		<path class="st0" d="M891.8,608.6h-8.3l-8-18.1h-37.4l-8.1,18.1H822l31.3-69.1h7.3L891.8,608.6z M856.8,548.4l-15.7,35h31.3
			L856.8,548.4z"/>
		<path class="st0" d="M955.5,539.9v68.7h-7.7v-68.7H955.5z"/>
		<path class="st0" d="M1041.9,570.5c15.3,3.3,22.4,8.9,22.4,19.5c0,11.9-9.8,19.5-23.4,19.5c-10.9,0-19.8-3.6-28-11l4.8-5.7
			c7.2,6.5,14,9.7,23.5,9.7c9.2,0,15.3-4.8,15.3-11.8c0-6.5-3.4-10.1-17.9-13.1c-15.8-3.4-23-8.5-23-19.9c0-11,9.5-18.8,22.6-18.8
			c10,0,17.2,2.8,24.1,8.4l-4.5,6c-6.4-5.2-12.7-7.5-19.8-7.5c-8.9,0-14.6,4.9-14.6,11.2C1023.2,563.6,1026.8,567.3,1041.9,570.5z"
			/>
	</g>
	<g>
		<g>
			<path class="st0" d="M1097.4,486.2c-4.1-5.1-12.2-21.2-14.2-28.5c-2.3-8.5-5.5-19-6.6-36.8c-0.2-3.8,1.1-40.4,1.1-42.5
				c0-1.1-0.1-7,0.1-8.9c0.4-5.3-6.1-10.5-10.9-8.3c-2.9,1.3-5.5,3.2-4.7,7.3c0.6,3.5,2.3,39.1-2.3,50.9
				c-2.4,10.7-11.3,29.9-21.1,36.1c-5.1,3.6-28.2,23.3-53.2,2.6c0,0-15.6-20-16.6-40.6c1.1-26.9,6.9-39.9,9.1-44.4
				c14.7-31.1,42.9-37.6,48.6-38.7c28.1-5.1,43.5,22.7,47.5,8.8c3.5-12.2-26.2-31.3-60.3-20.8c-6.2,3.2-29.9,12-40,32.2
				c-5.6,11.2-18.3,44.1-18.7,60.7c-0.5,21.4,0.4,9.5-0.5,21.4c-1,13.6-12.8,35.5-31.5,33.5c-30.5-3.2-43.6-11.3-53.4-34.9
				c-4-9.7-2.8-36.4-0.1-48.9c1.8-8.5,12.2-30.6,25.1-39.8c13.2-9.4,31.4-11.3,40.9-10.9c4.6,0.2,7.3,3.3,6.8,8c-0.2,2-0.9,4-1,6
				c0,1.8,1.2,6.3,5.3,5c4.4-1.1,5.5-4.7,6.7-8.6c2.8-9.6-1.6-30-28.8-30.2c-2.3,0-21.7-1.8-40.7,16.6c-6.3,6.1-19.5,23-26.6,51.7
				c-2.6,10.4-2.2,23-3.1,30.6c-0.6,5.1-3.8,24.5-8.4,33.8c-3,6.1-10.7,16.8-22.5,20.6c-18.1,5.7-43.8-3.5-54.5-13
				c-12.7-11.4-12.3-29.9-13-42.9c-0.8-15.1,8.7-35,13.1-41.5c29.6-44.3,54-33.2,59.4-29.7c7.2,4.7,6.2,11.9,5.5,13.4
				c-1.6,3.3-3.3,7.7-1.8,9.8c1,1.4,4.9,0.7,7.1-0.5c3.5-1.9,6.5-9.6,6.2-15.6c-0.3-7.3-0.8-13.5-5.4-19.8c-8.4-11.4-38.2-20-60.8-1
				c-20.2,17-22.6,26.9-28.6,47.7c-3.5,12-5.8,34.8-8.5,48.8c-0.9,4.6-3.8,15.9-5.9,19.9c-5.8,11.3-21.9,29.5-53.6,24.6
				c-29.7-4.6-29.7-27.5-28.6-28.3c6.6-5.1,14.5-9.2,21.4-13.8c2.7-1.8,53.3-35.6,53.9-77.1c0.1-4.2,0.6-35.3-31.5-33.7
				c-45.9,2.3-54.7,73.4-56.5,84.2c-0.9,5.4-2.5,32.7-3.1,33c-2,1.1-20.5,7.3-27.5,7.7c2.8-6.3,8.7-26.5,10.9-39.9
				c1.7-10.8,9.1-45.9-11.6-69.9c-11.2-13-41.3-27.7-77.4-5c-12.2,9.7-20.4,22.5-26.7,36.6c-2.6,5.9-5,11.8-7.7,18.1
				c-0.3-0.8,0.1-116.8,0.1-126.3c0.1-15.4,0.1-30.7,0.2-46.1c0-9.2,0.3-18.3,0.2-27.5c0-2.1-0.4-4.3-0.9-6.3
				c-0.7-2.8-5.6-5.5-8.4-2.7c-2.6,2.7-4.3,6.8-4.5,10.4c-0.4,9.6,0.3,19.2,0.4,28.7c0,7.1-1.8,134.9-2,147.3
				c-0.1,6.9-2.1,34.7-3.5,41.6c-5.3,30.5-8.3,49.3-20.7,62.1c-28.3,29.3-46.5-2-49-6.7c0.7-0.5,22.5-27.3,32-44.8
				c13-23.9,17.9-46.9,18.4-52.7c1.7-17.7-3.2-27-15.3-35.6c-5.3-3.8-25.9-10.1-46.2,3.3c-12.4,8.2-28,26.7-30.5,60.1
				c-3.5,46,17.6,74.6,17,75.1c0,0-11.4,11.9-22.3,6.4c-10.2-5.2-15.2-14.9-19.8-41.6c-2.8-16-3.5-31.9-2.4-47.9
				c0.9-11.7,3.8-23.3,5.9-34.9c1-5.6,2.4-11.1,3.3-16.7c0.5-3-0.4-6.3-4-6.3c-1.8,0-4.2,1.8-5.4,3.4c-3.9,5.5-4.6,10.2-8.6,17.3
				c-9.1,16.3-33.5,39.1-35.7,40.4c2.4-12.7,2.4-23.2,1.7-33.6c-0.4-6-4-22-16.5-28.2c-7.7-4.9-15.4-3.7-22.7,1.3
				c-11.8,7.6-19,22.8-18.6,42.6c-0.4,9.3,6.2,24.7,16.5,32.9c8.5,6.7,21.5,6.1,21.3,6.7c-5.6,33-54.1,87.2-56.6,89.6
				c-3.7,3.6-7.8,6.8-11.6,10.4c-0.8,0.7-1.3,2.4-1.1,3.4c0.2,0.8,1.8,1.8,2.6,1.9c4.1,0.5,6.9,0.1,11.6-2.6c2.6-1.5,6-4.3,8.4-6.5
				c17.8-16.7,44.4-49.4,59.3-91c2.5-6.1,5.8-13.4,5.8-13.4c12.3-8.6,23.2-17.9,32.8-30.2c0.1,0.5-1.8,16.2-2.6,23.5
				c-1.7,15.1-1.4,47.2-0.5,57.9c3.1,40.1,27.2,58.9,54.9,40.3c5.2-3.5,9.7-10.2,14.1-14.7c0,0,22.6,21.3,41.2,21.6
				c15.5,0.3,26.7-5,34.2-24.4c2.8-7.2,10.8-28.1,10.8-28.1c0.3,1,0.2,19.6,0.4,28c0.1,6.8,0.9,14,1.7,20.7c0.2,2,3.1,5.3,5.2,5.2
				c2.4,0,5.4-0.8,5.9-4.3c0.2-1.6,2.4-38.3,2.9-44c0.5-5.4,2.9-22.1,3.7-27.5c0.6-4.4,5.6-20.9,7.6-28c8.2-30.1,30.8-43.3,35-45.1
				c25-10.5,51.6-4.3,59,8.7c10.6,18.7,10.6,35.8,6.3,56.1c-2.3,11-6.4,24.7-10.2,31.1c0,0-7.1,0.4-19.2-1.7
				c-17.2-3-31.2-6.6-42.2-5.5c-21.8,2.1-28.5,21-29.4,30.8c-1.7,19.1,16.9,27.6,28.9,28.6c19.2,1.5,41-9.3,49.9-16.5
				c4.3-3.5,18.3-22.3,18.3-22.3c12-1.6,33.1-7.8,33.1-7.8c0.7,0.3,3,32.2,21.7,40c35.6,14.7,54.7-2.9,64-9
				c7.6-5,24.7-25.6,24.7-25.6s8,20.8,22.4,30c9.1,5.8,27.7,14.9,44.2,11.6c19.6-3.9,31.4-18.4,33.8-21.6c2.6-3.6,7.6-12.5,8.1-13.2
				c0.8,0.9,12.8,22.7,32.6,30.3c33.1,12.7,54.7,2.5,66-5.8c3.6-2.7,8.1-11.5,11.8-14.1c14.5,13.5,22.2,25.8,43.6,24.4
				c42.3-2.6,53.1-55.3,53.2-55.1c0.9,2.9,3.7,24.3,6.5,31.5c4.3,11,14.8,28.7,22.6,24.2C1096.1,493.8,1099.7,489,1097.4,486.2z
				 M282.4,388.4c-6,2.3-24.3-17.6-26.5-26.2c-4.2-16.4,5.5-23.6,12.7-26c10.8-3.5,19.2,14.5,19.2,22.5
				C287.9,373.4,282.4,388.4,282.4,388.4z M401.5,448.7c0,0-11.6-10.9-18.7-38.8c-3.8-14.9-3.7-50.2,26.4-68
				c17.7-10.4,31.1,3.9,32.3,12.6c3.5,24.8-4.8,41.1-6.3,45.3C422.6,434.7,399.9,448.7,401.5,448.7z M542.1,477.5
				c-9.4,0.1-26.1,0.2-24.6-12.4c0.8-6.9,13.1-15.8,22.8-16.9c18.4-2.1,23.3,0.7,35.5,2.9c4.4,0.8,16.8,3.8,16.8,3.8
				C574.4,475.1,553.2,477.4,542.1,477.5z M655.8,391.6c4-14.4,14.5-31.6,17.6-36.1c6.3-9.1,21.9-22.4,33.3-15.9
				c17,9.7,10.1,33.5-1.4,45.5c-8.5,8.9-24.8,22.9-30.8,27.3c-3.5,2.5-21.7,14.3-21.7,14.3S652.9,402.1,655.8,391.6z"/>
			<path class="st0" d="M214.2,513c-1,0-2-0.1-3.1-0.2c-2.3-0.3-5.7-2.3-6.4-5.4c-0.5-2.5,0.5-5.7,2.4-7.5c1.8-1.7,3.7-3.3,5.5-4.9
				c2.1-1.8,4.1-3.6,6-5.4c4.5-4.4,46-52,54.3-82.8c-5-0.6-12.7-2.2-18.8-7c-11.8-9.3-18.6-26.2-18.2-36.5
				c-0.4-20.5,7.1-37.4,20.6-46.1c9.2-6.3,18.7-6.8,27.3-1.4c13.7,6.9,18.2,23.8,18.7,31.8c0.4,6.8,0.7,14.1-0.1,22.4
				c8.3-8.2,20.3-21.2,25.8-31.1c1.7-3,2.7-5.5,3.7-7.9c1.4-3.3,2.7-6.3,5.1-9.8c1.8-2.6,5.3-5.3,8.9-5.3c0,0,0,0,0,0
				c2.6,0,4.9,1,6.4,2.8c1.8,2.1,2.5,5.1,1.9,8.5c-0.5,3.4-1.2,6.7-1.9,9.9c-0.5,2.3-1,4.6-1.4,6.9c-0.6,3.4-1.3,6.8-2,10.1
				c-1.6,8-3.3,16.2-3.9,24.3c-1.1,15.6-0.4,31.4,2.3,46.8c4.7,27.4,9.6,34.4,17.4,38.4c5.4,2.8,11.6-1,14.8-3.5
				c-12.6-22.8-17.9-47.9-15.9-74.4c3-39.9,23.7-57.7,32.4-63.5c21.5-14.3,44.1-8.2,51.1-3.2c14,10,18.8,21,17.1,39.6
				c-0.5,5-5,28.7-18.9,54.4c-7.4,13.7-23.8,35.2-30.5,43.1c2.8,4.4,9.1,12.7,17.9,14c7,1,14.6-2.6,22.5-10.9
				c11.2-11.6,14.2-28.9,19.2-57.7l0.4-2.1c1.2-6.5,3.3-34,3.4-40.9c0.2-11.3,2.1-140,2-147.2c0-3.6-0.1-7.2-0.2-10.8
				c-0.2-5.9-0.4-12-0.1-18.1c0.2-4.7,2.5-9.9,5.7-13.2c2.2-2.2,5.3-3,8.5-2.2c3.5,0.9,6.4,3.7,7.2,6.8c0.7,2.8,1.1,5.2,1.1,7.4
				c0,5.3-0.1,10.7-0.1,16c0,3.8-0.1,7.7-0.1,11.5c0,6.8-0.1,13.6-0.1,20.4c0,8.6,0,17.1-0.1,25.7c-0.1,8-0.2,71.5-0.2,105.2
				c7.4-16.3,16.2-28,27.4-37l0.4-0.3c37-23.3,69.9-9.3,83,5.8c21,24.2,15.2,58.5,13,71.4l-0.3,2c-1.7,10.3-5.5,24.4-8.5,33.6
				c6-1.5,13.3-3.8,16.9-5.1c0.3-2.8,0.7-7.8,1-12.1c0.6-7.7,1.2-15.7,1.7-18.6l0.4-2.2c11-68.8,38.8-84.6,60.3-85.6
				c10.8-0.5,19.4,2.3,25.7,8.3c9.3,9,10.5,22.6,10.4,29.8c-0.7,42.9-50.3,76.9-55.9,80.6c-2.7,1.8-5.4,3.4-8.2,5.1
				c-3.9,2.4-7.9,4.8-11.5,7.4c0.1,2,0.8,6.1,3.9,10.4c4.3,5.9,11.5,9.7,21.3,11.2c32.3,5,45.7-15.8,49-22.3
				c1.6-3.2,4.4-13.6,5.5-18.8c1-5.3,2-11.9,3-18.8c1.7-11.2,3.4-22.7,5.6-30.3l0.5-1.7c5.7-19.8,8.9-30.8,29.5-48.2
				c11.1-9.4,25.2-13.6,39.7-11.9c11.8,1.4,22.3,6.6,27.5,13.6c5.2,7.1,5.9,14,6.3,22.2c0.3,7.1-3,16.7-8.5,19.6
				c-2.8,1.5-9.6,3.4-12.7-0.7c-3-4-0.9-9.8,1.4-14.3v0c0,0,1.1-4.6-3.9-7.8c-4-2.6-25.5-13.4-53.4,28.4c-4.7,7-13.1,25.6-12.3,38.9
				l0.2,3.7c0.5,12.1,1.2,27,11.4,36.2c9.4,8.5,33.7,17.4,50.3,12.1c9.4-3,16.6-11.7,19.9-18.3c4.2-8.4,7.4-26.9,8-32.3
				c0.3-2.3,0.4-5.4,0.6-8.5c0.3-6.8,0.8-15.3,2.6-22.7c8.4-33.8,24.6-50.8,27.8-53.8c12.4-12,27.9-18.3,43.4-17.8l0.4,0
				c16,0.1,24.3,6.8,28.4,12.3c6.1,8.2,6.3,17.8,4.6,23.5c-1.2,3.9-2.9,9.8-9.8,11.6c-2.3,0.8-4.9,0.4-7-1.1c-3-2.2-3.8-6.2-3.8-8.2
				c0-1.6,0.3-3.1,0.6-4.4c0.1-0.7,0.3-1.4,0.4-2.1c0.1-0.6,0.1-1.7-0.4-2.3c-0.5-0.6-1.6-0.7-2.2-0.8c-10.5-0.4-26.8,2-38.2,10.1
				c-12.1,8.6-21.8,29.9-23.3,37.1c-2.6,12.2-3.6,37.8-0.1,46.4c8.9,21.6,20.5,29.1,49.8,32.2c5,0.5,9.7-1,14.1-4.7
				c7.5-6.3,12.1-17.2,12.6-24.8c0.4-5.7,0.4-5.7,0.4-6.7c-0.1-1.3-0.2-3.7,0.1-14.5c0.4-17.9,13.9-52,19.2-62.6
				c9.5-19,30.1-28.6,38.9-32.7c1.2-0.6,2.2-1,3-1.4l0.7-0.3c24.8-7.6,49-0.5,60.1,10.4c5.2,5.1,7.2,10.7,5.7,15.8
				c-1,3.4-2.7,5.6-5.2,6.5c-4.3,1.7-8.7-0.9-14.3-4.1c-7.6-4.5-18-10.6-31.4-8.1c-5.2,0.9-31.7,7.1-45.4,36.2
				c-5,10.6-7.9,24.9-8.6,42.5c1,17.5,13.4,34.9,15.4,37.6c18.5,15,35.2,5.9,46.3-2.3l1.2-0.9c8.6-5.5,17-23.2,19.4-33.5l0.2-0.6
				c4.2-10.6,2.7-45.1,2.1-48.5c-1-5.4,1.5-9.5,7.2-12.1c3.5-1.6,7.8-1.1,11.4,1.5c3.9,2.7,6,7,5.7,11.2c-0.1,1.1-0.1,4.6-0.1,6.5
				c0,1,0,1.8,0,2.2c0,0.4-0.1,2.1-0.1,4.6c-0.3,8.6-1.1,34.7-1,37.6c1,16.1,3.7,26.1,5.9,34.1l0.5,1.8c1.8,6.6,9.6,22.2,13.4,26.9
				l0,0c1.4,1.8,2,4.1,1.5,6.5c-0.7,3.8-3.9,7.5-6.6,9.1c-2.6,1.5-5.5,1.7-8.5,0.6c-9.1-3.2-17.1-18.5-20.5-27.1
				c-1.3-3.5-2.6-9.6-3.7-15.7c-7.4,17-22.6,40.2-51.6,42c-19.7,1.2-29.1-8.1-40-19c-1.2-1.2-2.4-2.4-3.7-3.7
				c-0.9,1.1-1.8,2.4-2.6,3.6c-2.2,3.2-4.3,6.2-6.7,7.9c-13.6,10-36.7,19.3-70.2,6.4c-7.9-3.1-19.5-10.1-30.9-26.2
				c-1.6,2.7-3.5,5.7-4.8,7.6c-1.4,1.9-14.2,18.9-36.5,23.4c-20,4-41.4-8.3-47.5-12.2c-10.3-6.6-17.5-18.3-21.2-25.6
				c-5.8,6.7-15.5,17.5-21.2,21.2c-0.9,0.6-1.8,1.2-2.8,1.9c-10,7-30.9,21.6-65.2,7.4c-16.4-6.8-21.5-28.7-23.4-38.5
				c-6.5,1.8-18.5,5-27.3,6.3c-3.8,5.1-13.9,18.3-17.9,21.6c-10.1,8.2-33.2,19-53,17.5c-8.1-0.6-19.4-4.3-26.6-12.8
				c-4.8-5.7-7-12.8-6.3-20.5c1-11.8,9.2-32.4,33.3-34.7c9.2-0.9,20,1.2,32.6,3.6c3.4,0.7,7,1.3,10.8,2c7.4,1.3,12.9,1.6,15.8,1.7
				c3.2-6.6,6.6-18.4,8.6-27.6c3.9-18.8,4.5-35-5.8-53.1c-6.2-10.9-30.9-16.3-53.5-6.8c-0.2,0.1-24.1,11.3-32.5,42.3
				c-0.6,2.1-1.4,5-2.3,8.1c-2,7-4.8,16.6-5.2,19.4c-0.9,5.9-3.2,22.1-3.7,27.2c-0.3,3.1-1.1,16.4-1.8,27.1c-0.8,12.7-1,16.3-1.1,17
				c-0.7,5-4.5,8-10.1,8.1c0,0-0.1,0-0.1,0c-4.5,0-9.1-5.1-9.5-9.1c-0.7-6.6-1.6-14-1.7-21.1c0-1.5-0.1-3.3-0.1-5.3l-2.6,6.9
				c-7.4,19.2-19.3,27.7-38.3,27.2c-15.8-0.3-33.5-13.8-40.8-19.9c-0.6,0.6-1.1,1.3-1.7,2c-3.1,3.7-6.4,7.5-10.3,10.2
				c-12.6,8.5-25.5,10.2-36.4,5c-14.2-6.9-23.4-24.6-25.3-48.6c-0.8-10.8-1.2-43,0.6-58.7l0.9-8.1c0.1-0.5,0.1-1,0.2-1.5
				c-6.6,6.8-14.2,13.2-23.5,19.7c-1,2.2-3.4,7.5-5.3,12.1c-18,50.2-50.7,83.5-60.4,92.5c-2.4,2.3-6.1,5.3-9.2,7.1
				C221.2,512,218,513,214.2,513z M271.6,321c-3.2,0-6.6,1.2-10.1,3.6c-11,7.1-17,21.2-16.7,38.9c-0.3,8.3,5.7,22.3,14.9,29.6
				c5.5,4.3,13.7,5.1,17.2,5.4c2.1,0.2,3.7,0.3,5,2.1l1.2,1.6l-0.4,2c-6,35.4-57.3,91.3-57.8,91.8c-2.1,2-4.3,3.9-6.4,5.8
				c-1,0.8-1.9,1.6-2.8,2.5c1.6-0.2,3.2-0.8,5.5-2.1c2.3-1.3,5.4-3.9,7.5-5.9c9.3-8.7,40.8-40.7,58.2-89.2c2.5-6.3,5.8-13.5,6-13.8
				l0.5-1.1l1-0.7c13.6-9.5,23.5-18.6,31.9-29.3l6.7-8.6l1.1,10.8c0.1,0.7,0.1,0.8-1.7,16.3l-0.9,8.1c-1.7,15-1.3,46.9-0.5,57.1
				c1.6,20.5,9.2,36,20.3,41.4c8.1,3.9,17.7,2.4,27.7-4.3c2.9-1.9,5.7-5.3,8.5-8.6c1.6-1.9,3.3-3.9,4.9-5.5l3-3l3.1,2.9
				c0.2,0.2,21.6,20.1,38.3,20.5c12.8,0.3,23-3.3,30-21.6l15.4-40.3l3.6,12.5c0.3,1,0.4,1.7,0.4,16.2c0,4.8,0.1,9.6,0.1,12.9
				c0.1,6.7,1,14,1.7,20.4c0.1,0.2,0.8,1,1.3,1.3c0.7-0.1,1-0.2,1.1-0.3c0.1-1.1,0.6-9,1.1-16.6c0.7-11.3,1.5-24.2,1.8-27.4
				c0.6-5.7,3.1-23.2,3.7-27.7c0.5-3.1,2.6-10.8,5.4-20.6c0.9-3.1,1.7-5.9,2.3-8c9.7-35.5,37.3-47.9,37.6-48
				c27.8-11.7,56.3-3.8,64.5,10.6c12.3,21.7,10.6,41.3,6.8,59.2c-2.3,11-6.5,25.3-10.7,32.4l-1.2,2l-2.3,0.1
				c-0.3,0-7.8,0.4-20.2-1.8c-3.8-0.7-7.4-1.4-10.9-2c-11.9-2.3-22.2-4.2-30.1-3.5c-18.4,1.8-24.7,17.7-25.5,26.8
				c-0.5,5.4,1,10.2,4.3,14.1c5.5,6.4,14.5,9.3,20.6,9.7c17.3,1.3,38.1-8.5,46.8-15.6c2.8-2.3,12.3-14.4,17.5-21.5l1.1-1.5l1.8-0.2
				c11.6-1.5,32.2-7.6,32.4-7.6l1.5-0.4l1.4,0.6c2.3,1,2.7,2.8,3.2,5.8c1.3,7.1,5.1,28.7,18.5,34.2c29.9,12.3,46.8,0.6,56.9-6.5
				c1.1-0.8,2.2-1.5,3.1-2.1c5.8-3.8,19.1-19.1,23.7-24.7l4.8-5.8l2.7,7c0.1,0.2,7.7,19.5,20.7,27.9c11.1,7.1,27.7,13.7,41,11
				c19-3.8,29.9-18.3,31.1-19.9c1.5-2.2,4.2-6.6,5.9-9.5c1.6-2.8,2-3.4,2.4-3.8l3.3-4.1l3.4,4.1c0.1,0.2,0.5,0.6,1,1.4
				c11.2,17.6,22.4,24.8,29.9,27.6c29.8,11.5,50.1,3.5,61.8-5.3c1.2-0.9,3.2-3.7,4.7-5.9c2.4-3.4,4.6-6.5,7.2-8.3l2.9-2l2.6,2.4
				c2.5,2.3,4.8,4.6,7,6.8c10.5,10.5,17.5,17.4,33.3,16.4c35.2-2.2,47.1-43.2,49.1-51.4l0.8-3.2l3.4-0.4l3.3-0.1l1,3.2
				c0.4,1.2,0.8,3.7,1.6,8.7c1.2,7.3,3.1,18.3,4.8,22.6c4,10.4,11,20.5,15.2,22c0.7,0.3,1,0.1,1.2,0c0.8-0.5,2-2,2.3-2.8
				c-4.7-6-12.6-22-14.7-29.7l-0.5-1.8c-2.3-8.4-5.2-18.9-6.2-35.9c-0.2-2.9,0.4-21,1-38.4c0.1-2.4,0.1-4.1,0.1-4.5c0-0.3,0-1,0-1.9
				c0-3,0-5.9,0.1-7.3c0.1-1-0.8-2.4-2-3.3c-1-0.7-2.1-1-2.7-0.7c-2.5,1.1-2.4,1.6-2.2,2.6c0.5,2.9,2.7,39.4-2.5,53
				c-2.8,11.9-12.2,31.7-23,38.5l-0.8,0.6c-20.8,15.4-40.2,16-57.5,1.7l-0.7-0.7c-0.7-0.9-16.4-21.3-17.5-43.1l0-0.2l0-0.2
				c0.8-18.9,3.9-34.4,9.5-46.1c15.6-33,45.9-40,51.8-41.1c16.7-3,29.2,4.3,37.4,9.2c2.2,1.3,5,2.9,6.4,3.4c0.1-0.2,0.1-0.4,0.2-0.7
				c0.5-1.8-0.8-4.5-3.5-7.1c-7.4-7.3-27.1-15.6-51-8.4c-0.8,0.4-1.8,0.9-2.9,1.4c-8.7,4-26.7,12.4-34.8,28.7
				c-6,12-17.9,43.6-18.3,58.9c-0.2,10.6-0.1,12.9-0.1,14c0.1,1.4,0.1,1.6-0.4,7.7c-0.7,9.1-5.9,22.7-15.7,30.9
				c-6.1,5.1-13.2,7.4-20.6,6.6c-32.4-3.4-46.8-12.9-56.9-37.6c-4.6-11.2-2.9-39.7-0.4-51.5c2-9.6,13-32.6,26.8-42.4
				c13.2-9.4,31.8-12.2,43.6-11.7c3.5,0.1,6.5,1.5,8.5,3.8c2,2.3,2.9,5.5,2.5,9c-0.1,1-0.3,1.9-0.5,2.9c-0.2,1-0.4,1.9-0.4,2.7
				c0,0.2,0,0.4,0.1,0.6c1.5-0.5,2.1-1.6,3.3-5.5c1.2-4,0.7-10.6-3.2-15.8c-4.2-5.7-11.6-8.7-21.5-8.8l-0.6,0
				c-13.1-0.4-26.3,5-37,15.4c-2.9,2.8-17.6,18.2-25.4,49.6c-1.6,6.6-2,14.2-2.4,21c-0.2,3.3-0.3,6.5-0.6,9.1
				c-0.5,4.5-3.7,24.9-8.8,35.2c-1.5,2.9-9.6,17.9-25.1,22.8c-20.5,6.5-47.8-4.1-58.8-14c-12.9-11.6-13.7-29.3-14.3-42.3l-0.2-3.6
				c-0.9-16.3,9.1-37.2,13.8-44.2c32.5-48.7,60.2-34.3,65.4-30.9c8.8,5.7,8.9,15.2,7.1,19c-0.8,1.7-1.3,3-1.6,3.9
				c0.3-0.1,0.6-0.2,0.9-0.4c1.4-0.8,4.1-6.4,3.9-11.6c-0.3-7.2-0.8-12.3-4.6-17.4c-3-4.1-10.8-8.8-21.4-10.1
				c-7-0.8-20.5-0.6-33,9.9c-18.6,15.7-21.2,24.6-26.7,43.9l-0.5,1.7c-2,7.1-3.7,18.3-5.3,29.2c-1,7.1-2,13.7-3.1,19.2
				c-0.8,4.2-3.8,16.3-6.3,21.1c-4,7.8-20,32.8-58.1,26.9c-23.9-3.7-30.3-18.6-31.9-24.8c-0.8-3.2-1.8-9,1.2-11.3
				c4.3-3.3,9.1-6.2,13.8-9.1c2.7-1.6,5.4-3.3,7.9-4.9c2.1-1.4,51.4-34.4,52-73.5c0.2-10-2.7-18.5-7.8-23.4
				c-4.5-4.3-10.9-6.3-19.2-5.9c-18.2,0.9-42,15.2-52.1,78.3l-0.4,2.4c-0.4,2.5-1.1,10.6-1.6,17.7c-1.3,17.1-1.3,17.1-3.7,18.4
				c-2.6,1.5-21.8,7.8-29.4,8.2l-7.1,0.4l2.8-6.5c2.7-6.2,8.5-26.1,10.6-38.9l0.4-2.1c2-11.8,7.3-43.1-11-64.2
				c-9.5-11-36.7-26-71.5-4.3c-10.3,8.2-18.3,19.3-25.3,34.8c-1.8,4-3.5,8-5.2,12.2l-7,16.5l-3.7-10.9c-0.7-2.1-0.1-126.5-0.1-127.7
				c0.1-8.6,0.1-17.1,0.1-25.7c0-6.8,0-13.6,0.1-20.4c0-3.8,0.1-7.7,0.1-11.5c0.1-5.3,0.1-10.6,0.1-15.9c0-1.5-0.3-3.2-0.8-5.2
				c-0.1-0.2-0.9-0.7-1.3-0.6c-1.5,1.7-2.8,4.8-3,7.4c-0.3,5.8-0.1,11.7,0.1,17.5c0.1,3.7,0.2,7.4,0.2,11.1c0,7.6-1.8,135.3-2,147.4
				c-0.1,6.7-2.1,34.8-3.5,42.3l-0.4,2c-5.1,29.4-8.4,48.8-21.5,62.3c-10,10.4-20.1,14.9-30.1,13.4c-15.3-2.2-24.3-18-25.9-21.1
				l-1.8-3.4l1.9-1.4l-7.7,0l-0.8-2.1c-3-3.2-12.8-15.2-19.1-40c-5-19.6-1.5-55.2,28.4-72.9c8.3-4.9,17.2-5.6,24.9-1.9
				c8.5,4.1,13.2,12,14,17.6c3.3,23.3-3.4,39.6-5.9,45.8c-0.3,0.7-0.5,1.2-0.6,1.6c-3.7,10.3-8.2,18.7-12.7,25.7
				c4.4-6.2,8.5-12.6,11.5-18c13.1-24.1,17.5-46.7,17.9-51c1.4-15.3-2.1-23.6-13.4-31.6c-2.9-2-21.6-9.6-41.2,3.4
				c-7.7,5.1-25.8,20.8-28.5,56.8c-1.9,25.2,3.3,49,15.5,70.7c1.1,1.9,2.7,4.8,0.2,7.2c-1.4,1.5-14.2,13.8-27.3,7.1
				c-11.9-6-17.3-16.9-22.1-44.7c-2.8-16.2-3.6-32.6-2.4-48.9c0.6-8.6,2.4-17.1,4-25.4c0.7-3.3,1.4-6.6,2-10
				c0.4-2.4,0.9-4.8,1.4-7.2c0.6-3.1,1.3-6.3,1.8-9.5c0.1-0.4,0.1-0.8,0.1-1c-0.5,0.3-1.2,0.8-1.6,1.4c-1.9,2.7-3,5.2-4.2,8.2
				c-1.1,2.5-2.3,5.4-4.2,8.8c-9.6,17.3-34.6,40.4-37.2,42l-8.5,5.3l1.9-9.8c2.4-12.7,2.2-23.1,1.6-32.5c-0.3-5-3.5-19.3-14.1-24.6
				l-0.4-0.2C276.8,321.8,274.3,321,271.6,321z M407.8,448.8l1.3,1.2c2.5-3.1,6.6-8.3,11.1-14.4
				C415.3,441.8,410.8,446.1,407.8,448.8z M421.4,342.7c-3.2,0-6.6,1-10.1,3c-28.8,17-27.4,51.4-24.4,63.2
				c4.6,18.1,11.2,28.7,14.8,33.5c6.4-5.7,20.3-19.4,29.2-44.1c0.2-0.5,0.4-1.1,0.8-1.9c2.3-5.6,8.3-20.3,5.3-41.2
				c-0.4-2.9-3.5-8.3-9.1-11C425.9,343.2,423.7,342.7,421.4,342.7z M539,481.9c-7.4,0-17.5-0.6-22.7-6.4c-1.8-2-3.8-5.5-3.1-11
				c1.2-9.7,15.6-19.5,26.6-20.8c15.2-1.7,22-0.2,29.9,1.5c2.1,0.5,4.3,0.9,6.8,1.4c4.4,0.8,16.5,3.7,17,3.8l7.1,1.7l-4.9,5.5
				c-14.1,15.8-32.1,23.9-53.7,24.2l0,0C541.2,481.9,540.1,481.9,539,481.9z M552,451.8c-3.1,0-6.7,0.2-11.2,0.7
				c-8.7,1-18.4,9.1-18.9,13.1c-0.3,2.4,0.4,3.4,0.9,4c3.3,3.7,14.1,3.6,19.2,3.5l0,0c16.4-0.2,30.4-5.6,41.9-15.9
				c-3.4-0.8-7-1.6-9-1.9c-2.7-0.5-5-1-7.2-1.5C562.6,452.7,558.4,451.8,552,451.8z M648.5,434.7v-8.1c0-1,0-25.3,3.1-36.2l0,0
				c4.1-14.9,14.8-32.5,18.2-37.5c8.1-11.8,25.6-25,39.1-17.3c6.8,3.9,11,10,12.1,17.7c1.9,12.9-4.9,26.6-12.5,34.6
				c-8.6,9-25.1,23.3-31.4,27.8c-3.5,2.6-21.2,14-21.9,14.5L648.5,434.7z M700.1,342.2c-7.9,0-17.9,8.4-23,15.8
				c-2.6,3.8-13.2,20.9-17,34.8l0,0c-1.7,6.2-2.4,17.8-2.6,25.7c5.5-3.6,12.6-8.3,14.6-9.7c6-4.4,21.9-18.1,30.2-26.7
				c6.1-6.4,11.5-17.8,10.2-27.3c-0.7-5-3.4-8.9-7.8-11.4C703.2,342.5,701.7,342.2,700.1,342.2z M281.4,393c-1.7,0-3.6-0.5-5.6-1.6
				c-8.9-4.6-22-19.9-24.1-28.1c-4.6-17.8,5.1-27.8,15.6-31.2c4.3-1.4,8.7-0.6,12.7,2.3c7.2,5.2,12.2,17,12.2,24.4
				c0,15.3-5.5,30.6-5.7,31.2l-0.7,1.9l-1.9,0.7C283.2,392.8,282.3,393,281.4,393z M271.4,340.2c-0.6,0-1,0.1-1.4,0.2
				c-5.2,1.7-13.5,6.7-9.8,20.7c1.6,6.3,13.5,19.2,19.2,22.4c1.5-5.1,4.1-15.1,4.1-24.8c0-4.4-3.6-13.6-8.6-17.3
				C273.5,340.4,272.4,340.2,271.4,340.2z"/>
		</g>
	</g>
</g>
</svg>
