<?xml version="1.0" encoding="utf-8"?>
<!-- Generator: Adobe Illustrator 19.1.0, SVG Export Plug-In . SVG Version: 6.00 Build 0)  -->
<!DOCTYPE svg PUBLIC "-//W3C//DTD SVG 1.1//EN" "http://www.w3.org/Graphics/SVG/1.1/DTD/svg11.dtd">
<svg version="1.1" id="Layer_1" xmlns="http://www.w3.org/2000/svg" xmlns:xlink="http://www.w3.org/1999/xlink" x="0px" y="0px"
	 viewBox="0 43.8 960 474.2" style="enable-background:new 0 43.8 960 474.2;" xml:space="preserve">
<style type="text/css">
	.st0{fill:#FFFFFF;}
	.st1{font-family:'Gotham-Book';}
	.st2{font-size:112.9291px;}
	.st3{letter-spacing:-5;}
	.st4{letter-spacing:-4;}
	.st5{fill:none;stroke:#FFFFFF;stroke-width:2;stroke-miterlimit:10;}
	.st6{enable-background:new    ;}
</style>
<text transform="matrix(1 0 0 1 178.54 499.0807)" class="st0 st1 st2 st3">D</text>
<text transform="matrix(1 0 0 1 260.54 499.0807)" class="st0 st1 st2 st4">A</text>
<text transform="matrix(1 0 0 1 343.94 499.0807)" class="st0 st1 st2">G</text>
<text transform="matrix(1 0 0 1 431.94 499.0807)" class="st0 st1 st2">E</text>
<text transform="matrix(1 0 0 1 507.64 499.0807)" class="st0 st1 st2">N</text>
<text transform="matrix(1 0 0 1 595.74 499.0807)" class="st0 st1 st2">AIS</text>
<g>
	<path class="st0" d="M859.7,213.1c34.6-10.6,46.1,5,47.3,9.6c6.9,25.9-10.5,55.5-12.9,59.6c-1.4,2.4-13.1,24.7-24.2,36.6
		c-10.3,11-33.8,34.8-33.8,34.8c25.3,20.9,48.7,1,53.9-2.7c9.9-6.3,18.9-25.8,21.4-36.6c4.7-12,3-53.8,2.4-57.4
		c-0.8-4.2,1.9-6.1,4.8-7.4c4.9-2.2,11.5,3.1,11,8.4c-0.2,1.9-0.1,8-0.1,9.1c-0.1,2.2-1.4,45-1.1,48.9c1.1,18,4.3,28.6,6.7,37.3
		c2,7.4,10.2,23.7,14.4,28.9c2.3,2.8-1.4,7.7-3.9,9.1c-8,4.6-18.6-13.3-23-24.6c-2.8-7.3-5.7-29.1-6.6-32
		c-0.1-0.2-10.4,20.1-13.7,24.7c-6.1,8.6-20.3,32.2-49.5,31.9c-10.3-0.2-20.3-6.1-35-19.8c-3.8,2.6-8.3,5.8-11.9,8.5
		c-11.5,8.5-33.4,18.8-67,5.9c-20.1-7.7-32.3-29.8-33.1-30.8c-0.6,0.7-5.6,9.7-8.3,13.4c-2.4,3.3-14.3,17.9-34.2,21.9
		c-16.8,3.4-35.6-5.9-44.9-11.8c-14.6-9.3-22.7-30.4-22.7-30.4s-17.3,20.9-25.1,25.9c-9.4,6.1-28.8,24-64.9,9.1
		c-19-7.8-21.3-40.2-22-40.5c0,0-21.3,6.2-33.6,7.9c0,0-14.2,19-18.5,22.6c-9,7.3-31.2,18.3-50.6,16.8c-12.2-0.9-31-9.5-29.3-29
		c0.9-9.8,7.7-29,29.8-31.2c11.1-1.1,25.4,2.5,42.8,5.6c12.3,2.2,19.5,1.7,19.5,1.7c3.8-6.5,8-20.4,10.4-31.5
		c4.3-20.6,4.4-37.9-6.4-56.9c-7.5-13.1-34.5-19.4-59.8-8.8c-4.3,1.8-27.2,15.2-35.5,45.8c-2,7.2-7,24-7.7,28.4
		c-0.8,5.4-3.2,22.4-3.8,27.8c-0.6,5.7-2.8,43-3,44.6c-0.5,3.6-3.5,4.4-5.9,4.4c-2.1,0-5-3.3-5.3-5.3c-0.8-6.8-1.6-14.1-1.7-21
		c-0.2-8.6-0.1-27.4-0.4-28.4c0,0-10.8,22.3-15.6,28.5c-21.2,27.6-46,25.1-50.1,24.8c-18.8-1.5-38.9-21.9-38.9-21.9
		c-4.5,4.5-11.9,11.3-17.2,14.9c-28,18.9-69.7-0.2-72.9-40.9c-0.8-10.8-1.1-43.3,0.6-58.7c0.8-7.4,2.7-23.3,2.6-23.8
		c-9.7,12.4-20.8,21.9-33.3,30.6c0,0-3.4,7.4-5.9,13.6c-15.1,42.2-42.1,75.3-60.1,92.2c-2.4,2.2-5.8,5-8.5,6.6
		c-4.7,2.7-7.6,3.1-11.8,2.6c-0.8-0.1-2.5-1.1-2.6-1.9c-0.2-1.1,0.3-2.7,1.1-3.5c3.8-3.6,8-6.9,11.8-10.5
		c2.5-2.4,51.7-57.4,57.4-90.9c0.1-0.6-13,0.1-21.7-6.8c-10.5-8.3-17.1-23.9-16.8-33.4c-0.4-20,6.9-35.5,18.9-43.2
		c7.4-5,15.2-6.3,23.1-1.3c12.7,6.3,16.4,22.6,16.7,28.6c0.7,10.6,0.7,21.1-1.7,34c2.2-1.4,27-24.5,36.2-41c4-7.2,4.8-12,8.7-17.6
		c1.2-1.7,3.6-3.5,5.4-3.5c3.7,0,4.6,3.3,4.1,6.4c-0.9,5.7-2.3,11.3-3.3,17c-2.1,11.8-5.2,23.5-6,35.4c-1.2,16.2-0.4,32.3,2.4,48.5
		c4.7,27,10.7,38.2,26.3,45.7c17.1,8.3,36.5-10.1,36.5-10.1c0.6-0.5-20.8-29.5-17.3-76.1c2.5-34,15-49.8,25.1-61
		c15.2-16.7,35.8-10.2,41-6.2c8.7,6.6,13.8,17.4,15.7,29.6c0.9,5.8,1,37.6-10.3,62.8c-2,4.5-26.8,41.4-29.5,45.4
		c2.5,4.7,24.9,36.6,64.1,6.8c10.5-8,18.5-32.1,23.9-63c1.3-7,3.4-35.2,3.5-42.2c0.3-12.6,2.1-142.1,2.1-149.4
		c0-9.7-0.8-19.5-0.4-29.1c0.2-3.6,1.9-7.8,4.5-10.5c2.8-2.9,7.7-0.1,8.5,2.7c0.5,2.1,1,4.3,1,6.4c0,9.3-0.2,18.6-0.2,27.8
		c-0.1,15.6-0.1,31.2-0.2,46.7c-0.1,9.6-0.4,127.3-0.1,128.1c2.7-6.4,5.2-12.4,7.8-18.4c6.4-14.3,14.7-27.2,27.1-37.1
		c36.6-23,67.1-8.1,78.5,5c21.1,24.3,13.6,59.9,11.8,70.9c-2.2,13.7-8.2,34.1-11,40.5c7.1-0.4,25.9-6.7,27.9-7.8
		c0.6-0.3,2.2-28,3.1-33.5c1.9-11,10.7-83.1,57.3-85.4c32.6-1.6,32.1,30,32,34.2c-0.7,42-51.9,76.3-54.7,78.1
		c-7.1,4.7-15,8.8-21.7,14c-1.1,0.8-1.1,24.1,29.1,28.7c32.1,4.9,48.4-13.5,54.3-25c2.1-4.1,5-15.5,5.9-20.2
		c2.8-14.2,5.1-37.3,8.6-49.5c6.1-21.1,8.6-31.1,29-48.4c22.8-19.3,53.1-10.6,61.6,1c4.7,6.4,5.2,12.7,5.5,20.1
		c0.3,6.1-2.7,13.9-6.3,15.8c-2.2,1.2-6.1,1.9-7.2,0.5c-1.6-2.1,0.2-6.6,1.8-9.9c0.7-1.5,1.7-8.9-5.6-13.6
		c-5.5-3.5-30.3-14.8-60.3,30.1c-4.5,6.7-14.1,26.8-13.3,42.1c0.7,13.1,0.3,31.9,13.2,43.5c10.9,9.7,37,19,55.3,13.2
		c11.9-3.8,19.7-14.7,22.8-20.8c4.7-9.4,7.9-29.1,8.5-34.3c0.9-7.7,0.5-20.5,3.2-31.1c7.2-29.1,20.5-46.2,27-52.5
		c19.3-18.6,38.9-16.8,41.3-16.8c27.6,0.2,32.1,21,29.2,30.6c-1.2,4-2.4,7.5-6.8,8.7c-4.2,1.4-5.4-3.3-5.4-5.1c0-2,0.7-4,1-6.1
		c0.6-4.7-2.2-7.9-6.9-8.1c-9.6-0.4-28.1,1.5-41.5,11.1c-13,9.3-23.6,31.7-25.4,40.3c-2.7,12.7-3.9,39.8,0.1,49.6
		c9.8,23.9,23.2,32.1,54.1,35.4c19,2,33.2-4.8,38.5-7.8c0.7-0.4-6.6-26.2-6.1-47.9c0.4-16.9,13.3-50.2,19-61.6
		C834.3,228.1,853.4,216.3,859.7,213.1 M887.7,270c12.6-22.3,7.3-42-10.1-41.9c-5.8,0-34.4,7.7-49.3,39.2
		c-2.2,4.6-8.1,17.8-9.2,45.1c1.1,20.9,9.2,31.4,9.6,31.2C853.1,328.2,883.5,277.6,887.7,270z M254.7,294.3
		c1.5-4.2,7.1-23.6,3.5-48.8c-1.2-8.8-13.7-20.5-27-9.9c-27.8,22.1-27.7,53.8-23.9,69c7.2,28.3,19,39.3,19,39.3
		C224.8,344,242,329.7,254.7,294.3z M553.3,233.2c-11.6-6.6-27.4,6.9-33.8,16.2c-3.2,4.6-13.8,22.1-17.9,36.7
		c-2.9,10.7-2.9,35.5-2.9,35.5s18.5-12,22-14.5c6.1-4.4,22.6-18.6,31.2-27.7C563.5,267.2,570.5,243.1,553.3,233.2z M386.2,373.2
		c11.3-0.1,32.8-2.4,51.2-23.1c0,0-12.6-3-17-3.8c-12.3-2.2-17.3-5-36-2.9c-9.8,1.1-22.2,10.2-23.1,17.2
		C359.8,373.4,376.7,373.3,386.2,373.2z M71.5,229.9c-7.3,2.4-17.2,9.7-12.9,26.3c2.2,8.7,20.8,28.9,26.8,26.6
		c0,0,5.5-15.2,5.6-30.1C91,244.6,82.5,226.3,71.5,229.9z"/>
</g>
<line class="st5" x1="155.2" y1="460" x2="29" y2="460"/>
<line class="st5" x1="931.4" y1="460" x2="807.7" y2="460"/>
<g class="st6">
	<path class="st0" d="M215.2,496.9h-27.4v-79.1h27.4c24.8,0,42,17.1,42,39.4S240,496.9,215.2,496.9z M215.2,426.1h-18.5v62.6h18.5
		c20,0,32.8-13.6,32.8-31.2S235.2,426.1,215.2,426.1z"/>
</g>
<g class="st6">
	<path class="st0" d="M343.4,496.9h-9.6l-9.3-20.9h-43l-9.4,20.9H263l36-79.6h8.4L343.4,496.9z M303,427.7L285,468h36L303,427.7z"/>
</g>
<g class="st6">
	<path class="st0" d="M389.8,498.3c-24.8,0-40.2-18.1-40.2-40.8c0-21.8,15.9-41,39.6-41c13.3,0,21.6,3.8,29.5,10.5l-5.7,6.8
		c-6.1-5.3-12.9-9-24.1-9c-17.5,0-30,14.8-30,32.5c0,19,12.1,33,31.3,33c9,0,17.4-3.5,22.8-7.9v-19.6h-24.1v-8h32.6v31.5
		C414.2,492.7,403.1,498.3,389.8,498.3z"/>
</g>
<g class="st6">
	<path class="st0" d="M498.3,426H450v27h43.1v8.1H450v27.7h48.8v8.1h-57.7v-79.1h57.1v8.2H498.3z"/>
</g>
<g class="st6">
	<path class="st0" d="M575,417.9h8.7V497h-7.1l-51-64.8V497h-8.7v-79.1h8.4l49.8,63.4v-63.4H575z"/>
</g>
<g class="st6">
	<path class="st0" d="M678.6,496.9H669l-9.3-20.9h-43l-9.4,20.9h-9.1l36-79.6h8.4L678.6,496.9z M638.2,427.7L620.1,468h36
		L638.2,427.7z"/>
	<path class="st0" d="M703.8,417.9V497h-8.9v-79.1H703.8z"/>
	<path class="st0" d="M755.3,453.1c17.6,3.8,25.7,10.3,25.7,22.5c0,13.7-11.3,22.5-27,22.5c-12.5,0-22.8-4.2-32.3-12.6l5.5-6.5
		c8.2,7.5,16.1,11.2,27.1,11.2c10.6,0,17.6-5.5,17.6-13.6c0-7.5-4-11.6-20.6-15.1c-18.2-4-26.5-9.8-26.5-22.9
		c0-12.6,11-21.7,26-21.7c11.5,0,19.8,3.3,27.8,9.7l-5.2,6.9c-7.3-6-14.7-8.6-22.8-8.6c-10.3,0-16.8,5.6-16.8,12.9
		C733.9,445.2,737.9,449.4,755.3,453.1z"/>
</g>
<g>
	<path class="st0" d="M857.7,210.9c34.6-10.6,46.1,5,47.3,9.6c6.9,25.9-10.5,55.5-12.9,59.6c-1.4,2.4-13.1,24.7-24.2,36.6
		c-10.3,11-33.8,34.8-33.8,34.8c25.3,20.9,48.7,1,53.9-2.7c9.9-6.3,18.9-25.8,21.4-36.6c4.7-12,3-53.8,2.4-57.4
		c-0.8-4.2,1.9-6.1,4.8-7.4c4.9-2.2,11.5,3.1,11,8.4c-0.2,1.9-0.1,8-0.1,9.1c-0.1,2.2-1.4,45-1.1,48.9c1.1,18,4.3,28.6,6.7,37.3
		c2,7.4,10.2,23.7,14.4,28.9c2.3,2.8-1.4,7.7-3.9,9.1c-8,4.6-18.6-13.3-23-24.6c-2.8-7.3-5.7-29.1-6.6-32
		c-0.1-0.2-10.4,20.1-13.7,24.7c-6.1,8.6-20.3,32.2-49.5,31.9c-10.3-0.2-20.3-6.1-35-19.8c-3.8,2.6-8.3,5.8-11.9,8.5
		c-11.5,8.5-33.4,18.8-67,5.9c-20.1-7.7-32.3-29.8-33.1-30.8c-0.6,0.7-5.6,9.7-8.3,13.4c-2.4,3.3-14.3,17.9-34.2,21.9
		c-16.8,3.4-35.6-5.9-44.9-11.8c-14.6-9.3-22.7-30.4-22.7-30.4s-17.3,20.9-25.1,25.9c-9.4,6.1-28.8,24-64.9,9.1
		c-19-7.8-21.3-40.2-22-40.5c0,0-21.3,6.2-33.6,7.9c0,0-14.2,19-18.5,22.6c-9,7.3-31.2,18.3-50.6,16.8c-12.2-0.9-31-9.5-29.3-29
		c0.9-9.8,7.7-29,29.8-31.2c11.1-1.1,25.4,2.5,42.8,5.6c12.3,2.2,19.5,1.7,19.5,1.7c3.8-6.5,8-20.4,10.4-31.5
		c4.3-20.6,4.4-37.9-6.4-56.9c-7.5-13.1-34.5-19.4-59.8-8.8c-4.3,1.8-27.2,15.2-35.5,45.8c-2,7.2-7,24-7.7,28.4
		c-0.8,5.4-3.2,22.4-3.8,27.8c-0.6,5.7-2.8,43-3,44.6c-0.5,3.6-3.5,4.4-5.9,4.4c-2.1,0-5-3.3-5.3-5.3c-0.8-6.8-1.6-14.1-1.7-21
		c-0.2-8.6-0.1-27.4-0.4-28.4c0,0-10.8,22.3-15.6,28.5c-21.2,27.6-46,25.1-50.1,24.8c-18.8-1.5-38.9-21.9-38.9-21.9
		c-4.5,4.5-11.9,11.3-17.2,14.9c-28,18.9-69.7-0.2-72.9-40.9c-0.8-10.8-1.1-43.3,0.6-58.7c0.8-7.4,2.7-23.3,2.6-23.8
		c-9.7,12.4-20.8,21.9-33.3,30.6c0,0-3.4,7.4-5.9,13.6c-15.1,42.2-42.1,75.3-60.1,92.2c-2.4,2.2-5.8,5-8.5,6.6
		c-4.7,2.7-7.6,3.1-11.8,2.6c-0.8-0.1-2.5-1.1-2.6-1.9c-0.2-1.1,0.3-2.7,1.1-3.5c3.8-3.6,8-6.9,11.8-10.5
		c2.5-2.4,51.7-57.4,57.4-90.9c0.1-0.6-13,0.1-21.7-6.8c-10.5-8.3-17.1-23.9-16.8-33.4c-0.4-20,6.9-35.5,18.9-43.2
		c7.4-5,15.2-6.3,23.1-1.3c12.7,6.3,16.4,22.6,16.7,28.6c0.7,10.6,0.7,21.1-1.7,34c2.2-1.4,27-24.5,36.2-41c4-7.2,4.8-12,8.7-17.6
		c1.2-1.7,3.6-3.5,5.4-3.5c3.7,0,4.6,3.3,4.1,6.4c-0.9,5.7-2.3,11.3-3.3,17c-2.1,11.8-5.2,23.5-6,35.4c-1.2,16.2-0.4,32.3,2.4,48.5
		c4.7,27,10.7,38.2,26.3,45.7c17.1,8.3,36.5-10.1,36.5-10.1c0.6-0.5-20.8-29.5-17.3-76.1c2.5-34,15-49.8,25.1-61
		c15.2-16.7,35.8-10.2,41-6.2c8.7,6.6,13.8,17.4,15.7,29.6c0.9,5.8,1,37.6-10.3,62.8c-2,4.5-26.8,41.4-29.5,45.4
		c2.5,4.7,24.9,36.6,64.1,6.8c10.5-8,18.5-32.1,23.9-63c1.3-7,3.4-35.2,3.5-42.2c0.3-12.6,2.1-142.1,2.1-149.4
		c0-9.7-0.8-19.5-0.4-29.1c0.2-3.6,1.9-7.8,4.5-10.5c2.8-2.9,7.7-0.1,8.5,2.7c0.5,2.1,1,4.3,1,6.4c0,9.3-0.2,18.6-0.2,27.8
		c-0.1,15.6-0.1,31.2-0.2,46.7c-0.1,9.6-0.4,127.3-0.1,128.1c2.7-6.4,5.2-12.4,7.8-18.4c6.4-14.3,14.7-27.2,27.1-37.1
		c36.6-23,67.1-8.1,78.5,5c21.1,24.3,13.6,59.9,11.8,70.9c-2.2,13.7-8.2,34.1-11,40.5c7.1-0.4,25.9-6.7,27.9-7.8
		c0.6-0.3,2.2-28,3.1-33.5c1.9-11,10.7-83.1,57.3-85.4c32.6-1.6,32.1,30,32,34.2c-0.7,42-51.9,76.3-54.7,78.1
		c-7.1,4.7-15,8.8-21.7,14c-1.1,0.8-1.1,24.1,29.1,28.7c32.1,4.9,48.4-13.5,54.3-25c2.1-4.1,5-15.5,5.9-20.2
		c2.8-14.2,5.1-37.3,8.6-49.5c6.1-21.1,8.6-31.1,29-48.4c22.8-19.3,53.1-10.6,61.6,1c4.7,6.4,5.2,12.7,5.5,20.1
		c0.3,6.1-2.7,13.9-6.3,15.8c-2.2,1.2-6.1,1.9-7.2,0.5c-1.6-2.1,0.2-6.6,1.8-9.9c0.7-1.5,1.7-8.9-5.6-13.6
		c-5.5-3.5-30.3-14.8-60.3,30.1c-4.5,6.7-14.1,26.8-13.3,42.1c0.7,13.1,0.3,31.9,13.2,43.5c10.9,9.7,37,19,55.3,13.2
		c11.9-3.8,19.7-14.7,22.8-20.8c4.7-9.4,7.9-29.1,8.5-34.3c0.9-7.7,0.5-20.5,3.2-31.1c7.2-29.1,20.5-46.2,27-52.5
		c19.3-18.6,38.9-16.8,41.3-16.8c27.6,0.2,32.1,21,29.2,30.6c-1.2,4-2.4,7.5-6.8,8.7c-4.2,1.4-5.4-3.3-5.4-5.1c0-2,0.7-4,1-6.1
		c0.6-4.7-2.2-7.9-6.9-8.1c-9.6-0.4-28.1,1.5-41.5,11.1c-13,9.3-23.6,31.7-25.4,40.3c-2.7,12.7-3.9,39.8,0.1,49.6
		c9.8,23.9,23.2,32.1,54.1,35.4c19,2,33.2-4.8,38.5-7.8c0.7-0.4-6.6-26.2-6.1-47.9c0.4-16.9,13.3-50.2,19-61.6
		C832.3,226,851.4,214.1,857.7,210.9 M885.7,267.9c12.6-22.3,7.3-42-10.1-41.9c-5.8,0-34.4,7.7-49.3,39.2
		c-2.2,4.6-8.1,17.8-9.2,45.1c1.1,20.9,9.2,31.4,9.6,31.2C851.1,326,881.5,275.4,885.7,267.9z M252.7,292.2
		c1.5-4.2,7.1-23.6,3.5-48.8c-1.2-8.8-13.7-20.5-27-9.9c-27.8,22.1-27.7,53.8-23.9,69c7.2,28.3,19,39.3,19,39.3
		C222.8,341.8,240,327.6,252.7,292.2z M551.3,231.1c-11.6-6.6-27.4,6.9-33.8,16.2c-3.2,4.6-13.8,22.1-17.9,36.7
		c-2.9,10.7-2.9,35.5-2.9,35.5s18.5-12,22-14.5c6.1-4.4,22.6-18.6,31.2-27.7C561.5,265,568.5,240.9,551.3,231.1z M384.2,371
		c11.3-0.1,32.8-2.4,51.2-23.1c0,0-12.6-3-17-3.8c-12.3-2.2-17.3-5-36-2.9c-9.8,1.1-22.2,10.2-23.1,17.2
		C357.8,371.2,374.7,371.1,384.2,371z M69.5,227.7c-7.3,2.4-17.2,9.7-12.9,26.3c2.2,8.7,20.8,28.9,26.8,26.6c0,0,5.5-15.2,5.6-30.1
		C89,242.4,80.5,224.1,69.5,227.7z"/>
</g>
<rect x="27" y="455.3" class="st0" width="126.2" height="5"/>
<rect x="805.7" y="455.3" class="st0" width="123.7" height="5"/>
</svg>
