<svg xmlns="http://www.w3.org/2000/svg" viewBox="174 159.8 960 474.2" enable-background="new 174 159.8 960 474.2"><style type="text/css">.st0{fill:#FFFFFF;}</style><path class="st0" d="M1097.4 486.2c-4.1-5.1-12.2-21.2-14.2-28.5-2.3-8.5-5.5-19-6.6-36.8-.2-3.8 1.1-40.4 1.1-42.5 0-1.1-.1-7 .1-8.9.4-5.3-6.1-10.5-10.9-8.3-2.9 1.3-5.5 3.2-4.7 7.3.6 3.5 2.3 39.2-2.3 50.9-2.5 10.7-11.3 29.9-21.1 36.1-5.1 3.6-28.2 23.3-53.2 2.6 0 0-15.5-20-16.6-40.6 1.1-26.8 6.9-39.9 9.1-44.4 14.7-31 42.9-37.6 48.6-38.7 28.1-5.1 43.5 22.7 47.5 8.8 3.5-12.2-26.2-31.3-60.3-20.8-6.2 3.2-29.9 12-40 32.2-5.6 11.2-18.3 44.1-18.7 60.7l-.5 21.4c-1 13.6-12.8 35.5-31.5 33.5-30.5-3.2-43.7-11.3-53.4-34.9-4-9.7-2.8-36.4-.1-48.9 1.8-8.5 12.2-30.6 25.1-39.8 13.2-9.4 31.5-11.3 40.9-10.9 4.6.2 7.3 3.3 6.8 8-.2 2-.9 4-1 6 0 1.8 1.2 6.3 5.3 5 4.4-1.1 5.5-4.7 6.7-8.6 2.8-9.5-1.6-30-28.8-30.2-2.3 0-21.7-1.8-40.7 16.6-6.3 6.1-19.5 23-26.6 51.7-2.6 10.4-2.2 23-3.1 30.6-.6 5-3.8 24.5-8.4 33.8-3 6.1-10.8 16.8-22.5 20.5-18.1 5.7-43.8-3.5-54.5-13-12.7-11.4-12.3-29.9-13-42.9-.8-15.1 8.7-35 13.1-41.5 29.5-44.3 54-33.2 59.4-29.7 7.2 4.7 6.2 11.9 5.5 13.4-1.6 3.3-3.3 7.7-1.8 9.8 1 1.4 4.9.7 7.1-.5 3.5-1.9 6.5-9.6 6.2-15.6-.3-7.3-.8-13.5-5.4-19.8-8.4-11.5-38.2-20-60.8-1-20.2 17-22.6 26.9-28.6 47.7-3.5 12-5.8 34.8-8.5 48.8-.9 4.6-3.8 15.9-5.9 19.9-5.8 11.3-21.9 29.5-53.6 24.6-29.7-4.6-29.7-27.5-28.6-28.3 6.6-5.1 14.5-9.2 21.4-13.8 2.7-1.8 53.3-35.6 54-77 .1-4.2.6-35.3-31.5-33.7-46 2.3-54.7 73.4-56.5 84.2-.9 5.4-2.5 32.7-3.1 33-2 1.1-20.5 7.3-27.5 7.7 2.8-6.3 8.7-26.5 10.9-39.9 1.7-10.8 9.1-45.9-11.6-69.9-11.2-13-41.3-27.7-77.4-5-12.2 9.7-20.4 22.5-26.7 36.6-2.6 5.9-5 11.8-7.7 18.1-.3-.8.1-116.8.1-126.3l.2-46.1c0-9.2.3-18.3.2-27.5 0-2.1-.4-4.3-1-6.3-.7-2.8-5.6-5.5-8.4-2.7-2.6 2.7-4.3 6.8-4.5 10.3-.4 9.6.3 19.2.4 28.7 0 7.1-1.8 134.9-2 147.3-.1 6.9-2.1 34.7-3.5 41.6-5.3 30.5-8.3 49.3-20.7 62.1-28.3 29.3-46.5-2-49-6.7.7-.5 22.5-27.3 32-44.8 13-23.9 17.9-47 18.4-52.7 1.7-17.7-3.2-27-15.3-35.6-5.3-3.8-25.9-10.1-46.2 3.3-12.4 8.2-28 26.7-30.5 60.1-3.5 46 17.6 74.6 17 75.1 0 0-11.4 11.9-22.3 6.4-10.2-5.2-15.2-14.9-19.8-41.6-2.8-16-3.5-31.9-2.4-47.9.9-11.7 3.8-23.3 5.9-34.9 1-5.6 2.4-11.1 3.3-16.8.5-3-.4-6.3-4-6.3-1.8 0-4.2 1.8-5.4 3.4-3.9 5.5-4.6 10.2-8.6 17.3-9.1 16.3-33.5 39.1-35.7 40.4 2.5-12.7 2.4-23.2 1.7-33.6-.4-6-4-22-16.5-28.2-7.7-4.9-15.4-3.7-22.7 1.3-11.9 7.6-19 22.8-18.6 42.6-.4 9.3 6.2 24.7 16.5 32.9 8.5 6.8 21.5 6.1 21.4 6.7-5.6 33-54.1 87.2-56.6 89.6-3.7 3.6-7.8 6.8-11.6 10.4-.8.8-1.3 2.4-1.1 3.4.2.8 1.8 1.8 2.6 1.9 4.1.5 6.9.1 11.6-2.6 2.6-1.5 6-4.2 8.4-6.5 17.8-16.7 44.4-49.4 59.3-91 2.4-6.1 5.8-13.4 5.8-13.4 12.3-8.6 23.2-17.9 32.8-30.2.1.5-1.8 16.2-2.6 23.5-1.7 15.1-1.4 47.2-.5 57.9 3.1 40.1 27.2 58.9 54.8 40.3 5.2-3.5 9.7-10.2 14.1-14.7 0 0 22.6 21.3 41.2 21.6 15.5.3 26.7-5 34.2-24.4 2.8-7.2 10.8-28.1 10.8-28.1.3 1 .2 19.6.4 28 .1 6.8.9 14 1.7 20.8.2 2 3.1 5.3 5.2 5.2 2.4 0 5.4-.8 5.9-4.3.2-1.6 2.4-38.3 2.9-44 .5-5.4 2.9-22.1 3.7-27.5.7-4.4 5.6-20.9 7.6-28 8.2-30.1 30.8-43.3 35-45.1 25-10.5 51.6-4.2 59 8.7 10.6 18.7 10.6 35.8 6.3 56.2-2.3 11-6.4 24.7-10.2 31.1 0 0-7.1.4-19.2-1.7-17.2-3-31.2-6.6-42.2-5.5-21.8 2.1-28.5 21-29.4 30.8-1.7 19.2 16.9 27.6 28.9 28.6 19.2 1.5 41-9.3 49.9-16.5 4.3-3.5 18.3-22.3 18.3-22.3 12-1.6 33.1-7.8 33.1-7.8.7.3 3 32.2 21.7 40 35.6 14.7 54.7-2.9 64-9 7.6-4.9 24.7-25.6 24.7-25.6s8 20.8 22.4 30c9.1 5.8 27.7 14.9 44.2 11.6 19.7-3.9 31.4-18.4 33.8-21.6 2.6-3.6 7.6-12.5 8.1-13.2.8 1 12.8 22.7 32.6 30.3 33.1 12.8 54.7 2.5 66-5.8 3.6-2.7 8.1-11.5 11.8-14.1 14.5 13.5 22.2 25.8 43.6 24.4 42.2-2.6 53.1-55.1 53.2-55.1.9 2.9 3.7 24.3 6.5 31.5 4.3 11 14.8 28.7 22.7 24.2 2.4-1 6-5.8 3.7-8.6zm-392-101.2c-8.5 9-24.8 22.9-30.8 27.3-3.5 2.5-21.7 14.3-21.7 14.3s0-24.5 2.9-35c4-14.4 14.5-31.6 17.6-36.1 6.3-9.1 21.9-22.5 33.3-15.9 17.1 9.6 10.2 33.4-1.3 45.4zm-304 63.7c-.9-.9-11.9-12-18.7-38.7-3.8-14.9-3.8-50.2 26.4-68 17.7-10.4 31.1 3.9 32.4 12.6 3.5 24.8-4.8 41.1-6.3 45.3-12.2 33.5-33.5 47.7-33.8 48.8zm-119-60.3c-6 2.3-24.2-17.6-26.5-26.2-4.2-16.4 5.5-23.6 12.7-26 10.8-3.5 19.2 14.5 19.2 22.5.1 14.7-5.4 29.7-5.4 29.7zm235.1 76.7c.8-6.9 13.1-15.8 22.8-16.9 18.4-2.1 23.3.7 35.5 2.9 4.4.8 16.8 3.8 16.8 3.8-18.1 20.4-39.4 22.6-50.5 22.8-9.4-.1-26.1 0-24.6-12.6zM280 334.4c-4-2.9-8.4-3.7-12.7-2.3-10.5 3.4-20.2 13.5-15.6 31.2 2.1 8.3 15.2 23.5 24.1 28.1 2 1 3.9 1.6 5.6 1.6.9 0 1.8-.2 2.6-.5l1.9-.7.7-1.9c.2-.6 5.7-15.9 5.7-31.2 0-7.3-5-19.1-12.3-24.3zm-19.8 26.7c-3.6-14 4.6-19 9.8-20.7.4-.1.9-.2 1.4-.2.9 0 2 .3 3.5 1.3 5 3.6 8.6 12.8 8.6 17.2 0 9.7-2.6 19.7-4.1 24.8-5.7-3.2-17.6-16.1-19.2-22.4zm333.4 89.4c-.5-.1-12.6-3-17-3.8-2.5-.5-4.8-1-6.8-1.4-7.9-1.7-14.7-3.2-29.9-1.5-11 1.2-25.5 11.1-26.6 20.8-.7 5.4 1.3 9 3.1 11 5.2 5.8 15.3 6.4 22.7 6.4h3.1c21.6-.3 39.6-8.4 53.7-24.2l4.9-5.5-7.2-1.8zm-28.8 18.5c-7 2.7-14.6 4-22.8 4.2-5.1.1-15.9.2-19.2-3.5-.5-.6-1.2-1.7-.9-4 .5-4 10.2-12.1 18.9-13.1 4.5-.5 8.1-.7 11.2-.7 6.4 0 10.7.9 15.9 2.1 2.2.5 4.5 1 7.2 1.5 1.9.3 5.6 1.2 9 1.9-5.9 5-12.3 8.9-19.3 11.6zm156.3-115.5c-1.1-7.7-5.3-13.9-12.1-17.7-13.5-7.7-31 5.5-39.1 17.2-1.7 2.5-5.2 8.1-8.9 15-3.6 6.9-7.3 15-9.4 22.4-3 11-3.1 35.2-3.1 36.2v8.1l6.8-4.4c.8-.5 18.4-11.9 21.9-14.5 6.3-4.5 22.8-18.8 31.4-27.8 7.6-7.9 14.4-21.7 12.5-34.5zm-49 55.3c-2 1.4-9.1 6.1-14.6 9.7.1-4 .3-8.8.8-13.5.4-4.7 1-9.1 1.8-12.2 3.8-14 14.4-31 17-34.8 5.1-7.4 15.1-15.8 23-15.8 1.6 0 3.2.3 4.5 1.1 4.4 2.5 7.1 6.4 7.8 11.4 1.4 9.4-4.1 20.9-10.1 27.3-8.3 8.7-24.2 22.4-30.2 26.8zm49-55.3c-1.1-7.7-5.3-13.9-12.1-17.7-13.5-7.7-31 5.5-39.1 17.2-1.7 2.5-5.2 8.1-8.9 15-3.6 6.9-7.3 15-9.4 22.4-3 11-3.1 35.2-3.1 36.2v8.1l6.8-4.4c.8-.5 18.4-11.9 21.9-14.5 6.3-4.5 22.8-18.8 31.4-27.8 7.6-7.9 14.4-21.7 12.5-34.5zm-49 55.3c-2 1.4-9.1 6.1-14.6 9.7.1-4 .3-8.8.8-13.5.4-4.7 1-9.1 1.8-12.2 3.8-14 14.4-31 17-34.8 5.1-7.4 15.1-15.8 23-15.8 1.6 0 3.2.3 4.5 1.1 4.4 2.5 7.1 6.4 7.8 11.4 1.4 9.4-4.1 20.9-10.1 27.3-8.3 8.7-24.2 22.4-30.2 26.8zm-78.5 41.7c-.5-.1-12.6-3-17-3.8-2.5-.5-4.8-1-6.8-1.4-7.9-1.7-14.7-3.2-29.9-1.5-11 1.2-25.5 11.1-26.6 20.8-.7 5.4 1.3 9 3.1 11 5.2 5.8 15.3 6.4 22.7 6.4h3.1c21.6-.3 39.6-8.4 53.7-24.2l4.9-5.5-7.2-1.8zm-28.8 18.5c-7 2.7-14.6 4-22.8 4.2-5.1.1-15.9.2-19.2-3.5-.5-.6-1.2-1.7-.9-4 .5-4 10.2-12.1 18.9-13.1 4.5-.5 8.1-.7 11.2-.7 6.4 0 10.7.9 15.9 2.1 2.2.5 4.5 1 7.2 1.5 1.9.3 5.6 1.2 9 1.9-5.9 5-12.3 8.9-19.3 11.6zm-284.8-134.6c-4-2.9-8.4-3.7-12.7-2.3-10.5 3.4-20.2 13.5-15.6 31.2 2.1 8.3 15.2 23.5 24.1 28.1 2 1 3.9 1.6 5.6 1.6.9 0 1.8-.2 2.6-.5l1.9-.7.7-1.9c.2-.6 5.7-15.9 5.7-31.2 0-7.3-5-19.1-12.3-24.3zm-19.8 26.7c-3.6-14 4.6-19 9.8-20.7.4-.1.9-.2 1.4-.2.9 0 2 .3 3.5 1.3 5 3.6 8.6 12.8 8.6 17.2 0 9.7-2.6 19.7-4.1 24.8-5.7-3.2-17.6-16.1-19.2-22.4zm19.8-26.7c-4-2.9-8.4-3.7-12.7-2.3-10.5 3.4-20.2 13.5-15.6 31.2 2.1 8.3 15.2 23.5 24.1 28.1 2 1 3.9 1.6 5.6 1.6.9 0 1.8-.2 2.6-.5l1.9-.7.7-1.9c.2-.6 5.7-15.9 5.7-31.2 0-7.3-5-19.1-12.3-24.3zm-19.8 26.7c-3.6-14 4.6-19 9.8-20.7.4-.1.9-.2 1.4-.2.9 0 2 .3 3.5 1.3 5 3.6 8.6 12.8 8.6 17.2 0 9.7-2.6 19.7-4.1 24.8-5.7-3.2-17.6-16.1-19.2-22.4zm333.4 89.4c-.5-.1-12.6-3-17-3.8-2.5-.5-4.8-1-6.8-1.4-7.9-1.7-14.7-3.2-29.9-1.5-11 1.2-25.5 11.1-26.6 20.8-.7 5.4 1.3 9 3.1 11 5.2 5.8 15.3 6.4 22.7 6.4h3.1c21.6-.3 39.6-8.4 53.7-24.2l4.9-5.5-7.2-1.8zm-28.8 18.5c-7 2.7-14.6 4-22.8 4.2-5.1.1-15.9.2-19.2-3.5-.5-.6-1.2-1.7-.9-4 .5-4 10.2-12.1 18.9-13.1 4.5-.5 8.1-.7 11.2-.7 6.4 0 10.7.9 15.9 2.1 2.2.5 4.5 1 7.2 1.5 1.9.3 5.6 1.2 9 1.9-5.9 5-12.3 8.9-19.3 11.6zm156.3-115.5c-1.1-7.7-5.3-13.9-12.1-17.7-13.5-7.7-31 5.5-39.1 17.2-1.7 2.5-5.2 8.1-8.9 15-3.6 6.9-7.3 15-9.4 22.4-3 11-3.1 35.2-3.1 36.2v8.1l6.8-4.4c.8-.5 18.4-11.9 21.9-14.5 6.3-4.5 22.8-18.8 31.4-27.8 7.6-7.9 14.4-21.7 12.5-34.5zm-49 55.3c-2 1.4-9.1 6.1-14.6 9.7.1-4 .3-8.8.8-13.5.4-4.7 1-9.1 1.8-12.2 3.8-14 14.4-31 17-34.8 5.1-7.4 15.1-15.8 23-15.8 1.6 0 3.2.3 4.5 1.1 4.4 2.5 7.1 6.4 7.8 11.4 1.4 9.4-4.1 20.9-10.1 27.3-8.3 8.7-24.2 22.4-30.2 26.8zm49-55.3c-1.1-7.7-5.3-13.9-12.1-17.7-13.5-7.7-31 5.5-39.1 17.2-1.7 2.5-5.2 8.1-8.9 15-3.6 6.9-7.3 15-9.4 22.4-3 11-3.1 35.2-3.1 36.2v8.1l6.8-4.4c.8-.5 18.4-11.9 21.9-14.5 6.3-4.5 22.8-18.8 31.4-27.8 7.6-7.9 14.4-21.7 12.5-34.5zm-49 55.3c-2 1.4-9.1 6.1-14.6 9.7.1-4 .3-8.8.8-13.5.4-4.7 1-9.1 1.8-12.2 3.8-14 14.4-31 17-34.8 5.1-7.4 15.1-15.8 23-15.8 1.6 0 3.2.3 4.5 1.1 4.4 2.5 7.1 6.4 7.8 11.4 1.4 9.4-4.1 20.9-10.1 27.3-8.3 8.7-24.2 22.4-30.2 26.8zm-78.5 41.7c-.5-.1-12.6-3-17-3.8-2.5-.5-4.8-1-6.8-1.4-7.9-1.7-14.7-3.2-29.9-1.5-11 1.2-25.5 11.1-26.6 20.8-.7 5.4 1.3 9 3.1 11 5.2 5.8 15.3 6.4 22.7 6.4h3.1c21.6-.3 39.6-8.4 53.7-24.2l4.9-5.5-7.2-1.8zm-28.8 18.5c-7 2.7-14.6 4-22.8 4.2-5.1.1-15.9.2-19.2-3.5-.5-.6-1.2-1.7-.9-4 .5-4 10.2-12.1 18.9-13.1 4.5-.5 8.1-.7 11.2-.7 6.4 0 10.7.9 15.9 2.1 2.2.5 4.5 1 7.2 1.5 1.9.3 5.6 1.2 9 1.9-5.9 5-12.3 8.9-19.3 11.6zm-284.8-134.6c-4-2.9-8.4-3.7-12.7-2.3-10.5 3.4-20.2 13.5-15.6 31.2 2.1 8.3 15.2 23.5 24.1 28.1 2 1 3.9 1.6 5.6 1.6.9 0 1.8-.2 2.6-.5l1.9-.7.7-1.9c.2-.6 5.7-15.9 5.7-31.2 0-7.3-5-19.1-12.3-24.3zm-19.8 26.7c-3.6-14 4.6-19 9.8-20.7.4-.1.9-.2 1.4-.2.9 0 2 .3 3.5 1.3 5 3.6 8.6 12.8 8.6 17.2 0 9.7-2.6 19.7-4.1 24.8-5.7-3.2-17.6-16.1-19.2-22.4zm19.8-26.7c-4-2.9-8.4-3.7-12.7-2.3-10.5 3.4-20.2 13.5-15.6 31.2 2.1 8.3 15.2 23.5 24.1 28.1 2 1 3.9 1.6 5.6 1.6.9 0 1.8-.2 2.6-.5l1.9-.7.7-1.9c.2-.6 5.7-15.9 5.7-31.2 0-7.3-5-19.1-12.3-24.3zm-19.8 26.7c-3.6-14 4.6-19 9.8-20.7.4-.1.9-.2 1.4-.2.9 0 2 .3 3.5 1.3 5 3.6 8.6 12.8 8.6 17.2 0 9.7-2.6 19.7-4.1 24.8-5.7-3.2-17.6-16.1-19.2-22.4zm333.4 89.4c-.5-.1-12.6-3-17-3.8-2.5-.5-4.8-1-6.8-1.4-7.9-1.7-14.7-3.2-29.9-1.5-11 1.2-25.5 11.1-26.6 20.8-.7 5.4 1.3 9 3.1 11 5.2 5.8 15.3 6.4 22.7 6.4h3.1c21.6-.3 39.6-8.4 53.7-24.2l4.9-5.5-7.2-1.8zm-28.8 18.5c-7 2.7-14.6 4-22.8 4.2-5.1.1-15.9.2-19.2-3.5-.5-.6-1.2-1.7-.9-4 .5-4 10.2-12.1 18.9-13.1 4.5-.5 8.1-.7 11.2-.7 6.4 0 10.7.9 15.9 2.1 2.2.5 4.5 1 7.2 1.5 1.9.3 5.6 1.2 9 1.9-5.9 5-12.3 8.9-19.3 11.6zm156.3-115.5c-1.1-7.7-5.3-13.9-12.1-17.7-13.5-7.7-31 5.5-39.1 17.2-1.7 2.5-5.2 8.1-8.9 15-3.6 6.9-7.3 15-9.4 22.4-3 11-3.1 35.2-3.1 36.2v8.1l6.8-4.4c.8-.5 18.4-11.9 21.9-14.5 6.3-4.5 22.8-18.8 31.4-27.8 7.6-7.9 14.4-21.7 12.5-34.5zm-49 55.3c-2 1.4-9.1 6.1-14.6 9.7.1-4 .3-8.8.8-13.5.4-4.7 1-9.1 1.8-12.2 3.8-14 14.4-31 17-34.8 5.1-7.4 15.1-15.8 23-15.8 1.6 0 3.2.3 4.5 1.1 4.4 2.5 7.1 6.4 7.8 11.4 1.4 9.4-4.1 20.9-10.1 27.3-8.3 8.7-24.2 22.4-30.2 26.8zm49-55.3c-1.1-7.7-5.3-13.9-12.1-17.7-13.5-7.7-31 5.5-39.1 17.2-1.7 2.5-5.2 8.1-8.9 15-3.6 6.9-7.3 15-9.4 22.4-3 11-3.1 35.2-3.1 36.2v8.1l6.8-4.4c.8-.5 18.4-11.9 21.9-14.5 6.3-4.5 22.8-18.8 31.4-27.8 7.6-7.9 14.4-21.7 12.5-34.5zm-49 55.3c-2 1.4-9.1 6.1-14.6 9.7.1-4 .3-8.8.8-13.5.4-4.7 1-9.1 1.8-12.2 3.8-14 14.4-31 17-34.8 5.1-7.4 15.1-15.8 23-15.8 1.6 0 3.2.3 4.5 1.1 4.4 2.5 7.1 6.4 7.8 11.4 1.4 9.4-4.1 20.9-10.1 27.3-8.3 8.7-24.2 22.4-30.2 26.8zm-78.5 41.7c-.5-.1-12.6-3-17-3.8-2.5-.5-4.8-1-6.8-1.4-7.9-1.7-14.7-3.2-29.9-1.5-11 1.2-25.5 11.1-26.6 20.8-.7 5.4 1.3 9 3.1 11 5.2 5.8 15.3 6.4 22.7 6.4h3.1c21.6-.3 39.6-8.4 53.7-24.2l4.9-5.5-7.2-1.8zm-28.8 18.5c-7 2.7-14.6 4-22.8 4.2-5.1.1-15.9.2-19.2-3.5-.5-.6-1.2-1.7-.9-4 .5-4 10.2-12.1 18.9-13.1 4.5-.5 8.1-.7 11.2-.7 6.4 0 10.7.9 15.9 2.1 2.2.5 4.5 1 7.2 1.5 1.9.3 5.6 1.2 9 1.9-5.9 5-12.3 8.9-19.3 11.6zm-284.8-134.6c-4-2.9-8.4-3.7-12.7-2.3-10.5 3.4-20.2 13.5-15.6 31.2 2.1 8.3 15.2 23.5 24.1 28.1 2 1 3.9 1.6 5.6 1.6.9 0 1.8-.2 2.6-.5l1.9-.7.7-1.9c.2-.6 5.7-15.9 5.7-31.2 0-7.3-5-19.1-12.3-24.3zm-19.8 26.7c-3.6-14 4.6-19 9.8-20.7.4-.1.9-.2 1.4-.2.9 0 2 .3 3.5 1.3 5 3.6 8.6 12.8 8.6 17.2 0 9.7-2.6 19.7-4.1 24.8-5.7-3.2-17.6-16.1-19.2-22.4zm19.8-26.7c-4-2.9-8.4-3.7-12.7-2.3-10.5 3.4-20.2 13.5-15.6 31.2 2.1 8.3 15.2 23.5 24.1 28.1 2 1 3.9 1.6 5.6 1.6.9 0 1.8-.2 2.6-.5l1.9-.7.7-1.9c.2-.6 5.7-15.9 5.7-31.2 0-7.3-5-19.1-12.3-24.3zm-19.8 26.7c-3.6-14 4.6-19 9.8-20.7.4-.1.9-.2 1.4-.2.9 0 2 .3 3.5 1.3 5 3.6 8.6 12.8 8.6 17.2 0 9.7-2.6 19.7-4.1 24.8-5.7-3.2-17.6-16.1-19.2-22.4zm333.4 89.4c-.5-.1-12.6-3-17-3.8-2.5-.5-4.8-1-6.8-1.4-7.9-1.7-14.7-3.2-29.9-1.5-11 1.2-25.5 11.1-26.6 20.8-.7 5.4 1.3 9 3.1 11 5.2 5.8 15.3 6.4 22.7 6.4h3.1c21.6-.3 39.6-8.4 53.7-24.2l4.9-5.5-7.2-1.8zm-28.8 18.5c-7 2.7-14.6 4-22.8 4.2-5.1.1-15.9.2-19.2-3.5-.5-.6-1.2-1.7-.9-4 .5-4 10.2-12.1 18.9-13.1 4.5-.5 8.1-.7 11.2-.7 6.4 0 10.7.9 15.9 2.1 2.2.5 4.5 1 7.2 1.5 1.9.3 5.6 1.2 9 1.9-5.9 5-12.3 8.9-19.3 11.6zm156.3-115.5c-1.1-7.7-5.3-13.9-12.1-17.7-13.5-7.7-31 5.5-39.1 17.2-1.7 2.5-5.2 8.1-8.9 15-3.6 6.9-7.3 15-9.4 22.4-3 11-3.1 35.2-3.1 36.2v8.1l6.8-4.4c.8-.5 18.4-11.9 21.9-14.5 6.3-4.5 22.8-18.8 31.4-27.8 7.6-7.9 14.4-21.7 12.5-34.5zm-49 55.3c-2 1.4-9.1 6.1-14.6 9.7.1-4 .3-8.8.8-13.5.4-4.7 1-9.1 1.8-12.2 3.8-14 14.4-31 17-34.8 5.1-7.4 15.1-15.8 23-15.8 1.6 0 3.2.3 4.5 1.1 4.4 2.5 7.1 6.4 7.8 11.4 1.4 9.4-4.1 20.9-10.1 27.3-8.3 8.7-24.2 22.4-30.2 26.8zm49-55.3c-1.1-7.7-5.3-13.9-12.1-17.7-13.5-7.7-31 5.5-39.1 17.2-1.7 2.5-5.2 8.1-8.9 15-3.6 6.9-7.3 15-9.4 22.4-3 11-3.1 35.2-3.1 36.2v8.1l6.8-4.4c.8-.5 18.4-11.9 21.9-14.5 6.3-4.5 22.8-18.8 31.4-27.8 7.6-7.9 14.4-21.7 12.5-34.5zm-49 55.3c-2 1.4-9.1 6.1-14.6 9.7.1-4 .3-8.8.8-13.5.4-4.7 1-9.1 1.8-12.2 3.8-14 14.4-31 17-34.8 5.1-7.4 15.1-15.8 23-15.8 1.6 0 3.2.3 4.5 1.1 4.4 2.5 7.1 6.4 7.8 11.4 1.4 9.4-4.1 20.9-10.1 27.3-8.3 8.7-24.2 22.4-30.2 26.8zm-78.5 41.7c-.5-.1-12.6-3-17-3.8-2.5-.5-4.8-1-6.8-1.4-7.9-1.7-14.7-3.2-29.9-1.5-11 1.2-25.5 11.1-26.6 20.8-.7 5.4 1.3 9 3.1 11 5.2 5.8 15.3 6.4 22.7 6.4h3.1c21.6-.3 39.6-8.4 53.7-24.2l4.9-5.5-7.2-1.8zm-28.8 18.5c-7 2.7-14.6 4-22.8 4.2-5.1.1-15.9.2-19.2-3.5-.5-.6-1.2-1.7-.9-4 .5-4 10.2-12.1 18.9-13.1 4.5-.5 8.1-.7 11.2-.7 6.4 0 10.7.9 15.9 2.1 2.2.5 4.5 1 7.2 1.5 1.9.3 5.6 1.2 9 1.9-5.9 5-12.3 8.9-19.3 11.6zm-284.8-134.6c-4-2.9-8.4-3.7-12.7-2.3-10.5 3.4-20.2 13.5-15.6 31.2 2.1 8.3 15.2 23.5 24.1 28.1 2 1 3.9 1.6 5.6 1.6.9 0 1.8-.2 2.6-.5l1.9-.7.7-1.9c.2-.6 5.7-15.9 5.7-31.2 0-7.3-5-19.1-12.3-24.3zm-19.8 26.7c-3.6-14 4.6-19 9.8-20.7.4-.1.9-.2 1.4-.2.9 0 2 .3 3.5 1.3 5 3.6 8.6 12.8 8.6 17.2 0 9.7-2.6 19.7-4.1 24.8-5.7-3.2-17.6-16.1-19.2-22.4zm19.8-26.7c-4-2.9-8.4-3.7-12.7-2.3-10.5 3.4-20.2 13.5-15.6 31.2 2.1 8.3 15.2 23.5 24.1 28.1 2 1 3.9 1.6 5.6 1.6.9 0 1.8-.2 2.6-.5l1.9-.7.7-1.9c.2-.6 5.7-15.9 5.7-31.2 0-7.3-5-19.1-12.3-24.3zm-19.8 26.7c-3.6-14 4.6-19 9.8-20.7.4-.1.9-.2 1.4-.2.9 0 2 .3 3.5 1.3 5 3.6 8.6 12.8 8.6 17.2 0 9.7-2.6 19.7-4.1 24.8-5.7-3.2-17.6-16.1-19.2-22.4zm333.4 89.4c-.5-.1-12.6-3-17-3.8-2.5-.5-4.8-1-6.8-1.4-7.9-1.7-14.7-3.2-29.9-1.5-11 1.2-25.5 11.1-26.6 20.8-.7 5.4 1.3 9 3.1 11 5.2 5.8 15.3 6.4 22.7 6.4h3.1c21.6-.3 39.6-8.4 53.7-24.2l4.9-5.5-7.2-1.8zm-28.8 18.5c-7 2.7-14.6 4-22.8 4.2-5.1.1-15.9.2-19.2-3.5-.5-.6-1.2-1.7-.9-4 .5-4 10.2-12.1 18.9-13.1 4.5-.5 8.1-.7 11.2-.7 6.4 0 10.7.9 15.9 2.1 2.2.5 4.5 1 7.2 1.5 1.9.3 5.6 1.2 9 1.9-5.9 5-12.3 8.9-19.3 11.6zm156.3-115.5c-1.1-7.7-5.3-13.9-12.1-17.7-13.5-7.7-31 5.5-39.1 17.2-1.7 2.5-5.2 8.1-8.9 15-3.6 6.9-7.3 15-9.4 22.4-3 11-3.1 35.2-3.1 36.2v8.1l6.8-4.4c.8-.5 18.4-11.9 21.9-14.5 6.3-4.5 22.8-18.8 31.4-27.8 7.6-7.9 14.4-21.7 12.5-34.5zm-49 55.3c-2 1.4-9.1 6.1-14.6 9.7.1-4 .3-8.8.8-13.5.4-4.7 1-9.1 1.8-12.2 3.8-14 14.4-31 17-34.8 5.1-7.4 15.1-15.8 23-15.8 1.6 0 3.2.3 4.5 1.1 4.4 2.5 7.1 6.4 7.8 11.4 1.4 9.4-4.1 20.9-10.1 27.3-8.3 8.7-24.2 22.4-30.2 26.8zm49-55.3c-1.1-7.7-5.3-13.9-12.1-17.7-13.5-7.7-31 5.5-39.1 17.2-1.7 2.5-5.2 8.1-8.9 15-3.6 6.9-7.3 15-9.4 22.4-3 11-3.1 35.2-3.1 36.2v8.1l6.8-4.4c.8-.5 18.4-11.9 21.9-14.5 6.3-4.5 22.8-18.8 31.4-27.8 7.6-7.9 14.4-21.7 12.5-34.5zm-49 55.3c-2 1.4-9.1 6.1-14.6 9.7.1-4 .3-8.8.8-13.5.4-4.7 1-9.1 1.8-12.2 3.8-14 14.4-31 17-34.8 5.1-7.4 15.1-15.8 23-15.8 1.6 0 3.2.3 4.5 1.1 4.4 2.5 7.1 6.4 7.8 11.4 1.4 9.4-4.1 20.9-10.1 27.3-8.3 8.7-24.2 22.4-30.2 26.8zm-78.5 41.7c-.5-.1-12.6-3-17-3.8-2.5-.5-4.8-1-6.8-1.4-7.9-1.7-14.7-3.2-29.9-1.5-11 1.2-25.5 11.1-26.6 20.8-.7 5.4 1.3 9 3.1 11 5.2 5.8 15.3 6.4 22.7 6.4h3.1c21.6-.3 39.6-8.4 53.7-24.2l4.9-5.5-7.2-1.8zm-28.8 18.5c-7 2.7-14.6 4-22.8 4.2-5.1.1-15.9.2-19.2-3.5-.5-.6-1.2-1.7-.9-4 .5-4 10.2-12.1 18.9-13.1 4.5-.5 8.1-.7 11.2-.7 6.4 0 10.7.9 15.9 2.1 2.2.5 4.5 1 7.2 1.5 1.9.3 5.6 1.2 9 1.9-5.9 5-12.3 8.9-19.3 11.6zm-284.8-134.6c-4-2.9-8.4-3.7-12.7-2.3-10.5 3.4-20.2 13.5-15.6 31.2 2.1 8.3 15.2 23.5 24.1 28.1 2 1 3.9 1.6 5.6 1.6.9 0 1.8-.2 2.6-.5l1.9-.7.7-1.9c.2-.6 5.7-15.9 5.7-31.2 0-7.3-5-19.1-12.3-24.3zm-19.8 26.7c-3.6-14 4.6-19 9.8-20.7.4-.1.9-.2 1.4-.2.9 0 2 .3 3.5 1.3 5 3.6 8.6 12.8 8.6 17.2 0 9.7-2.6 19.7-4.1 24.8-5.7-3.2-17.6-16.1-19.2-22.4zm19.8-26.7c-4-2.9-8.4-3.7-12.7-2.3-10.5 3.4-20.2 13.5-15.6 31.2 2.1 8.3 15.2 23.5 24.1 28.1 2 1 3.9 1.6 5.6 1.6.9 0 1.8-.2 2.6-.5l1.9-.7.7-1.9c.2-.6 5.7-15.9 5.7-31.2 0-7.3-5-19.1-12.3-24.3zm-19.8 26.7c-3.6-14 4.6-19 9.8-20.7.4-.1.9-.2 1.4-.2.9 0 2 .3 3.5 1.3 5 3.6 8.6 12.8 8.6 17.2 0 9.7-2.6 19.7-4.1 24.8-5.7-3.2-17.6-16.1-19.2-22.4zm333.4 89.4c-.5-.1-12.6-3-17-3.8-2.5-.5-4.8-1-6.8-1.4-7.9-1.7-14.7-3.2-29.9-1.5-11 1.2-25.5 11.1-26.6 20.8-.7 5.4 1.3 9 3.1 11 5.2 5.8 15.3 6.4 22.7 6.4h3.1c21.6-.3 39.6-8.4 53.7-24.2l4.9-5.5-7.2-1.8zm-28.8 18.5c-7 2.7-14.6 4-22.8 4.2-5.1.1-15.9.2-19.2-3.5-.5-.6-1.2-1.7-.9-4 .5-4 10.2-12.1 18.9-13.1 4.5-.5 8.1-.7 11.2-.7 6.4 0 10.7.9 15.9 2.1 2.2.5 4.5 1 7.2 1.5 1.9.3 5.6 1.2 9 1.9-5.9 5-12.3 8.9-19.3 11.6zm156.3-115.5c-1.1-7.7-5.3-13.9-12.1-17.7-13.5-7.7-31 5.5-39.1 17.2-1.7 2.5-5.2 8.1-8.9 15-3.6 6.9-7.3 15-9.4 22.4-3 11-3.1 35.2-3.1 36.2v8.1l6.8-4.4c.8-.5 18.4-11.9 21.9-14.5 6.3-4.5 22.8-18.8 31.4-27.8 7.6-7.9 14.4-21.7 12.5-34.5zm-49 55.3c-2 1.4-9.1 6.1-14.6 9.7.1-4 .3-8.8.8-13.5.4-4.7 1-9.1 1.8-12.2 3.8-14 14.4-31 17-34.8 5.1-7.4 15.1-15.8 23-15.8 1.6 0 3.2.3 4.5 1.1 4.4 2.5 7.1 6.4 7.8 11.4 1.4 9.4-4.1 20.9-10.1 27.3-8.3 8.7-24.2 22.4-30.2 26.8zm49-55.3c-1.1-7.7-5.3-13.9-12.1-17.7-13.5-7.7-31 5.5-39.1 17.2-1.7 2.5-5.2 8.1-8.9 15-3.6 6.9-7.3 15-9.4 22.4-3 11-3.1 35.2-3.1 36.2v8.1l6.8-4.4c.8-.5 18.4-11.9 21.9-14.5 6.3-4.5 22.8-18.8 31.4-27.8 7.6-7.9 14.4-21.7 12.5-34.5zm-49 55.3c-2 1.4-9.1 6.1-14.6 9.7.1-4 .3-8.8.8-13.5.4-4.7 1-9.1 1.8-12.2 3.8-14 14.4-31 17-34.8 5.1-7.4 15.1-15.8 23-15.8 1.6 0 3.2.3 4.5 1.1 4.4 2.5 7.1 6.4 7.8 11.4 1.4 9.4-4.1 20.9-10.1 27.3-8.3 8.7-24.2 22.4-30.2 26.8zm-78.5 41.7c-.5-.1-12.6-3-17-3.8-2.5-.5-4.8-1-6.8-1.4-7.9-1.7-14.7-3.2-29.9-1.5-11 1.2-25.5 11.1-26.6 20.8-.7 5.4 1.3 9 3.1 11 5.2 5.8 15.3 6.4 22.7 6.4h3.1c21.6-.3 39.6-8.4 53.7-24.2l4.9-5.5-7.2-1.8zm-28.8 18.5c-7 2.7-14.6 4-22.8 4.2-5.1.1-15.9.2-19.2-3.5-.5-.6-1.2-1.7-.9-4 .5-4 10.2-12.1 18.9-13.1 4.5-.5 8.1-.7 11.2-.7 6.4 0 10.7.9 15.9 2.1 2.2.5 4.5 1 7.2 1.5 1.9.3 5.6 1.2 9 1.9-5.9 5-12.3 8.9-19.3 11.6zm-284.8-134.6c-4-2.9-8.4-3.7-12.7-2.3-10.5 3.4-20.2 13.5-15.6 31.2 2.1 8.3 15.2 23.5 24.1 28.1 2 1 3.9 1.6 5.6 1.6.9 0 1.8-.2 2.6-.5l1.9-.7.7-1.9c.2-.6 5.7-15.9 5.7-31.2 0-7.3-5-19.1-12.3-24.3zm-19.8 26.7c-3.6-14 4.6-19 9.8-20.7.4-.1.9-.2 1.4-.2.9 0 2 .3 3.5 1.3 5 3.6 8.6 12.8 8.6 17.2 0 9.7-2.6 19.7-4.1 24.8-5.7-3.2-17.6-16.1-19.2-22.4zm19.8-26.7c-4-2.9-8.4-3.7-12.7-2.3-10.5 3.4-20.2 13.5-15.6 31.2 2.1 8.3 15.2 23.5 24.1 28.1 2 1 3.9 1.6 5.6 1.6.9 0 1.8-.2 2.6-.5l1.9-.7.7-1.9c.2-.6 5.7-15.9 5.7-31.2 0-7.3-5-19.1-12.3-24.3zm-19.8 26.7c-3.6-14 4.6-19 9.8-20.7.4-.1.9-.2 1.4-.2.9 0 2 .3 3.5 1.3 5 3.6 8.6 12.8 8.6 17.2 0 9.7-2.6 19.7-4.1 24.8-5.7-3.2-17.6-16.1-19.2-22.4zm333.4 89.4c-.5-.1-12.6-3-17-3.8-2.5-.5-4.8-1-6.8-1.4-7.9-1.7-14.7-3.2-29.9-1.5-11 1.2-25.5 11.1-26.6 20.8-.7 5.4 1.3 9 3.1 11 5.2 5.8 15.3 6.4 22.7 6.4h3.1c21.6-.3 39.6-8.4 53.7-24.2l4.9-5.5-7.2-1.8zm-28.8 18.5c-7 2.7-14.6 4-22.8 4.2-5.1.1-15.9.2-19.2-3.5-.5-.6-1.2-1.7-.9-4 .5-4 10.2-12.1 18.9-13.1 4.5-.5 8.1-.7 11.2-.7 6.4 0 10.7.9 15.9 2.1 2.2.5 4.5 1 7.2 1.5 1.9.3 5.6 1.2 9 1.9-5.9 5-12.3 8.9-19.3 11.6zm156.3-115.5c-1.1-7.7-5.3-13.9-12.1-17.7-13.5-7.7-31 5.5-39.1 17.2-1.7 2.5-5.2 8.1-8.9 15-3.6 6.9-7.3 15-9.4 22.4-3 11-3.1 35.2-3.1 36.2v8.1l6.8-4.4c.8-.5 18.4-11.9 21.9-14.5 6.3-4.5 22.8-18.8 31.4-27.8 7.6-7.9 14.4-21.7 12.5-34.5zm-49 55.3c-2 1.4-9.1 6.1-14.6 9.7.1-4 .3-8.8.8-13.5.4-4.7 1-9.1 1.8-12.2 3.8-14 14.4-31 17-34.8 5.1-7.4 15.1-15.8 23-15.8 1.6 0 3.2.3 4.5 1.1 4.4 2.5 7.1 6.4 7.8 11.4 1.4 9.4-4.1 20.9-10.1 27.3-8.3 8.7-24.2 22.4-30.2 26.8zm49-55.3c-1.1-7.7-5.3-13.9-12.1-17.7-13.5-7.7-31 5.5-39.1 17.2-1.7 2.5-5.2 8.1-8.9 15-3.6 6.9-7.3 15-9.4 22.4-3 11-3.1 35.2-3.1 36.2v8.1l6.8-4.4c.8-.5 18.4-11.9 21.9-14.5 6.3-4.5 22.8-18.8 31.4-27.8 7.6-7.9 14.4-21.7 12.5-34.5zm-49 55.3c-2 1.4-9.1 6.1-14.6 9.7.1-4 .3-8.8.8-13.5.4-4.7 1-9.1 1.8-12.2 3.8-14 14.4-31 17-34.8 5.1-7.4 15.1-15.8 23-15.8 1.6 0 3.2.3 4.5 1.1 4.4 2.5 7.1 6.4 7.8 11.4 1.4 9.4-4.1 20.9-10.1 27.3-8.3 8.7-24.2 22.4-30.2 26.8zm-78.5 41.7c-.5-.1-12.6-3-17-3.8-2.5-.5-4.8-1-6.8-1.4-7.9-1.7-14.7-3.2-29.9-1.5-11 1.2-25.5 11.1-26.6 20.8-.7 5.4 1.3 9 3.1 11 5.2 5.8 15.3 6.4 22.7 6.4h3.1c21.6-.3 39.6-8.4 53.7-24.2l4.9-5.5-7.2-1.8zm-28.8 18.5c-7 2.7-14.6 4-22.8 4.2-5.1.1-15.9.2-19.2-3.5-.5-.6-1.2-1.7-.9-4 .5-4 10.2-12.1 18.9-13.1 4.5-.5 8.1-.7 11.2-.7 6.4 0 10.7.9 15.9 2.1 2.2.5 4.5 1 7.2 1.5 1.9.3 5.6 1.2 9 1.9-5.9 5-12.3 8.9-19.3 11.6zm-284.8-134.6c-4-2.9-8.4-3.7-12.7-2.3-10.5 3.4-20.2 13.5-15.6 31.2 2.1 8.3 15.2 23.5 24.1 28.1 2 1 3.9 1.6 5.6 1.6.9 0 1.8-.2 2.6-.5l1.9-.7.7-1.9c.2-.6 5.7-15.9 5.7-31.2 0-7.3-5-19.1-12.3-24.3zm-19.8 26.7c-3.6-14 4.6-19 9.8-20.7.4-.1.9-.2 1.4-.2.9 0 2 .3 3.5 1.3 5 3.6 8.6 12.8 8.6 17.2 0 9.7-2.6 19.7-4.1 24.8-5.7-3.2-17.6-16.1-19.2-22.4zm19.8-26.7c-4-2.9-8.4-3.7-12.7-2.3-10.5 3.4-20.2 13.5-15.6 31.2 2.1 8.3 15.2 23.5 24.1 28.1 2 1 3.9 1.6 5.6 1.6.9 0 1.8-.2 2.6-.5l1.9-.7.7-1.9c.2-.6 5.7-15.9 5.7-31.2 0-7.3-5-19.1-12.3-24.3zm-19.8 26.7c-3.6-14 4.6-19 9.8-20.7.4-.1.9-.2 1.4-.2.9 0 2 .3 3.5 1.3 5 3.6 8.6 12.8 8.6 17.2 0 9.7-2.6 19.7-4.1 24.8-5.7-3.2-17.6-16.1-19.2-22.4zm333.4 89.4c-.5-.1-12.6-3-17-3.8-2.5-.5-4.8-1-6.8-1.4-7.9-1.7-14.7-3.2-29.9-1.5-11 1.2-25.5 11.1-26.6 20.8-.7 5.4 1.3 9 3.1 11 5.2 5.8 15.3 6.4 22.7 6.4h3.1c21.6-.3 39.6-8.4 53.7-24.2l4.9-5.5-7.2-1.8zm-28.8 18.5c-7 2.7-14.6 4-22.8 4.2-5.1.1-15.9.2-19.2-3.5-.5-.6-1.2-1.7-.9-4 .5-4 10.2-12.1 18.9-13.1 4.5-.5 8.1-.7 11.2-.7 6.4 0 10.7.9 15.9 2.1 2.2.5 4.5 1 7.2 1.5 1.9.3 5.6 1.2 9 1.9-5.9 5-12.3 8.9-19.3 11.6zm156.3-115.5c-1.1-7.7-5.3-13.9-12.1-17.7-13.5-7.7-31 5.5-39.1 17.2-1.7 2.5-5.2 8.1-8.9 15-3.6 6.9-7.3 15-9.4 22.4-3 11-3.1 35.2-3.1 36.2v8.1l6.8-4.4c.8-.5 18.4-11.9 21.9-14.5 6.3-4.5 22.8-18.8 31.4-27.8 7.6-7.9 14.4-21.7 12.5-34.5zm-49 55.3c-2 1.4-9.1 6.1-14.6 9.7.1-4 .3-8.8.8-13.5.4-4.7 1-9.1 1.8-12.2 3.8-14 14.4-31 17-34.8 5.1-7.4 15.1-15.8 23-15.8 1.6 0 3.2.3 4.5 1.1 4.4 2.5 7.1 6.4 7.8 11.4 1.4 9.4-4.1 20.9-10.1 27.3-8.3 8.7-24.2 22.4-30.2 26.8zm49-55.3c-1.1-7.7-5.3-13.9-12.1-17.7-13.5-7.7-31 5.5-39.1 17.2-1.7 2.5-5.2 8.1-8.9 15-3.6 6.9-7.3 15-9.4 22.4-3 11-3.1 35.2-3.1 36.2v8.1l6.8-4.4c.8-.5 18.4-11.9 21.9-14.5 6.3-4.5 22.8-18.8 31.4-27.8 7.6-7.9 14.4-21.7 12.5-34.5zm-49 55.3c-2 1.4-9.1 6.1-14.6 9.7.1-4 .3-8.8.8-13.5.4-4.7 1-9.1 1.8-12.2 3.8-14 14.4-31 17-34.8 5.1-7.4 15.1-15.8 23-15.8 1.6 0 3.2.3 4.5 1.1 4.4 2.5 7.1 6.4 7.8 11.4 1.4 9.4-4.1 20.9-10.1 27.3-8.3 8.7-24.2 22.4-30.2 26.8zm-78.5 41.7c-.5-.1-12.6-3-17-3.8-2.5-.5-4.8-1-6.8-1.4-7.9-1.7-14.7-3.2-29.9-1.5-11 1.2-25.5 11.1-26.6 20.8-.7 5.4 1.3 9 3.1 11 5.2 5.8 15.3 6.4 22.7 6.4h3.1c21.6-.3 39.6-8.4 53.7-24.2l4.9-5.5-7.2-1.8zm-28.8 18.5c-7 2.7-14.6 4-22.8 4.2-5.1.1-15.9.2-19.2-3.5-.5-.6-1.2-1.7-.9-4 .5-4 10.2-12.1 18.9-13.1 4.5-.5 8.1-.7 11.2-.7 6.4 0 10.7.9 15.9 2.1 2.2.5 4.5 1 7.2 1.5 1.9.3 5.6 1.2 9 1.9-5.9 5-12.3 8.9-19.3 11.6zm-284.8-134.6c-4-2.9-8.4-3.7-12.7-2.3-10.5 3.4-20.2 13.5-15.6 31.2 2.1 8.3 15.2 23.5 24.1 28.1 2 1 3.9 1.6 5.6 1.6.9 0 1.8-.2 2.6-.5l1.9-.7.7-1.9c.2-.6 5.7-15.9 5.7-31.2 0-7.3-5-19.1-12.3-24.3zm-19.8 26.7c-3.6-14 4.6-19 9.8-20.7.4-.1.9-.2 1.4-.2.9 0 2 .3 3.5 1.3 5 3.6 8.6 12.8 8.6 17.2 0 9.7-2.6 19.7-4.1 24.8-5.7-3.2-17.6-16.1-19.2-22.4zm19.8-26.7c-4-2.9-8.4-3.7-12.7-2.3-10.5 3.4-20.2 13.5-15.6 31.2 2.1 8.3 15.2 23.5 24.1 28.1 2 1 3.9 1.6 5.6 1.6.9 0 1.8-.2 2.6-.5l1.9-.7.7-1.9c.2-.6 5.7-15.9 5.7-31.2 0-7.3-5-19.1-12.3-24.3zm-19.8 26.7c-3.6-14 4.6-19 9.8-20.7.4-.1.9-.2 1.4-.2.9 0 2 .3 3.5 1.3 5 3.6 8.6 12.8 8.6 17.2 0 9.7-2.6 19.7-4.1 24.8-5.7-3.2-17.6-16.1-19.2-22.4zm333.4 89.4c-.5-.1-12.6-3-17-3.8-2.5-.5-4.8-1-6.8-1.4-7.9-1.7-14.7-3.2-29.9-1.5-11 1.2-25.5 11.1-26.6 20.8-.7 5.4 1.3 9 3.1 11 5.2 5.8 15.3 6.4 22.7 6.4h3.1c21.6-.3 39.6-8.4 53.7-24.2l4.9-5.5-7.2-1.8zm-28.8 18.5c-7 2.7-14.6 4-22.8 4.2-5.1.1-15.9.2-19.2-3.5-.5-.6-1.2-1.7-.9-4 .5-4 10.2-12.1 18.9-13.1 4.5-.5 8.1-.7 11.2-.7 6.4 0 10.7.9 15.9 2.1 2.2.5 4.5 1 7.2 1.5 1.9.3 5.6 1.2 9 1.9-5.9 5-12.3 8.9-19.3 11.6zm156.3-115.5c-1.1-7.7-5.3-13.9-12.1-17.7-13.5-7.7-31 5.5-39.1 17.2-1.7 2.5-5.2 8.1-8.9 15-3.6 6.9-7.3 15-9.4 22.4-3 11-3.1 35.2-3.1 36.2v8.1l6.8-4.4c.8-.5 18.4-11.9 21.9-14.5 6.3-4.5 22.8-18.8 31.4-27.8 7.6-7.9 14.4-21.7 12.5-34.5zm-49 55.3c-2 1.4-9.1 6.1-14.6 9.7.1-4 .3-8.8.8-13.5.4-4.7 1-9.1 1.8-12.2 3.8-14 14.4-31 17-34.8 5.1-7.4 15.1-15.8 23-15.8 1.6 0 3.2.3 4.5 1.1 4.4 2.5 7.1 6.4 7.8 11.4 1.4 9.4-4.1 20.9-10.1 27.3-8.3 8.7-24.2 22.4-30.2 26.8zm49-55.3c-1.1-7.7-5.3-13.9-12.1-17.7-13.5-7.7-31 5.5-39.1 17.2-1.7 2.5-5.2 8.1-8.9 15-3.6 6.9-7.3 15-9.4 22.4-3 11-3.1 35.2-3.1 36.2v8.1l6.8-4.4c.8-.5 18.4-11.9 21.9-14.5 6.3-4.5 22.8-18.8 31.4-27.8 7.6-7.9 14.4-21.7 12.5-34.5zm-49 55.3c-2 1.4-9.1 6.1-14.6 9.7.1-4 .3-8.8.8-13.5.4-4.7 1-9.1 1.8-12.2 3.8-14 14.4-31 17-34.8 5.1-7.4 15.1-15.8 23-15.8 1.6 0 3.2.3 4.5 1.1 4.4 2.5 7.1 6.4 7.8 11.4 1.4 9.4-4.1 20.9-10.1 27.3-8.3 8.7-24.2 22.4-30.2 26.8zm-95.5 37.9c-2.5-.5-4.8-1-6.8-1.4-7.9-1.7-14.7-3.2-29.9-1.5-11 1.2-25.5 11.1-26.6 20.8-.7 5.4 1.3 9 3.1 11 5.2 5.8 15.3 6.4 22.7 6.4h3.1c21.6-.3 39.6-8.4 53.7-24.2l4.9-5.5-7.1-1.7c-.6-.2-12.7-3.1-17.1-3.9zm-11.8 22.3c-7 2.7-14.6 4-22.8 4.2-5.1.1-15.9.2-19.2-3.5-.5-.6-1.2-1.7-.9-4 .5-4 10.2-12.1 18.9-13.1 4.5-.5 8.1-.7 11.2-.7 6.4 0 10.7.9 15.9 2.1 2.2.5 4.5 1 7.2 1.5 1.9.3 5.6 1.2 9 1.9-5.9 5-12.3 8.9-19.3 11.6zm-284.8-134.6c-4-2.9-8.4-3.7-12.7-2.3-10.5 3.4-20.2 13.5-15.6 31.2 2.1 8.3 15.2 23.5 24.1 28.1 2 1 3.9 1.6 5.6 1.6.9 0 1.8-.2 2.6-.5l1.9-.7.7-1.9c.2-.6 5.7-15.9 5.7-31.2 0-7.3-5-19.1-12.3-24.3zm-19.8 26.7c-3.6-14 4.6-19 9.8-20.7.4-.1.9-.2 1.4-.2.9 0 2 .3 3.5 1.3 5 3.6 8.6 12.8 8.6 17.2 0 9.7-2.6 19.7-4.1 24.8-5.7-3.2-17.6-16.1-19.2-22.4zm840.6 122.4c-3.8-4.7-11.6-20.3-13.4-26.9l-.5-1.8c-2.2-8-4.9-18-5.9-34.1-.2-2.9.7-29 1-37.6.1-2.5.1-4.1.2-4.6v-2.2c0-1.9 0-5.4.1-6.5.4-4.2-1.8-8.5-5.7-11.2-3.6-2.5-7.8-3.1-11.4-1.5-5.8 2.6-8.2 6.7-7.2 12.1.6 3.5 2.1 37.9-2.1 48.5l-.2.6c-2.4 10.3-10.8 28-19.4 33.5l-1.2.9c-11 8.2-27.8 17.3-46.3 2.3-2-2.7-14.4-20.1-15.4-37.6.7-17.6 3.6-31.9 8.6-42.5 13.8-29.2 40.2-35.3 45.4-36.2 13.4-2.4 23.9 3.7 31.4 8.1 5.6 3.3 10 5.9 14.3 4.1 2.5-1 4.2-3.2 5.2-6.5 1.5-5.1-.6-10.7-5.7-15.8-11.1-10.9-35.3-18-60.1-10.4l-.7.3c-.7.4-1.7.9-3 1.4-8.8 4.1-29.5 13.7-38.9 32.7-5.3 10.5-18.8 44.7-19.2 62.6-.2 10.8-.1 13.2-.1 14.5 0 .9 0 .9-.4 6.7-.6 7.6-5.1 18.5-12.6 24.8-4.3 3.6-9 5.2-14 4.7-29.3-3.1-40.9-10.6-49.8-32.2-3.5-8.6-2.5-34.2.1-46.4 1.5-7.2 11.3-28.5 23.3-37.1 11.4-8.1 27.8-10.5 38.2-10.1.6 0 1.6.2 2.2.8.5.6.5 1.7.4 2.3-.1.7-.2 1.4-.4 2-.3 1.3-.6 2.8-.6 4.4 0 2 .8 6 3.8 8.2 2 1.5 4.6 1.9 7 1.1 6.9-1.8 8.7-7.7 9.8-11.6 1.7-5.7 1.5-15.3-4.6-23.5-4.1-5.5-12.4-12.2-28.4-12.3h-.4c-15.4-.5-30.9 5.8-43.3 17.8-3.2 3.1-19.4 20-27.8 53.8-1.8 7.4-2.3 15.9-2.6 22.6-.2 3.2-.3 6.2-.6 8.5-.6 5.4-3.8 23.9-8 32.3-3.3 6.6-10.5 15.4-19.9 18.3-16.5 5.2-40.8-3.7-50.3-12.1-10.2-9.1-10.8-24.1-11.4-36.1l-.2-3.7c-.7-13.3 7.7-31.9 12.3-38.9 27.9-41.9 49.4-31 53.4-28.5 3.5 2.3 4 5.2 4 6.8 0 .7-.1 1.1-.1 1.1-2.2 4.5-4.4 10.3-1.4 14.3 3.1 4.1 9.9 2.3 12.7.7 5.4-3 8.8-12.6 8.5-19.7-.4-8.2-1-15.1-6.3-22.2-5.1-7-15.7-12.2-27.5-13.6-14.5-1.7-28.6 2.5-39.7 11.9-20.6 17.4-23.8 28.4-29.5 48.2l-.5 1.6c-2.2 7.6-3.9 19.2-5.6 30.4-1 6.9-2 13.5-3 18.8-1 5.2-3.8 15.6-5.5 18.8-3.3 6.5-16.7 27.2-49 22.3-9.8-1.5-17-5.3-21.3-11.2-3.1-4.2-3.8-8.4-3.9-10.4 3.6-2.6 7.6-5.1 11.5-7.4 2.8-1.7 5.6-3.4 8.2-5.1 5.6-3.7 55.2-37.7 55.9-80.6.1-7.3-1.1-20.8-10.4-29.8-6.3-6.1-14.9-8.8-25.7-8.3-21.4 1.1-49.3 16.8-60.3 85.6l-.4 2.2c-.5 2.9-1.1 10.9-1.7 18.5-.3 4.3-.7 9.4-1 12.1-3.5 1.3-10.9 3.7-16.9 5.1 3-9.2 6.8-23.3 8.5-33.6l.3-2c2.2-12.9 8-47.2-13-71.4-13.1-15.1-46-29.1-83-5.8l-.4.3c-11.3 9-20 20.7-27.4 37 0-33.7.2-97.1.2-105.2.1-8.6.1-17.1.1-25.7 0-6.8 0-13.6.1-20.4l.1-11.5c.1-5.3.1-10.7.1-16 0-2.2-.3-4.6-1.1-7.4-.8-3.2-3.7-5.9-7.2-6.8-3.2-.9-6.3-.1-8.5 2.2-3.3 3.3-5.5 8.5-5.7 13.2-.3 6.1-.1 12.2.1 18.1.1 3.6.2 7.2.2 10.8 0 7.1-1.8 135.9-2 147.2-.1 7-2.1 34.4-3.4 40.9l-.4 2.1c-5 28.8-8 46.1-19.1 57.7-8 8.2-15.5 11.9-22.5 10.9-8.8-1.3-15.2-9.7-17.9-14 6.7-8 23-29.4 30.5-43.2 13.9-25.6 18.5-49.4 18.9-54.4 1.7-18.5-3.1-29.6-17.1-39.6-7-5-29.6-11-51.1 3.2-8.8 5.8-29.4 23.6-32.4 63.5-2 26.5 3.4 51.5 15.9 74.4-3.2 2.5-9.4 6.2-14.8 3.5-7.8-4-12.7-11-17.5-38.4-2.7-15.5-3.5-31.2-2.3-46.8.6-8 2.3-16.3 3.9-24.3.7-3.4 1.4-6.8 2-10.1.4-2.3.9-4.6 1.4-7 .7-3.2 1.4-6.5 1.9-9.9.5-3.4-.2-6.4-2-8.5-1.5-1.8-3.8-2.8-6.4-2.8-3.6 0-7.1 2.7-8.9 5.3-2.4 3.5-3.7 6.5-5.1 9.8-1 2.4-2.1 4.9-3.7 7.9-5.5 9.9-17.6 22.9-25.8 31.1.7-8.3.5-15.6.1-22.4-.5-8-5.1-24.8-18.7-31.8-8.6-5.4-18-4.9-27.3 1.4-13.5 8.7-21 25.6-20.6 46.1-.4 10.3 6.4 27.2 18.2 36.5 6.1 4.8 13.8 6.3 18.8 7-8.3 30.7-49.8 78.3-54.3 82.8-1.9 1.9-3.9 3.6-6 5.4-1.9 1.6-3.7 3.2-5.5 4.9-1.9 1.8-2.9 4.9-2.4 7.5.6 3.1 4.1 5.1 6.4 5.4 1.1.1 2.1.2 3.1.2 3.8 0 7-1 11.1-3.3 3.1-1.8 6.8-4.8 9.2-7.1 9.6-9 42.4-42.3 60.4-92.5 1.8-4.6 4.2-9.9 5.3-12.1 9.3-6.5 16.9-12.9 23.5-19.7l-.2 1.5-.9 8.1c-1.7 15.8-1.4 47.9-.5 58.7 1.9 24 11.1 41.7 25.3 48.6 10.9 5.3 23.8 3.5 36.4-5 3.9-2.6 7.2-6.5 10.3-10.2.6-.7 1.1-1.4 1.7-2 7.2 6.1 25 19.6 40.8 19.9 19.1.5 31-8 38.3-27.2l2.6-6.9c0 2 0 3.8.1 5.3.2 7.1 1 14.6 1.7 21.1.5 4.1 5 9.1 9.5 9.1h.1c5.6-.1 9.4-3.1 10.1-8.1.1-.8.3-4.3 1.1-17 .7-10.7 1.5-24 1.8-27.1.5-5.2 2.8-21.4 3.7-27.2.4-2.8 3.2-12.4 5.2-19.4.9-3.1 1.7-6 2.3-8.1 8.4-30.9 32.3-42.2 32.5-42.2 22.6-9.4 47.3-4.1 53.5 6.8 10.3 18.1 9.8 34.3 5.8 53.1-1.9 9.2-5.4 21-8.6 27.6-2.9 0-8.4-.4-15.8-1.7-3.7-.7-7.3-1.3-10.8-2-12.6-2.4-23.4-4.5-32.6-3.6-24.1 2.4-32.3 23-33.3 34.7-.7 7.7 1.5 14.8 6.3 20.5 7.2 8.5 18.4 12.2 26.6 12.8 19.9 1.5 43-9.3 53-17.5 4-3.3 14.1-16.5 17.9-21.6 8.8-1.4 20.8-4.5 27.3-6.3 1.9 9.9 7 31.7 23.4 38.5 34.4 14.2 55.2-.4 65.2-7.4 1-.7 2-1.4 2.8-1.9 5.7-3.7 15.4-14.5 21.2-21.2 3.7 7.3 10.9 19 21.2 25.6 6.1 3.9 27.4 16.2 47.5 12.2 22.3-4.5 35.1-21.4 36.5-23.4 1.3-1.8 3.1-4.8 4.8-7.6 11.4 16.1 22.9 23.2 30.9 26.2 33.5 12.9 56.7 3.7 70.2-6.4 2.3-1.7 4.4-4.7 6.7-7.9.8-1.2 1.7-2.5 2.6-3.6 1.3 1.2 2.5 2.5 3.7 3.7 10.9 10.8 20.3 20.2 40 19 29-1.8 44.2-25 51.6-42 1.1 6.1 2.4 12.2 3.7 15.7 3.3 8.5 11.3 23.8 20.5 27.1 3 1 5.9.8 8.5-.7 2.6-1.5 5.9-5.2 6.6-9.1.1-.5.2-1.1.2-1.6-.2-1.6-.8-3.3-1.9-4.6zm-9.4 7.9c-.2.1-.5.3-1.2 0-4.2-1.5-11.2-11.6-15.2-22-1.7-4.3-3.5-15.3-4.8-22.6-.8-5-1.3-7.4-1.6-8.7l-1-3.2-3.3.1-3.4.4-.8 3.2c-2 8.2-13.9 49.2-49.1 51.4-15.7 1-22.7-5.9-33.3-16.4-2.2-2.2-4.5-4.5-7-6.8l-2.6-2.4-2.9 2c-2.5 1.8-4.8 4.9-7.1 8.3-1.6 2.2-3.5 5-4.7 5.9-11.8 8.7-32.1 16.7-61.8 5.2-7.5-2.9-18.7-10-29.9-27.7-.5-.8-.8-1.3-1-1.4l-3.4-4-3.3 4.1c-.4.5-.7 1-2.4 3.8-1.7 2.9-4.4 7.4-5.9 9.5-1.2 1.6-12.1 16.1-31.1 19.9-13.4 2.7-29.9-3.9-41-11-13-8.3-20.6-27.7-20.7-27.8l-2.7-7-4.8 5.8c-4.6 5.6-17.9 20.9-23.7 24.7-.9.6-2 1.3-3.1 2.1-10.1 7-26.9 18.8-56.9 6.5-13.4-5.5-17.3-27.1-18.5-34.2-.5-3-.9-4.8-3.2-5.8l-1.4-.6-1.5.4c-.2.1-20.9 6.1-32.4 7.6l-1.8.2-1.1 1.5c-5.3 7.1-14.7 19.2-17.5 21.5-8.7 7.1-29.5 16.9-46.8 15.6-6.1-.5-15.1-3.3-20.6-9.7-3.3-3.9-4.8-8.7-4.3-14.1.8-9.1 7.1-25 25.5-26.8 7.9-.8 18.2 1.2 30.1 3.5 3.5.7 7.1 1.4 10.9 2 12.5 2.2 19.9 1.8 20.2 1.8l2.3-.1 1.2-2c4.2-7.1 8.4-21.4 10.7-32.4 3.8-17.9 5.5-37.5-6.8-59.2-8.2-14.3-36.6-22.2-64.5-10.6-.3.1-27.9 12.6-37.6 48-.5 2-1.4 4.9-2.3 8-2.8 9.7-5 17.4-5.4 20.6-.7 4.5-3.2 22-3.7 27.7-.3 3.2-1.1 16.1-1.8 27.4-.5 7.6-1 15.5-1.1 16.6-.1.1-.4.2-1.1.3-.5-.3-1.1-1.1-1.2-1.3-.7-6.4-1.5-13.6-1.7-20.3-.1-3.3-.1-8.2-.1-13-.1-14.5-.2-15.2-.5-16.2l-3.6-12.5-15.4 40.3c-7 18.3-17.2 21.9-30 21.6-16.7-.3-38.1-20.3-38.3-20.5l-3.1-2.9-3 3c-1.7 1.7-3.3 3.7-5 5.5-2.8 3.2-5.6 6.6-8.5 8.6-10 6.8-19.6 8.2-27.7 4.3-11.1-5.4-18.8-20.9-20.4-41.4-.8-10.2-1.1-42 .5-57.1l.9-8.1c1.8-15.5 1.7-15.6 1.7-16.3l-1.1-10.8-6.7 8.6c-8.4 10.8-18.2 19.8-31.9 29.3l-1 .7-.5 1.1c-.1.3-3.5 7.4-6 13.8-17.4 48.5-48.9 80.6-58.2 89.2-2.1 2-5.3 4.6-7.5 5.9-2.3 1.3-3.9 1.9-5.5 2.1l2.8-2.5c2.1-1.8 4.3-3.7 6.4-5.8.5-.5 51.9-56.4 57.8-91.8l.4-2-1.2-1.6c-1.2-1.7-2.9-1.9-5-2.1-3.5-.3-11.7-1.1-17.2-5.4-9.2-7.3-15.2-21.3-14.9-29.6-.4-17.7 5.7-31.8 16.7-38.9 3.6-2.4 6.9-3.6 10.2-3.6 2.6 0 5.2.8 7.8 2.4l.4.2c10.6 5.3 13.8 19.5 14.1 24.6.6 9.4.8 19.8-1.7 32.5l-1.9 9.8 8.5-5.3c2.6-1.6 27.5-24.8 37.2-42 1.9-3.4 3.1-6.2 4.2-8.8 1.2-2.9 2.3-5.5 4.2-8.2.4-.6 1.1-1.1 1.5-1.4 0 .3 0 .6-.1 1-.5 3.1-1.2 6.3-1.8 9.5-.5 2.4-1 4.8-1.4 7.2-.6 3.3-1.3 6.6-2 10-1.7 8.2-3.4 16.8-4 25.4-1.2 16.3-.4 32.8 2.4 48.9 4.8 27.8 10.2 38.7 22.1 44.7 13.1 6.6 25.9-5.7 27.3-7.1 2.5-2.4.9-5.3-.2-7.2-12.2-21.6-17.4-45.4-15.5-70.7 2.7-36 20.9-51.7 28.5-56.8 19.7-13 38.3-5.4 41.2-3.4 11.4 8.1 14.9 16.3 13.4 31.6-.4 4.3-4.9 26.9-17.9 51-2.9 5.4-7.1 11.8-11.5 18 4.5-6.9 9-15.4 12.7-25.7.1-.4.4-.9.6-1.6 2.5-6.2 9.2-22.5 5.9-45.8-.8-5.6-5.5-13.6-14-17.6-7.7-3.7-16.6-3.1-24.9 1.9-29.9 17.7-33.4 53.3-28.4 72.9 6.3 24.8 16.2 36.8 19.1 40l.8 2.1h7.7l-1.9 1.4 1.8 3.4c1.6 3.1 10.6 18.9 25.9 21.1 10 1.4 20.1-3.1 30.1-13.5 13.1-13.5 16.4-32.9 21.5-62.3l.4-2c1.4-7.5 3.4-35.6 3.5-42.3.2-12.1 2.1-139.8 2-147.4 0-3.7-.1-7.4-.2-11.1-.2-5.8-.4-11.7-.1-17.5.1-2.6 1.4-5.7 3-7.4.3 0 1.1.4 1.2.6.5 2.1.8 3.8.8 5.2l-.1 15.9-.1 11.5c0 6.8 0 13.6-.1 20.4 0 8.5 0 17.1-.1 25.7 0 1.2-.6 125.6.1 127.7l3.7 10.9 7-16.5c1.7-4.1 3.4-8.2 5.2-12.1 6.9-15.5 15-26.5 25.3-34.8 34.8-21.8 62-6.7 71.5 4.3 18.2 21 13 52.4 11 64.2l-.4 2.1c-2 12.8-7.9 32.7-10.6 38.9l-2.9 6.5 7.1-.4c7.6-.4 26.8-6.8 29.4-8.2 2.4-1.3 2.4-1.3 3.7-18.4.6-7.1 1.2-15.2 1.6-17.7l.4-2.4c10.1-63 33.9-77.3 52.1-78.3 8.3-.4 14.7 1.6 19.2 5.9 5.1 4.9 7.9 13.5 7.8 23.4-.6 39.1-49.9 72.1-52 73.5-2.6 1.7-5.2 3.3-7.9 4.9-4.6 2.8-9.4 5.7-13.8 9-3 2.3-2 8.1-1.2 11.3 1.6 6.2 7.9 21.1 31.9 24.8 38.1 5.9 54.1-19.1 58.1-26.9 2.4-4.8 5.4-16.8 6.2-21.1 1.1-5.5 2.1-12.2 3.1-19.2 1.6-10.9 3.3-22.1 5.3-29.2l.5-1.7c5.6-19.4 8.1-28.2 26.8-43.9 12.4-10.5 26-10.7 33-9.8 10.6 1.3 18.4 6 21.4 10.1 3.8 5.2 4.3 10.3 4.6 17.5.2 5.2-2.5 10.8-3.9 11.6-.2.1-.6.3-.9.4.3-.9.8-2.2 1.6-3.9 1.9-3.8 1.7-13.3-7.1-19-5.2-3.4-33-17.8-65.5 30.9-4.7 7-14.7 27.9-13.8 44.2l.2 3.6c.6 13 1.4 30.7 14.3 42.3 11 9.8 38.3 20.5 58.8 14 15.5-4.9 23.6-19.8 25.1-22.8 5.1-10.3 8.3-30.7 8.8-35.2.3-2.6.5-5.8.6-9.1.3-6.8.7-14.4 2.4-21 7.8-31.4 22.5-46.9 25.4-49.6 10.7-10.3 23.9-15.8 37-15.4h.7c9.8.1 17.2 3.1 21.4 8.8 3.9 5.2 4.4 11.9 3.2 15.8-1.2 3.9-1.8 5-3.3 5.5-.1-.2-.1-.5-.1-.6 0-.7.2-1.7.4-2.7.2-1 .4-1.9.5-2.9.4-3.5-.5-6.7-2.5-9s-5-3.7-8.5-3.8c-11.8-.4-30.4 2.3-43.6 11.7-13.8 9.8-24.8 32.8-26.8 42.4-2.5 11.8-4.2 40.3.4 51.5 10.2 24.7 24.5 34.2 57 37.6 7.3.8 14.5-1.5 20.6-6.6 9.8-8.2 15.1-21.8 15.7-30.9.5-6.1.5-6.2.4-7.7 0-1.1-.1-3.4.1-14 .3-15.2 12.2-46.9 18.2-58.9 8.1-16.2 26.2-24.6 34.8-28.6 1.2-.5 2.1-1 2.9-1.4 23.9-7.2 43.6 1.1 51 8.4 2.7 2.7 4 5.3 3.5 7.1-.1.3-.1.5-.2.7-1.4-.4-4.3-2.1-6.4-3.4-8.3-4.9-20.8-12.2-37.4-9.2-5.9 1.1-36.2 8.1-51.8 41.1-5.5 11.7-8.7 27.2-9.5 46.1v.4c1.1 21.7 16.9 42.2 17.5 43.1l.7.7c17.3 14.3 36.6 13.8 57.5-1.7l.8-.6c10.7-6.8 20.2-26.6 23-38.5 5.1-13.6 3-50.1 2.5-53-.2-.9-.3-1.4 2.2-2.6.6-.3 1.7-.1 2.7.6 1.2.9 2.1 2.3 2 3.3-.1 1.4-.1 4.2-.1 7.3v1.9c0 .4-.1 2-.1 4.5-.6 17.3-1.1 35.5-1 38.4 1 17 3.9 27.5 6.2 35.9l.5 1.8c2.1 7.6 10 23.6 14.7 29.7.1 1.2-1.1 2.7-1.9 3.2zm-660.4-93.1c-8.9 24.7-22.8 38.4-29.2 44.1-3.6-4.8-10.2-15.4-14.8-33.5-3-11.8-4.5-46.1 24.4-63.2 3.4-2 6.8-3 10.1-3 2.3 0 4.5.5 6.6 1.5 5.6 2.7 8.7 8 9.1 11 3 20.9-3.1 35.7-5.3 41.2-.4.8-.7 1.4-.9 1.9zm-10.8 37.3c-4.5 6.1-8.6 11.3-11.1 14.3l-1.3-1.2c3-2.6 7.5-6.9 12.4-13.1zm257-19.7c6.3-4.5 22.8-18.8 31.4-27.8 7.6-8 14.4-21.7 12.5-34.6-1.1-7.7-5.3-13.9-12.1-17.7-13.5-7.7-31 5.5-39.1 17.2-1.7 2.5-5.2 8.1-8.9 15-3.6 6.9-7.3 15-9.4 22.4-3 11-3.1 35.2-3.1 36.2v8.1l6.8-4.4c.7-.5 18.4-11.9 21.9-14.4zm-19-10.9c.4-4.7 1-9.1 1.8-12.2 3.8-14 14.4-31 17-34.8 5.1-7.4 15.1-15.8 23-15.8 1.6 0 3.2.3 4.5 1.1 4.4 2.5 7.1 6.4 7.8 11.4 1.4 9.4-4.1 20.9-10.1 27.3-8.3 8.7-24.2 22.4-30.2 26.8-2 1.4-9.1 6.1-14.6 9.7.2-4 .4-8.9.8-13.5zm-81.6 41.7c-2.5-.5-4.8-1-6.8-1.4-7.9-1.7-14.7-3.2-29.9-1.5-11 1.2-25.5 11.1-26.6 20.8-.7 5.4 1.3 9 3.1 11 5.2 5.8 15.3 6.4 22.7 6.4h3.1c21.6-.3 39.6-8.4 53.7-24.2l4.9-5.5-7.1-1.7c-.6-.2-12.7-3.1-17.1-3.9zm-11.8 22.3c-7 2.7-14.6 4-22.8 4.2-5.1.1-15.9.2-19.2-3.5-.5-.6-1.2-1.7-.9-4 .5-4 10.2-12.1 18.9-13.1 4.5-.5 8.1-.7 11.2-.7 6.4 0 10.7.9 15.9 2.1 2.2.5 4.5 1 7.2 1.5 1.9.3 5.6 1.2 9 1.9-5.9 5-12.3 8.9-19.3 11.6zm-284.8-134.6c-4-2.9-8.4-3.7-12.7-2.3-10.5 3.4-20.2 13.5-15.6 31.2 2.1 8.3 15.2 23.5 24.1 28.1 2 1 3.9 1.6 5.6 1.6.9 0 1.8-.2 2.6-.5l1.9-.7.7-1.9c.2-.6 5.7-15.9 5.7-31.2 0-7.3-5-19.1-12.3-24.3zm-19.8 26.7c-3.6-14 4.6-19 9.8-20.7.4-.1.9-.2 1.4-.2.9 0 2 .3 3.5 1.3 5 3.6 8.6 12.8 8.6 17.2 0 9.7-2.6 19.7-4.1 24.8-5.7-3.2-17.6-16.1-19.2-22.4zm19.8-26.7c-4-2.9-8.4-3.7-12.7-2.3-10.5 3.4-20.2 13.5-15.6 31.2 2.1 8.3 15.2 23.5 24.1 28.1 2 1 3.9 1.6 5.6 1.6.9 0 1.8-.2 2.6-.5l1.9-.7.7-1.9c.2-.6 5.7-15.9 5.7-31.2 0-7.3-5-19.1-12.3-24.3zm-19.8 26.7c-3.6-14 4.6-19 9.8-20.7.4-.1.9-.2 1.4-.2.9 0 2 .3 3.5 1.3 5 3.6 8.6 12.8 8.6 17.2 0 9.7-2.6 19.7-4.1 24.8-5.7-3.2-17.6-16.1-19.2-22.4zm333.4 89.4c-.5-.1-12.6-3-17-3.8-2.5-.5-4.8-1-6.8-1.4-7.9-1.7-14.7-3.2-29.9-1.5-11 1.2-25.5 11.1-26.6 20.8-.7 5.4 1.3 9 3.1 11 5.2 5.8 15.3 6.4 22.7 6.4h3.1c21.6-.3 39.6-8.4 53.7-24.2l4.9-5.5-7.2-1.8zm-28.8 18.5c-7 2.7-14.6 4-22.8 4.2-5.1.1-15.9.2-19.2-3.5-.5-.6-1.2-1.7-.9-4 .5-4 10.2-12.1 18.9-13.1 4.5-.5 8.1-.7 11.2-.7 6.4 0 10.7.9 15.9 2.1 2.2.5 4.5 1 7.2 1.5 1.9.3 5.6 1.2 9 1.9-5.9 5-12.3 8.9-19.3 11.6zm156.3-115.5c-1.1-7.7-5.3-13.9-12.1-17.7-13.5-7.7-31 5.5-39.1 17.2-1.7 2.5-5.2 8.1-8.9 15-3.6 6.9-7.3 15-9.4 22.4-3 11-3.1 35.2-3.1 36.2v8.1l6.8-4.4c.8-.5 18.4-11.9 21.9-14.5 6.3-4.5 22.8-18.8 31.4-27.8 7.6-7.9 14.4-21.7 12.5-34.5zm-49 55.3c-2 1.4-9.1 6.1-14.6 9.7.1-4 .3-8.8.8-13.5.4-4.7 1-9.1 1.8-12.2 3.8-14 14.4-31 17-34.8 5.1-7.4 15.1-15.8 23-15.8 1.6 0 3.2.3 4.5 1.1 4.4 2.5 7.1 6.4 7.8 11.4 1.4 9.4-4.1 20.9-10.1 27.3-8.3 8.7-24.2 22.4-30.2 26.8zm49-55.3c-1.1-7.7-5.3-13.9-12.1-17.7-13.5-7.7-31 5.5-39.1 17.2-1.7 2.5-5.2 8.1-8.9 15-3.6 6.9-7.3 15-9.4 22.4-3 11-3.1 35.2-3.1 36.2v8.1l6.8-4.4c.8-.5 18.4-11.9 21.9-14.5 6.3-4.5 22.8-18.8 31.4-27.8 7.6-7.9 14.4-21.7 12.5-34.5zm-49 55.3c-2 1.4-9.1 6.1-14.6 9.7.1-4 .3-8.8.8-13.5.4-4.7 1-9.1 1.8-12.2 3.8-14 14.4-31 17-34.8 5.1-7.4 15.1-15.8 23-15.8 1.6 0 3.2.3 4.5 1.1 4.4 2.5 7.1 6.4 7.8 11.4 1.4 9.4-4.1 20.9-10.1 27.3-8.3 8.7-24.2 22.4-30.2 26.8zm-78.5 41.7c-.5-.1-12.6-3-17-3.8-2.5-.5-4.8-1-6.8-1.4-7.9-1.7-14.7-3.2-29.9-1.5-11 1.2-25.5 11.1-26.6 20.8-.7 5.4 1.3 9 3.1 11 5.2 5.8 15.3 6.4 22.7 6.4h3.1c21.6-.3 39.6-8.4 53.7-24.2l4.9-5.5-7.2-1.8zm-28.8 18.5c-7 2.7-14.6 4-22.8 4.2-5.1.1-15.9.2-19.2-3.5-.5-.6-1.2-1.7-.9-4 .5-4 10.2-12.1 18.9-13.1 4.5-.5 8.1-.7 11.2-.7 6.4 0 10.7.9 15.9 2.1 2.2.5 4.5 1 7.2 1.5 1.9.3 5.6 1.2 9 1.9-5.9 5-12.3 8.9-19.3 11.6zm-284.8-134.6c-4-2.9-8.4-3.7-12.7-2.3-10.5 3.4-20.2 13.5-15.6 31.2 2.1 8.3 15.2 23.5 24.1 28.1 2 1 3.9 1.6 5.6 1.6.9 0 1.8-.2 2.6-.5l1.9-.7.7-1.9c.2-.6 5.7-15.9 5.7-31.2 0-7.3-5-19.1-12.3-24.3zm-19.8 26.7c-3.6-14 4.6-19 9.8-20.7.4-.1.9-.2 1.4-.2.9 0 2 .3 3.5 1.3 5 3.6 8.6 12.8 8.6 17.2 0 9.7-2.6 19.7-4.1 24.8-5.7-3.2-17.6-16.1-19.2-22.4zm19.8-26.7c-4-2.9-8.4-3.7-12.7-2.3-10.5 3.4-20.2 13.5-15.6 31.2 2.1 8.3 15.2 23.5 24.1 28.1 2 1 3.9 1.6 5.6 1.6.9 0 1.8-.2 2.6-.5l1.9-.7.7-1.9c.2-.6 5.7-15.9 5.7-31.2 0-7.3-5-19.1-12.3-24.3zm-19.8 26.7c-3.6-14 4.6-19 9.8-20.7.4-.1.9-.2 1.4-.2.9 0 2 .3 3.5 1.3 5 3.6 8.6 12.8 8.6 17.2 0 9.7-2.6 19.7-4.1 24.8-5.7-3.2-17.6-16.1-19.2-22.4zm333.4 89.4c-.5-.1-12.6-3-17-3.8-2.5-.5-4.8-1-6.8-1.4-7.9-1.7-14.7-3.2-29.9-1.5-11 1.2-25.5 11.1-26.6 20.8-.7 5.4 1.3 9 3.1 11 5.2 5.8 15.3 6.4 22.7 6.4h3.1c21.6-.3 39.6-8.4 53.7-24.2l4.9-5.5-7.2-1.8zm-28.8 18.5c-7 2.7-14.6 4-22.8 4.2-5.1.1-15.9.2-19.2-3.5-.5-.6-1.2-1.7-.9-4 .5-4 10.2-12.1 18.9-13.1 4.5-.5 8.1-.7 11.2-.7 6.4 0 10.7.9 15.9 2.1 2.2.5 4.5 1 7.2 1.5 1.9.3 5.6 1.2 9 1.9-5.9 5-12.3 8.9-19.3 11.6zm156.3-115.5c-1.1-7.7-5.3-13.9-12.1-17.7-13.5-7.7-31 5.5-39.1 17.2-1.7 2.5-5.2 8.1-8.9 15-3.6 6.9-7.3 15-9.4 22.4-3 11-3.1 35.2-3.1 36.2v8.1l6.8-4.4c.8-.5 18.4-11.9 21.9-14.5 6.3-4.5 22.8-18.8 31.4-27.8 7.6-7.9 14.4-21.7 12.5-34.5zm-49 55.3c-2 1.4-9.1 6.1-14.6 9.7.1-4 .3-8.8.8-13.5.4-4.7 1-9.1 1.8-12.2 3.8-14 14.4-31 17-34.8 5.1-7.4 15.1-15.8 23-15.8 1.6 0 3.2.3 4.5 1.1 4.4 2.5 7.1 6.4 7.8 11.4 1.4 9.4-4.1 20.9-10.1 27.3-8.3 8.7-24.2 22.4-30.2 26.8zm49-55.3c-1.1-7.7-5.3-13.9-12.1-17.7-13.5-7.7-31 5.5-39.1 17.2-1.7 2.5-5.2 8.1-8.9 15-3.6 6.9-7.3 15-9.4 22.4-3 11-3.1 35.2-3.1 36.2v8.1l6.8-4.4c.8-.5 18.4-11.9 21.9-14.5 6.3-4.5 22.8-18.8 31.4-27.8 7.6-7.9 14.4-21.7 12.5-34.5zm-49 55.3c-2 1.4-9.1 6.1-14.6 9.7.1-4 .3-8.8.8-13.5.4-4.7 1-9.1 1.8-12.2 3.8-14 14.4-31 17-34.8 5.1-7.4 15.1-15.8 23-15.8 1.6 0 3.2.3 4.5 1.1 4.4 2.5 7.1 6.4 7.8 11.4 1.4 9.4-4.1 20.9-10.1 27.3-8.3 8.7-24.2 22.4-30.2 26.8zm-78.5 41.7c-.5-.1-12.6-3-17-3.8-2.5-.5-4.8-1-6.8-1.4-7.9-1.7-14.7-3.2-29.9-1.5-11 1.2-25.5 11.1-26.6 20.8-.7 5.4 1.3 9 3.1 11 5.2 5.8 15.3 6.4 22.7 6.4h3.1c21.6-.3 39.6-8.4 53.7-24.2l4.9-5.5-7.2-1.8zm-28.8 18.5c-7 2.7-14.6 4-22.8 4.2-5.1.1-15.9.2-19.2-3.5-.5-.6-1.2-1.7-.9-4 .5-4 10.2-12.1 18.9-13.1 4.5-.5 8.1-.7 11.2-.7 6.4 0 10.7.9 15.9 2.1 2.2.5 4.5 1 7.2 1.5 1.9.3 5.6 1.2 9 1.9-5.9 5-12.3 8.9-19.3 11.6zm-284.8-134.6c-4-2.9-8.4-3.7-12.7-2.3-10.5 3.4-20.2 13.5-15.6 31.2 2.1 8.3 15.2 23.5 24.1 28.1 2 1 3.9 1.6 5.6 1.6.9 0 1.8-.2 2.6-.5l1.9-.7.7-1.9c.2-.6 5.7-15.9 5.7-31.2 0-7.3-5-19.1-12.3-24.3zm-19.8 26.7c-3.6-14 4.6-19 9.8-20.7.4-.1.9-.2 1.4-.2.9 0 2 .3 3.5 1.3 5 3.6 8.6 12.8 8.6 17.2 0 9.7-2.6 19.7-4.1 24.8-5.7-3.2-17.6-16.1-19.2-22.4zm19.8-26.7c-4-2.9-8.4-3.7-12.7-2.3-10.5 3.4-20.2 13.5-15.6 31.2 2.1 8.3 15.2 23.5 24.1 28.1 2 1 3.9 1.6 5.6 1.6.9 0 1.8-.2 2.6-.5l1.9-.7.7-1.9c.2-.6 5.7-15.9 5.7-31.2 0-7.3-5-19.1-12.3-24.3zm-19.8 26.7c-3.6-14 4.6-19 9.8-20.7.4-.1.9-.2 1.4-.2.9 0 2 .3 3.5 1.3 5 3.6 8.6 12.8 8.6 17.2 0 9.7-2.6 19.7-4.1 24.8-5.7-3.2-17.6-16.1-19.2-22.4zm333.4 89.4c-.5-.1-12.6-3-17-3.8-2.5-.5-4.8-1-6.8-1.4-7.9-1.7-14.7-3.2-29.9-1.5-11 1.2-25.5 11.1-26.6 20.8-.7 5.4 1.3 9 3.1 11 5.2 5.8 15.3 6.4 22.7 6.4h3.1c21.6-.3 39.6-8.4 53.7-24.2l4.9-5.5-7.2-1.8zm-28.8 18.5c-7 2.7-14.6 4-22.8 4.2-5.1.1-15.9.2-19.2-3.5-.5-.6-1.2-1.7-.9-4 .5-4 10.2-12.1 18.9-13.1 4.5-.5 8.1-.7 11.2-.7 6.4 0 10.7.9 15.9 2.1 2.2.5 4.5 1 7.2 1.5 1.9.3 5.6 1.2 9 1.9-5.9 5-12.3 8.9-19.3 11.6zm156.3-115.5c-1.1-7.7-5.3-13.9-12.1-17.7-13.5-7.7-31 5.5-39.1 17.2-1.7 2.5-5.2 8.1-8.9 15-3.6 6.9-7.3 15-9.4 22.4-3 11-3.1 35.2-3.1 36.2v8.1l6.8-4.4c.8-.5 18.4-11.9 21.9-14.5 6.3-4.5 22.8-18.8 31.4-27.8 7.6-7.9 14.4-21.7 12.5-34.5zm-49 55.3c-2 1.4-9.1 6.1-14.6 9.7.1-4 .3-8.8.8-13.5.4-4.7 1-9.1 1.8-12.2 3.8-14 14.4-31 17-34.8 5.1-7.4 15.1-15.8 23-15.8 1.6 0 3.2.3 4.5 1.1 4.4 2.5 7.1 6.4 7.8 11.4 1.4 9.4-4.1 20.9-10.1 27.3-8.3 8.7-24.2 22.4-30.2 26.8zm49-55.3c-1.1-7.7-5.3-13.9-12.1-17.7-13.5-7.7-31 5.5-39.1 17.2-1.7 2.5-5.2 8.1-8.9 15-3.6 6.9-7.3 15-9.4 22.4-3 11-3.1 35.2-3.1 36.2v8.1l6.8-4.4c.8-.5 18.4-11.9 21.9-14.5 6.3-4.5 22.8-18.8 31.4-27.8 7.6-7.9 14.4-21.7 12.5-34.5zm-49 55.3c-2 1.4-9.1 6.1-14.6 9.7.1-4 .3-8.8.8-13.5.4-4.7 1-9.1 1.8-12.2 3.8-14 14.4-31 17-34.8 5.1-7.4 15.1-15.8 23-15.8 1.6 0 3.2.3 4.5 1.1 4.4 2.5 7.1 6.4 7.8 11.4 1.4 9.4-4.1 20.9-10.1 27.3-8.3 8.7-24.2 22.4-30.2 26.8zm-78.5 41.7c-.5-.1-12.6-3-17-3.8-2.5-.5-4.8-1-6.8-1.4-7.9-1.7-14.7-3.2-29.9-1.5-11 1.2-25.5 11.1-26.6 20.8-.7 5.4 1.3 9 3.1 11 5.2 5.8 15.3 6.4 22.7 6.4h3.1c21.6-.3 39.6-8.4 53.7-24.2l4.9-5.5-7.2-1.8zm-28.8 18.5c-7 2.7-14.6 4-22.8 4.2-5.1.1-15.9.2-19.2-3.5-.5-.6-1.2-1.7-.9-4 .5-4 10.2-12.1 18.9-13.1 4.5-.5 8.1-.7 11.2-.7 6.4 0 10.7.9 15.9 2.1 2.2.5 4.5 1 7.2 1.5 1.9.3 5.6 1.2 9 1.9-5.9 5-12.3 8.9-19.3 11.6zm-284.8-134.6c-4-2.9-8.4-3.7-12.7-2.3-10.5 3.4-20.2 13.5-15.6 31.2 2.1 8.3 15.2 23.5 24.1 28.1 2 1 3.9 1.6 5.6 1.6.9 0 1.8-.2 2.6-.5l1.9-.7.7-1.9c.2-.6 5.7-15.9 5.7-31.2 0-7.3-5-19.1-12.3-24.3zm-19.8 26.7c-3.6-14 4.6-19 9.8-20.7.4-.1.9-.2 1.4-.2.9 0 2 .3 3.5 1.3 5 3.6 8.6 12.8 8.6 17.2 0 9.7-2.6 19.7-4.1 24.8-5.7-3.2-17.6-16.1-19.2-22.4zm19.8-26.7c-4-2.9-8.4-3.7-12.7-2.3-10.5 3.4-20.2 13.5-15.6 31.2 2.1 8.3 15.2 23.5 24.1 28.1 2 1 3.9 1.6 5.6 1.6.9 0 1.8-.2 2.6-.5l1.9-.7.7-1.9c.2-.6 5.7-15.9 5.7-31.2 0-7.3-5-19.1-12.3-24.3zm-19.8 26.7c-3.6-14 4.6-19 9.8-20.7.4-.1.9-.2 1.4-.2.9 0 2 .3 3.5 1.3 5 3.6 8.6 12.8 8.6 17.2 0 9.7-2.6 19.7-4.1 24.8-5.7-3.2-17.6-16.1-19.2-22.4zm333.4 89.4c-.5-.1-12.6-3-17-3.8-2.5-.5-4.8-1-6.8-1.4-7.9-1.7-14.7-3.2-29.9-1.5-11 1.2-25.5 11.1-26.6 20.8-.7 5.4 1.3 9 3.1 11 5.2 5.8 15.3 6.4 22.7 6.4h3.1c21.6-.3 39.6-8.4 53.7-24.2l4.9-5.5-7.2-1.8zm-28.8 18.5c-7 2.7-14.6 4-22.8 4.2-5.1.1-15.9.2-19.2-3.5-.5-.6-1.2-1.7-.9-4 .5-4 10.2-12.1 18.9-13.1 4.5-.5 8.1-.7 11.2-.7 6.4 0 10.7.9 15.9 2.1 2.2.5 4.5 1 7.2 1.5 1.9.3 5.6 1.2 9 1.9-5.9 5-12.3 8.9-19.3 11.6zm156.3-115.5c-1.1-7.7-5.3-13.9-12.1-17.7-13.5-7.7-31 5.5-39.1 17.2-1.7 2.5-5.2 8.1-8.9 15-3.6 6.9-7.3 15-9.4 22.4-3 11-3.1 35.2-3.1 36.2v8.1l6.8-4.4c.8-.5 18.4-11.9 21.9-14.5 6.3-4.5 22.8-18.8 31.4-27.8 7.6-7.9 14.4-21.7 12.5-34.5zm-49 55.3c-2 1.4-9.1 6.1-14.6 9.7.1-4 .3-8.8.8-13.5.4-4.7 1-9.1 1.8-12.2 3.8-14 14.4-31 17-34.8 5.1-7.4 15.1-15.8 23-15.8 1.6 0 3.2.3 4.5 1.1 4.4 2.5 7.1 6.4 7.8 11.4 1.4 9.4-4.1 20.9-10.1 27.3-8.3 8.7-24.2 22.4-30.2 26.8zm49-55.3c-1.1-7.7-5.3-13.9-12.1-17.7-13.5-7.7-31 5.5-39.1 17.2-1.7 2.5-5.2 8.1-8.9 15-3.6 6.9-7.3 15-9.4 22.4-3 11-3.1 35.2-3.1 36.2v8.1l6.8-4.4c.8-.5 18.4-11.9 21.9-14.5 6.3-4.5 22.8-18.8 31.4-27.8 7.6-7.9 14.4-21.7 12.5-34.5zm-49 55.3c-2 1.4-9.1 6.1-14.6 9.7.1-4 .3-8.8.8-13.5.4-4.7 1-9.1 1.8-12.2 3.8-14 14.4-31 17-34.8 5.1-7.4 15.1-15.8 23-15.8 1.6 0 3.2.3 4.5 1.1 4.4 2.5 7.1 6.4 7.8 11.4 1.4 9.4-4.1 20.9-10.1 27.3-8.3 8.7-24.2 22.4-30.2 26.8zm-78.5 41.7c-.5-.1-12.6-3-17-3.8-2.5-.5-4.8-1-6.8-1.4-7.9-1.7-14.7-3.2-29.9-1.5-11 1.2-25.5 11.1-26.6 20.8-.7 5.4 1.3 9 3.1 11 5.2 5.8 15.3 6.4 22.7 6.4h3.1c21.6-.3 39.6-8.4 53.7-24.2l4.9-5.5-7.2-1.8zm-28.8 18.5c-7 2.7-14.6 4-22.8 4.2-5.1.1-15.9.2-19.2-3.5-.5-.6-1.2-1.7-.9-4 .5-4 10.2-12.1 18.9-13.1 4.5-.5 8.1-.7 11.2-.7 6.4 0 10.7.9 15.9 2.1 2.2.5 4.5 1 7.2 1.5 1.9.3 5.6 1.2 9 1.9-5.9 5-12.3 8.9-19.3 11.6zm-284.8-134.6c-4-2.9-8.4-3.7-12.7-2.3-10.5 3.4-20.2 13.5-15.6 31.2 2.1 8.3 15.2 23.5 24.1 28.1 2 1 3.9 1.6 5.6 1.6.9 0 1.8-.2 2.6-.5l1.9-.7.7-1.9c.2-.6 5.7-15.9 5.7-31.2 0-7.3-5-19.1-12.3-24.3zm-19.8 26.7c-3.6-14 4.6-19 9.8-20.7.4-.1.9-.2 1.4-.2.9 0 2 .3 3.5 1.3 5 3.6 8.6 12.8 8.6 17.2 0 9.7-2.6 19.7-4.1 24.8-5.7-3.2-17.6-16.1-19.2-22.4zm19.8-26.7c-4-2.9-8.4-3.7-12.7-2.3-10.5 3.4-20.2 13.5-15.6 31.2 2.1 8.3 15.2 23.5 24.1 28.1 2 1 3.9 1.6 5.6 1.6.9 0 1.8-.2 2.6-.5l1.9-.7.7-1.9c.2-.6 5.7-15.9 5.7-31.2 0-7.3-5-19.1-12.3-24.3zm-19.8 26.7c-3.6-14 4.6-19 9.8-20.7.4-.1.9-.2 1.4-.2.9 0 2 .3 3.5 1.3 5 3.6 8.6 12.8 8.6 17.2 0 9.7-2.6 19.7-4.1 24.8-5.7-3.2-17.6-16.1-19.2-22.4zm333.4 89.4c-.5-.1-12.6-3-17-3.8-2.5-.5-4.8-1-6.8-1.4-7.9-1.7-14.7-3.2-29.9-1.5-11 1.2-25.5 11.1-26.6 20.8-.7 5.4 1.3 9 3.1 11 5.2 5.8 15.3 6.4 22.7 6.4h3.1c21.6-.3 39.6-8.4 53.7-24.2l4.9-5.5-7.2-1.8zm-28.8 18.5c-7 2.7-14.6 4-22.8 4.2-5.1.1-15.9.2-19.2-3.5-.5-.6-1.2-1.7-.9-4 .5-4 10.2-12.1 18.9-13.1 4.5-.5 8.1-.7 11.2-.7 6.4 0 10.7.9 15.9 2.1 2.2.5 4.5 1 7.2 1.5 1.9.3 5.6 1.2 9 1.9-5.9 5-12.3 8.9-19.3 11.6zm156.3-115.5c-1.1-7.7-5.3-13.9-12.1-17.7-13.5-7.7-31 5.5-39.1 17.2-1.7 2.5-5.2 8.1-8.9 15-3.6 6.9-7.3 15-9.4 22.4-3 11-3.1 35.2-3.1 36.2v8.1l6.8-4.4c.8-.5 18.4-11.9 21.9-14.5 6.3-4.5 22.8-18.8 31.4-27.8 7.6-7.9 14.4-21.7 12.5-34.5zm-49 55.3c-2 1.4-9.1 6.1-14.6 9.7.1-4 .3-8.8.8-13.5.4-4.7 1-9.1 1.8-12.2 3.8-14 14.4-31 17-34.8 5.1-7.4 15.1-15.8 23-15.8 1.6 0 3.2.3 4.5 1.1 4.4 2.5 7.1 6.4 7.8 11.4 1.4 9.4-4.1 20.9-10.1 27.3-8.3 8.7-24.2 22.4-30.2 26.8zm49-55.3c-1.1-7.7-5.3-13.9-12.1-17.7-13.5-7.7-31 5.5-39.1 17.2-1.7 2.5-5.2 8.1-8.9 15-3.6 6.9-7.3 15-9.4 22.4-3 11-3.1 35.2-3.1 36.2v8.1l6.8-4.4c.8-.5 18.4-11.9 21.9-14.5 6.3-4.5 22.8-18.8 31.4-27.8 7.6-7.9 14.4-21.7 12.5-34.5zm-49 55.3c-2 1.4-9.1 6.1-14.6 9.7.1-4 .3-8.8.8-13.5.4-4.7 1-9.1 1.8-12.2 3.8-14 14.4-31 17-34.8 5.1-7.4 15.1-15.8 23-15.8 1.6 0 3.2.3 4.5 1.1 4.4 2.5 7.1 6.4 7.8 11.4 1.4 9.4-4.1 20.9-10.1 27.3-8.3 8.7-24.2 22.4-30.2 26.8zm-78.5 41.7c-.5-.1-12.6-3-17-3.8-2.5-.5-4.8-1-6.8-1.4-7.9-1.7-14.7-3.2-29.9-1.5-11 1.2-25.5 11.1-26.6 20.8-.7 5.4 1.3 9 3.1 11 5.2 5.8 15.3 6.4 22.7 6.4h3.1c21.6-.3 39.6-8.4 53.7-24.2l4.9-5.5-7.2-1.8zm-28.8 18.5c-7 2.7-14.6 4-22.8 4.2-5.1.1-15.9.2-19.2-3.5-.5-.6-1.2-1.7-.9-4 .5-4 10.2-12.1 18.9-13.1 4.5-.5 8.1-.7 11.2-.7 6.4 0 10.7.9 15.9 2.1 2.2.5 4.5 1 7.2 1.5 1.9.3 5.6 1.2 9 1.9-5.9 5-12.3 8.9-19.3 11.6zm-284.8-134.6c-4-2.9-8.4-3.7-12.7-2.3-10.5 3.4-20.2 13.5-15.6 31.2 2.1 8.3 15.2 23.5 24.1 28.1 2 1 3.9 1.6 5.6 1.6.9 0 1.8-.2 2.6-.5l1.9-.7.7-1.9c.2-.6 5.7-15.9 5.7-31.2 0-7.3-5-19.1-12.3-24.3zm-19.8 26.7c-3.6-14 4.6-19 9.8-20.7.4-.1.9-.2 1.4-.2.9 0 2 .3 3.5 1.3 5 3.6 8.6 12.8 8.6 17.2 0 9.7-2.6 19.7-4.1 24.8-5.7-3.2-17.6-16.1-19.2-22.4zm19.8-26.7c-4-2.9-8.4-3.7-12.7-2.3-10.5 3.4-20.2 13.5-15.6 31.2 2.1 8.3 15.2 23.5 24.1 28.1 2 1 3.9 1.6 5.6 1.6.9 0 1.8-.2 2.6-.5l1.9-.7.7-1.9c.2-.6 5.7-15.9 5.7-31.2 0-7.3-5-19.1-12.3-24.3zm-19.8 26.7c-3.6-14 4.6-19 9.8-20.7.4-.1.9-.2 1.4-.2.9 0 2 .3 3.5 1.3 5 3.6 8.6 12.8 8.6 17.2 0 9.7-2.6 19.7-4.1 24.8-5.7-3.2-17.6-16.1-19.2-22.4zm333.4 89.4c-.5-.1-12.6-3-17-3.8-2.5-.5-4.8-1-6.8-1.4-7.9-1.7-14.7-3.2-29.9-1.5-11 1.2-25.5 11.1-26.6 20.8-.7 5.4 1.3 9 3.1 11 5.2 5.8 15.3 6.4 22.7 6.4h3.1c21.6-.3 39.6-8.4 53.7-24.2l4.9-5.5-7.2-1.8zm-28.8 18.5c-7 2.7-14.6 4-22.8 4.2-5.1.1-15.9.2-19.2-3.5-.5-.6-1.2-1.7-.9-4 .5-4 10.2-12.1 18.9-13.1 4.5-.5 8.1-.7 11.2-.7 6.4 0 10.7.9 15.9 2.1 2.2.5 4.5 1 7.2 1.5 1.9.3 5.6 1.2 9 1.9-5.9 5-12.3 8.9-19.3 11.6zm156.3-115.5c-1.1-7.7-5.3-13.9-12.1-17.7-13.5-7.7-31 5.5-39.1 17.2-1.7 2.5-5.2 8.1-8.9 15-3.6 6.9-7.3 15-9.4 22.4-3 11-3.1 35.2-3.1 36.2v8.1l6.8-4.4c.8-.5 18.4-11.9 21.9-14.5 6.3-4.5 22.8-18.8 31.4-27.8 7.6-7.9 14.4-21.7 12.5-34.5zm-49 55.3c-2 1.4-9.1 6.1-14.6 9.7.1-4 .3-8.8.8-13.5.4-4.7 1-9.1 1.8-12.2 3.8-14 14.4-31 17-34.8 5.1-7.4 15.1-15.8 23-15.8 1.6 0 3.2.3 4.5 1.1 4.4 2.5 7.1 6.4 7.8 11.4 1.4 9.4-4.1 20.9-10.1 27.3-8.3 8.7-24.2 22.4-30.2 26.8zm49-55.3c-1.1-7.7-5.3-13.9-12.1-17.7-13.5-7.7-31 5.5-39.1 17.2-1.7 2.5-5.2 8.1-8.9 15-3.6 6.9-7.3 15-9.4 22.4-3 11-3.1 35.2-3.1 36.2v8.1l6.8-4.4c.8-.5 18.4-11.9 21.9-14.5 6.3-4.5 22.8-18.8 31.4-27.8 7.6-7.9 14.4-21.7 12.5-34.5zm-49 55.3c-2 1.4-9.1 6.1-14.6 9.7.1-4 .3-8.8.8-13.5.4-4.7 1-9.1 1.8-12.2 3.8-14 14.4-31 17-34.8 5.1-7.4 15.1-15.8 23-15.8 1.6 0 3.2.3 4.5 1.1 4.4 2.5 7.1 6.4 7.8 11.4 1.4 9.4-4.1 20.9-10.1 27.3-8.3 8.7-24.2 22.4-30.2 26.8zm-78.5 41.7c-.5-.1-12.6-3-17-3.8-2.5-.5-4.8-1-6.8-1.4-7.9-1.7-14.7-3.2-29.9-1.5-11 1.2-25.5 11.1-26.6 20.8-.7 5.4 1.3 9 3.1 11 5.2 5.8 15.3 6.4 22.7 6.4h3.1c21.6-.3 39.6-8.4 53.7-24.2l4.9-5.5-7.2-1.8zm-28.8 18.5c-7 2.7-14.6 4-22.8 4.2-5.1.1-15.9.2-19.2-3.5-.5-.6-1.2-1.7-.9-4 .5-4 10.2-12.1 18.9-13.1 4.5-.5 8.1-.7 11.2-.7 6.4 0 10.7.9 15.9 2.1 2.2.5 4.5 1 7.2 1.5 1.9.3 5.6 1.2 9 1.9-5.9 5-12.3 8.9-19.3 11.6zm-284.8-134.6c-4-2.9-8.4-3.7-12.7-2.3-10.5 3.4-20.2 13.5-15.6 31.2 2.1 8.3 15.2 23.5 24.1 28.1 2 1 3.9 1.6 5.6 1.6.9 0 1.8-.2 2.6-.5l1.9-.7.7-1.9c.2-.6 5.7-15.9 5.7-31.2 0-7.3-5-19.1-12.3-24.3zm-19.8 26.7c-3.6-14 4.6-19 9.8-20.7.4-.1.9-.2 1.4-.2.9 0 2 .3 3.5 1.3 5 3.6 8.6 12.8 8.6 17.2 0 9.7-2.6 19.7-4.1 24.8-5.7-3.2-17.6-16.1-19.2-22.4zm19.8-26.7c-4-2.9-8.4-3.7-12.7-2.3-10.5 3.4-20.2 13.5-15.6 31.2 2.1 8.3 15.2 23.5 24.1 28.1 2 1 3.9 1.6 5.6 1.6.9 0 1.8-.2 2.6-.5l1.9-.7.7-1.9c.2-.6 5.7-15.9 5.7-31.2 0-7.3-5-19.1-12.3-24.3zm-19.8 26.7c-3.6-14 4.6-19 9.8-20.7.4-.1.9-.2 1.4-.2.9 0 2 .3 3.5 1.3 5 3.6 8.6 12.8 8.6 17.2 0 9.7-2.6 19.7-4.1 24.8-5.7-3.2-17.6-16.1-19.2-22.4zm333.4 89.4c-.5-.1-12.6-3-17-3.8-2.5-.5-4.8-1-6.8-1.4-7.9-1.7-14.7-3.2-29.9-1.5-11 1.2-25.5 11.1-26.6 20.8-.7 5.4 1.3 9 3.1 11 5.2 5.8 15.3 6.4 22.7 6.4h3.1c21.6-.3 39.6-8.4 53.7-24.2l4.9-5.5-7.2-1.8zm-28.8 18.5c-7 2.7-14.6 4-22.8 4.2-5.1.1-15.9.2-19.2-3.5-.5-.6-1.2-1.7-.9-4 .5-4 10.2-12.1 18.9-13.1 4.5-.5 8.1-.7 11.2-.7 6.4 0 10.7.9 15.9 2.1 2.2.5 4.5 1 7.2 1.5 1.9.3 5.6 1.2 9 1.9-5.9 5-12.3 8.9-19.3 11.6zm156.3-115.5c-1.1-7.7-5.3-13.9-12.1-17.7-13.5-7.7-31 5.5-39.1 17.2-1.7 2.5-5.2 8.1-8.9 15-3.6 6.9-7.3 15-9.4 22.4-3 11-3.1 35.2-3.1 36.2v8.1l6.8-4.4c.8-.5 18.4-11.9 21.9-14.5 6.3-4.5 22.8-18.8 31.4-27.8 7.6-7.9 14.4-21.7 12.5-34.5zm-49 55.3c-2 1.4-9.1 6.1-14.6 9.7.1-4 .3-8.8.8-13.5.4-4.7 1-9.1 1.8-12.2 3.8-14 14.4-31 17-34.8 5.1-7.4 15.1-15.8 23-15.8 1.6 0 3.2.3 4.5 1.1 4.4 2.5 7.1 6.4 7.8 11.4 1.4 9.4-4.1 20.9-10.1 27.3-8.3 8.7-24.2 22.4-30.2 26.8zm49-55.3c-1.1-7.7-5.3-13.9-12.1-17.7-13.5-7.7-31 5.5-39.1 17.2-1.7 2.5-5.2 8.1-8.9 15-3.6 6.9-7.3 15-9.4 22.4-3 11-3.1 35.2-3.1 36.2v8.1l6.8-4.4c.8-.5 18.4-11.9 21.9-14.5 6.3-4.5 22.8-18.8 31.4-27.8 7.6-7.9 14.4-21.7 12.5-34.5zm-49 55.3c-2 1.4-9.1 6.1-14.6 9.7.1-4 .3-8.8.8-13.5.4-4.7 1-9.1 1.8-12.2 3.8-14 14.4-31 17-34.8 5.1-7.4 15.1-15.8 23-15.8 1.6 0 3.2.3 4.5 1.1 4.4 2.5 7.1 6.4 7.8 11.4 1.4 9.4-4.1 20.9-10.1 27.3-8.3 8.7-24.2 22.4-30.2 26.8zm-78.5 41.7c-.5-.1-12.6-3-17-3.8-2.5-.5-4.8-1-6.8-1.4-7.9-1.7-14.7-3.2-29.9-1.5-11 1.2-25.5 11.1-26.6 20.8-.7 5.4 1.3 9 3.1 11 5.2 5.8 15.3 6.4 22.7 6.4h3.1c21.6-.3 39.6-8.4 53.7-24.2l4.9-5.5-7.2-1.8zm-28.8 18.5c-7 2.7-14.6 4-22.8 4.2-5.1.1-15.9.2-19.2-3.5-.5-.6-1.2-1.7-.9-4 .5-4 10.2-12.1 18.9-13.1 4.5-.5 8.1-.7 11.2-.7 6.4 0 10.7.9 15.9 2.1 2.2.5 4.5 1 7.2 1.5 1.9.3 5.6 1.2 9 1.9-5.9 5-12.3 8.9-19.3 11.6zm-284.8-134.6c-4-2.9-8.4-3.7-12.7-2.3-10.5 3.4-20.2 13.5-15.6 31.2 2.1 8.3 15.2 23.5 24.1 28.1 2 1 3.9 1.6 5.6 1.6.9 0 1.8-.2 2.6-.5l1.9-.7.7-1.9c.2-.6 5.7-15.9 5.7-31.2 0-7.3-5-19.1-12.3-24.3zm-19.8 26.7c-3.6-14 4.6-19 9.8-20.7.4-.1.9-.2 1.4-.2.9 0 2 .3 3.5 1.3 5 3.6 8.6 12.8 8.6 17.2 0 9.7-2.6 19.7-4.1 24.8-5.7-3.2-17.6-16.1-19.2-22.4zm19.8-26.7c-4-2.9-8.4-3.7-12.7-2.3-10.5 3.4-20.2 13.5-15.6 31.2 2.1 8.3 15.2 23.5 24.1 28.1 2 1 3.9 1.6 5.6 1.6.9 0 1.8-.2 2.6-.5l1.9-.7.7-1.9c.2-.6 5.7-15.9 5.7-31.2 0-7.3-5-19.1-12.3-24.3zm-19.8 26.7c-3.6-14 4.6-19 9.8-20.7.4-.1.9-.2 1.4-.2.9 0 2 .3 3.5 1.3 5 3.6 8.6 12.8 8.6 17.2 0 9.7-2.6 19.7-4.1 24.8-5.7-3.2-17.6-16.1-19.2-22.4zm333.4 89.4c-.5-.1-12.6-3-17-3.8-2.5-.5-4.8-1-6.8-1.4-7.9-1.7-14.7-3.2-29.9-1.5-11 1.2-25.5 11.1-26.6 20.8-.7 5.4 1.3 9 3.1 11 5.2 5.8 15.3 6.4 22.7 6.4h3.1c21.6-.3 39.6-8.4 53.7-24.2l4.9-5.5-7.2-1.8zm-28.8 18.5c-7 2.7-14.6 4-22.8 4.2-5.1.1-15.9.2-19.2-3.5-.5-.6-1.2-1.7-.9-4 .5-4 10.2-12.1 18.9-13.1 4.5-.5 8.1-.7 11.2-.7 6.4 0 10.7.9 15.9 2.1 2.2.5 4.5 1 7.2 1.5 1.9.3 5.6 1.2 9 1.9-5.9 5-12.3 8.9-19.3 11.6zm156.3-115.5c-1.1-7.7-5.3-13.9-12.1-17.7-13.5-7.7-31 5.5-39.1 17.2-1.7 2.5-5.2 8.1-8.9 15-3.6 6.9-7.3 15-9.4 22.4-3 11-3.1 35.2-3.1 36.2v8.1l6.8-4.4c.8-.5 18.4-11.9 21.9-14.5 6.3-4.5 22.8-18.8 31.4-27.8 7.6-7.9 14.4-21.7 12.5-34.5zm-49 55.3c-2 1.4-9.1 6.1-14.6 9.7.1-4 .3-8.8.8-13.5.4-4.7 1-9.1 1.8-12.2 3.8-14 14.4-31 17-34.8 5.1-7.4 15.1-15.8 23-15.8 1.6 0 3.2.3 4.5 1.1 4.4 2.5 7.1 6.4 7.8 11.4 1.4 9.4-4.1 20.9-10.1 27.3-8.3 8.7-24.2 22.4-30.2 26.8zm49-55.3c-1.1-7.7-5.3-13.9-12.1-17.7-13.5-7.7-31 5.5-39.1 17.2-1.7 2.5-5.2 8.1-8.9 15-3.6 6.9-7.3 15-9.4 22.4-3 11-3.1 35.2-3.1 36.2v8.1l6.8-4.4c.8-.5 18.4-11.9 21.9-14.5 6.3-4.5 22.8-18.8 31.4-27.8 7.6-7.9 14.4-21.7 12.5-34.5zm-49 55.3c-2 1.4-9.1 6.1-14.6 9.7.1-4 .3-8.8.8-13.5.4-4.7 1-9.1 1.8-12.2 3.8-14 14.4-31 17-34.8 5.1-7.4 15.1-15.8 23-15.8 1.6 0 3.2.3 4.5 1.1 4.4 2.5 7.1 6.4 7.8 11.4 1.4 9.4-4.1 20.9-10.1 27.3-8.3 8.7-24.2 22.4-30.2 26.8zm-78.5 41.7c-.5-.1-12.6-3-17-3.8-2.5-.5-4.8-1-6.8-1.4-7.9-1.7-14.7-3.2-29.9-1.5-11 1.2-25.5 11.1-26.6 20.8-.7 5.4 1.3 9 3.1 11 5.2 5.8 15.3 6.4 22.7 6.4h3.1c21.6-.3 39.6-8.4 53.7-24.2l4.9-5.5-7.2-1.8zm-28.8 18.5c-7 2.7-14.6 4-22.8 4.2-5.1.1-15.9.2-19.2-3.5-.5-.6-1.2-1.7-.9-4 .5-4 10.2-12.1 18.9-13.1 4.5-.5 8.1-.7 11.2-.7 6.4 0 10.7.9 15.9 2.1 2.2.5 4.5 1 7.2 1.5 1.9.3 5.6 1.2 9 1.9-5.9 5-12.3 8.9-19.3 11.6zm-284.8-134.6c-4-2.9-8.4-3.7-12.7-2.3-10.5 3.4-20.2 13.5-15.6 31.2 2.1 8.3 15.2 23.5 24.1 28.1 2 1 3.9 1.6 5.6 1.6.9 0 1.8-.2 2.6-.5l1.9-.7.7-1.9c.2-.6 5.7-15.9 5.7-31.2 0-7.3-5-19.1-12.3-24.3zm-19.8 26.7c-3.6-14 4.6-19 9.8-20.7.4-.1.9-.2 1.4-.2.9 0 2 .3 3.5 1.3 5 3.6 8.6 12.8 8.6 17.2 0 9.7-2.6 19.7-4.1 24.8-5.7-3.2-17.6-16.1-19.2-22.4zm19.8-26.7c-4-2.9-8.4-3.7-12.7-2.3-10.5 3.4-20.2 13.5-15.6 31.2 2.1 8.3 15.2 23.5 24.1 28.1 2 1 3.9 1.6 5.6 1.6.9 0 1.8-.2 2.6-.5l1.9-.7.7-1.9c.2-.6 5.7-15.9 5.7-31.2 0-7.3-5-19.1-12.3-24.3zm-19.8 26.7c-3.6-14 4.6-19 9.8-20.7.4-.1.9-.2 1.4-.2.9 0 2 .3 3.5 1.3 5 3.6 8.6 12.8 8.6 17.2 0 9.7-2.6 19.7-4.1 24.8-5.7-3.2-17.6-16.1-19.2-22.4zm333.4 89.4c-.5-.1-12.6-3-17-3.8-2.5-.5-4.8-1-6.8-1.4-7.9-1.7-14.7-3.2-29.9-1.5-11 1.2-25.5 11.1-26.6 20.8-.7 5.4 1.3 9 3.1 11 5.2 5.8 15.3 6.4 22.7 6.4h3.1c21.6-.3 39.6-8.4 53.7-24.2l4.9-5.5-7.2-1.8zm-28.8 18.5c-7 2.7-14.6 4-22.8 4.2-5.1.1-15.9.2-19.2-3.5-.5-.6-1.2-1.7-.9-4 .5-4 10.2-12.1 18.9-13.1 4.5-.5 8.1-.7 11.2-.7 6.4 0 10.7.9 15.9 2.1 2.2.5 4.5 1 7.2 1.5 1.9.3 5.6 1.2 9 1.9-5.9 5-12.3 8.9-19.3 11.6zm156.3-115.5c-1.1-7.7-5.3-13.9-12.1-17.7-13.5-7.7-31 5.5-39.1 17.2-1.7 2.5-5.2 8.1-8.9 15-3.6 6.9-7.3 15-9.4 22.4-3 11-3.1 35.2-3.1 36.2v8.1l6.8-4.4c.8-.5 18.4-11.9 21.9-14.5 6.3-4.5 22.8-18.8 31.4-27.8 7.6-7.9 14.4-21.7 12.5-34.5zm-49 55.3c-2 1.4-9.1 6.1-14.6 9.7.1-4 .3-8.8.8-13.5.4-4.7 1-9.1 1.8-12.2 3.8-14 14.4-31 17-34.8 5.1-7.4 15.1-15.8 23-15.8 1.6 0 3.2.3 4.5 1.1 4.4 2.5 7.1 6.4 7.8 11.4 1.4 9.4-4.1 20.9-10.1 27.3-8.3 8.7-24.2 22.4-30.2 26.8zm-78.5 41.7c-.5-.1-12.6-3-17-3.8-2.5-.5-4.8-1-6.8-1.4-7.9-1.7-14.7-3.2-29.9-1.5-11 1.2-25.5 11.1-26.6 20.8-.7 5.4 1.3 9 3.1 11 5.2 5.8 15.3 6.4 22.7 6.4h3.1c21.6-.3 39.6-8.4 53.7-24.2l4.9-5.5-7.2-1.8zm-28.8 18.5c-7 2.7-14.6 4-22.8 4.2-5.1.1-15.9.2-19.2-3.5-.5-.6-1.2-1.7-.9-4 .5-4 10.2-12.1 18.9-13.1 4.5-.5 8.1-.7 11.2-.7 6.4 0 10.7.9 15.9 2.1 2.2.5 4.5 1 7.2 1.5 1.9.3 5.6 1.2 9 1.9-5.9 5-12.3 8.9-19.3 11.6zm156.3-115.5c-1.1-7.7-5.3-13.9-12.1-17.7-13.5-7.7-31 5.5-39.1 17.2-1.7 2.5-5.2 8.1-8.9 15-3.6 6.9-7.3 15-9.4 22.4-3 11-3.1 35.2-3.1 36.2v8.1l6.8-4.4c.8-.5 18.4-11.9 21.9-14.5 6.3-4.5 22.8-18.8 31.4-27.8 7.6-7.9 14.4-21.7 12.5-34.5zm-49 55.3c-2 1.4-9.1 6.1-14.6 9.7.1-4 .3-8.8.8-13.5.4-4.7 1-9.1 1.8-12.2 3.8-14 14.4-31 17-34.8 5.1-7.4 15.1-15.8 23-15.8 1.6 0 3.2.3 4.5 1.1 4.4 2.5 7.1 6.4 7.8 11.4 1.4 9.4-4.1 20.9-10.1 27.3-8.3 8.7-24.2 22.4-30.2 26.8zm-392.1-74.4c-4-2.9-8.4-3.7-12.7-2.3-10.5 3.4-20.2 13.5-15.6 31.2 2.1 8.3 15.2 23.5 24.1 28.1 2 1 3.9 1.6 5.6 1.6.9 0 1.8-.2 2.6-.5l1.9-.7.7-1.9c.2-.6 5.7-15.9 5.7-31.2 0-7.3-5-19.1-12.3-24.3zm-19.8 26.7c-3.6-14 4.6-19 9.8-20.7.4-.1.9-.2 1.4-.2.9 0 2 .3 3.5 1.3 5 3.6 8.6 12.8 8.6 17.2 0 9.7-2.6 19.7-4.1 24.8-5.7-3.2-17.6-16.1-19.2-22.4zM307.4 574.3c0 14.8-10.9 25.1-26.4 25.1h-14.1v-50.3h14.1c15.5 0 26.4 10.4 26.4 25.2zM856.8 553.3l-12.6 28.1h25.1l-12.5-28.1zm0 0l-12.6 28.1h25.1l-12.5-28.1zm0 0l-12.6 28.1h25.1l-12.5-28.1zm0 0l-12.6 28.1h25.1l-12.5-28.1zm0 0l-12.6 28.1h25.1l-12.5-28.1zm0 0l-12.6 28.1h25.1l-12.5-28.1zm0 0l-12.6 28.1h25.1l-12.5-28.1zm-457.8 0l-12.6 28.1h25.1l-12.5-28.1zm0 0l-12.6 28.1h25.1l-12.5-28.1zm0 0l-12.6 28.1h25.1l-12.5-28.1zm0 0l-12.6 28.1h25.1l-12.5-28.1zm0 0l-12.6 28.1h25.1l-12.5-28.1zm0 0l-12.6 28.1h25.1l-12.5-28.1zm0 0l-12.6 28.1h25.1l-12.5-28.1zm0 0l-12.6 28.1h25.1l-12.5-28.1zm-118-4.2h-14.1v50.3h14.1c15.6 0 26.4-10.3 26.4-25.1s-10.9-25.2-26.4-25.2zm118 4.2l-12.6 28.1h25.1l-12.5-28.1zm457.8 0l-12.6 28.1h25.1l-12.5-28.1zm-575.8-4.2h-14.1v50.3h14.1c15.6 0 26.4-10.3 26.4-25.1s-10.9-25.2-26.4-25.2zm118 4.2l-12.6 28.1h25.1l-12.5-28.1zm457.8 0l-12.6 28.1h25.1l-12.5-28.1zm-457.8 0l-12.6 28.1h25.1l-12.5-28.1zm0 0l-12.6 28.1h25.1l-12.5-28.1zm0 0l-12.6 28.1h25.1l-12.5-28.1zm0 0l-12.6 28.1h25.1l-12.5-28.1zm0 0l-12.6 28.1h25.1l-12.5-28.1zm0 0l-12.6 28.1h25.1l-12.5-28.1zm0 0l-12.6 28.1h25.1l-12.5-28.1zm-118-4.2h-14.1v50.3h14.1c15.6 0 26.4-10.3 26.4-25.1s-10.9-25.2-26.4-25.2zm118 4.2l-12.6 28.1h25.1l-12.5-28.1zm457.8 0l-12.6 28.1h25.1l-12.5-28.1zM214.5 522.8v105.8h878v-105.8h-878zm66.5 87.8h-25.8v-72.7h25.8c22.3 0 38.5 15.2 38.5 36.2 0 21.1-16.2 36.5-38.5 36.5zm143.3 0l-8-18.1h-34.8l-8.1 18.1h-12.4l33.1-73.2h9.8l33.1 73.2h-12.7zm121.3-10.5l-.7.6c-4.6 4.1-14.5 11-28.9 11-21.7 0-36.9-15.4-36.9-37.4 0-21.1 16-37.6 36.4-37.6 11 0 18.8 2.8 26.9 9.6l1.5 1.3-7.6 9-1.5-1.3c-4.4-3.8-9.8-7.3-19.6-7.3-13.5 0-24.1 11.5-24.1 26.2 0 15.9 10.1 26.6 25.2 26.6 6.3 0 12.9-2.2 17.8-5.8v-14.1h-20.9v-11h32.4v30.2zm108.8 10.5h-54.1v-72.7h53.6v11.1h-41.9v19.4h37.5v11.1h-37.5v20h42.4v11.1zm115.4 0h-9.2l-41.4-52.6v52.5h-11.5v-72.7h10.2l40.3 51.2v-51.2h11.5v72.8zm112.4 0l-8-18.1h-34.8l-8.1 18.1h-12.3l33.1-73.2h9.8l33.1 73.2h-12.8zm75.3 0h-11.8v-72.7h11.8v72.7zm83.3.9c-11.3 0-20.6-3.6-29.4-11.5l-1.5-1.3 7.4-8.8 1.5 1.4c7.2 6.5 13.7 9.2 22.2 9.2 8 0 13.3-3.9 13.3-9.8 0-4.4-1.2-8-16.3-11.2-14.8-3.2-24.6-8.2-24.6-21.9 0-12.1 10.3-20.8 24.6-20.8 10 0 17.6 2.7 25.4 8.9l1.5 1.2-6.9 9.2-1.6-1.3c-5.9-4.8-11.8-7-18.5-7-7.4 0-12.6 3.8-12.6 9.2 0 5.3 2.6 8.4 17.1 11.5 8.4 1.8 14.4 4.3 18.3 7.8 3.9 3.5 5.7 7.9 5.7 13.6-.2 12.8-10.6 21.6-25.6 21.6z"/></svg>