<?xml version="1.0" encoding="utf-8"?>
<!-- Generator: Adobe Illustrator 19.1.0, SVG Export Plug-In . SVG Version: 6.00 Build 0)  -->
<!DOCTYPE svg PUBLIC "-//W3C//DTD SVG 1.1//EN" "http://www.w3.org/Graphics/SVG/1.1/DTD/svg11.dtd">
<svg version="1.1" id="Layer_1" xmlns="http://www.w3.org/2000/svg" xmlns:xlink="http://www.w3.org/1999/xlink" x="0px" y="0px"
	 viewBox="174 159.8 960 474.2" style="enable-background:new 174 159.8 960 474.2;" xml:space="preserve">
<style type="text/css">
	.st0{fill:#FFFFFF;}
</style>
<g>
	<g>
		<g>
			<path class="st0" d="M1097.4,486.2c-4.1-5.1-12.2-21.2-14.2-28.5c-2.3-8.5-5.5-19-6.6-36.8c-0.2-3.8,1.1-40.4,1.1-42.5
				c0-1.1-0.1-7,0.1-8.9c0.4-5.3-6.1-10.5-10.9-8.3c-2.9,1.3-5.5,3.2-4.7,7.3c0.6,3.5,2.3,39.2-2.3,50.9
				c-2.5,10.7-11.3,29.9-21.1,36.1c-5.1,3.6-28.2,23.3-53.2,2.6c0,0-15.5-20-16.6-40.6c1.1-26.8,6.9-39.9,9.1-44.4
				c14.7-31,42.9-37.6,48.6-38.7c28.1-5.1,43.5,22.7,47.5,8.8c3.5-12.2-26.2-31.3-60.3-20.8c-6.2,3.2-29.9,12-40,32.2
				c-5.6,11.2-18.3,44.1-18.7,60.7c-0.5,21.4,0.4,9.5-0.5,21.4c-1,13.6-12.8,35.5-31.5,33.5c-30.5-3.2-43.7-11.3-53.4-34.9
				c-4-9.7-2.8-36.4-0.1-48.9c1.8-8.5,12.2-30.6,25.1-39.8c13.2-9.4,31.5-11.3,40.9-10.9c4.6,0.2,7.3,3.3,6.8,8c-0.2,2-0.9,4-1,6
				c0,1.8,1.2,6.3,5.3,5c4.4-1.1,5.5-4.7,6.7-8.6c2.8-9.5-1.6-30-28.8-30.2c-2.3,0-21.7-1.8-40.7,16.6c-6.3,6.1-19.5,23-26.6,51.7
				c-2.6,10.4-2.2,23-3.1,30.6c-0.6,5-3.8,24.5-8.4,33.8c-3,6.1-10.8,16.8-22.5,20.5c-18.1,5.7-43.8-3.5-54.5-13
				c-12.7-11.4-12.3-29.9-13-42.9c-0.8-15.1,8.7-35,13.1-41.5c29.5-44.3,54-33.2,59.4-29.7c7.2,4.7,6.2,11.9,5.5,13.4
				c-1.6,3.3-3.3,7.7-1.8,9.8c1,1.4,4.9,0.7,7.1-0.5c3.5-1.9,6.5-9.6,6.2-15.6c-0.3-7.3-0.8-13.5-5.4-19.8c-8.4-11.5-38.2-20-60.8-1
				c-20.2,17-22.6,26.9-28.6,47.7c-3.5,12-5.8,34.8-8.5,48.8c-0.9,4.6-3.8,15.9-5.9,19.9c-5.8,11.3-21.9,29.5-53.6,24.6
				c-29.7-4.6-29.7-27.5-28.6-28.3c6.6-5.1,14.5-9.2,21.4-13.8c2.7-1.8,53.3-35.6,54-77c0.1-4.2,0.6-35.3-31.5-33.7
				c-46,2.3-54.7,73.4-56.5,84.2c-0.9,5.4-2.5,32.7-3.1,33c-2,1.1-20.5,7.3-27.5,7.7c2.8-6.3,8.7-26.5,10.9-39.9
				c1.7-10.8,9.1-45.9-11.6-69.9c-11.2-13-41.3-27.7-77.4-5c-12.2,9.7-20.4,22.5-26.7,36.6c-2.6,5.9-5,11.8-7.7,18.1
				c-0.3-0.8,0.1-116.8,0.1-126.3c0.1-15.4,0.1-30.7,0.2-46.1c0-9.2,0.3-18.3,0.2-27.5c0-2.1-0.4-4.3-1-6.3
				c-0.7-2.8-5.6-5.5-8.4-2.7c-2.6,2.7-4.3,6.8-4.5,10.3c-0.4,9.6,0.3,19.2,0.4,28.7c0,7.1-1.8,134.9-2,147.3
				c-0.1,6.9-2.1,34.7-3.5,41.6c-5.3,30.5-8.3,49.3-20.7,62.1c-28.3,29.3-46.5-2-49-6.7c0.7-0.5,22.5-27.3,32-44.8
				c13-23.9,17.9-47,18.4-52.7c1.7-17.7-3.2-27-15.3-35.6c-5.3-3.8-25.9-10.1-46.2,3.3c-12.4,8.2-28,26.7-30.5,60.1
				c-3.5,46,17.6,74.6,17,75.1c0,0-11.4,11.9-22.3,6.4c-10.2-5.2-15.2-14.9-19.8-41.6c-2.8-16-3.5-31.9-2.4-47.9
				c0.9-11.7,3.8-23.3,5.9-34.9c1-5.6,2.4-11.1,3.3-16.8c0.5-3-0.4-6.3-4-6.3c-1.8,0-4.2,1.8-5.4,3.4c-3.9,5.5-4.6,10.2-8.6,17.3
				c-9.1,16.3-33.5,39.1-35.7,40.4c2.5-12.7,2.4-23.2,1.7-33.6c-0.4-6-4-22-16.5-28.2c-7.7-4.9-15.4-3.7-22.7,1.3
				c-11.9,7.6-19,22.8-18.6,42.6c-0.4,9.3,6.2,24.7,16.5,32.9c8.5,6.8,21.5,6.1,21.4,6.7c-5.6,33-54.1,87.2-56.6,89.6
				c-3.7,3.6-7.8,6.8-11.6,10.4c-0.8,0.8-1.3,2.4-1.1,3.4c0.2,0.8,1.8,1.8,2.6,1.9c4.1,0.5,6.9,0.1,11.6-2.6c2.6-1.5,6-4.2,8.4-6.5
				c17.8-16.7,44.4-49.4,59.3-91c2.4-6.1,5.8-13.4,5.8-13.4c12.3-8.6,23.2-17.9,32.8-30.2c0.1,0.5-1.8,16.2-2.6,23.5
				c-1.7,15.1-1.4,47.2-0.5,57.9c3.1,40.1,27.2,58.9,54.8,40.3c5.2-3.5,9.7-10.2,14.1-14.7c0,0,22.6,21.3,41.2,21.6
				c15.5,0.3,26.7-5,34.2-24.4c2.8-7.2,10.8-28.1,10.8-28.1c0.3,1,0.2,19.6,0.4,28c0.1,6.8,0.9,14,1.7,20.8c0.2,2,3.1,5.3,5.2,5.2
				c2.4,0,5.4-0.8,5.9-4.3c0.2-1.6,2.4-38.3,2.9-44c0.5-5.4,2.9-22.1,3.7-27.5c0.7-4.4,5.6-20.9,7.6-28c8.2-30.1,30.8-43.3,35-45.1
				c25-10.5,51.6-4.2,59,8.7c10.6,18.7,10.6,35.8,6.3,56.2c-2.3,11-6.4,24.7-10.2,31.1c0,0-7.1,0.4-19.2-1.7
				c-17.2-3-31.2-6.6-42.2-5.5c-21.8,2.1-28.5,21-29.4,30.8c-1.7,19.2,16.9,27.6,28.9,28.6c19.2,1.5,41-9.3,49.9-16.5
				c4.3-3.5,18.3-22.3,18.3-22.3c12-1.6,33.1-7.8,33.1-7.8c0.7,0.3,3,32.2,21.7,40c35.6,14.7,54.7-2.9,64-9
				c7.6-4.9,24.7-25.6,24.7-25.6s8,20.8,22.4,30c9.1,5.8,27.7,14.9,44.2,11.6c19.7-3.9,31.4-18.4,33.8-21.6
				c2.6-3.6,7.6-12.5,8.1-13.2c0.8,1,12.8,22.7,32.6,30.3c33.1,12.8,54.7,2.5,66-5.8c3.6-2.7,8.1-11.5,11.8-14.1
				c14.5,13.5,22.2,25.8,43.6,24.4c42.2-2.6,53.1-55.1,53.2-55.1c0.9,2.9,3.7,24.3,6.5,31.5c4.3,11,14.8,28.7,22.7,24.2
				C1096.1,493.8,1099.7,489,1097.4,486.2z M705.4,385c-8.5,9-24.8,22.9-30.8,27.3c-3.5,2.5-21.7,14.3-21.7,14.3s0-24.5,2.9-35
				c4-14.4,14.5-31.6,17.6-36.1c6.3-9.1,21.9-22.5,33.3-15.9C723.8,349.2,716.9,373,705.4,385z M401.4,448.7
				C401.4,448.7,401.5,448.7,401.4,448.7C401.4,448.7,401.4,448.7,401.4,448.7c-0.9-0.9-11.9-12-18.7-38.7
				c-3.8-14.9-3.8-50.2,26.4-68c17.7-10.4,31.1,3.9,32.4,12.6c3.5,24.8-4.8,41.1-6.3,45.3C423,433.4,401.7,447.6,401.4,448.7z
				 M282.4,388.4c-6,2.3-24.2-17.6-26.5-26.2c-4.2-16.4,5.5-23.6,12.7-26c10.8-3.5,19.2,14.5,19.2,22.5
				C287.9,373.4,282.4,388.4,282.4,388.4z M517.5,465.1c0.8-6.9,13.1-15.8,22.8-16.9c18.4-2.1,23.3,0.7,35.5,2.9
				c4.4,0.8,16.8,3.8,16.8,3.8c-18.1,20.4-39.4,22.6-50.5,22.8C532.7,477.6,516,477.7,517.5,465.1z"/>
			<path class="st0" d="M280,334.4c-4-2.9-8.4-3.7-12.7-2.3c-10.5,3.4-20.2,13.5-15.6,31.2c2.1,8.3,15.2,23.5,24.1,28.1
				c2,1,3.9,1.6,5.6,1.6c0.9,0,1.8-0.2,2.6-0.5l1.9-0.7l0.7-1.9c0.2-0.6,5.7-15.9,5.7-31.2C292.3,351.4,287.3,339.6,280,334.4z
				 M260.2,361.1c-3.6-14,4.6-19,9.8-20.7c0.4-0.1,0.9-0.2,1.4-0.2c0.9,0,2,0.3,3.5,1.3c5,3.6,8.6,12.8,8.6,17.2
				c0,9.7-2.6,19.7-4.1,24.8C273.7,380.3,261.8,367.4,260.2,361.1z M593.6,450.5c-0.5-0.1-12.6-3-17-3.8c-2.5-0.5-4.8-1-6.8-1.4
				c-7.9-1.7-14.7-3.2-29.9-1.5c-11,1.2-25.5,11.1-26.6,20.8c-0.7,5.4,1.3,9,3.1,11c5.2,5.8,15.3,6.4,22.7,6.4c1.1,0,2.1,0,3.1,0
				c21.6-0.3,39.6-8.4,53.7-24.2l4.9-5.5L593.6,450.5z M564.8,469c-7,2.7-14.6,4-22.8,4.2c-5.1,0.1-15.9,0.2-19.2-3.5
				c-0.5-0.6-1.2-1.7-0.9-4c0.5-4,10.2-12.1,18.9-13.1c4.5-0.5,8.1-0.7,11.2-0.7c6.4,0,10.7,0.9,15.9,2.1c2.2,0.5,4.5,1,7.2,1.5
				c1.9,0.3,5.6,1.2,9,1.9C578.2,462.4,571.8,466.3,564.8,469z M721.1,353.5c-1.1-7.7-5.3-13.9-12.1-17.7
				c-13.5-7.7-31,5.5-39.1,17.2c-1.7,2.5-5.2,8.1-8.9,15c-3.6,6.9-7.3,15-9.4,22.4c-3,11-3.1,35.2-3.1,36.2v8.1l6.8-4.4
				c0.8-0.5,18.4-11.9,21.9-14.5c6.3-4.5,22.8-18.8,31.4-27.8C716.2,380.1,723,366.3,721.1,353.5z M672.1,408.8
				c-2,1.4-9.1,6.1-14.6,9.7c0.1-4,0.3-8.8,0.8-13.5c0.4-4.7,1-9.1,1.8-12.2c3.8-14,14.4-31,17-34.8c5.1-7.4,15.1-15.8,23-15.8
				c1.6,0,3.2,0.3,4.5,1.1c4.4,2.5,7.1,6.4,7.8,11.4c1.4,9.4-4.1,20.9-10.1,27.3C694,390.7,678.1,404.4,672.1,408.8z M721.1,353.5
				c-1.1-7.7-5.3-13.9-12.1-17.7c-13.5-7.7-31,5.5-39.1,17.2c-1.7,2.5-5.2,8.1-8.9,15c-3.6,6.9-7.3,15-9.4,22.4
				c-3,11-3.1,35.2-3.1,36.2v8.1l6.8-4.4c0.8-0.5,18.4-11.9,21.9-14.5c6.3-4.5,22.8-18.8,31.4-27.8
				C716.2,380.1,723,366.3,721.1,353.5z M672.1,408.8c-2,1.4-9.1,6.1-14.6,9.7c0.1-4,0.3-8.8,0.8-13.5c0.4-4.7,1-9.1,1.8-12.2
				c3.8-14,14.4-31,17-34.8c5.1-7.4,15.1-15.8,23-15.8c1.6,0,3.2,0.3,4.5,1.1c4.4,2.5,7.1,6.4,7.8,11.4c1.4,9.4-4.1,20.9-10.1,27.3
				C694,390.7,678.1,404.4,672.1,408.8z M593.6,450.5c-0.5-0.1-12.6-3-17-3.8c-2.5-0.5-4.8-1-6.8-1.4c-7.9-1.7-14.7-3.2-29.9-1.5
				c-11,1.2-25.5,11.1-26.6,20.8c-0.7,5.4,1.3,9,3.1,11c5.2,5.8,15.3,6.4,22.7,6.4c1.1,0,2.1,0,3.1,0c21.6-0.3,39.6-8.4,53.7-24.2
				l4.9-5.5L593.6,450.5z M564.8,469c-7,2.7-14.6,4-22.8,4.2c-5.1,0.1-15.9,0.2-19.2-3.5c-0.5-0.6-1.2-1.7-0.9-4
				c0.5-4,10.2-12.1,18.9-13.1c4.5-0.5,8.1-0.7,11.2-0.7c6.4,0,10.7,0.9,15.9,2.1c2.2,0.5,4.5,1,7.2,1.5c1.9,0.3,5.6,1.2,9,1.9
				C578.2,462.4,571.8,466.3,564.8,469z M280,334.4c-4-2.9-8.4-3.7-12.7-2.3c-10.5,3.4-20.2,13.5-15.6,31.2
				c2.1,8.3,15.2,23.5,24.1,28.1c2,1,3.9,1.6,5.6,1.6c0.9,0,1.8-0.2,2.6-0.5l1.9-0.7l0.7-1.9c0.2-0.6,5.7-15.9,5.7-31.2
				C292.3,351.4,287.3,339.6,280,334.4z M260.2,361.1c-3.6-14,4.6-19,9.8-20.7c0.4-0.1,0.9-0.2,1.4-0.2c0.9,0,2,0.3,3.5,1.3
				c5,3.6,8.6,12.8,8.6,17.2c0,9.7-2.6,19.7-4.1,24.8C273.7,380.3,261.8,367.4,260.2,361.1z M280,334.4c-4-2.9-8.4-3.7-12.7-2.3
				c-10.5,3.4-20.2,13.5-15.6,31.2c2.1,8.3,15.2,23.5,24.1,28.1c2,1,3.9,1.6,5.6,1.6c0.9,0,1.8-0.2,2.6-0.5l1.9-0.7l0.7-1.9
				c0.2-0.6,5.7-15.9,5.7-31.2C292.3,351.4,287.3,339.6,280,334.4z M260.2,361.1c-3.6-14,4.6-19,9.8-20.7c0.4-0.1,0.9-0.2,1.4-0.2
				c0.9,0,2,0.3,3.5,1.3c5,3.6,8.6,12.8,8.6,17.2c0,9.7-2.6,19.7-4.1,24.8C273.7,380.3,261.8,367.4,260.2,361.1z M593.6,450.5
				c-0.5-0.1-12.6-3-17-3.8c-2.5-0.5-4.8-1-6.8-1.4c-7.9-1.7-14.7-3.2-29.9-1.5c-11,1.2-25.5,11.1-26.6,20.8c-0.7,5.4,1.3,9,3.1,11
				c5.2,5.8,15.3,6.4,22.7,6.4c1.1,0,2.1,0,3.1,0c21.6-0.3,39.6-8.4,53.7-24.2l4.9-5.5L593.6,450.5z M564.8,469
				c-7,2.7-14.6,4-22.8,4.2c-5.1,0.1-15.9,0.2-19.2-3.5c-0.5-0.6-1.2-1.7-0.9-4c0.5-4,10.2-12.1,18.9-13.1c4.5-0.5,8.1-0.7,11.2-0.7
				c6.4,0,10.7,0.9,15.9,2.1c2.2,0.5,4.5,1,7.2,1.5c1.9,0.3,5.6,1.2,9,1.9C578.2,462.4,571.8,466.3,564.8,469z M721.1,353.5
				c-1.1-7.7-5.3-13.9-12.1-17.7c-13.5-7.7-31,5.5-39.1,17.2c-1.7,2.5-5.2,8.1-8.9,15c-3.6,6.9-7.3,15-9.4,22.4
				c-3,11-3.1,35.2-3.1,36.2v8.1l6.8-4.4c0.8-0.5,18.4-11.9,21.9-14.5c6.3-4.5,22.8-18.8,31.4-27.8
				C716.2,380.1,723,366.3,721.1,353.5z M672.1,408.8c-2,1.4-9.1,6.1-14.6,9.7c0.1-4,0.3-8.8,0.8-13.5c0.4-4.7,1-9.1,1.8-12.2
				c3.8-14,14.4-31,17-34.8c5.1-7.4,15.1-15.8,23-15.8c1.6,0,3.2,0.3,4.5,1.1c4.4,2.5,7.1,6.4,7.8,11.4c1.4,9.4-4.1,20.9-10.1,27.3
				C694,390.7,678.1,404.4,672.1,408.8z M721.1,353.5c-1.1-7.7-5.3-13.9-12.1-17.7c-13.5-7.7-31,5.5-39.1,17.2
				c-1.7,2.5-5.2,8.1-8.9,15c-3.6,6.9-7.3,15-9.4,22.4c-3,11-3.1,35.2-3.1,36.2v8.1l6.8-4.4c0.8-0.5,18.4-11.9,21.9-14.5
				c6.3-4.5,22.8-18.8,31.4-27.8C716.2,380.1,723,366.3,721.1,353.5z M672.1,408.8c-2,1.4-9.1,6.1-14.6,9.7c0.1-4,0.3-8.8,0.8-13.5
				c0.4-4.7,1-9.1,1.8-12.2c3.8-14,14.4-31,17-34.8c5.1-7.4,15.1-15.8,23-15.8c1.6,0,3.2,0.3,4.5,1.1c4.4,2.5,7.1,6.4,7.8,11.4
				c1.4,9.4-4.1,20.9-10.1,27.3C694,390.7,678.1,404.4,672.1,408.8z M593.6,450.5c-0.5-0.1-12.6-3-17-3.8c-2.5-0.5-4.8-1-6.8-1.4
				c-7.9-1.7-14.7-3.2-29.9-1.5c-11,1.2-25.5,11.1-26.6,20.8c-0.7,5.4,1.3,9,3.1,11c5.2,5.8,15.3,6.4,22.7,6.4c1.1,0,2.1,0,3.1,0
				c21.6-0.3,39.6-8.4,53.7-24.2l4.9-5.5L593.6,450.5z M564.8,469c-7,2.7-14.6,4-22.8,4.2c-5.1,0.1-15.9,0.2-19.2-3.5
				c-0.5-0.6-1.2-1.7-0.9-4c0.5-4,10.2-12.1,18.9-13.1c4.5-0.5,8.1-0.7,11.2-0.7c6.4,0,10.7,0.9,15.9,2.1c2.2,0.5,4.5,1,7.2,1.5
				c1.9,0.3,5.6,1.2,9,1.9C578.2,462.4,571.8,466.3,564.8,469z M280,334.4c-4-2.9-8.4-3.7-12.7-2.3c-10.5,3.4-20.2,13.5-15.6,31.2
				c2.1,8.3,15.2,23.5,24.1,28.1c2,1,3.9,1.6,5.6,1.6c0.9,0,1.8-0.2,2.6-0.5l1.9-0.7l0.7-1.9c0.2-0.6,5.7-15.9,5.7-31.2
				C292.3,351.4,287.3,339.6,280,334.4z M260.2,361.1c-3.6-14,4.6-19,9.8-20.7c0.4-0.1,0.9-0.2,1.4-0.2c0.9,0,2,0.3,3.5,1.3
				c5,3.6,8.6,12.8,8.6,17.2c0,9.7-2.6,19.7-4.1,24.8C273.7,380.3,261.8,367.4,260.2,361.1z M280,334.4c-4-2.9-8.4-3.7-12.7-2.3
				c-10.5,3.4-20.2,13.5-15.6,31.2c2.1,8.3,15.2,23.5,24.1,28.1c2,1,3.9,1.6,5.6,1.6c0.9,0,1.8-0.2,2.6-0.5l1.9-0.7l0.7-1.9
				c0.2-0.6,5.7-15.9,5.7-31.2C292.3,351.4,287.3,339.6,280,334.4z M260.2,361.1c-3.6-14,4.6-19,9.8-20.7c0.4-0.1,0.9-0.2,1.4-0.2
				c0.9,0,2,0.3,3.5,1.3c5,3.6,8.6,12.8,8.6,17.2c0,9.7-2.6,19.7-4.1,24.8C273.7,380.3,261.8,367.4,260.2,361.1z M593.6,450.5
				c-0.5-0.1-12.6-3-17-3.8c-2.5-0.5-4.8-1-6.8-1.4c-7.9-1.7-14.7-3.2-29.9-1.5c-11,1.2-25.5,11.1-26.6,20.8c-0.7,5.4,1.3,9,3.1,11
				c5.2,5.8,15.3,6.4,22.7,6.4c1.1,0,2.1,0,3.1,0c21.6-0.3,39.6-8.4,53.7-24.2l4.9-5.5L593.6,450.5z M564.8,469
				c-7,2.7-14.6,4-22.8,4.2c-5.1,0.1-15.9,0.2-19.2-3.5c-0.5-0.6-1.2-1.7-0.9-4c0.5-4,10.2-12.1,18.9-13.1c4.5-0.5,8.1-0.7,11.2-0.7
				c6.4,0,10.7,0.9,15.9,2.1c2.2,0.5,4.5,1,7.2,1.5c1.9,0.3,5.6,1.2,9,1.9C578.2,462.4,571.8,466.3,564.8,469z M721.1,353.5
				c-1.1-7.7-5.3-13.9-12.1-17.7c-13.5-7.7-31,5.5-39.1,17.2c-1.7,2.5-5.2,8.1-8.9,15c-3.6,6.9-7.3,15-9.4,22.4
				c-3,11-3.1,35.2-3.1,36.2v8.1l6.8-4.4c0.8-0.5,18.4-11.9,21.9-14.5c6.3-4.5,22.8-18.8,31.4-27.8
				C716.2,380.1,723,366.3,721.1,353.5z M672.1,408.8c-2,1.4-9.1,6.1-14.6,9.7c0.1-4,0.3-8.8,0.8-13.5c0.4-4.7,1-9.1,1.8-12.2
				c3.8-14,14.4-31,17-34.8c5.1-7.4,15.1-15.8,23-15.8c1.6,0,3.2,0.3,4.5,1.1c4.4,2.5,7.1,6.4,7.8,11.4c1.4,9.4-4.1,20.9-10.1,27.3
				C694,390.7,678.1,404.4,672.1,408.8z M721.1,353.5c-1.1-7.7-5.3-13.9-12.1-17.7c-13.5-7.7-31,5.5-39.1,17.2
				c-1.7,2.5-5.2,8.1-8.9,15c-3.6,6.9-7.3,15-9.4,22.4c-3,11-3.1,35.2-3.1,36.2v8.1l6.8-4.4c0.8-0.5,18.4-11.9,21.9-14.5
				c6.3-4.5,22.8-18.8,31.4-27.8C716.2,380.1,723,366.3,721.1,353.5z M672.1,408.8c-2,1.4-9.1,6.1-14.6,9.7c0.1-4,0.3-8.8,0.8-13.5
				c0.4-4.7,1-9.1,1.8-12.2c3.8-14,14.4-31,17-34.8c5.1-7.4,15.1-15.8,23-15.8c1.6,0,3.2,0.3,4.5,1.1c4.4,2.5,7.1,6.4,7.8,11.4
				c1.4,9.4-4.1,20.9-10.1,27.3C694,390.7,678.1,404.4,672.1,408.8z M593.6,450.5c-0.5-0.1-12.6-3-17-3.8c-2.5-0.5-4.8-1-6.8-1.4
				c-7.9-1.7-14.7-3.2-29.9-1.5c-11,1.2-25.5,11.1-26.6,20.8c-0.7,5.4,1.3,9,3.1,11c5.2,5.8,15.3,6.4,22.7,6.4c1.1,0,2.1,0,3.1,0
				c21.6-0.3,39.6-8.4,53.7-24.2l4.9-5.5L593.6,450.5z M564.8,469c-7,2.7-14.6,4-22.8,4.2c-5.1,0.1-15.9,0.2-19.2-3.5
				c-0.5-0.6-1.2-1.7-0.9-4c0.5-4,10.2-12.1,18.9-13.1c4.5-0.5,8.1-0.7,11.2-0.7c6.4,0,10.7,0.9,15.9,2.1c2.2,0.5,4.5,1,7.2,1.5
				c1.9,0.3,5.6,1.2,9,1.9C578.2,462.4,571.8,466.3,564.8,469z M280,334.4c-4-2.9-8.4-3.7-12.7-2.3c-10.5,3.4-20.2,13.5-15.6,31.2
				c2.1,8.3,15.2,23.5,24.1,28.1c2,1,3.9,1.6,5.6,1.6c0.9,0,1.8-0.2,2.6-0.5l1.9-0.7l0.7-1.9c0.2-0.6,5.7-15.9,5.7-31.2
				C292.3,351.4,287.3,339.6,280,334.4z M260.2,361.1c-3.6-14,4.6-19,9.8-20.7c0.4-0.1,0.9-0.2,1.4-0.2c0.9,0,2,0.3,3.5,1.3
				c5,3.6,8.6,12.8,8.6,17.2c0,9.7-2.6,19.7-4.1,24.8C273.7,380.3,261.8,367.4,260.2,361.1z M280,334.4c-4-2.9-8.4-3.7-12.7-2.3
				c-10.5,3.4-20.2,13.5-15.6,31.2c2.1,8.3,15.2,23.5,24.1,28.1c2,1,3.9,1.6,5.6,1.6c0.9,0,1.8-0.2,2.6-0.5l1.9-0.7l0.7-1.9
				c0.2-0.6,5.7-15.9,5.7-31.2C292.3,351.4,287.3,339.6,280,334.4z M260.2,361.1c-3.6-14,4.6-19,9.8-20.7c0.4-0.1,0.9-0.2,1.4-0.2
				c0.9,0,2,0.3,3.5,1.3c5,3.6,8.6,12.8,8.6,17.2c0,9.7-2.6,19.7-4.1,24.8C273.7,380.3,261.8,367.4,260.2,361.1z M593.6,450.5
				c-0.5-0.1-12.6-3-17-3.8c-2.5-0.5-4.8-1-6.8-1.4c-7.9-1.7-14.7-3.2-29.9-1.5c-11,1.2-25.5,11.1-26.6,20.8c-0.7,5.4,1.3,9,3.1,11
				c5.2,5.8,15.3,6.4,22.7,6.4c1.1,0,2.1,0,3.1,0c21.6-0.3,39.6-8.4,53.7-24.2l4.9-5.5L593.6,450.5z M564.8,469
				c-7,2.7-14.6,4-22.8,4.2c-5.1,0.1-15.9,0.2-19.2-3.5c-0.5-0.6-1.2-1.7-0.9-4c0.5-4,10.2-12.1,18.9-13.1c4.5-0.5,8.1-0.7,11.2-0.7
				c6.4,0,10.7,0.9,15.9,2.1c2.2,0.5,4.5,1,7.2,1.5c1.9,0.3,5.6,1.2,9,1.9C578.2,462.4,571.8,466.3,564.8,469z M721.1,353.5
				c-1.1-7.7-5.3-13.9-12.1-17.7c-13.5-7.7-31,5.5-39.1,17.2c-1.7,2.5-5.2,8.1-8.9,15c-3.6,6.9-7.3,15-9.4,22.4
				c-3,11-3.1,35.2-3.1,36.2v8.1l6.8-4.4c0.8-0.5,18.4-11.9,21.9-14.5c6.3-4.5,22.8-18.8,31.4-27.8
				C716.2,380.1,723,366.3,721.1,353.5z M672.1,408.8c-2,1.4-9.1,6.1-14.6,9.7c0.1-4,0.3-8.8,0.8-13.5c0.4-4.7,1-9.1,1.8-12.2
				c3.8-14,14.4-31,17-34.8c5.1-7.4,15.1-15.8,23-15.8c1.6,0,3.2,0.3,4.5,1.1c4.4,2.5,7.1,6.4,7.8,11.4c1.4,9.4-4.1,20.9-10.1,27.3
				C694,390.7,678.1,404.4,672.1,408.8z M721.1,353.5c-1.1-7.7-5.3-13.9-12.1-17.7c-13.5-7.7-31,5.5-39.1,17.2
				c-1.7,2.5-5.2,8.1-8.9,15c-3.6,6.9-7.3,15-9.4,22.4c-3,11-3.1,35.2-3.1,36.2v8.1l6.8-4.4c0.8-0.5,18.4-11.9,21.9-14.5
				c6.3-4.5,22.8-18.8,31.4-27.8C716.2,380.1,723,366.3,721.1,353.5z M672.1,408.8c-2,1.4-9.1,6.1-14.6,9.7c0.1-4,0.3-8.8,0.8-13.5
				c0.4-4.7,1-9.1,1.8-12.2c3.8-14,14.4-31,17-34.8c5.1-7.4,15.1-15.8,23-15.8c1.6,0,3.2,0.3,4.5,1.1c4.4,2.5,7.1,6.4,7.8,11.4
				c1.4,9.4-4.1,20.9-10.1,27.3C694,390.7,678.1,404.4,672.1,408.8z M593.6,450.5c-0.5-0.1-12.6-3-17-3.8c-2.5-0.5-4.8-1-6.8-1.4
				c-7.9-1.7-14.7-3.2-29.9-1.5c-11,1.2-25.5,11.1-26.6,20.8c-0.7,5.4,1.3,9,3.1,11c5.2,5.8,15.3,6.4,22.7,6.4c1.1,0,2.1,0,3.1,0
				c21.6-0.3,39.6-8.4,53.7-24.2l4.9-5.5L593.6,450.5z M564.8,469c-7,2.7-14.6,4-22.8,4.2c-5.1,0.1-15.9,0.2-19.2-3.5
				c-0.5-0.6-1.2-1.7-0.9-4c0.5-4,10.2-12.1,18.9-13.1c4.5-0.5,8.1-0.7,11.2-0.7c6.4,0,10.7,0.9,15.9,2.1c2.2,0.5,4.5,1,7.2,1.5
				c1.9,0.3,5.6,1.2,9,1.9C578.2,462.4,571.8,466.3,564.8,469z M280,334.4c-4-2.9-8.4-3.7-12.7-2.3c-10.5,3.4-20.2,13.5-15.6,31.2
				c2.1,8.3,15.2,23.5,24.1,28.1c2,1,3.9,1.6,5.6,1.6c0.9,0,1.8-0.2,2.6-0.5l1.9-0.7l0.7-1.9c0.2-0.6,5.7-15.9,5.7-31.2
				C292.3,351.4,287.3,339.6,280,334.4z M260.2,361.1c-3.6-14,4.6-19,9.8-20.7c0.4-0.1,0.9-0.2,1.4-0.2c0.9,0,2,0.3,3.5,1.3
				c5,3.6,8.6,12.8,8.6,17.2c0,9.7-2.6,19.7-4.1,24.8C273.7,380.3,261.8,367.4,260.2,361.1z M280,334.4c-4-2.9-8.4-3.7-12.7-2.3
				c-10.5,3.4-20.2,13.5-15.6,31.2c2.1,8.3,15.2,23.5,24.1,28.1c2,1,3.9,1.6,5.6,1.6c0.9,0,1.8-0.2,2.6-0.5l1.9-0.7l0.7-1.9
				c0.2-0.6,5.7-15.9,5.7-31.2C292.3,351.4,287.3,339.6,280,334.4z M260.2,361.1c-3.6-14,4.6-19,9.8-20.7c0.4-0.1,0.9-0.2,1.4-0.2
				c0.9,0,2,0.3,3.5,1.3c5,3.6,8.6,12.8,8.6,17.2c0,9.7-2.6,19.7-4.1,24.8C273.7,380.3,261.8,367.4,260.2,361.1z M593.6,450.5
				c-0.5-0.1-12.6-3-17-3.8c-2.5-0.5-4.8-1-6.8-1.4c-7.9-1.7-14.7-3.2-29.9-1.5c-11,1.2-25.5,11.1-26.6,20.8c-0.7,5.4,1.3,9,3.1,11
				c5.2,5.8,15.3,6.4,22.7,6.4c1.1,0,2.1,0,3.1,0c21.6-0.3,39.6-8.4,53.7-24.2l4.9-5.5L593.6,450.5z M564.8,469
				c-7,2.7-14.6,4-22.8,4.2c-5.1,0.1-15.9,0.2-19.2-3.5c-0.5-0.6-1.2-1.7-0.9-4c0.5-4,10.2-12.1,18.9-13.1c4.5-0.5,8.1-0.7,11.2-0.7
				c6.4,0,10.7,0.9,15.9,2.1c2.2,0.5,4.5,1,7.2,1.5c1.9,0.3,5.6,1.2,9,1.9C578.2,462.4,571.8,466.3,564.8,469z M721.1,353.5
				c-1.1-7.7-5.3-13.9-12.1-17.7c-13.5-7.7-31,5.5-39.1,17.2c-1.7,2.5-5.2,8.1-8.9,15c-3.6,6.9-7.3,15-9.4,22.4
				c-3,11-3.1,35.2-3.1,36.2v8.1l6.8-4.4c0.8-0.5,18.4-11.9,21.9-14.5c6.3-4.5,22.8-18.8,31.4-27.8
				C716.2,380.1,723,366.3,721.1,353.5z M672.1,408.8c-2,1.4-9.1,6.1-14.6,9.7c0.1-4,0.3-8.8,0.8-13.5c0.4-4.7,1-9.1,1.8-12.2
				c3.8-14,14.4-31,17-34.8c5.1-7.4,15.1-15.8,23-15.8c1.6,0,3.2,0.3,4.5,1.1c4.4,2.5,7.1,6.4,7.8,11.4c1.4,9.4-4.1,20.9-10.1,27.3
				C694,390.7,678.1,404.4,672.1,408.8z M721.1,353.5c-1.1-7.7-5.3-13.9-12.1-17.7c-13.5-7.7-31,5.5-39.1,17.2
				c-1.7,2.5-5.2,8.1-8.9,15c-3.6,6.9-7.3,15-9.4,22.4c-3,11-3.1,35.2-3.1,36.2v8.1l6.8-4.4c0.8-0.5,18.4-11.9,21.9-14.5
				c6.3-4.5,22.8-18.8,31.4-27.8C716.2,380.1,723,366.3,721.1,353.5z M672.1,408.8c-2,1.4-9.1,6.1-14.6,9.7c0.1-4,0.3-8.8,0.8-13.5
				c0.4-4.7,1-9.1,1.8-12.2c3.8-14,14.4-31,17-34.8c5.1-7.4,15.1-15.8,23-15.8c1.6,0,3.2,0.3,4.5,1.1c4.4,2.5,7.1,6.4,7.8,11.4
				c1.4,9.4-4.1,20.9-10.1,27.3C694,390.7,678.1,404.4,672.1,408.8z M593.6,450.5c-0.5-0.1-12.6-3-17-3.8c-2.5-0.5-4.8-1-6.8-1.4
				c-7.9-1.7-14.7-3.2-29.9-1.5c-11,1.2-25.5,11.1-26.6,20.8c-0.7,5.4,1.3,9,3.1,11c5.2,5.8,15.3,6.4,22.7,6.4c1.1,0,2.1,0,3.1,0
				c21.6-0.3,39.6-8.4,53.7-24.2l4.9-5.5L593.6,450.5z M564.8,469c-7,2.7-14.6,4-22.8,4.2c-5.1,0.1-15.9,0.2-19.2-3.5
				c-0.5-0.6-1.2-1.7-0.9-4c0.5-4,10.2-12.1,18.9-13.1c4.5-0.5,8.1-0.7,11.2-0.7c6.4,0,10.7,0.9,15.9,2.1c2.2,0.5,4.5,1,7.2,1.5
				c1.9,0.3,5.6,1.2,9,1.9C578.2,462.4,571.8,466.3,564.8,469z M280,334.4c-4-2.9-8.4-3.7-12.7-2.3c-10.5,3.4-20.2,13.5-15.6,31.2
				c2.1,8.3,15.2,23.5,24.1,28.1c2,1,3.9,1.6,5.6,1.6c0.9,0,1.8-0.2,2.6-0.5l1.9-0.7l0.7-1.9c0.2-0.6,5.7-15.9,5.7-31.2
				C292.3,351.4,287.3,339.6,280,334.4z M260.2,361.1c-3.6-14,4.6-19,9.8-20.7c0.4-0.1,0.9-0.2,1.4-0.2c0.9,0,2,0.3,3.5,1.3
				c5,3.6,8.6,12.8,8.6,17.2c0,9.7-2.6,19.7-4.1,24.8C273.7,380.3,261.8,367.4,260.2,361.1z M280,334.4c-4-2.9-8.4-3.7-12.7-2.3
				c-10.5,3.4-20.2,13.5-15.6,31.2c2.1,8.3,15.2,23.5,24.1,28.1c2,1,3.9,1.6,5.6,1.6c0.9,0,1.8-0.2,2.6-0.5l1.9-0.7l0.7-1.9
				c0.2-0.6,5.7-15.9,5.7-31.2C292.3,351.4,287.3,339.6,280,334.4z M260.2,361.1c-3.6-14,4.6-19,9.8-20.7c0.4-0.1,0.9-0.2,1.4-0.2
				c0.9,0,2,0.3,3.5,1.3c5,3.6,8.6,12.8,8.6,17.2c0,9.7-2.6,19.7-4.1,24.8C273.7,380.3,261.8,367.4,260.2,361.1z M593.6,450.5
				c-0.5-0.1-12.6-3-17-3.8c-2.5-0.5-4.8-1-6.8-1.4c-7.9-1.7-14.7-3.2-29.9-1.5c-11,1.2-25.5,11.1-26.6,20.8c-0.7,5.4,1.3,9,3.1,11
				c5.2,5.8,15.3,6.4,22.7,6.4c1.1,0,2.1,0,3.1,0c21.6-0.3,39.6-8.4,53.7-24.2l4.9-5.5L593.6,450.5z M564.8,469
				c-7,2.7-14.6,4-22.8,4.2c-5.1,0.1-15.9,0.2-19.2-3.5c-0.5-0.6-1.2-1.7-0.9-4c0.5-4,10.2-12.1,18.9-13.1c4.5-0.5,8.1-0.7,11.2-0.7
				c6.4,0,10.7,0.9,15.9,2.1c2.2,0.5,4.5,1,7.2,1.5c1.9,0.3,5.6,1.2,9,1.9C578.2,462.4,571.8,466.3,564.8,469z M721.1,353.5
				c-1.1-7.7-5.3-13.9-12.1-17.7c-13.5-7.7-31,5.5-39.1,17.2c-1.7,2.5-5.2,8.1-8.9,15c-3.6,6.9-7.3,15-9.4,22.4
				c-3,11-3.1,35.2-3.1,36.2v8.1l6.8-4.4c0.8-0.5,18.4-11.9,21.9-14.5c6.3-4.5,22.8-18.8,31.4-27.8
				C716.2,380.1,723,366.3,721.1,353.5z M672.1,408.8c-2,1.4-9.1,6.1-14.6,9.7c0.1-4,0.3-8.8,0.8-13.5c0.4-4.7,1-9.1,1.8-12.2
				c3.8-14,14.4-31,17-34.8c5.1-7.4,15.1-15.8,23-15.8c1.6,0,3.2,0.3,4.5,1.1c4.4,2.5,7.1,6.4,7.8,11.4c1.4,9.4-4.1,20.9-10.1,27.3
				C694,390.7,678.1,404.4,672.1,408.8z M721.1,353.5c-1.1-7.7-5.3-13.9-12.1-17.7c-13.5-7.7-31,5.5-39.1,17.2
				c-1.7,2.5-5.2,8.1-8.9,15c-3.6,6.9-7.3,15-9.4,22.4c-3,11-3.1,35.2-3.1,36.2v8.1l6.8-4.4c0.8-0.5,18.4-11.9,21.9-14.5
				c6.3-4.5,22.8-18.8,31.4-27.8C716.2,380.1,723,366.3,721.1,353.5z M672.1,408.8c-2,1.4-9.1,6.1-14.6,9.7c0.1-4,0.3-8.8,0.8-13.5
				c0.4-4.7,1-9.1,1.8-12.2c3.8-14,14.4-31,17-34.8c5.1-7.4,15.1-15.8,23-15.8c1.6,0,3.2,0.3,4.5,1.1c4.4,2.5,7.1,6.4,7.8,11.4
				c1.4,9.4-4.1,20.9-10.1,27.3C694,390.7,678.1,404.4,672.1,408.8z M593.6,450.5c-0.5-0.1-12.6-3-17-3.8c-2.5-0.5-4.8-1-6.8-1.4
				c-7.9-1.7-14.7-3.2-29.9-1.5c-11,1.2-25.5,11.1-26.6,20.8c-0.7,5.4,1.3,9,3.1,11c5.2,5.8,15.3,6.4,22.7,6.4c1.1,0,2.1,0,3.1,0
				c21.6-0.3,39.6-8.4,53.7-24.2l4.9-5.5L593.6,450.5z M564.8,469c-7,2.7-14.6,4-22.8,4.2c-5.1,0.1-15.9,0.2-19.2-3.5
				c-0.5-0.6-1.2-1.7-0.9-4c0.5-4,10.2-12.1,18.9-13.1c4.5-0.5,8.1-0.7,11.2-0.7c6.4,0,10.7,0.9,15.9,2.1c2.2,0.5,4.5,1,7.2,1.5
				c1.9,0.3,5.6,1.2,9,1.9C578.2,462.4,571.8,466.3,564.8,469z M280,334.4c-4-2.9-8.4-3.7-12.7-2.3c-10.5,3.4-20.2,13.5-15.6,31.2
				c2.1,8.3,15.2,23.5,24.1,28.1c2,1,3.9,1.6,5.6,1.6c0.9,0,1.8-0.2,2.6-0.5l1.9-0.7l0.7-1.9c0.2-0.6,5.7-15.9,5.7-31.2
				C292.3,351.4,287.3,339.6,280,334.4z M260.2,361.1c-3.6-14,4.6-19,9.8-20.7c0.4-0.1,0.9-0.2,1.4-0.2c0.9,0,2,0.3,3.5,1.3
				c5,3.6,8.6,12.8,8.6,17.2c0,9.7-2.6,19.7-4.1,24.8C273.7,380.3,261.8,367.4,260.2,361.1z M280,334.4c-4-2.9-8.4-3.7-12.7-2.3
				c-10.5,3.4-20.2,13.5-15.6,31.2c2.1,8.3,15.2,23.5,24.1,28.1c2,1,3.9,1.6,5.6,1.6c0.9,0,1.8-0.2,2.6-0.5l1.9-0.7l0.7-1.9
				c0.2-0.6,5.7-15.9,5.7-31.2C292.3,351.4,287.3,339.6,280,334.4z M260.2,361.1c-3.6-14,4.6-19,9.8-20.7c0.4-0.1,0.9-0.2,1.4-0.2
				c0.9,0,2,0.3,3.5,1.3c5,3.6,8.6,12.8,8.6,17.2c0,9.7-2.6,19.7-4.1,24.8C273.7,380.3,261.8,367.4,260.2,361.1z M593.6,450.5
				c-0.5-0.1-12.6-3-17-3.8c-2.5-0.5-4.8-1-6.8-1.4c-7.9-1.7-14.7-3.2-29.9-1.5c-11,1.2-25.5,11.1-26.6,20.8c-0.7,5.4,1.3,9,3.1,11
				c5.2,5.8,15.3,6.4,22.7,6.4c1.1,0,2.1,0,3.1,0c21.6-0.3,39.6-8.4,53.7-24.2l4.9-5.5L593.6,450.5z M564.8,469
				c-7,2.7-14.6,4-22.8,4.2c-5.1,0.1-15.9,0.2-19.2-3.5c-0.5-0.6-1.2-1.7-0.9-4c0.5-4,10.2-12.1,18.9-13.1c4.5-0.5,8.1-0.7,11.2-0.7
				c6.4,0,10.7,0.9,15.9,2.1c2.2,0.5,4.5,1,7.2,1.5c1.9,0.3,5.6,1.2,9,1.9C578.2,462.4,571.8,466.3,564.8,469z M721.1,353.5
				c-1.1-7.7-5.3-13.9-12.1-17.7c-13.5-7.7-31,5.5-39.1,17.2c-1.7,2.5-5.2,8.1-8.9,15c-3.6,6.9-7.3,15-9.4,22.4
				c-3,11-3.1,35.2-3.1,36.2v8.1l6.8-4.4c0.8-0.5,18.4-11.9,21.9-14.5c6.3-4.5,22.8-18.8,31.4-27.8
				C716.2,380.1,723,366.3,721.1,353.5z M672.1,408.8c-2,1.4-9.1,6.1-14.6,9.7c0.1-4,0.3-8.8,0.8-13.5c0.4-4.7,1-9.1,1.8-12.2
				c3.8-14,14.4-31,17-34.8c5.1-7.4,15.1-15.8,23-15.8c1.6,0,3.2,0.3,4.5,1.1c4.4,2.5,7.1,6.4,7.8,11.4c1.4,9.4-4.1,20.9-10.1,27.3
				C694,390.7,678.1,404.4,672.1,408.8z M721.1,353.5c-1.1-7.7-5.3-13.9-12.1-17.7c-13.5-7.7-31,5.5-39.1,17.2
				c-1.7,2.5-5.2,8.1-8.9,15c-3.6,6.9-7.3,15-9.4,22.4c-3,11-3.1,35.2-3.1,36.2v8.1l6.8-4.4c0.8-0.5,18.4-11.9,21.9-14.5
				c6.3-4.5,22.8-18.8,31.4-27.8C716.2,380.1,723,366.3,721.1,353.5z M672.1,408.8c-2,1.4-9.1,6.1-14.6,9.7c0.1-4,0.3-8.8,0.8-13.5
				c0.4-4.7,1-9.1,1.8-12.2c3.8-14,14.4-31,17-34.8c5.1-7.4,15.1-15.8,23-15.8c1.6,0,3.2,0.3,4.5,1.1c4.4,2.5,7.1,6.4,7.8,11.4
				c1.4,9.4-4.1,20.9-10.1,27.3C694,390.7,678.1,404.4,672.1,408.8z M593.6,450.5c-0.5-0.1-12.6-3-17-3.8c-2.5-0.5-4.8-1-6.8-1.4
				c-7.9-1.7-14.7-3.2-29.9-1.5c-11,1.2-25.5,11.1-26.6,20.8c-0.7,5.4,1.3,9,3.1,11c5.2,5.8,15.3,6.4,22.7,6.4c1.1,0,2.1,0,3.1,0
				c21.6-0.3,39.6-8.4,53.7-24.2l4.9-5.5L593.6,450.5z M564.8,469c-7,2.7-14.6,4-22.8,4.2c-5.1,0.1-15.9,0.2-19.2-3.5
				c-0.5-0.6-1.2-1.7-0.9-4c0.5-4,10.2-12.1,18.9-13.1c4.5-0.5,8.1-0.7,11.2-0.7c6.4,0,10.7,0.9,15.9,2.1c2.2,0.5,4.5,1,7.2,1.5
				c1.9,0.3,5.6,1.2,9,1.9C578.2,462.4,571.8,466.3,564.8,469z M280,334.4c-4-2.9-8.4-3.7-12.7-2.3c-10.5,3.4-20.2,13.5-15.6,31.2
				c2.1,8.3,15.2,23.5,24.1,28.1c2,1,3.9,1.6,5.6,1.6c0.9,0,1.8-0.2,2.6-0.5l1.9-0.7l0.7-1.9c0.2-0.6,5.7-15.9,5.7-31.2
				C292.3,351.4,287.3,339.6,280,334.4z M260.2,361.1c-3.6-14,4.6-19,9.8-20.7c0.4-0.1,0.9-0.2,1.4-0.2c0.9,0,2,0.3,3.5,1.3
				c5,3.6,8.6,12.8,8.6,17.2c0,9.7-2.6,19.7-4.1,24.8C273.7,380.3,261.8,367.4,260.2,361.1z M280,334.4c-4-2.9-8.4-3.7-12.7-2.3
				c-10.5,3.4-20.2,13.5-15.6,31.2c2.1,8.3,15.2,23.5,24.1,28.1c2,1,3.9,1.6,5.6,1.6c0.9,0,1.8-0.2,2.6-0.5l1.9-0.7l0.7-1.9
				c0.2-0.6,5.7-15.9,5.7-31.2C292.3,351.4,287.3,339.6,280,334.4z M260.2,361.1c-3.6-14,4.6-19,9.8-20.7c0.4-0.1,0.9-0.2,1.4-0.2
				c0.9,0,2,0.3,3.5,1.3c5,3.6,8.6,12.8,8.6,17.2c0,9.7-2.6,19.7-4.1,24.8C273.7,380.3,261.8,367.4,260.2,361.1z M593.6,450.5
				c-0.5-0.1-12.6-3-17-3.8c-2.5-0.5-4.8-1-6.8-1.4c-7.9-1.7-14.7-3.2-29.9-1.5c-11,1.2-25.5,11.1-26.6,20.8c-0.7,5.4,1.3,9,3.1,11
				c5.2,5.8,15.3,6.4,22.7,6.4c1.1,0,2.1,0,3.1,0c21.6-0.3,39.6-8.4,53.7-24.2l4.9-5.5L593.6,450.5z M564.8,469
				c-7,2.7-14.6,4-22.8,4.2c-5.1,0.1-15.9,0.2-19.2-3.5c-0.5-0.6-1.2-1.7-0.9-4c0.5-4,10.2-12.1,18.9-13.1c4.5-0.5,8.1-0.7,11.2-0.7
				c6.4,0,10.7,0.9,15.9,2.1c2.2,0.5,4.5,1,7.2,1.5c1.9,0.3,5.6,1.2,9,1.9C578.2,462.4,571.8,466.3,564.8,469z M721.1,353.5
				c-1.1-7.7-5.3-13.9-12.1-17.7c-13.5-7.7-31,5.5-39.1,17.2c-1.7,2.5-5.2,8.1-8.9,15c-3.6,6.9-7.3,15-9.4,22.4
				c-3,11-3.1,35.2-3.1,36.2v8.1l6.8-4.4c0.8-0.5,18.4-11.9,21.9-14.5c6.3-4.5,22.8-18.8,31.4-27.8
				C716.2,380.1,723,366.3,721.1,353.5z M672.1,408.8c-2,1.4-9.1,6.1-14.6,9.7c0.1-4,0.3-8.8,0.8-13.5c0.4-4.7,1-9.1,1.8-12.2
				c3.8-14,14.4-31,17-34.8c5.1-7.4,15.1-15.8,23-15.8c1.6,0,3.2,0.3,4.5,1.1c4.4,2.5,7.1,6.4,7.8,11.4c1.4,9.4-4.1,20.9-10.1,27.3
				C694,390.7,678.1,404.4,672.1,408.8z M721.1,353.5c-1.1-7.7-5.3-13.9-12.1-17.7c-13.5-7.7-31,5.5-39.1,17.2
				c-1.7,2.5-5.2,8.1-8.9,15c-3.6,6.9-7.3,15-9.4,22.4c-3,11-3.1,35.2-3.1,36.2v8.1l6.8-4.4c0.8-0.5,18.4-11.9,21.9-14.5
				c6.3-4.5,22.8-18.8,31.4-27.8C716.2,380.1,723,366.3,721.1,353.5z M672.1,408.8c-2,1.4-9.1,6.1-14.6,9.7c0.1-4,0.3-8.8,0.8-13.5
				c0.4-4.7,1-9.1,1.8-12.2c3.8-14,14.4-31,17-34.8c5.1-7.4,15.1-15.8,23-15.8c1.6,0,3.2,0.3,4.5,1.1c4.4,2.5,7.1,6.4,7.8,11.4
				c1.4,9.4-4.1,20.9-10.1,27.3C694,390.7,678.1,404.4,672.1,408.8z M593.6,450.5c-0.5-0.1-12.6-3-17-3.8c-2.5-0.5-4.8-1-6.8-1.4
				c-7.9-1.7-14.7-3.2-29.9-1.5c-11,1.2-25.5,11.1-26.6,20.8c-0.7,5.4,1.3,9,3.1,11c5.2,5.8,15.3,6.4,22.7,6.4c1.1,0,2.1,0,3.1,0
				c21.6-0.3,39.6-8.4,53.7-24.2l4.9-5.5L593.6,450.5z M564.8,469c-7,2.7-14.6,4-22.8,4.2c-5.1,0.1-15.9,0.2-19.2-3.5
				c-0.5-0.6-1.2-1.7-0.9-4c0.5-4,10.2-12.1,18.9-13.1c4.5-0.5,8.1-0.7,11.2-0.7c6.4,0,10.7,0.9,15.9,2.1c2.2,0.5,4.5,1,7.2,1.5
				c1.9,0.3,5.6,1.2,9,1.9C578.2,462.4,571.8,466.3,564.8,469z M280,334.4c-4-2.9-8.4-3.7-12.7-2.3c-10.5,3.4-20.2,13.5-15.6,31.2
				c2.1,8.3,15.2,23.5,24.1,28.1c2,1,3.9,1.6,5.6,1.6c0.9,0,1.8-0.2,2.6-0.5l1.9-0.7l0.7-1.9c0.2-0.6,5.7-15.9,5.7-31.2
				C292.3,351.4,287.3,339.6,280,334.4z M260.2,361.1c-3.6-14,4.6-19,9.8-20.7c0.4-0.1,0.9-0.2,1.4-0.2c0.9,0,2,0.3,3.5,1.3
				c5,3.6,8.6,12.8,8.6,17.2c0,9.7-2.6,19.7-4.1,24.8C273.7,380.3,261.8,367.4,260.2,361.1z M280,334.4c-4-2.9-8.4-3.7-12.7-2.3
				c-10.5,3.4-20.2,13.5-15.6,31.2c2.1,8.3,15.2,23.5,24.1,28.1c2,1,3.9,1.6,5.6,1.6c0.9,0,1.8-0.2,2.6-0.5l1.9-0.7l0.7-1.9
				c0.2-0.6,5.7-15.9,5.7-31.2C292.3,351.4,287.3,339.6,280,334.4z M260.2,361.1c-3.6-14,4.6-19,9.8-20.7c0.4-0.1,0.9-0.2,1.4-0.2
				c0.9,0,2,0.3,3.5,1.3c5,3.6,8.6,12.8,8.6,17.2c0,9.7-2.6,19.7-4.1,24.8C273.7,380.3,261.8,367.4,260.2,361.1z M593.6,450.5
				c-0.5-0.1-12.6-3-17-3.8c-2.5-0.5-4.8-1-6.8-1.4c-7.9-1.7-14.7-3.2-29.9-1.5c-11,1.2-25.5,11.1-26.6,20.8c-0.7,5.4,1.3,9,3.1,11
				c5.2,5.8,15.3,6.4,22.7,6.4c1.1,0,2.1,0,3.1,0c21.6-0.3,39.6-8.4,53.7-24.2l4.9-5.5L593.6,450.5z M564.8,469
				c-7,2.7-14.6,4-22.8,4.2c-5.1,0.1-15.9,0.2-19.2-3.5c-0.5-0.6-1.2-1.7-0.9-4c0.5-4,10.2-12.1,18.9-13.1c4.5-0.5,8.1-0.7,11.2-0.7
				c6.4,0,10.7,0.9,15.9,2.1c2.2,0.5,4.5,1,7.2,1.5c1.9,0.3,5.6,1.2,9,1.9C578.2,462.4,571.8,466.3,564.8,469z M721.1,353.5
				c-1.1-7.7-5.3-13.9-12.1-17.7c-13.5-7.7-31,5.5-39.1,17.2c-1.7,2.5-5.2,8.1-8.9,15c-3.6,6.9-7.3,15-9.4,22.4
				c-3,11-3.1,35.2-3.1,36.2v8.1l6.8-4.4c0.8-0.5,18.4-11.9,21.9-14.5c6.3-4.5,22.8-18.8,31.4-27.8
				C716.2,380.1,723,366.3,721.1,353.5z M672.1,408.8c-2,1.4-9.1,6.1-14.6,9.7c0.1-4,0.3-8.8,0.8-13.5c0.4-4.7,1-9.1,1.8-12.2
				c3.8-14,14.4-31,17-34.8c5.1-7.4,15.1-15.8,23-15.8c1.6,0,3.2,0.3,4.5,1.1c4.4,2.5,7.1,6.4,7.8,11.4c1.4,9.4-4.1,20.9-10.1,27.3
				C694,390.7,678.1,404.4,672.1,408.8z M721.1,353.5c-1.1-7.7-5.3-13.9-12.1-17.7c-13.5-7.7-31,5.5-39.1,17.2
				c-1.7,2.5-5.2,8.1-8.9,15c-3.6,6.9-7.3,15-9.4,22.4c-3,11-3.1,35.2-3.1,36.2v8.1l6.8-4.4c0.8-0.5,18.4-11.9,21.9-14.5
				c6.3-4.5,22.8-18.8,31.4-27.8C716.2,380.1,723,366.3,721.1,353.5z M672.1,408.8c-2,1.4-9.1,6.1-14.6,9.7c0.1-4,0.3-8.8,0.8-13.5
				c0.4-4.7,1-9.1,1.8-12.2c3.8-14,14.4-31,17-34.8c5.1-7.4,15.1-15.8,23-15.8c1.6,0,3.2,0.3,4.5,1.1c4.4,2.5,7.1,6.4,7.8,11.4
				c1.4,9.4-4.1,20.9-10.1,27.3C694,390.7,678.1,404.4,672.1,408.8z M576.6,446.7c-2.5-0.5-4.8-1-6.8-1.4
				c-7.9-1.7-14.7-3.2-29.9-1.5c-11,1.2-25.5,11.1-26.6,20.8c-0.7,5.4,1.3,9,3.1,11c5.2,5.8,15.3,6.4,22.7,6.4c1.1,0,2.1,0,3.1,0
				c21.6-0.3,39.6-8.4,53.7-24.2l4.9-5.5l-7.1-1.7C593.1,450.4,581,447.5,576.6,446.7z M564.8,469c-7,2.7-14.6,4-22.8,4.2
				c-5.1,0.1-15.9,0.2-19.2-3.5c-0.5-0.6-1.2-1.7-0.9-4c0.5-4,10.2-12.1,18.9-13.1c4.5-0.5,8.1-0.7,11.2-0.7
				c6.4,0,10.7,0.9,15.9,2.1c2.2,0.5,4.5,1,7.2,1.5c1.9,0.3,5.6,1.2,9,1.9C578.2,462.4,571.8,466.3,564.8,469z M280,334.4
				c-4-2.9-8.4-3.7-12.7-2.3c-10.5,3.4-20.2,13.5-15.6,31.2c2.1,8.3,15.2,23.5,24.1,28.1c2,1,3.9,1.6,5.6,1.6c0.9,0,1.8-0.2,2.6-0.5
				l1.9-0.7l0.7-1.9c0.2-0.6,5.7-15.9,5.7-31.2C292.3,351.4,287.3,339.6,280,334.4z M260.2,361.1c-3.6-14,4.6-19,9.8-20.7
				c0.4-0.1,0.9-0.2,1.4-0.2c0.9,0,2,0.3,3.5,1.3c5,3.6,8.6,12.8,8.6,17.2c0,9.7-2.6,19.7-4.1,24.8
				C273.7,380.3,261.8,367.4,260.2,361.1z M1100.8,483.5c-3.8-4.7-11.6-20.3-13.4-26.9l-0.5-1.8c-2.2-8-4.9-18-5.9-34.1
				c-0.2-2.9,0.7-29,1-37.6c0.1-2.5,0.1-4.1,0.2-4.6c0-0.3,0-1.1,0-2.2c0-1.9,0-5.4,0.1-6.5c0.4-4.2-1.8-8.5-5.7-11.2
				c-3.6-2.5-7.8-3.1-11.4-1.5c-5.8,2.6-8.2,6.7-7.2,12.1c0.6,3.5,2.1,37.9-2.1,48.5l-0.2,0.6c-2.4,10.3-10.8,28-19.4,33.5l-1.2,0.9
				c-11,8.2-27.8,17.3-46.3,2.3c-2-2.7-14.4-20.1-15.4-37.6c0.7-17.6,3.6-31.9,8.6-42.5c13.8-29.2,40.2-35.3,45.4-36.2
				c13.4-2.4,23.9,3.7,31.4,8.1c5.6,3.3,10,5.9,14.3,4.1c2.5-1,4.2-3.2,5.2-6.5c1.5-5.1-0.6-10.7-5.7-15.8
				c-11.1-10.9-35.3-18-60.1-10.4l-0.7,0.3c-0.7,0.4-1.7,0.9-3,1.4c-8.8,4.1-29.5,13.7-38.9,32.7c-5.3,10.5-18.8,44.7-19.2,62.6
				c-0.2,10.8-0.1,13.2-0.1,14.5c0,0.9,0,0.9-0.4,6.7c-0.6,7.6-5.1,18.5-12.6,24.8c-4.3,3.6-9,5.2-14,4.7
				c-29.3-3.1-40.9-10.6-49.8-32.2c-3.5-8.6-2.5-34.2,0.1-46.4c1.5-7.2,11.3-28.5,23.3-37.1c11.4-8.1,27.8-10.5,38.2-10.1
				c0.6,0,1.6,0.2,2.2,0.8c0.5,0.6,0.5,1.7,0.4,2.3c-0.1,0.7-0.2,1.4-0.4,2c-0.3,1.3-0.6,2.8-0.6,4.4c0,2,0.8,6,3.8,8.2
				c2,1.5,4.6,1.9,7,1.1c6.9-1.8,8.7-7.7,9.8-11.6c1.7-5.7,1.5-15.3-4.6-23.5c-4.1-5.5-12.4-12.2-28.4-12.3l-0.4,0
				c-15.4-0.5-30.9,5.8-43.3,17.8c-3.2,3.1-19.4,20-27.8,53.8c-1.8,7.4-2.3,15.9-2.6,22.6c-0.2,3.2-0.3,6.2-0.6,8.5
				c-0.6,5.4-3.8,23.9-8,32.3c-3.3,6.6-10.5,15.4-19.9,18.3c-16.5,5.2-40.8-3.7-50.3-12.1c-10.2-9.1-10.8-24.1-11.4-36.1l-0.2-3.7
				c-0.7-13.3,7.7-31.9,12.3-38.9c27.9-41.9,49.4-31,53.4-28.5c3.5,2.3,4,5.2,4,6.8c0,0.7-0.1,1.1-0.1,1.1
				c-2.2,4.5-4.4,10.3-1.4,14.3c3.1,4.1,9.9,2.3,12.7,0.7c5.4-3,8.8-12.6,8.5-19.7c-0.4-8.2-1-15.1-6.3-22.2
				c-5.1-7-15.7-12.2-27.5-13.6c-14.5-1.7-28.6,2.5-39.7,11.9c-20.6,17.4-23.8,28.4-29.5,48.2l-0.5,1.6c-2.2,7.6-3.9,19.2-5.6,30.4
				c-1,6.9-2,13.5-3,18.8c-1,5.2-3.8,15.6-5.5,18.8c-3.3,6.5-16.7,27.2-49,22.3c-9.8-1.5-17-5.3-21.3-11.2
				c-3.1-4.2-3.8-8.4-3.9-10.4c3.6-2.6,7.6-5.1,11.5-7.4c2.8-1.7,5.6-3.4,8.2-5.1c5.6-3.7,55.2-37.7,55.9-80.6
				c0.1-7.3-1.1-20.8-10.4-29.8c-6.3-6.1-14.9-8.8-25.7-8.3c-21.4,1.1-49.3,16.8-60.3,85.6l-0.4,2.2c-0.5,2.9-1.1,10.9-1.7,18.5
				c-0.3,4.3-0.7,9.4-1,12.1c-3.5,1.3-10.9,3.7-16.9,5.1c3-9.2,6.8-23.3,8.5-33.6l0.3-2c2.2-12.9,8-47.2-13-71.4
				c-13.1-15.1-46-29.1-83-5.8l-0.4,0.3c-11.3,9-20,20.7-27.4,37c0-33.7,0.2-97.1,0.2-105.2c0.1-8.6,0.1-17.1,0.1-25.7
				c0-6.8,0-13.6,0.1-20.4c0-3.8,0.1-7.7,0.1-11.5c0.1-5.3,0.1-10.7,0.1-16c0-2.2-0.3-4.6-1.1-7.4c-0.8-3.2-3.7-5.9-7.2-6.8
				c-3.2-0.9-6.3-0.1-8.5,2.2c-3.3,3.3-5.5,8.5-5.7,13.2c-0.3,6.1-0.1,12.2,0.1,18.1c0.1,3.6,0.2,7.2,0.2,10.8
				c0,7.1-1.8,135.9-2,147.2c-0.1,7-2.1,34.4-3.4,40.9l-0.4,2.1c-5,28.8-8,46.1-19.1,57.7c-8,8.2-15.5,11.9-22.5,10.9
				c-8.8-1.3-15.2-9.7-17.9-14c6.7-8,23-29.4,30.5-43.2c13.9-25.6,18.5-49.4,18.9-54.4c1.7-18.5-3.1-29.6-17.1-39.6
				c-7-5-29.6-11-51.1,3.2c-8.8,5.8-29.4,23.6-32.4,63.5c-2,26.5,3.4,51.5,15.9,74.4c-3.2,2.5-9.4,6.2-14.8,3.5
				c-7.8-4-12.7-11-17.5-38.4c-2.7-15.5-3.5-31.2-2.3-46.8c0.6-8,2.3-16.3,3.9-24.3c0.7-3.4,1.4-6.8,2-10.1c0.4-2.3,0.9-4.6,1.4-7
				c0.7-3.2,1.4-6.5,1.9-9.9c0.5-3.4-0.2-6.4-2-8.5c-1.5-1.8-3.8-2.8-6.4-2.8h0c-3.6,0-7.1,2.7-8.9,5.3c-2.4,3.5-3.7,6.5-5.1,9.8
				c-1,2.4-2.1,4.9-3.7,7.9c-5.5,9.9-17.6,22.9-25.8,31.1c0.7-8.3,0.5-15.6,0.1-22.4c-0.5-8-5.1-24.8-18.7-31.8
				c-8.6-5.4-18-4.9-27.3,1.4c-13.5,8.7-21,25.6-20.6,46.1c-0.4,10.3,6.4,27.2,18.2,36.5c6.1,4.8,13.8,6.3,18.8,7
				c-8.3,30.7-49.8,78.3-54.3,82.8c-1.9,1.9-3.9,3.6-6,5.4c-1.9,1.6-3.7,3.2-5.5,4.9c-1.9,1.8-2.9,4.9-2.4,7.5
				c0.6,3.1,4.1,5.1,6.4,5.4c1.1,0.1,2.1,0.2,3.1,0.2c3.8,0,7-1,11.1-3.3c3.1-1.8,6.8-4.8,9.2-7.1c9.6-9,42.4-42.3,60.4-92.5
				c1.8-4.6,4.2-9.9,5.3-12.1c9.3-6.5,16.9-12.9,23.5-19.7c-0.1,0.5-0.1,1-0.2,1.5l-0.9,8.1c-1.7,15.8-1.4,47.9-0.5,58.7
				c1.9,24,11.1,41.7,25.3,48.6c10.9,5.3,23.8,3.5,36.4-5c3.9-2.6,7.2-6.5,10.3-10.2c0.6-0.7,1.1-1.4,1.7-2
				c7.2,6.1,25,19.6,40.8,19.9c19.1,0.5,31-8,38.3-27.2l2.6-6.9c0,2,0,3.8,0.1,5.3c0.2,7.1,1,14.6,1.7,21.1c0.5,4.1,5,9.1,9.5,9.1
				h0.1c5.6-0.1,9.4-3.1,10.1-8.1c0.1-0.8,0.3-4.3,1.1-17c0.7-10.7,1.5-24,1.8-27.1c0.5-5.2,2.8-21.4,3.7-27.2
				c0.4-2.8,3.2-12.4,5.2-19.4c0.9-3.1,1.7-6,2.3-8.1c8.4-30.9,32.3-42.2,32.5-42.2c22.6-9.4,47.3-4.1,53.5,6.8
				c10.3,18.1,9.8,34.3,5.8,53.1c-1.9,9.2-5.4,21-8.6,27.6c-2.9,0-8.4-0.4-15.8-1.7c-3.7-0.7-7.3-1.3-10.8-2
				c-12.6-2.4-23.4-4.5-32.6-3.6c-24.1,2.4-32.3,23-33.3,34.7c-0.7,7.7,1.5,14.8,6.3,20.5c7.2,8.5,18.4,12.2,26.6,12.8
				c19.9,1.5,43-9.3,53-17.5c4-3.3,14.1-16.5,17.9-21.6c8.8-1.4,20.8-4.5,27.3-6.3c1.9,9.9,7,31.7,23.4,38.5
				c34.4,14.2,55.2-0.4,65.2-7.4c1-0.7,2-1.4,2.8-1.9c5.7-3.7,15.4-14.5,21.2-21.2c3.7,7.3,10.9,19,21.2,25.6
				c6.1,3.9,27.4,16.2,47.5,12.2c22.3-4.5,35.1-21.4,36.5-23.4c1.3-1.8,3.1-4.8,4.8-7.6c11.4,16.1,22.9,23.2,30.9,26.2
				c33.5,12.9,56.7,3.7,70.2-6.4c2.3-1.7,4.4-4.7,6.7-7.9c0.8-1.2,1.7-2.5,2.6-3.6c1.3,1.2,2.5,2.5,3.7,3.7
				c10.9,10.8,20.3,20.2,40,19c29-1.8,44.2-25,51.6-42c1.1,6.1,2.4,12.2,3.7,15.7c3.3,8.5,11.3,23.8,20.5,27.1c3,1,5.9,0.8,8.5-0.7
				c2.6-1.5,5.9-5.2,6.6-9.1c0.1-0.5,0.2-1.1,0.2-1.6C1102.5,486.5,1101.9,484.8,1100.8,483.5z M1091.4,491.4
				c-0.2,0.1-0.5,0.3-1.2,0c-4.2-1.5-11.2-11.6-15.2-22c-1.7-4.3-3.5-15.3-4.8-22.6c-0.8-5-1.3-7.4-1.6-8.7l-1-3.2l-3.3,0.1
				l-3.4,0.4l-0.8,3.2c-2,8.2-13.9,49.2-49.1,51.4c-15.7,1-22.7-5.9-33.3-16.4c-2.2-2.2-4.5-4.5-7-6.8l-2.6-2.4l-2.9,2
				c-2.5,1.8-4.8,4.9-7.1,8.3c-1.6,2.2-3.5,5-4.7,5.9c-11.8,8.7-32.1,16.7-61.8,5.2c-7.5-2.9-18.7-10-29.9-27.7
				c-0.5-0.8-0.8-1.3-1-1.4l-3.4-4l-3.3,4.1c-0.4,0.5-0.7,1-2.4,3.8c-1.7,2.9-4.4,7.4-5.9,9.5c-1.2,1.6-12.1,16.1-31.1,19.9
				c-13.4,2.7-29.9-3.9-41-11c-13-8.3-20.6-27.7-20.7-27.8l-2.7-7l-4.8,5.8c-4.6,5.6-17.9,20.9-23.7,24.7c-0.9,0.6-2,1.3-3.1,2.1
				c-10.1,7-26.9,18.8-56.9,6.5c-13.4-5.5-17.3-27.1-18.5-34.2c-0.5-3-0.9-4.8-3.2-5.8l-1.4-0.6l-1.5,0.4
				c-0.2,0.1-20.9,6.1-32.4,7.6l-1.8,0.2l-1.1,1.5c-5.3,7.1-14.7,19.2-17.5,21.5c-8.7,7.1-29.5,16.9-46.8,15.6
				c-6.1-0.5-15.1-3.3-20.6-9.7c-3.3-3.9-4.8-8.7-4.3-14.1c0.8-9.1,7.1-25,25.5-26.8c7.9-0.8,18.2,1.2,30.1,3.5
				c3.5,0.7,7.1,1.4,10.9,2c12.5,2.2,19.9,1.8,20.2,1.8l2.3-0.1l1.2-2c4.2-7.1,8.4-21.4,10.7-32.4c3.8-17.9,5.5-37.5-6.8-59.2
				c-8.2-14.3-36.6-22.2-64.5-10.6c-0.3,0.1-27.9,12.6-37.6,48c-0.5,2-1.4,4.9-2.3,8c-2.8,9.7-5,17.4-5.4,20.6
				c-0.7,4.5-3.2,22-3.7,27.7c-0.3,3.2-1.1,16.1-1.8,27.4c-0.5,7.6-1,15.5-1.1,16.6c-0.1,0.1-0.4,0.2-1.1,0.3
				c-0.5-0.3-1.1-1.1-1.2-1.3c-0.7-6.4-1.5-13.6-1.7-20.3c-0.1-3.3-0.1-8.2-0.1-13c-0.1-14.5-0.2-15.2-0.5-16.2l-3.6-12.5
				l-15.4,40.3c-7,18.3-17.2,21.9-30,21.6c-16.7-0.3-38.1-20.3-38.3-20.5l-3.1-2.9l-3,3c-1.7,1.7-3.3,3.7-5,5.5
				c-2.8,3.2-5.6,6.6-8.5,8.6c-10,6.8-19.6,8.2-27.7,4.3c-11.1-5.4-18.8-20.9-20.4-41.4c-0.8-10.2-1.1-42,0.5-57.1l0.9-8.1
				c1.8-15.5,1.7-15.6,1.7-16.3l-1.1-10.8l-6.7,8.6c-8.4,10.8-18.2,19.8-31.9,29.3l-1,0.7l-0.5,1.1c-0.1,0.3-3.5,7.4-6,13.8
				c-17.4,48.5-48.9,80.6-58.2,89.2c-2.1,2-5.3,4.6-7.5,5.9c-2.3,1.3-3.9,1.9-5.5,2.1c0.9-0.8,1.9-1.7,2.8-2.5
				c2.1-1.8,4.3-3.7,6.4-5.8c0.5-0.5,51.9-56.4,57.8-91.8l0.4-2l-1.2-1.6c-1.2-1.7-2.9-1.9-5-2.1c-3.5-0.3-11.7-1.1-17.2-5.4
				c-9.2-7.3-15.2-21.3-14.9-29.6c-0.4-17.7,5.7-31.8,16.7-38.9c3.6-2.4,6.9-3.6,10.2-3.6c2.6,0,5.2,0.8,7.8,2.4l0.4,0.2
				c10.6,5.3,13.8,19.5,14.1,24.6c0.6,9.4,0.8,19.8-1.7,32.5l-1.9,9.8l8.5-5.3c2.6-1.6,27.5-24.8,37.2-42c1.9-3.4,3.1-6.2,4.2-8.8
				c1.2-2.9,2.3-5.5,4.2-8.2c0.4-0.6,1.1-1.1,1.5-1.4c0,0.3,0,0.6-0.1,1c-0.5,3.1-1.2,6.3-1.8,9.5c-0.5,2.4-1,4.8-1.4,7.2
				c-0.6,3.3-1.3,6.6-2,10c-1.7,8.2-3.4,16.8-4,25.4c-1.2,16.3-0.4,32.8,2.4,48.9c4.8,27.8,10.2,38.7,22.1,44.7
				c13.1,6.6,25.9-5.7,27.3-7.1c2.5-2.4,0.9-5.3-0.2-7.2c-12.2-21.6-17.4-45.4-15.5-70.7c2.7-36,20.9-51.7,28.5-56.8
				c19.7-13,38.3-5.4,41.2-3.4c11.4,8.1,14.9,16.3,13.4,31.6c-0.4,4.3-4.9,26.9-17.9,51c-2.9,5.4-7.1,11.8-11.5,18
				c4.5-6.9,9-15.4,12.7-25.7c0.1-0.4,0.4-0.9,0.6-1.6c2.5-6.2,9.2-22.5,5.9-45.8c-0.8-5.6-5.5-13.6-14-17.6
				c-7.7-3.7-16.6-3.1-24.9,1.9c-29.9,17.7-33.4,53.3-28.4,72.9c6.3,24.8,16.2,36.8,19.1,40l0.8,2.1l7.7,0l-1.9,1.4l1.8,3.4
				c1.6,3.1,10.6,18.9,25.9,21.1c10,1.4,20.1-3.1,30.1-13.5c13.1-13.5,16.4-32.9,21.5-62.3l0.4-2c1.4-7.5,3.4-35.6,3.5-42.3
				c0.2-12.1,2.1-139.8,2-147.4c0-3.7-0.1-7.4-0.2-11.1c-0.2-5.8-0.4-11.7-0.1-17.5c0.1-2.6,1.4-5.7,3-7.4c0.3,0,1.1,0.4,1.2,0.6
				c0.5,2.1,0.8,3.8,0.8,5.2c0,5.3-0.1,10.6-0.1,15.9c0,3.8-0.1,7.7-0.1,11.5c0,6.8,0,13.6-0.1,20.4c0,8.5,0,17.1-0.1,25.7
				c0,1.2-0.6,125.6,0.1,127.7l3.7,10.9l7-16.5c1.7-4.1,3.4-8.2,5.2-12.1c6.9-15.5,15-26.5,25.3-34.8c34.8-21.8,62-6.7,71.5,4.3
				c18.2,21,13,52.4,11,64.2l-0.4,2.1c-2,12.8-7.9,32.7-10.6,38.9l-2.9,6.5l7.1-0.4c7.6-0.4,26.8-6.8,29.4-8.2
				c2.4-1.3,2.4-1.3,3.7-18.4c0.6-7.1,1.2-15.2,1.6-17.7l0.4-2.4c10.1-63,33.9-77.3,52.1-78.3c8.3-0.4,14.7,1.6,19.2,5.9
				c5.1,4.9,7.9,13.5,7.8,23.4c-0.6,39.1-49.9,72.1-52,73.5c-2.6,1.7-5.2,3.3-7.9,4.9c-4.6,2.8-9.4,5.7-13.8,9
				c-3,2.3-2,8.1-1.2,11.3c1.6,6.2,7.9,21.1,31.9,24.8c38.1,5.9,54.1-19.1,58.1-26.9c2.4-4.8,5.4-16.8,6.2-21.1
				c1.1-5.5,2.1-12.2,3.1-19.2c1.6-10.9,3.3-22.1,5.3-29.2l0.5-1.7c5.6-19.4,8.1-28.2,26.8-43.9c12.4-10.5,26-10.7,33-9.8
				c10.6,1.3,18.4,6,21.4,10.1c3.8,5.2,4.3,10.3,4.6,17.5c0.2,5.2-2.5,10.8-3.9,11.6c-0.2,0.1-0.6,0.3-0.9,0.4
				c0.3-0.9,0.8-2.2,1.6-3.9c1.9-3.8,1.7-13.3-7.1-19c-5.2-3.4-33-17.8-65.5,30.9c-4.7,7-14.7,27.9-13.8,44.2l0.2,3.6
				c0.6,13,1.4,30.7,14.3,42.3c11,9.8,38.3,20.5,58.8,14c15.5-4.9,23.6-19.8,25.1-22.8c5.1-10.3,8.3-30.7,8.8-35.2
				c0.3-2.6,0.5-5.8,0.6-9.1c0.3-6.8,0.7-14.4,2.4-21c7.8-31.4,22.5-46.9,25.4-49.6c10.7-10.3,23.9-15.8,37-15.4l0.7,0
				c9.8,0.1,17.2,3.1,21.4,8.8c3.9,5.2,4.4,11.9,3.2,15.8c-1.2,3.9-1.8,5-3.3,5.5c-0.1-0.2-0.1-0.5-0.1-0.6c0-0.7,0.2-1.7,0.4-2.7
				c0.2-1,0.4-1.9,0.5-2.9c0.4-3.5-0.5-6.7-2.5-9c-2-2.3-5-3.7-8.5-3.8c-11.8-0.4-30.4,2.3-43.6,11.7c-13.8,9.8-24.8,32.8-26.8,42.4
				c-2.5,11.8-4.2,40.3,0.4,51.5c10.2,24.7,24.5,34.2,57,37.6c7.3,0.8,14.5-1.5,20.6-6.6c9.8-8.2,15.1-21.8,15.7-30.9
				c0.5-6.1,0.5-6.2,0.4-7.7c0-1.1-0.1-3.4,0.1-14c0.3-15.2,12.2-46.9,18.2-58.9c8.1-16.2,26.2-24.6,34.8-28.6
				c1.2-0.5,2.1-1,2.9-1.4c23.9-7.2,43.6,1.1,51,8.4c2.7,2.7,4,5.3,3.5,7.1c-0.1,0.3-0.1,0.5-0.2,0.7c-1.4-0.4-4.3-2.1-6.4-3.4
				c-8.3-4.9-20.8-12.2-37.4-9.2c-5.9,1.1-36.2,8.1-51.8,41.1c-5.5,11.7-8.7,27.2-9.5,46.1v0.2l0,0.2c1.1,21.7,16.9,42.2,17.5,43.1
				l0.7,0.7c17.3,14.3,36.6,13.8,57.5-1.7l0.8-0.6c10.7-6.8,20.2-26.6,23-38.5c5.1-13.6,3-50.1,2.5-53c-0.2-0.9-0.3-1.4,2.2-2.6
				c0.6-0.3,1.7-0.1,2.7,0.6c1.2,0.9,2.1,2.3,2,3.3c-0.1,1.4-0.1,4.2-0.1,7.3c0,0.9,0,1.6,0,1.9c0,0.4-0.1,2-0.1,4.5
				c-0.6,17.3-1.1,35.5-1,38.4c1,17,3.9,27.5,6.2,35.9l0.5,1.8c2.1,7.6,10,23.6,14.7,29.7C1093.4,489.4,1092.2,490.9,1091.4,491.4z
				 M431,398.3c-8.9,24.7-22.8,38.4-29.2,44.1c-3.6-4.8-10.2-15.4-14.8-33.5c-3-11.8-4.5-46.1,24.4-63.2c3.4-2,6.8-3,10.1-3
				c2.3,0,4.5,0.5,6.6,1.5c5.6,2.7,8.7,8,9.1,11c3,20.9-3.1,35.7-5.3,41.2C431.5,397.2,431.2,397.8,431,398.3z M420.2,435.6
				c-4.5,6.1-8.6,11.3-11.1,14.3l-1.3-1.2C410.8,446.1,415.3,441.8,420.2,435.6z M677.2,415.9c6.3-4.5,22.8-18.8,31.4-27.8
				c7.6-8,14.4-21.7,12.5-34.6c-1.1-7.7-5.3-13.9-12.1-17.7c-13.5-7.7-31,5.5-39.1,17.2c-1.7,2.5-5.2,8.1-8.9,15
				c-3.6,6.9-7.3,15-9.4,22.4c-3,11-3.1,35.2-3.1,36.2v8.1l6.8-4.4C656,429.8,673.7,418.4,677.2,415.9z M658.2,405
				c0.4-4.7,1-9.1,1.8-12.2c3.8-14,14.4-31,17-34.8c5.1-7.4,15.1-15.8,23-15.8c1.6,0,3.2,0.3,4.5,1.1c4.4,2.5,7.1,6.4,7.8,11.4
				c1.4,9.4-4.1,20.9-10.1,27.3c-8.3,8.7-24.2,22.4-30.2,26.8c-2,1.4-9.1,6.1-14.6,9.7C657.6,414.5,657.8,409.6,658.2,405z
				 M576.6,446.7c-2.5-0.5-4.8-1-6.8-1.4c-7.9-1.7-14.7-3.2-29.9-1.5c-11,1.2-25.5,11.1-26.6,20.8c-0.7,5.4,1.3,9,3.1,11
				c5.2,5.8,15.3,6.4,22.7,6.4c1.1,0,2.1,0,3.1,0c21.6-0.3,39.6-8.4,53.7-24.2l4.9-5.5l-7.1-1.7C593.1,450.4,581,447.5,576.6,446.7z
				 M564.8,469c-7,2.7-14.6,4-22.8,4.2c-5.1,0.1-15.9,0.2-19.2-3.5c-0.5-0.6-1.2-1.7-0.9-4c0.5-4,10.2-12.1,18.9-13.1
				c4.5-0.5,8.1-0.7,11.2-0.7c6.4,0,10.7,0.9,15.9,2.1c2.2,0.5,4.5,1,7.2,1.5c1.9,0.3,5.6,1.2,9,1.9
				C578.2,462.4,571.8,466.3,564.8,469z M280,334.4c-4-2.9-8.4-3.7-12.7-2.3c-10.5,3.4-20.2,13.5-15.6,31.2
				c2.1,8.3,15.2,23.5,24.1,28.1c2,1,3.9,1.6,5.6,1.6c0.9,0,1.8-0.2,2.6-0.5l1.9-0.7l0.7-1.9c0.2-0.6,5.7-15.9,5.7-31.2
				C292.3,351.4,287.3,339.6,280,334.4z M260.2,361.1c-3.6-14,4.6-19,9.8-20.7c0.4-0.1,0.9-0.2,1.4-0.2c0.9,0,2,0.3,3.5,1.3
				c5,3.6,8.6,12.8,8.6,17.2c0,9.7-2.6,19.7-4.1,24.8C273.7,380.3,261.8,367.4,260.2,361.1z M280,334.4c-4-2.9-8.4-3.7-12.7-2.3
				c-10.5,3.4-20.2,13.5-15.6,31.2c2.1,8.3,15.2,23.5,24.1,28.1c2,1,3.9,1.6,5.6,1.6c0.9,0,1.8-0.2,2.6-0.5l1.9-0.7l0.7-1.9
				c0.2-0.6,5.7-15.9,5.7-31.2C292.3,351.4,287.3,339.6,280,334.4z M260.2,361.1c-3.6-14,4.6-19,9.8-20.7c0.4-0.1,0.9-0.2,1.4-0.2
				c0.9,0,2,0.3,3.5,1.3c5,3.6,8.6,12.8,8.6,17.2c0,9.7-2.6,19.7-4.1,24.8C273.7,380.3,261.8,367.4,260.2,361.1z M593.6,450.5
				c-0.5-0.1-12.6-3-17-3.8c-2.5-0.5-4.8-1-6.8-1.4c-7.9-1.7-14.7-3.2-29.9-1.5c-11,1.2-25.5,11.1-26.6,20.8c-0.7,5.4,1.3,9,3.1,11
				c5.2,5.8,15.3,6.4,22.7,6.4c1.1,0,2.1,0,3.1,0c21.6-0.3,39.6-8.4,53.7-24.2l4.9-5.5L593.6,450.5z M564.8,469
				c-7,2.7-14.6,4-22.8,4.2c-5.1,0.1-15.9,0.2-19.2-3.5c-0.5-0.6-1.2-1.7-0.9-4c0.5-4,10.2-12.1,18.9-13.1c4.5-0.5,8.1-0.7,11.2-0.7
				c6.4,0,10.7,0.9,15.9,2.1c2.2,0.5,4.5,1,7.2,1.5c1.9,0.3,5.6,1.2,9,1.9C578.2,462.4,571.8,466.3,564.8,469z M721.1,353.5
				c-1.1-7.7-5.3-13.9-12.1-17.7c-13.5-7.7-31,5.5-39.1,17.2c-1.7,2.5-5.2,8.1-8.9,15c-3.6,6.9-7.3,15-9.4,22.4
				c-3,11-3.1,35.2-3.1,36.2v8.1l6.8-4.4c0.8-0.5,18.4-11.9,21.9-14.5c6.3-4.5,22.8-18.8,31.4-27.8
				C716.2,380.1,723,366.3,721.1,353.5z M672.1,408.8c-2,1.4-9.1,6.1-14.6,9.7c0.1-4,0.3-8.8,0.8-13.5c0.4-4.7,1-9.1,1.8-12.2
				c3.8-14,14.4-31,17-34.8c5.1-7.4,15.1-15.8,23-15.8c1.6,0,3.2,0.3,4.5,1.1c4.4,2.5,7.1,6.4,7.8,11.4c1.4,9.4-4.1,20.9-10.1,27.3
				C694,390.7,678.1,404.4,672.1,408.8z M721.1,353.5c-1.1-7.7-5.3-13.9-12.1-17.7c-13.5-7.7-31,5.5-39.1,17.2
				c-1.7,2.5-5.2,8.1-8.9,15c-3.6,6.9-7.3,15-9.4,22.4c-3,11-3.1,35.2-3.1,36.2v8.1l6.8-4.4c0.8-0.5,18.4-11.9,21.9-14.5
				c6.3-4.5,22.8-18.8,31.4-27.8C716.2,380.1,723,366.3,721.1,353.5z M672.1,408.8c-2,1.4-9.1,6.1-14.6,9.7c0.1-4,0.3-8.8,0.8-13.5
				c0.4-4.7,1-9.1,1.8-12.2c3.8-14,14.4-31,17-34.8c5.1-7.4,15.1-15.8,23-15.8c1.6,0,3.2,0.3,4.5,1.1c4.4,2.5,7.1,6.4,7.8,11.4
				c1.4,9.4-4.1,20.9-10.1,27.3C694,390.7,678.1,404.4,672.1,408.8z M593.6,450.5c-0.5-0.1-12.6-3-17-3.8c-2.5-0.5-4.8-1-6.8-1.4
				c-7.9-1.7-14.7-3.2-29.9-1.5c-11,1.2-25.5,11.1-26.6,20.8c-0.7,5.4,1.3,9,3.1,11c5.2,5.8,15.3,6.4,22.7,6.4c1.1,0,2.1,0,3.1,0
				c21.6-0.3,39.6-8.4,53.7-24.2l4.9-5.5L593.6,450.5z M564.8,469c-7,2.7-14.6,4-22.8,4.2c-5.1,0.1-15.9,0.2-19.2-3.5
				c-0.5-0.6-1.2-1.7-0.9-4c0.5-4,10.2-12.1,18.9-13.1c4.5-0.5,8.1-0.7,11.2-0.7c6.4,0,10.7,0.9,15.9,2.1c2.2,0.5,4.5,1,7.2,1.5
				c1.9,0.3,5.6,1.2,9,1.9C578.2,462.4,571.8,466.3,564.8,469z M280,334.4c-4-2.9-8.4-3.7-12.7-2.3c-10.5,3.4-20.2,13.5-15.6,31.2
				c2.1,8.3,15.2,23.5,24.1,28.1c2,1,3.9,1.6,5.6,1.6c0.9,0,1.8-0.2,2.6-0.5l1.9-0.7l0.7-1.9c0.2-0.6,5.7-15.9,5.7-31.2
				C292.3,351.4,287.3,339.6,280,334.4z M260.2,361.1c-3.6-14,4.6-19,9.8-20.7c0.4-0.1,0.9-0.2,1.4-0.2c0.9,0,2,0.3,3.5,1.3
				c5,3.6,8.6,12.8,8.6,17.2c0,9.7-2.6,19.7-4.1,24.8C273.7,380.3,261.8,367.4,260.2,361.1z M280,334.4c-4-2.9-8.4-3.7-12.7-2.3
				c-10.5,3.4-20.2,13.5-15.6,31.2c2.1,8.3,15.2,23.5,24.1,28.1c2,1,3.9,1.6,5.6,1.6c0.9,0,1.8-0.2,2.6-0.5l1.9-0.7l0.7-1.9
				c0.2-0.6,5.7-15.9,5.7-31.2C292.3,351.4,287.3,339.6,280,334.4z M260.2,361.1c-3.6-14,4.6-19,9.8-20.7c0.4-0.1,0.9-0.2,1.4-0.2
				c0.9,0,2,0.3,3.5,1.3c5,3.6,8.6,12.8,8.6,17.2c0,9.7-2.6,19.7-4.1,24.8C273.7,380.3,261.8,367.4,260.2,361.1z M593.6,450.5
				c-0.5-0.1-12.6-3-17-3.8c-2.5-0.5-4.8-1-6.8-1.4c-7.9-1.7-14.7-3.2-29.9-1.5c-11,1.2-25.5,11.1-26.6,20.8c-0.7,5.4,1.3,9,3.1,11
				c5.2,5.8,15.3,6.4,22.7,6.4c1.1,0,2.1,0,3.1,0c21.6-0.3,39.6-8.4,53.7-24.2l4.9-5.5L593.6,450.5z M564.8,469
				c-7,2.7-14.6,4-22.8,4.2c-5.1,0.1-15.9,0.2-19.2-3.5c-0.5-0.6-1.2-1.7-0.9-4c0.5-4,10.2-12.1,18.9-13.1c4.5-0.5,8.1-0.7,11.2-0.7
				c6.4,0,10.7,0.9,15.9,2.1c2.2,0.5,4.5,1,7.2,1.5c1.9,0.3,5.6,1.2,9,1.9C578.2,462.4,571.8,466.3,564.8,469z M721.1,353.5
				c-1.1-7.7-5.3-13.9-12.1-17.7c-13.5-7.7-31,5.5-39.1,17.2c-1.7,2.5-5.2,8.1-8.9,15c-3.6,6.9-7.3,15-9.4,22.4
				c-3,11-3.1,35.2-3.1,36.2v8.1l6.8-4.4c0.8-0.5,18.4-11.9,21.9-14.5c6.3-4.5,22.8-18.8,31.4-27.8
				C716.2,380.1,723,366.3,721.1,353.5z M672.1,408.8c-2,1.4-9.1,6.1-14.6,9.7c0.1-4,0.3-8.8,0.8-13.5c0.4-4.7,1-9.1,1.8-12.2
				c3.8-14,14.4-31,17-34.8c5.1-7.4,15.1-15.8,23-15.8c1.6,0,3.2,0.3,4.5,1.1c4.4,2.5,7.1,6.4,7.8,11.4c1.4,9.4-4.1,20.9-10.1,27.3
				C694,390.7,678.1,404.4,672.1,408.8z M721.1,353.5c-1.1-7.7-5.3-13.9-12.1-17.7c-13.5-7.7-31,5.5-39.1,17.2
				c-1.7,2.5-5.2,8.1-8.9,15c-3.6,6.9-7.3,15-9.4,22.4c-3,11-3.1,35.2-3.1,36.2v8.1l6.8-4.4c0.8-0.5,18.4-11.9,21.9-14.5
				c6.3-4.5,22.8-18.8,31.4-27.8C716.2,380.1,723,366.3,721.1,353.5z M672.1,408.8c-2,1.4-9.1,6.1-14.6,9.7c0.1-4,0.3-8.8,0.8-13.5
				c0.4-4.7,1-9.1,1.8-12.2c3.8-14,14.4-31,17-34.8c5.1-7.4,15.1-15.8,23-15.8c1.6,0,3.2,0.3,4.5,1.1c4.4,2.5,7.1,6.4,7.8,11.4
				c1.4,9.4-4.1,20.9-10.1,27.3C694,390.7,678.1,404.4,672.1,408.8z M593.6,450.5c-0.5-0.1-12.6-3-17-3.8c-2.5-0.5-4.8-1-6.8-1.4
				c-7.9-1.7-14.7-3.2-29.9-1.5c-11,1.2-25.5,11.1-26.6,20.8c-0.7,5.4,1.3,9,3.1,11c5.2,5.8,15.3,6.4,22.7,6.4c1.1,0,2.1,0,3.1,0
				c21.6-0.3,39.6-8.4,53.7-24.2l4.9-5.5L593.6,450.5z M564.8,469c-7,2.7-14.6,4-22.8,4.2c-5.1,0.1-15.9,0.2-19.2-3.5
				c-0.5-0.6-1.2-1.7-0.9-4c0.5-4,10.2-12.1,18.9-13.1c4.5-0.5,8.1-0.7,11.2-0.7c6.4,0,10.7,0.9,15.9,2.1c2.2,0.5,4.5,1,7.2,1.5
				c1.9,0.3,5.6,1.2,9,1.9C578.2,462.4,571.8,466.3,564.8,469z M280,334.4c-4-2.9-8.4-3.7-12.7-2.3c-10.5,3.4-20.2,13.5-15.6,31.2
				c2.1,8.3,15.2,23.5,24.1,28.1c2,1,3.9,1.6,5.6,1.6c0.9,0,1.8-0.2,2.6-0.5l1.9-0.7l0.7-1.9c0.2-0.6,5.7-15.9,5.7-31.2
				C292.3,351.4,287.3,339.6,280,334.4z M260.2,361.1c-3.6-14,4.6-19,9.8-20.7c0.4-0.1,0.9-0.2,1.4-0.2c0.9,0,2,0.3,3.5,1.3
				c5,3.6,8.6,12.8,8.6,17.2c0,9.7-2.6,19.7-4.1,24.8C273.7,380.3,261.8,367.4,260.2,361.1z M280,334.4c-4-2.9-8.4-3.7-12.7-2.3
				c-10.5,3.4-20.2,13.5-15.6,31.2c2.1,8.3,15.2,23.5,24.1,28.1c2,1,3.9,1.6,5.6,1.6c0.9,0,1.8-0.2,2.6-0.5l1.9-0.7l0.7-1.9
				c0.2-0.6,5.7-15.9,5.7-31.2C292.3,351.4,287.3,339.6,280,334.4z M260.2,361.1c-3.6-14,4.6-19,9.8-20.7c0.4-0.1,0.9-0.2,1.4-0.2
				c0.9,0,2,0.3,3.5,1.3c5,3.6,8.6,12.8,8.6,17.2c0,9.7-2.6,19.7-4.1,24.8C273.7,380.3,261.8,367.4,260.2,361.1z M593.6,450.5
				c-0.5-0.1-12.6-3-17-3.8c-2.5-0.5-4.8-1-6.8-1.4c-7.9-1.7-14.7-3.2-29.9-1.5c-11,1.2-25.5,11.1-26.6,20.8c-0.7,5.4,1.3,9,3.1,11
				c5.2,5.8,15.3,6.4,22.7,6.4c1.1,0,2.1,0,3.1,0c21.6-0.3,39.6-8.4,53.7-24.2l4.9-5.5L593.6,450.5z M564.8,469
				c-7,2.7-14.6,4-22.8,4.2c-5.1,0.1-15.9,0.2-19.2-3.5c-0.5-0.6-1.2-1.7-0.9-4c0.5-4,10.2-12.1,18.9-13.1c4.5-0.5,8.1-0.7,11.2-0.7
				c6.4,0,10.7,0.9,15.9,2.1c2.2,0.5,4.5,1,7.2,1.5c1.9,0.3,5.6,1.2,9,1.9C578.2,462.4,571.8,466.3,564.8,469z M721.1,353.5
				c-1.1-7.7-5.3-13.9-12.1-17.7c-13.5-7.7-31,5.5-39.1,17.2c-1.7,2.5-5.2,8.1-8.9,15c-3.6,6.9-7.3,15-9.4,22.4
				c-3,11-3.1,35.2-3.1,36.2v8.1l6.8-4.4c0.8-0.5,18.4-11.9,21.9-14.5c6.3-4.5,22.8-18.8,31.4-27.8
				C716.2,380.1,723,366.3,721.1,353.5z M672.1,408.8c-2,1.4-9.1,6.1-14.6,9.7c0.1-4,0.3-8.8,0.8-13.5c0.4-4.7,1-9.1,1.8-12.2
				c3.8-14,14.4-31,17-34.8c5.1-7.4,15.1-15.8,23-15.8c1.6,0,3.2,0.3,4.5,1.1c4.4,2.5,7.1,6.4,7.8,11.4c1.4,9.4-4.1,20.9-10.1,27.3
				C694,390.7,678.1,404.4,672.1,408.8z M721.1,353.5c-1.1-7.7-5.3-13.9-12.1-17.7c-13.5-7.7-31,5.5-39.1,17.2
				c-1.7,2.5-5.2,8.1-8.9,15c-3.6,6.9-7.3,15-9.4,22.4c-3,11-3.1,35.2-3.1,36.2v8.1l6.8-4.4c0.8-0.5,18.4-11.9,21.9-14.5
				c6.3-4.5,22.8-18.8,31.4-27.8C716.2,380.1,723,366.3,721.1,353.5z M672.1,408.8c-2,1.4-9.1,6.1-14.6,9.7c0.1-4,0.3-8.8,0.8-13.5
				c0.4-4.7,1-9.1,1.8-12.2c3.8-14,14.4-31,17-34.8c5.1-7.4,15.1-15.8,23-15.8c1.6,0,3.2,0.3,4.5,1.1c4.4,2.5,7.1,6.4,7.8,11.4
				c1.4,9.4-4.1,20.9-10.1,27.3C694,390.7,678.1,404.4,672.1,408.8z M593.6,450.5c-0.5-0.1-12.6-3-17-3.8c-2.5-0.5-4.8-1-6.8-1.4
				c-7.9-1.7-14.7-3.2-29.9-1.5c-11,1.2-25.5,11.1-26.6,20.8c-0.7,5.4,1.3,9,3.1,11c5.2,5.8,15.3,6.4,22.7,6.4c1.1,0,2.1,0,3.1,0
				c21.6-0.3,39.6-8.4,53.7-24.2l4.9-5.5L593.6,450.5z M564.8,469c-7,2.7-14.6,4-22.8,4.2c-5.1,0.1-15.9,0.2-19.2-3.5
				c-0.5-0.6-1.2-1.7-0.9-4c0.5-4,10.2-12.1,18.9-13.1c4.5-0.5,8.1-0.7,11.2-0.7c6.4,0,10.7,0.9,15.9,2.1c2.2,0.5,4.5,1,7.2,1.5
				c1.9,0.3,5.6,1.2,9,1.9C578.2,462.4,571.8,466.3,564.8,469z M280,334.4c-4-2.9-8.4-3.7-12.7-2.3c-10.5,3.4-20.2,13.5-15.6,31.2
				c2.1,8.3,15.2,23.5,24.1,28.1c2,1,3.9,1.6,5.6,1.6c0.9,0,1.8-0.2,2.6-0.5l1.9-0.7l0.7-1.9c0.2-0.6,5.7-15.9,5.7-31.2
				C292.3,351.4,287.3,339.6,280,334.4z M260.2,361.1c-3.6-14,4.6-19,9.8-20.7c0.4-0.1,0.9-0.2,1.4-0.2c0.9,0,2,0.3,3.5,1.3
				c5,3.6,8.6,12.8,8.6,17.2c0,9.7-2.6,19.7-4.1,24.8C273.7,380.3,261.8,367.4,260.2,361.1z M280,334.4c-4-2.9-8.4-3.7-12.7-2.3
				c-10.5,3.4-20.2,13.5-15.6,31.2c2.1,8.3,15.2,23.5,24.1,28.1c2,1,3.9,1.6,5.6,1.6c0.9,0,1.8-0.2,2.6-0.5l1.9-0.7l0.7-1.9
				c0.2-0.6,5.7-15.9,5.7-31.2C292.3,351.4,287.3,339.6,280,334.4z M260.2,361.1c-3.6-14,4.6-19,9.8-20.7c0.4-0.1,0.9-0.2,1.4-0.2
				c0.9,0,2,0.3,3.5,1.3c5,3.6,8.6,12.8,8.6,17.2c0,9.7-2.6,19.7-4.1,24.8C273.7,380.3,261.8,367.4,260.2,361.1z M593.6,450.5
				c-0.5-0.1-12.6-3-17-3.8c-2.5-0.5-4.8-1-6.8-1.4c-7.9-1.7-14.7-3.2-29.9-1.5c-11,1.2-25.5,11.1-26.6,20.8c-0.7,5.4,1.3,9,3.1,11
				c5.2,5.8,15.3,6.4,22.7,6.4c1.1,0,2.1,0,3.1,0c21.6-0.3,39.6-8.4,53.7-24.2l4.9-5.5L593.6,450.5z M564.8,469
				c-7,2.7-14.6,4-22.8,4.2c-5.1,0.1-15.9,0.2-19.2-3.5c-0.5-0.6-1.2-1.7-0.9-4c0.5-4,10.2-12.1,18.9-13.1c4.5-0.5,8.1-0.7,11.2-0.7
				c6.4,0,10.7,0.9,15.9,2.1c2.2,0.5,4.5,1,7.2,1.5c1.9,0.3,5.6,1.2,9,1.9C578.2,462.4,571.8,466.3,564.8,469z M721.1,353.5
				c-1.1-7.7-5.3-13.9-12.1-17.7c-13.5-7.7-31,5.5-39.1,17.2c-1.7,2.5-5.2,8.1-8.9,15c-3.6,6.9-7.3,15-9.4,22.4
				c-3,11-3.1,35.2-3.1,36.2v8.1l6.8-4.4c0.8-0.5,18.4-11.9,21.9-14.5c6.3-4.5,22.8-18.8,31.4-27.8
				C716.2,380.1,723,366.3,721.1,353.5z M672.1,408.8c-2,1.4-9.1,6.1-14.6,9.7c0.1-4,0.3-8.8,0.8-13.5c0.4-4.7,1-9.1,1.8-12.2
				c3.8-14,14.4-31,17-34.8c5.1-7.4,15.1-15.8,23-15.8c1.6,0,3.2,0.3,4.5,1.1c4.4,2.5,7.1,6.4,7.8,11.4c1.4,9.4-4.1,20.9-10.1,27.3
				C694,390.7,678.1,404.4,672.1,408.8z M721.1,353.5c-1.1-7.7-5.3-13.9-12.1-17.7c-13.5-7.7-31,5.5-39.1,17.2
				c-1.7,2.5-5.2,8.1-8.9,15c-3.6,6.9-7.3,15-9.4,22.4c-3,11-3.1,35.2-3.1,36.2v8.1l6.8-4.4c0.8-0.5,18.4-11.9,21.9-14.5
				c6.3-4.5,22.8-18.8,31.4-27.8C716.2,380.1,723,366.3,721.1,353.5z M672.1,408.8c-2,1.4-9.1,6.1-14.6,9.7c0.1-4,0.3-8.8,0.8-13.5
				c0.4-4.7,1-9.1,1.8-12.2c3.8-14,14.4-31,17-34.8c5.1-7.4,15.1-15.8,23-15.8c1.6,0,3.2,0.3,4.5,1.1c4.4,2.5,7.1,6.4,7.8,11.4
				c1.4,9.4-4.1,20.9-10.1,27.3C694,390.7,678.1,404.4,672.1,408.8z M593.6,450.5c-0.5-0.1-12.6-3-17-3.8c-2.5-0.5-4.8-1-6.8-1.4
				c-7.9-1.7-14.7-3.2-29.9-1.5c-11,1.2-25.5,11.1-26.6,20.8c-0.7,5.4,1.3,9,3.1,11c5.2,5.8,15.3,6.4,22.7,6.4c1.1,0,2.1,0,3.1,0
				c21.6-0.3,39.6-8.4,53.7-24.2l4.9-5.5L593.6,450.5z M564.8,469c-7,2.7-14.6,4-22.8,4.2c-5.1,0.1-15.9,0.2-19.2-3.5
				c-0.5-0.6-1.2-1.7-0.9-4c0.5-4,10.2-12.1,18.9-13.1c4.5-0.5,8.1-0.7,11.2-0.7c6.4,0,10.7,0.9,15.9,2.1c2.2,0.5,4.5,1,7.2,1.5
				c1.9,0.3,5.6,1.2,9,1.9C578.2,462.4,571.8,466.3,564.8,469z M280,334.4c-4-2.9-8.4-3.7-12.7-2.3c-10.5,3.4-20.2,13.5-15.6,31.2
				c2.1,8.3,15.2,23.5,24.1,28.1c2,1,3.9,1.6,5.6,1.6c0.9,0,1.8-0.2,2.6-0.5l1.9-0.7l0.7-1.9c0.2-0.6,5.7-15.9,5.7-31.2
				C292.3,351.4,287.3,339.6,280,334.4z M260.2,361.1c-3.6-14,4.6-19,9.8-20.7c0.4-0.1,0.9-0.2,1.4-0.2c0.9,0,2,0.3,3.5,1.3
				c5,3.6,8.6,12.8,8.6,17.2c0,9.7-2.6,19.7-4.1,24.8C273.7,380.3,261.8,367.4,260.2,361.1z M280,334.4c-4-2.9-8.4-3.7-12.7-2.3
				c-10.5,3.4-20.2,13.5-15.6,31.2c2.1,8.3,15.2,23.5,24.1,28.1c2,1,3.9,1.6,5.6,1.6c0.9,0,1.8-0.2,2.6-0.5l1.9-0.7l0.7-1.9
				c0.2-0.6,5.7-15.9,5.7-31.2C292.3,351.4,287.3,339.6,280,334.4z M260.2,361.1c-3.6-14,4.6-19,9.8-20.7c0.4-0.1,0.9-0.2,1.4-0.2
				c0.9,0,2,0.3,3.5,1.3c5,3.6,8.6,12.8,8.6,17.2c0,9.7-2.6,19.7-4.1,24.8C273.7,380.3,261.8,367.4,260.2,361.1z M593.6,450.5
				c-0.5-0.1-12.6-3-17-3.8c-2.5-0.5-4.8-1-6.8-1.4c-7.9-1.7-14.7-3.2-29.9-1.5c-11,1.2-25.5,11.1-26.6,20.8c-0.7,5.4,1.3,9,3.1,11
				c5.2,5.8,15.3,6.4,22.7,6.4c1.1,0,2.1,0,3.1,0c21.6-0.3,39.6-8.4,53.7-24.2l4.9-5.5L593.6,450.5z M564.8,469
				c-7,2.7-14.6,4-22.8,4.2c-5.1,0.1-15.9,0.2-19.2-3.5c-0.5-0.6-1.2-1.7-0.9-4c0.5-4,10.2-12.1,18.9-13.1c4.5-0.5,8.1-0.7,11.2-0.7
				c6.4,0,10.7,0.9,15.9,2.1c2.2,0.5,4.5,1,7.2,1.5c1.9,0.3,5.6,1.2,9,1.9C578.2,462.4,571.8,466.3,564.8,469z M721.1,353.5
				c-1.1-7.7-5.3-13.9-12.1-17.7c-13.5-7.7-31,5.5-39.1,17.2c-1.7,2.5-5.2,8.1-8.9,15c-3.6,6.9-7.3,15-9.4,22.4
				c-3,11-3.1,35.2-3.1,36.2v8.1l6.8-4.4c0.8-0.5,18.4-11.9,21.9-14.5c6.3-4.5,22.8-18.8,31.4-27.8
				C716.2,380.1,723,366.3,721.1,353.5z M672.1,408.8c-2,1.4-9.1,6.1-14.6,9.7c0.1-4,0.3-8.8,0.8-13.5c0.4-4.7,1-9.1,1.8-12.2
				c3.8-14,14.4-31,17-34.8c5.1-7.4,15.1-15.8,23-15.8c1.6,0,3.2,0.3,4.5,1.1c4.4,2.5,7.1,6.4,7.8,11.4c1.4,9.4-4.1,20.9-10.1,27.3
				C694,390.7,678.1,404.4,672.1,408.8z M721.1,353.5c-1.1-7.7-5.3-13.9-12.1-17.7c-13.5-7.7-31,5.5-39.1,17.2
				c-1.7,2.5-5.2,8.1-8.9,15c-3.6,6.9-7.3,15-9.4,22.4c-3,11-3.1,35.2-3.1,36.2v8.1l6.8-4.4c0.8-0.5,18.4-11.9,21.9-14.5
				c6.3-4.5,22.8-18.8,31.4-27.8C716.2,380.1,723,366.3,721.1,353.5z M672.1,408.8c-2,1.4-9.1,6.1-14.6,9.7c0.1-4,0.3-8.8,0.8-13.5
				c0.4-4.7,1-9.1,1.8-12.2c3.8-14,14.4-31,17-34.8c5.1-7.4,15.1-15.8,23-15.8c1.6,0,3.2,0.3,4.5,1.1c4.4,2.5,7.1,6.4,7.8,11.4
				c1.4,9.4-4.1,20.9-10.1,27.3C694,390.7,678.1,404.4,672.1,408.8z M593.6,450.5c-0.5-0.1-12.6-3-17-3.8c-2.5-0.5-4.8-1-6.8-1.4
				c-7.9-1.7-14.7-3.2-29.9-1.5c-11,1.2-25.5,11.1-26.6,20.8c-0.7,5.4,1.3,9,3.1,11c5.2,5.8,15.3,6.4,22.7,6.4c1.1,0,2.1,0,3.1,0
				c21.6-0.3,39.6-8.4,53.7-24.2l4.9-5.5L593.6,450.5z M564.8,469c-7,2.7-14.6,4-22.8,4.2c-5.1,0.1-15.9,0.2-19.2-3.5
				c-0.5-0.6-1.2-1.7-0.9-4c0.5-4,10.2-12.1,18.9-13.1c4.5-0.5,8.1-0.7,11.2-0.7c6.4,0,10.7,0.9,15.9,2.1c2.2,0.5,4.5,1,7.2,1.5
				c1.9,0.3,5.6,1.2,9,1.9C578.2,462.4,571.8,466.3,564.8,469z M280,334.4c-4-2.9-8.4-3.7-12.7-2.3c-10.5,3.4-20.2,13.5-15.6,31.2
				c2.1,8.3,15.2,23.5,24.1,28.1c2,1,3.9,1.6,5.6,1.6c0.9,0,1.8-0.2,2.6-0.5l1.9-0.7l0.7-1.9c0.2-0.6,5.7-15.9,5.7-31.2
				C292.3,351.4,287.3,339.6,280,334.4z M260.2,361.1c-3.6-14,4.6-19,9.8-20.7c0.4-0.1,0.9-0.2,1.4-0.2c0.9,0,2,0.3,3.5,1.3
				c5,3.6,8.6,12.8,8.6,17.2c0,9.7-2.6,19.7-4.1,24.8C273.7,380.3,261.8,367.4,260.2,361.1z M280,334.4c-4-2.9-8.4-3.7-12.7-2.3
				c-10.5,3.4-20.2,13.5-15.6,31.2c2.1,8.3,15.2,23.5,24.1,28.1c2,1,3.9,1.6,5.6,1.6c0.9,0,1.8-0.2,2.6-0.5l1.9-0.7l0.7-1.9
				c0.2-0.6,5.7-15.9,5.7-31.2C292.3,351.4,287.3,339.6,280,334.4z M260.2,361.1c-3.6-14,4.6-19,9.8-20.7c0.4-0.1,0.9-0.2,1.4-0.2
				c0.9,0,2,0.3,3.5,1.3c5,3.6,8.6,12.8,8.6,17.2c0,9.7-2.6,19.7-4.1,24.8C273.7,380.3,261.8,367.4,260.2,361.1z M593.6,450.5
				c-0.5-0.1-12.6-3-17-3.8c-2.5-0.5-4.8-1-6.8-1.4c-7.9-1.7-14.7-3.2-29.9-1.5c-11,1.2-25.5,11.1-26.6,20.8c-0.7,5.4,1.3,9,3.1,11
				c5.2,5.8,15.3,6.4,22.7,6.4c1.1,0,2.1,0,3.1,0c21.6-0.3,39.6-8.4,53.7-24.2l4.9-5.5L593.6,450.5z M564.8,469
				c-7,2.7-14.6,4-22.8,4.2c-5.1,0.1-15.9,0.2-19.2-3.5c-0.5-0.6-1.2-1.7-0.9-4c0.5-4,10.2-12.1,18.9-13.1c4.5-0.5,8.1-0.7,11.2-0.7
				c6.4,0,10.7,0.9,15.9,2.1c2.2,0.5,4.5,1,7.2,1.5c1.9,0.3,5.6,1.2,9,1.9C578.2,462.4,571.8,466.3,564.8,469z M721.1,353.5
				c-1.1-7.7-5.3-13.9-12.1-17.7c-13.5-7.7-31,5.5-39.1,17.2c-1.7,2.5-5.2,8.1-8.9,15c-3.6,6.9-7.3,15-9.4,22.4
				c-3,11-3.1,35.2-3.1,36.2v8.1l6.8-4.4c0.8-0.5,18.4-11.9,21.9-14.5c6.3-4.5,22.8-18.8,31.4-27.8
				C716.2,380.1,723,366.3,721.1,353.5z M672.1,408.8c-2,1.4-9.1,6.1-14.6,9.7c0.1-4,0.3-8.8,0.8-13.5c0.4-4.7,1-9.1,1.8-12.2
				c3.8-14,14.4-31,17-34.8c5.1-7.4,15.1-15.8,23-15.8c1.6,0,3.2,0.3,4.5,1.1c4.4,2.5,7.1,6.4,7.8,11.4c1.4,9.4-4.1,20.9-10.1,27.3
				C694,390.7,678.1,404.4,672.1,408.8z M721.1,353.5c-1.1-7.7-5.3-13.9-12.1-17.7c-13.5-7.7-31,5.5-39.1,17.2
				c-1.7,2.5-5.2,8.1-8.9,15c-3.6,6.9-7.3,15-9.4,22.4c-3,11-3.1,35.2-3.1,36.2v8.1l6.8-4.4c0.8-0.5,18.4-11.9,21.9-14.5
				c6.3-4.5,22.8-18.8,31.4-27.8C716.2,380.1,723,366.3,721.1,353.5z M672.1,408.8c-2,1.4-9.1,6.1-14.6,9.7c0.1-4,0.3-8.8,0.8-13.5
				c0.4-4.7,1-9.1,1.8-12.2c3.8-14,14.4-31,17-34.8c5.1-7.4,15.1-15.8,23-15.8c1.6,0,3.2,0.3,4.5,1.1c4.4,2.5,7.1,6.4,7.8,11.4
				c1.4,9.4-4.1,20.9-10.1,27.3C694,390.7,678.1,404.4,672.1,408.8z M593.6,450.5c-0.5-0.1-12.6-3-17-3.8c-2.5-0.5-4.8-1-6.8-1.4
				c-7.9-1.7-14.7-3.2-29.9-1.5c-11,1.2-25.5,11.1-26.6,20.8c-0.7,5.4,1.3,9,3.1,11c5.2,5.8,15.3,6.4,22.7,6.4c1.1,0,2.1,0,3.1,0
				c21.6-0.3,39.6-8.4,53.7-24.2l4.9-5.5L593.6,450.5z M564.8,469c-7,2.7-14.6,4-22.8,4.2c-5.1,0.1-15.9,0.2-19.2-3.5
				c-0.5-0.6-1.2-1.7-0.9-4c0.5-4,10.2-12.1,18.9-13.1c4.5-0.5,8.1-0.7,11.2-0.7c6.4,0,10.7,0.9,15.9,2.1c2.2,0.5,4.5,1,7.2,1.5
				c1.9,0.3,5.6,1.2,9,1.9C578.2,462.4,571.8,466.3,564.8,469z M280,334.4c-4-2.9-8.4-3.7-12.7-2.3c-10.5,3.4-20.2,13.5-15.6,31.2
				c2.1,8.3,15.2,23.5,24.1,28.1c2,1,3.9,1.6,5.6,1.6c0.9,0,1.8-0.2,2.6-0.5l1.9-0.7l0.7-1.9c0.2-0.6,5.7-15.9,5.7-31.2
				C292.3,351.4,287.3,339.6,280,334.4z M260.2,361.1c-3.6-14,4.6-19,9.8-20.7c0.4-0.1,0.9-0.2,1.4-0.2c0.9,0,2,0.3,3.5,1.3
				c5,3.6,8.6,12.8,8.6,17.2c0,9.7-2.6,19.7-4.1,24.8C273.7,380.3,261.8,367.4,260.2,361.1z M280,334.4c-4-2.9-8.4-3.7-12.7-2.3
				c-10.5,3.4-20.2,13.5-15.6,31.2c2.1,8.3,15.2,23.5,24.1,28.1c2,1,3.9,1.6,5.6,1.6c0.9,0,1.8-0.2,2.6-0.5l1.9-0.7l0.7-1.9
				c0.2-0.6,5.7-15.9,5.7-31.2C292.3,351.4,287.3,339.6,280,334.4z M260.2,361.1c-3.6-14,4.6-19,9.8-20.7c0.4-0.1,0.9-0.2,1.4-0.2
				c0.9,0,2,0.3,3.5,1.3c5,3.6,8.6,12.8,8.6,17.2c0,9.7-2.6,19.7-4.1,24.8C273.7,380.3,261.8,367.4,260.2,361.1z M593.6,450.5
				c-0.5-0.1-12.6-3-17-3.8c-2.5-0.5-4.8-1-6.8-1.4c-7.9-1.7-14.7-3.2-29.9-1.5c-11,1.2-25.5,11.1-26.6,20.8c-0.7,5.4,1.3,9,3.1,11
				c5.2,5.8,15.3,6.4,22.7,6.4c1.1,0,2.1,0,3.1,0c21.6-0.3,39.6-8.4,53.7-24.2l4.9-5.5L593.6,450.5z M564.8,469
				c-7,2.7-14.6,4-22.8,4.2c-5.1,0.1-15.9,0.2-19.2-3.5c-0.5-0.6-1.2-1.7-0.9-4c0.5-4,10.2-12.1,18.9-13.1c4.5-0.5,8.1-0.7,11.2-0.7
				c6.4,0,10.7,0.9,15.9,2.1c2.2,0.5,4.5,1,7.2,1.5c1.9,0.3,5.6,1.2,9,1.9C578.2,462.4,571.8,466.3,564.8,469z M721.1,353.5
				c-1.1-7.7-5.3-13.9-12.1-17.7c-13.5-7.7-31,5.5-39.1,17.2c-1.7,2.5-5.2,8.1-8.9,15c-3.6,6.9-7.3,15-9.4,22.4
				c-3,11-3.1,35.2-3.1,36.2v8.1l6.8-4.4c0.8-0.5,18.4-11.9,21.9-14.5c6.3-4.5,22.8-18.8,31.4-27.8
				C716.2,380.1,723,366.3,721.1,353.5z M672.1,408.8c-2,1.4-9.1,6.1-14.6,9.7c0.1-4,0.3-8.8,0.8-13.5c0.4-4.7,1-9.1,1.8-12.2
				c3.8-14,14.4-31,17-34.8c5.1-7.4,15.1-15.8,23-15.8c1.6,0,3.2,0.3,4.5,1.1c4.4,2.5,7.1,6.4,7.8,11.4c1.4,9.4-4.1,20.9-10.1,27.3
				C694,390.7,678.1,404.4,672.1,408.8z M721.1,353.5c-1.1-7.7-5.3-13.9-12.1-17.7c-13.5-7.7-31,5.5-39.1,17.2
				c-1.7,2.5-5.2,8.1-8.9,15c-3.6,6.9-7.3,15-9.4,22.4c-3,11-3.1,35.2-3.1,36.2v8.1l6.8-4.4c0.8-0.5,18.4-11.9,21.9-14.5
				c6.3-4.5,22.8-18.8,31.4-27.8C716.2,380.1,723,366.3,721.1,353.5z M672.1,408.8c-2,1.4-9.1,6.1-14.6,9.7c0.1-4,0.3-8.8,0.8-13.5
				c0.4-4.7,1-9.1,1.8-12.2c3.8-14,14.4-31,17-34.8c5.1-7.4,15.1-15.8,23-15.8c1.6,0,3.2,0.3,4.5,1.1c4.4,2.5,7.1,6.4,7.8,11.4
				c1.4,9.4-4.1,20.9-10.1,27.3C694,390.7,678.1,404.4,672.1,408.8z M593.6,450.5c-0.5-0.1-12.6-3-17-3.8c-2.5-0.5-4.8-1-6.8-1.4
				c-7.9-1.7-14.7-3.2-29.9-1.5c-11,1.2-25.5,11.1-26.6,20.8c-0.7,5.4,1.3,9,3.1,11c5.2,5.8,15.3,6.4,22.7,6.4c1.1,0,2.1,0,3.1,0
				c21.6-0.3,39.6-8.4,53.7-24.2l4.9-5.5L593.6,450.5z M564.8,469c-7,2.7-14.6,4-22.8,4.2c-5.1,0.1-15.9,0.2-19.2-3.5
				c-0.5-0.6-1.2-1.7-0.9-4c0.5-4,10.2-12.1,18.9-13.1c4.5-0.5,8.1-0.7,11.2-0.7c6.4,0,10.7,0.9,15.9,2.1c2.2,0.5,4.5,1,7.2,1.5
				c1.9,0.3,5.6,1.2,9,1.9C578.2,462.4,571.8,466.3,564.8,469z M280,334.4c-4-2.9-8.4-3.7-12.7-2.3c-10.5,3.4-20.2,13.5-15.6,31.2
				c2.1,8.3,15.2,23.5,24.1,28.1c2,1,3.9,1.6,5.6,1.6c0.9,0,1.8-0.2,2.6-0.5l1.9-0.7l0.7-1.9c0.2-0.6,5.7-15.9,5.7-31.2
				C292.3,351.4,287.3,339.6,280,334.4z M260.2,361.1c-3.6-14,4.6-19,9.8-20.7c0.4-0.1,0.9-0.2,1.4-0.2c0.9,0,2,0.3,3.5,1.3
				c5,3.6,8.6,12.8,8.6,17.2c0,9.7-2.6,19.7-4.1,24.8C273.7,380.3,261.8,367.4,260.2,361.1z M280,334.4c-4-2.9-8.4-3.7-12.7-2.3
				c-10.5,3.4-20.2,13.5-15.6,31.2c2.1,8.3,15.2,23.5,24.1,28.1c2,1,3.9,1.6,5.6,1.6c0.9,0,1.8-0.2,2.6-0.5l1.9-0.7l0.7-1.9
				c0.2-0.6,5.7-15.9,5.7-31.2C292.3,351.4,287.3,339.6,280,334.4z M260.2,361.1c-3.6-14,4.6-19,9.8-20.7c0.4-0.1,0.9-0.2,1.4-0.2
				c0.9,0,2,0.3,3.5,1.3c5,3.6,8.6,12.8,8.6,17.2c0,9.7-2.6,19.7-4.1,24.8C273.7,380.3,261.8,367.4,260.2,361.1z M593.6,450.5
				c-0.5-0.1-12.6-3-17-3.8c-2.5-0.5-4.8-1-6.8-1.4c-7.9-1.7-14.7-3.2-29.9-1.5c-11,1.2-25.5,11.1-26.6,20.8c-0.7,5.4,1.3,9,3.1,11
				c5.2,5.8,15.3,6.4,22.7,6.4c1.1,0,2.1,0,3.1,0c21.6-0.3,39.6-8.4,53.7-24.2l4.9-5.5L593.6,450.5z M564.8,469
				c-7,2.7-14.6,4-22.8,4.2c-5.1,0.1-15.9,0.2-19.2-3.5c-0.5-0.6-1.2-1.7-0.9-4c0.5-4,10.2-12.1,18.9-13.1c4.5-0.5,8.1-0.7,11.2-0.7
				c6.4,0,10.7,0.9,15.9,2.1c2.2,0.5,4.5,1,7.2,1.5c1.9,0.3,5.6,1.2,9,1.9C578.2,462.4,571.8,466.3,564.8,469z M721.1,353.5
				c-1.1-7.7-5.3-13.9-12.1-17.7c-13.5-7.7-31,5.5-39.1,17.2c-1.7,2.5-5.2,8.1-8.9,15c-3.6,6.9-7.3,15-9.4,22.4
				c-3,11-3.1,35.2-3.1,36.2v8.1l6.8-4.4c0.8-0.5,18.4-11.9,21.9-14.5c6.3-4.5,22.8-18.8,31.4-27.8
				C716.2,380.1,723,366.3,721.1,353.5z M672.1,408.8c-2,1.4-9.1,6.1-14.6,9.7c0.1-4,0.3-8.8,0.8-13.5c0.4-4.7,1-9.1,1.8-12.2
				c3.8-14,14.4-31,17-34.8c5.1-7.4,15.1-15.8,23-15.8c1.6,0,3.2,0.3,4.5,1.1c4.4,2.5,7.1,6.4,7.8,11.4c1.4,9.4-4.1,20.9-10.1,27.3
				C694,390.7,678.1,404.4,672.1,408.8z M721.1,353.5c-1.1-7.7-5.3-13.9-12.1-17.7c-13.5-7.7-31,5.5-39.1,17.2
				c-1.7,2.5-5.2,8.1-8.9,15c-3.6,6.9-7.3,15-9.4,22.4c-3,11-3.1,35.2-3.1,36.2v8.1l6.8-4.4c0.8-0.5,18.4-11.9,21.9-14.5
				c6.3-4.5,22.8-18.8,31.4-27.8C716.2,380.1,723,366.3,721.1,353.5z M672.1,408.8c-2,1.4-9.1,6.1-14.6,9.7c0.1-4,0.3-8.8,0.8-13.5
				c0.4-4.7,1-9.1,1.8-12.2c3.8-14,14.4-31,17-34.8c5.1-7.4,15.1-15.8,23-15.8c1.6,0,3.2,0.3,4.5,1.1c4.4,2.5,7.1,6.4,7.8,11.4
				c1.4,9.4-4.1,20.9-10.1,27.3C694,390.7,678.1,404.4,672.1,408.8z M593.6,450.5c-0.5-0.1-12.6-3-17-3.8c-2.5-0.5-4.8-1-6.8-1.4
				c-7.9-1.7-14.7-3.2-29.9-1.5c-11,1.2-25.5,11.1-26.6,20.8c-0.7,5.4,1.3,9,3.1,11c5.2,5.8,15.3,6.4,22.7,6.4c1.1,0,2.1,0,3.1,0
				c21.6-0.3,39.6-8.4,53.7-24.2l4.9-5.5L593.6,450.5z M564.8,469c-7,2.7-14.6,4-22.8,4.2c-5.1,0.1-15.9,0.2-19.2-3.5
				c-0.5-0.6-1.2-1.7-0.9-4c0.5-4,10.2-12.1,18.9-13.1c4.5-0.5,8.1-0.7,11.2-0.7c6.4,0,10.7,0.9,15.9,2.1c2.2,0.5,4.5,1,7.2,1.5
				c1.9,0.3,5.6,1.2,9,1.9C578.2,462.4,571.8,466.3,564.8,469z M280,334.4c-4-2.9-8.4-3.7-12.7-2.3c-10.5,3.4-20.2,13.5-15.6,31.2
				c2.1,8.3,15.2,23.5,24.1,28.1c2,1,3.9,1.6,5.6,1.6c0.9,0,1.8-0.2,2.6-0.5l1.9-0.7l0.7-1.9c0.2-0.6,5.7-15.9,5.7-31.2
				C292.3,351.4,287.3,339.6,280,334.4z M260.2,361.1c-3.6-14,4.6-19,9.8-20.7c0.4-0.1,0.9-0.2,1.4-0.2c0.9,0,2,0.3,3.5,1.3
				c5,3.6,8.6,12.8,8.6,17.2c0,9.7-2.6,19.7-4.1,24.8C273.7,380.3,261.8,367.4,260.2,361.1z M280,334.4c-4-2.9-8.4-3.7-12.7-2.3
				c-10.5,3.4-20.2,13.5-15.6,31.2c2.1,8.3,15.2,23.5,24.1,28.1c2,1,3.9,1.6,5.6,1.6c0.9,0,1.8-0.2,2.6-0.5l1.9-0.7l0.7-1.9
				c0.2-0.6,5.7-15.9,5.7-31.2C292.3,351.4,287.3,339.6,280,334.4z M260.2,361.1c-3.6-14,4.6-19,9.8-20.7c0.4-0.1,0.9-0.2,1.4-0.2
				c0.9,0,2,0.3,3.5,1.3c5,3.6,8.6,12.8,8.6,17.2c0,9.7-2.6,19.7-4.1,24.8C273.7,380.3,261.8,367.4,260.2,361.1z M593.6,450.5
				c-0.5-0.1-12.6-3-17-3.8c-2.5-0.5-4.8-1-6.8-1.4c-7.9-1.7-14.7-3.2-29.9-1.5c-11,1.2-25.5,11.1-26.6,20.8c-0.7,5.4,1.3,9,3.1,11
				c5.2,5.8,15.3,6.4,22.7,6.4c1.1,0,2.1,0,3.1,0c21.6-0.3,39.6-8.4,53.7-24.2l4.9-5.5L593.6,450.5z M564.8,469
				c-7,2.7-14.6,4-22.8,4.2c-5.1,0.1-15.9,0.2-19.2-3.5c-0.5-0.6-1.2-1.7-0.9-4c0.5-4,10.2-12.1,18.9-13.1c4.5-0.5,8.1-0.7,11.2-0.7
				c6.4,0,10.7,0.9,15.9,2.1c2.2,0.5,4.5,1,7.2,1.5c1.9,0.3,5.6,1.2,9,1.9C578.2,462.4,571.8,466.3,564.8,469z M721.1,353.5
				c-1.1-7.7-5.3-13.9-12.1-17.7c-13.5-7.7-31,5.5-39.1,17.2c-1.7,2.5-5.2,8.1-8.9,15c-3.6,6.9-7.3,15-9.4,22.4
				c-3,11-3.1,35.2-3.1,36.2v8.1l6.8-4.4c0.8-0.5,18.4-11.9,21.9-14.5c6.3-4.5,22.8-18.8,31.4-27.8
				C716.2,380.1,723,366.3,721.1,353.5z M672.1,408.8c-2,1.4-9.1,6.1-14.6,9.7c0.1-4,0.3-8.8,0.8-13.5c0.4-4.7,1-9.1,1.8-12.2
				c3.8-14,14.4-31,17-34.8c5.1-7.4,15.1-15.8,23-15.8c1.6,0,3.2,0.3,4.5,1.1c4.4,2.5,7.1,6.4,7.8,11.4c1.4,9.4-4.1,20.9-10.1,27.3
				C694,390.7,678.1,404.4,672.1,408.8z M593.6,450.5c-0.5-0.1-12.6-3-17-3.8c-2.5-0.5-4.8-1-6.8-1.4c-7.9-1.7-14.7-3.2-29.9-1.5
				c-11,1.2-25.5,11.1-26.6,20.8c-0.7,5.4,1.3,9,3.1,11c5.2,5.8,15.3,6.4,22.7,6.4c1.1,0,2.1,0,3.1,0c21.6-0.3,39.6-8.4,53.7-24.2
				l4.9-5.5L593.6,450.5z M564.8,469c-7,2.7-14.6,4-22.8,4.2c-5.1,0.1-15.9,0.2-19.2-3.5c-0.5-0.6-1.2-1.7-0.9-4
				c0.5-4,10.2-12.1,18.9-13.1c4.5-0.5,8.1-0.7,11.2-0.7c6.4,0,10.7,0.9,15.9,2.1c2.2,0.5,4.5,1,7.2,1.5c1.9,0.3,5.6,1.2,9,1.9
				C578.2,462.4,571.8,466.3,564.8,469z M721.1,353.5c-1.1-7.7-5.3-13.9-12.1-17.7c-13.5-7.7-31,5.5-39.1,17.2
				c-1.7,2.5-5.2,8.1-8.9,15c-3.6,6.9-7.3,15-9.4,22.4c-3,11-3.1,35.2-3.1,36.2v8.1l6.8-4.4c0.8-0.5,18.4-11.9,21.9-14.5
				c6.3-4.5,22.8-18.8,31.4-27.8C716.2,380.1,723,366.3,721.1,353.5z M672.1,408.8c-2,1.4-9.1,6.1-14.6,9.7c0.1-4,0.3-8.8,0.8-13.5
				c0.4-4.7,1-9.1,1.8-12.2c3.8-14,14.4-31,17-34.8c5.1-7.4,15.1-15.8,23-15.8c1.6,0,3.2,0.3,4.5,1.1c4.4,2.5,7.1,6.4,7.8,11.4
				c1.4,9.4-4.1,20.9-10.1,27.3C694,390.7,678.1,404.4,672.1,408.8z M280,334.4c-4-2.9-8.4-3.7-12.7-2.3
				c-10.5,3.4-20.2,13.5-15.6,31.2c2.1,8.3,15.2,23.5,24.1,28.1c2,1,3.9,1.6,5.6,1.6c0.9,0,1.8-0.2,2.6-0.5l1.9-0.7l0.7-1.9
				c0.2-0.6,5.7-15.9,5.7-31.2C292.3,351.4,287.3,339.6,280,334.4z M260.2,361.1c-3.6-14,4.6-19,9.8-20.7c0.4-0.1,0.9-0.2,1.4-0.2
				c0.9,0,2,0.3,3.5,1.3c5,3.6,8.6,12.8,8.6,17.2c0,9.7-2.6,19.7-4.1,24.8C273.7,380.3,261.8,367.4,260.2,361.1z"/>
		</g>
	</g>
</g>
<path class="st0" d="M307.4,574.3c0,14.8-10.9,25.1-26.4,25.1h-14.1v-50.3H281C296.5,549.1,307.4,559.5,307.4,574.3z"/>
<path class="st0" d="M856.8,553.3l-12.6,28.1h25.1L856.8,553.3z M856.8,553.3l-12.6,28.1h25.1L856.8,553.3z M856.8,553.3l-12.6,28.1
	h25.1L856.8,553.3z M856.8,553.3l-12.6,28.1h25.1L856.8,553.3z M856.8,553.3l-12.6,28.1h25.1L856.8,553.3z M856.8,553.3l-12.6,28.1
	h25.1L856.8,553.3z M856.8,553.3l-12.6,28.1h25.1L856.8,553.3z M399,553.3l-12.6,28.1h25.1L399,553.3z M399,553.3l-12.6,28.1h25.1
	L399,553.3z M399,553.3l-12.6,28.1h25.1L399,553.3z M399,553.3l-12.6,28.1h25.1L399,553.3z M399,553.3l-12.6,28.1h25.1L399,553.3z
	 M399,553.3l-12.6,28.1h25.1L399,553.3z M399,553.3l-12.6,28.1h25.1L399,553.3z M399,553.3l-12.6,28.1h25.1L399,553.3z M281,549.1
	h-14.1v50.3H281c15.6,0,26.4-10.3,26.4-25.1C307.4,559.5,296.5,549.1,281,549.1z M399,553.3l-12.6,28.1h25.1L399,553.3z
	 M856.8,553.3l-12.6,28.1h25.1L856.8,553.3z M281,549.1h-14.1v50.3H281c15.6,0,26.4-10.3,26.4-25.1
	C307.4,559.5,296.5,549.1,281,549.1z M399,553.3l-12.6,28.1h25.1L399,553.3z M856.8,553.3l-12.6,28.1h25.1L856.8,553.3z M399,553.3
	l-12.6,28.1h25.1L399,553.3z M399,553.3l-12.6,28.1h25.1L399,553.3z M399,553.3l-12.6,28.1h25.1L399,553.3z M399,553.3l-12.6,28.1
	h25.1L399,553.3z M399,553.3l-12.6,28.1h25.1L399,553.3z M399,553.3l-12.6,28.1h25.1L399,553.3z M399,553.3l-12.6,28.1h25.1
	L399,553.3z M281,549.1h-14.1v50.3H281c15.6,0,26.4-10.3,26.4-25.1C307.4,559.5,296.5,549.1,281,549.1z M399,553.3l-12.6,28.1h25.1
	L399,553.3z M856.8,553.3l-12.6,28.1h25.1L856.8,553.3z"/>
<path class="st0" d="M214.5,522.8v105.8h878V522.8H214.5z M281,610.6h-25.8v-72.7H281c22.3,0,38.5,15.2,38.5,36.2
	C319.5,595.2,303.3,610.6,281,610.6z M424.3,610.6l-8-18.1h-34.8l-8.1,18.1H361l33.1-73.2h9.8l33.1,73.2H424.3z M545.6,600.1
	l-0.7,0.6c-4.6,4.1-14.5,11-28.9,11c-21.7,0-36.9-15.4-36.9-37.4c0-21.1,16-37.6,36.4-37.6c11,0,18.8,2.8,26.9,9.6l1.5,1.3l-7.6,9
	l-1.5-1.3c-4.4-3.8-9.8-7.3-19.6-7.3c-13.5,0-24.1,11.5-24.1,26.2c0,15.9,10.1,26.6,25.2,26.6c6.3,0,12.9-2.2,17.8-5.8v-14.1h-20.9
	v-11h32.4V600.1z M654.4,610.6h-54.1v-72.7h53.6V549H612v19.4h37.5v11.1H612v20h42.4V610.6z M769.8,610.6h-9.2L719.2,558v52.5h-11.5
	v-72.7h10.2l40.3,51.2v-51.2h11.5V610.6z M882.2,610.6l-8-18.1h-34.8l-8.1,18.1h-12.3l33.1-73.2h9.8l33.1,73.2H882.2z M957.5,610.6
	h-11.8v-72.7h11.8V610.6z M1040.8,611.5c-11.3,0-20.6-3.6-29.4-11.5l-1.5-1.3l7.4-8.8l1.5,1.4c7.2,6.5,13.7,9.2,22.2,9.2
	c8,0,13.3-3.9,13.3-9.8c0-4.4-1.2-8-16.3-11.2c-14.8-3.2-24.6-8.2-24.6-21.9c0-12.1,10.3-20.8,24.6-20.8c10,0,17.6,2.7,25.4,8.9
	l1.5,1.2l-6.9,9.2l-1.6-1.3c-5.9-4.8-11.8-7-18.5-7c-7.4,0-12.6,3.8-12.6,9.2c0,5.3,2.6,8.4,17.1,11.5c8.4,1.8,14.4,4.3,18.3,7.8
	c3.9,3.5,5.7,7.9,5.7,13.6C1066.2,602.7,1055.8,611.5,1040.8,611.5z"/>
</svg>
